<svg width="59" height="59" viewBox="0 0 59 59" fill="none" xmlns="http://www.w3.org/2000/svg">
<rect width="59" height="59" rx="8" fill="#00103C"/>
<path d="M27.5284 46.7009C27.5284 46.5372 27.4053 46.1057 27.1591 45.4062C26.9129 44.7068 26.6193 43.9107 26.2784 43.0179C25.9375 42.125 25.7481 41.6116 25.7102 41.4777C25.6913 41.4182 25.6439 41.221 25.5682 40.8862C25.4924 40.5513 25.4119 40.2835 25.3267 40.0826C25.2415 39.8817 25.1136 39.7217 24.9432 39.6027C24.6591 39.3943 24.1761 39.2902 23.4943 39.2902C23.0587 39.2902 22.3958 39.3311 21.5057 39.4129C20.6155 39.4948 19.9432 39.5357 19.4886 39.5357C18.8447 39.5357 18.3996 39.4539 18.1534 39.2902C18.0398 39.2158 17.9356 39.1004 17.8409 38.9442C17.7462 38.7879 17.6752 38.6391 17.6278 38.4978C17.5805 38.3564 17.5189 38.1778 17.4432 37.9621C17.3674 37.7463 17.3201 37.6086 17.3011 37.5491C16.6004 35.6443 16.25 33.747 16.25 31.8571C16.25 29.9673 16.6004 28.0699 17.3011 26.1652C17.3201 26.1057 17.3674 25.968 17.4432 25.7522C17.5189 25.5365 17.5805 25.3579 17.6278 25.2165C17.6752 25.0751 17.7462 24.9263 17.8409 24.7701C17.9356 24.6138 18.0398 24.4985 18.1534 24.4241C18.3996 24.2604 18.8447 24.1786 19.4886 24.1786C19.9432 24.1786 20.6155 24.2195 21.5057 24.3013C22.3958 24.3832 23.0587 24.4241 23.4943 24.4241C24.1761 24.4241 24.6591 24.3199 24.9432 24.1116C25.1136 23.9926 25.2415 23.8326 25.3267 23.6317C25.4119 23.4308 25.4924 23.1629 25.5682 22.8281C25.6439 22.4933 25.6913 22.2961 25.7102 22.2366C25.7481 22.1027 25.9375 21.5893 26.2784 20.6964C26.6193 19.8036 26.9129 19.0074 27.1591 18.308C27.4053 17.6086 27.5284 17.1771 27.5284 17.0134C27.5284 16.686 27.1165 16.2954 26.2926 15.8415C25.4688 15.3876 24.7538 15.0714 24.1477 14.8929C23.7689 14.7738 23.3428 14.7143 22.8693 14.7143C22.2254 14.7143 21.2973 14.8482 20.0852 15.1161C19.0057 15.369 18.0919 15.6704 17.3438 16.0201C16.5956 16.3698 15.9233 16.8609 15.3267 17.4933C14.7301 18.1257 14.2945 18.6466 14.0199 19.0558C13.7453 19.465 13.3144 20.1682 12.7273 21.1652C12.6136 21.3438 12.5284 21.4851 12.4716 21.5893C11.5436 23.1815 10.8996 24.7887 10.5398 26.4107C10.1799 28.0327 10 29.8482 10 31.8571C10 33.8661 10.1799 35.6815 10.5398 37.3036C10.8996 38.9256 11.5436 40.5327 12.4716 42.125C13.5322 43.9405 14.3182 45.1384 14.8295 45.7188C16.0227 47.0729 17.7178 48.0179 19.9148 48.5536L20.0852 48.5982C21.2973 48.8661 22.2254 49 22.8693 49C23.3428 49 23.7689 48.9405 24.1477 48.8214C24.7538 48.6429 25.4688 48.3266 26.2926 47.8728C27.1165 47.4189 27.5284 47.0283 27.5284 46.7009ZM32.0455 26.3214C31.553 26.3214 31.1269 26.1801 30.767 25.8973C30.4072 25.6146 30.2273 25.276 30.2273 24.8817C30.2273 24.4874 30.4072 24.1488 30.767 23.8661C31.4678 23.3155 31.8182 22.6458 31.8182 21.8571C31.8182 21.0833 31.4678 20.4062 30.767 19.8259C30.4072 19.5432 30.2273 19.2083 30.2273 18.8214C30.2273 18.4345 30.4072 18.0997 30.767 17.817C31.1269 17.5342 31.553 17.3929 32.0455 17.3929C32.5379 17.3929 32.964 17.5342 33.3239 17.817C34.7443 18.933 35.4545 20.2798 35.4545 21.8571C35.4545 23.4345 34.7443 24.7812 33.3239 25.8973C32.9261 26.1801 32.5 26.3214 32.0455 26.3214ZM37.1875 30.3616C36.6761 30.3616 36.25 30.2202 35.9091 29.9375C35.5492 29.6548 35.3693 29.3199 35.3693 28.933C35.3693 28.5461 35.5492 28.2113 35.9091 27.9286C38.0303 26.2321 39.0909 24.2083 39.0909 21.8571C39.0909 19.506 38.0303 17.4821 35.9091 15.7857C35.5492 15.503 35.3693 15.1682 35.3693 14.7812C35.3693 14.3943 35.5492 14.0595 35.9091 13.7768C36.2689 13.494 36.6951 13.3527 37.1875 13.3527C37.6799 13.3527 38.1061 13.494 38.4659 13.7768C41.3068 16.0089 42.7273 18.7024 42.7273 21.8571C42.7273 25.0119 41.3068 27.7054 38.4659 29.9375C38.125 30.2202 37.6989 30.3616 37.1875 30.3616ZM42.3295 34.4018C41.8182 34.4018 41.392 34.2604 41.0511 33.9777C40.6913 33.6949 40.5114 33.3601 40.5114 32.9732C40.5114 32.5863 40.6913 32.2515 41.0511 31.9688C42.7557 30.6146 44.0672 29.067 44.9858 27.3259C45.9044 25.5848 46.3636 23.7619 46.3636 21.8571C46.3636 19.9524 45.9044 18.1295 44.9858 16.3884C44.0672 14.6473 42.7557 13.0997 41.0511 11.7455C40.6913 11.4628 40.5114 11.128 40.5114 10.7411C40.5114 10.3542 40.6913 10.0193 41.0511 9.73661C41.411 9.45387 41.8371 9.3125 42.3295 9.3125C42.822 9.3125 43.2481 9.45387 43.608 9.73661C45.6723 11.3586 47.2538 13.2113 48.3523 15.2946C49.4508 17.378 50 19.5655 50 21.8571C50 24.1488 49.4508 26.3363 48.3523 28.4196C47.2538 30.503 45.6723 32.3557 43.608 33.9777C43.267 34.2604 42.8409 34.4018 42.3295 34.4018Z" fill="#2BC3FC"/>
</svg>
