<svg width="231" height="196" viewBox="0 0 231 196" fill="none" xmlns="http://www.w3.org/2000/svg">
<path opacity="0.19" d="M115 196C169.124 196 213 152.124 213 98C213 43.8761 169.124 0 115 0C60.8761 0 17 43.8761 17 98C17 152.124 60.8761 196 115 196Z" fill="url(#paint0_linear_159_2409)"/>
<path d="M60.9157 180.326H63.2666L45.0281 134.161H33.9035L15.665 180.326H18.0159L36.4764 140.047C36.8918 139.141 37.7969 138.56 38.7934 138.56H40.1382C41.1347 138.56 42.0399 139.141 42.4552 140.047L60.9157 180.326Z" fill="#712248"/>
<path d="M45.2507 180.326H47.6015L29.3631 134.161H18.2385L0 180.326H2.35089L20.8114 140.047C21.2267 139.141 22.1319 138.56 23.1284 138.56H24.4732C25.4697 138.56 26.3748 139.141 26.7901 140.047L45.2507 180.326Z" fill="#AC4843"/>
<path d="M55.8069 130.645V130.647C55.7872 130.934 55.613 131.211 55.2648 131.319C52.0066 133.492 48.8249 135.389 45.6142 135.357C43.7964 135.603 41.2321 135.373 39.3933 135.302L11.2527 133.895C8.52877 133.791 6.27706 131.736 5.92354 129.033L1.96228 98.7342C1.84095 97.8052 2.52023 96.9646 3.45284 96.8895L3.48451 96.8868L21.6962 95.405C22.5668 95.335 23.3793 95.8444 23.692 96.6598C24.2803 98.1998 25.2683 101.034 26.3302 105.166C27.375 109.231 28.0015 117.289 28.3286 122.859C28.5265 126.226 31.265 128.882 34.6353 128.979L55.0565 129.806C55.5657 129.819 55.8361 130.243 55.807 130.645L55.8069 130.645Z" fill="#AEC9A4"/>
<path d="M55.8081 130.645V130.647C52.8836 132.54 50.0132 134.08 47.1178 134.051C45.3001 134.296 42.737 134.066 40.8982 133.996L12.7563 132.588C10.0323 132.485 7.78063 130.43 7.4271 127.726L3.46714 97.4265C3.44341 97.2418 3.44997 97.0597 3.48561 96.8868L21.6973 95.405C22.5679 95.335 23.3804 95.8444 23.6931 96.6598C24.2814 98.1998 25.2694 101.034 26.3313 105.166C27.3761 109.231 28.0026 117.289 28.3298 122.859C28.5276 126.226 31.2661 128.882 34.6364 128.979L55.0576 129.806C55.5668 129.819 55.8372 130.243 55.8081 130.645Z" fill="#C8DAC1"/>
<path d="M75.092 165.61L79.4114 171.706L77.2518 175.332L69.8984 171.346L75.092 165.61Z" fill="#FCCFBF"/>
<path d="M92.8502 170.843C92.8502 170.843 92.113 171.963 89.7477 174.444C87.3818 176.924 82.1882 180.326 82.1882 180.326H75.9667V178.444C75.2468 177.724 75.0925 175.821 75.0925 175.821L74.6798 175.162C74.4844 174.848 74.6899 174.439 75.0578 174.408C76.9773 174.25 77.431 173.558 78.2807 172.374C78.6508 171.858 78.8376 171.347 78.9523 170.914C79.1355 170.225 79.1377 169.734 79.4118 169.734C79.8576 169.734 80.783 170.843 80.783 170.843L86.5768 171.039C86.5768 171.039 87.8102 169.254 88.9759 168.928C90.1416 168.603 91.3448 170.334 91.3448 170.334L91.7415 169.893L92.8502 170.843Z" fill="#FA856D"/>
<path d="M92.8493 170.843C92.8493 170.843 92.1121 171.963 89.7468 174.444C87.3809 176.924 82.1873 180.326 82.1873 180.326H75.9658V178.444C75.9658 178.444 79.9252 178.804 81.2106 178.496C82.496 178.187 84.9132 176.541 86.9697 174.895C89.0269 173.249 91.3439 170.334 91.3439 170.334L91.7406 169.893L92.8493 170.843Z" fill="#FCFBF0"/>
<path d="M86.1611 172.066C85.6086 172.374 80.8853 172.306 80.2686 172.066C79.9238 171.932 79.3727 171.378 78.9521 170.915C79.1354 170.225 79.1375 169.734 79.4116 169.734C79.8574 169.734 80.7829 170.843 80.7829 170.843L86.5766 171.039C86.5766 171.039 86.7137 171.757 86.1611 172.066Z" fill="#C94015"/>
<path d="M75.092 165.61L76.1631 167.122L73.868 173.498L69.8984 171.346L75.092 165.61Z" fill="#FCA98F"/>
<path d="M50.4439 121.321L62.2362 142.297L74.5517 163.218L67.4556 170.24C67.4556 170.24 53.2632 156.197 48.5581 147.864C48.5581 147.864 32.2832 131.892 29.7378 125.333C27.1925 118.775 29.0436 117.077 29.0436 117.077L50.4439 121.321V121.321Z" fill="#6881BD"/>
<path d="M68.9476 167.617C68.8413 167.617 68.736 167.57 68.6648 167.48C68.5673 167.357 58.8953 155.14 55.9725 150.226L38.0132 126.632C37.8925 126.474 37.9232 126.247 38.0816 126.126C38.2401 126.006 38.4663 126.036 38.5871 126.195L56.5589 149.805C56.5673 149.816 56.5751 149.828 56.5821 149.84C59.4672 154.701 69.1326 166.909 69.2299 167.032C69.3536 167.188 69.3275 167.415 69.1714 167.539C69.1051 167.592 69.026 167.617 68.9475 167.617H68.9476Z" fill="#49519C"/>
<path d="M74.6801 161.572L76.197 163.064L77.534 163.964C77.534 163.964 72.7518 170.6 69.538 172.94C69.538 172.94 68.4067 172.323 68.1239 171.603C68.1239 171.603 66.6584 171.346 66.3499 170.548C66.0414 169.751 74.6802 161.572 74.6802 161.572L74.6801 161.572Z" fill="#FCFBF0"/>
<path d="M73.3692 167.617C73.3128 167.617 73.2556 167.604 73.2023 167.576C73.0258 167.483 72.9576 167.265 73.05 167.089L74.7726 163.797C74.8649 163.62 75.0828 163.552 75.2594 163.644C75.4359 163.737 75.5041 163.955 75.4117 164.131L73.6891 167.423C73.6247 167.547 73.4992 167.617 73.3693 167.617L73.3692 167.617Z" fill="#CBD3E9"/>
<path d="M17.9115 118.444C17.9115 118.444 17.0888 123.25 19.1457 126.414C21.2025 129.577 44.6508 144.289 44.6508 144.289L37.8117 160.544L48.1988 166.15L56.3235 148.661C56.3235 148.661 58.1746 145.909 57.8661 143.659C57.5576 141.408 37.8249 119.932 37.8249 119.932L17.9115 118.444Z" fill="#6881BD"/>
<path d="M42.4399 161.933C42.3879 161.933 42.3352 161.922 42.2852 161.898C42.1053 161.812 42.0289 161.597 42.1144 161.417L49.9305 144.982C49.9667 144.906 50.0288 144.845 50.1056 144.81C50.3157 144.713 50.3432 144.604 50.3522 144.568C50.412 144.331 50.2016 143.981 50.1232 143.877C50.1131 143.863 50.1037 143.849 50.0954 143.834C49.6159 143.217 41.9809 137.116 35.8412 132.209C28.4996 126.342 25.2546 123.734 24.9923 123.379C24.3622 122.526 24.5096 119.972 24.5455 119.469C24.5597 119.27 24.7323 119.12 24.9309 119.135C25.1296 119.149 25.2792 119.322 25.2651 119.52C25.1895 120.583 25.2061 122.454 25.5725 122.95C25.8997 123.341 31.1826 127.562 36.2915 131.645C39.6908 134.362 43.2059 137.171 45.9292 139.381C50.1666 142.819 50.6232 143.296 50.7208 143.471C50.8279 143.621 51.191 144.183 51.0526 144.741C51.0035 144.939 50.8721 145.205 50.5298 145.402L42.7658 161.727C42.7041 161.857 42.5748 161.933 42.4399 161.933V161.933Z" fill="#49519C"/>
<path d="M37.7959 157.843L50.4355 164.839C50.4355 164.839 50.2298 165.302 49.7156 165.662L48.5929 168.225C48.5929 168.225 40.3311 164.556 35.6689 161.024C35.6689 161.024 36.3546 159.48 36.9031 159.343C36.9031 159.343 37.249 157.851 37.7959 157.843H37.7959Z" fill="#FCFBF0"/>
<path d="M39.272 163.527L36.7822 171.01L41.6741 174.074L46.2812 167.233L39.272 163.527Z" fill="#FCCFBF"/>
<path d="M55.4945 178.54V180.326H38.6104C38.6104 180.326 37.3039 180.25 34.4543 178.636C31.6048 177.02 30.6074 175.975 30.6074 175.975L31.8899 174.074L32.5069 174.439C32.5069 174.439 33.6788 172.095 34.8188 171.493C34.8188 171.493 36.2119 169.751 36.5916 168.959C36.9714 168.167 37.517 168.8 37.517 168.8C37.517 168.8 37.8349 171.524 39.2712 171.873C40.2526 172.111 41.1294 171.73 41.9789 171.419C42.3727 171.274 42.7611 171.145 43.1509 171.099C44.3807 170.955 45.2675 170.955 45.3941 172.507C45.3941 172.507 47.8006 175.215 49.5581 175.832C49.5581 175.832 51.5049 175.167 52.9773 175.643C54.4497 176.117 54.7349 178.54 54.7349 178.54H55.4944L55.4945 178.54Z" fill="#FA856D"/>
<path d="M46.2813 167.233L39.2721 163.527L38.0391 167.233L45.2255 168.801L46.2813 167.233Z" fill="#FCA98F"/>
<path d="M55.4945 178.54V180.326H38.6104C38.6104 180.326 37.3039 180.251 34.4543 178.636C31.6048 177.02 30.6074 175.975 30.6074 175.975L31.8899 174.074L32.5069 174.439L39.4685 178.253L54.7349 178.54H55.4944H55.4945Z" fill="#FCFBF0"/>
<path d="M49.5587 175.832L46.2814 176.244L42.16 172.887L41.9795 171.419C42.3733 171.274 42.7617 171.145 43.1514 171.099C44.3813 170.955 45.2681 170.955 45.3947 172.507C45.3947 172.507 47.8012 175.215 49.5587 175.832Z" fill="#C94015"/>
<path d="M51.6851 159.005C51.6342 159.005 51.5825 158.994 51.5333 158.971C51.3527 158.887 51.2743 158.673 51.3582 158.492L55.9958 148.509C56.0037 148.492 56.013 148.475 56.0236 148.459C56.0413 148.433 57.7941 145.793 57.5082 143.707C57.4546 143.317 56.4891 141.447 48.699 132.55C44.4001 127.64 40.0827 122.944 40.0396 122.897C39.9047 122.75 39.9142 122.522 40.0607 122.387C40.2074 122.252 40.4355 122.262 40.5704 122.408C40.6136 122.455 44.9361 127.157 49.2408 132.074C58.0153 142.096 58.1715 143.235 58.2228 143.609C58.5341 145.88 56.8372 148.536 56.6384 148.838L52.0123 158.796C51.9512 158.927 51.821 159.005 51.685 159.005H51.6851Z" fill="#49519C"/>
<path d="M50.4438 60.0997C50.4438 60.0997 51.1809 60.2883 51.6437 59.6196C52.1065 58.9509 51.0267 52.4696 49.8953 51.9551C48.7641 51.4407 47.7699 51.3379 47.7699 51.3379C47.7699 51.3379 45.2674 49.949 41.7193 50.3605C38.1713 50.772 34.8288 53.6527 33.9033 54.7329C32.9777 55.8131 33.0806 59.311 33.0806 59.311L34.8289 62.8603L37.8628 66.2553L41.7193 62.6031C41.7193 62.6031 49.1406 61.6111 50.4438 60.0998V60.0997Z" fill="#832A1D"/>
<path d="M46.7071 74.7085L46.3986 70.902C46.3986 70.902 48.4212 70.8677 49.2096 67.8842C49.9981 64.9007 50.4437 60.0997 50.4437 60.0997L49.6552 59.7568C49.6552 59.7568 49.1753 60.6142 48.4211 59.7568C47.667 58.8995 46.8785 56.3618 46.8785 56.3618C46.8785 56.3618 45.3701 59.6197 44.2046 60.2369C43.0391 60.8542 42.6277 60.0312 42.6277 60.0312C42.6277 60.0312 40.5365 61.4029 40.0909 61.3C39.6453 61.1971 39.4395 60.6142 39.4395 60.6142L38.5825 61.4372L38.3769 65.0037H37.6227L37.1428 62.0888C37.1428 62.0888 36.4572 60.7171 35.1202 61.06C33.7832 61.4029 34.0918 63.8377 34.9146 65.1408C35.7373 66.4439 37.0057 66.1696 37.0057 66.1696L37.2457 67.8842L35.4973 73.7483C35.4973 73.7483 36.3886 79.9553 40.6052 80.2296C44.8218 80.504 46.7072 74.7085 46.7072 74.7085H46.7071Z" fill="#FCCFBF"/>
<path d="M38.6855 68.1586C38.6855 68.1586 41.5652 71.3821 46.3988 70.902L46.4994 72.1432C46.4994 72.1432 45.7304 73.6883 43.3906 73.0968C41.0509 72.5052 38.6855 68.1586 38.6855 68.1586Z" fill="#FCA98F"/>
<path d="M43.4502 65.8608C43.4502 65.8608 45.8256 66.4677 47.7696 65.998C47.7696 65.998 47.3925 67.9184 45.9184 67.8155C44.4443 67.7126 43.4502 65.8608 43.4502 65.8608Z" fill="white"/>
<path d="M36.5507 64.5585C36.3755 64.5585 36.2218 64.4307 36.1946 64.2521C35.9423 62.5964 35.0031 62.6029 34.9931 62.6036C34.7935 62.6101 34.6279 62.4524 34.6222 62.2533C34.6165 62.0541 34.7733 61.888 34.9724 61.8823C35.0375 61.8807 36.5603 61.8633 36.9076 64.1433C36.9376 64.3403 36.8024 64.5243 36.6054 64.5543C36.5871 64.5571 36.5687 64.5585 36.5506 64.5585H36.5507Z" fill="#FCA98F"/>
<path d="M93.544 102.839H84.0173C84.0173 102.839 64.9865 103.184 61.9013 102.839C60.8222 102.719 59.7713 101.905 58.8609 100.897C57.1687 99.0243 55.9619 96.4821 55.9619 96.4821C55.9619 96.4821 61.0523 93.2617 64.7549 94.2128L65.0867 94.8254L65.7576 96.0636L84.0173 99.7422L89.5146 98.7768L92.9041 100.643L93.544 102.839Z" fill="#FCCFBF"/>
<path d="M65.0867 94.8254C63.709 95.7837 60.4738 98.2082 58.8609 100.897C57.1687 99.0243 55.9619 96.4821 55.9619 96.4821C55.9619 96.4821 61.0523 93.2617 64.7549 94.2128L65.0867 94.8254Z" fill="#FCA98F"/>
<path d="M64.7554 94.2127C61.4885 95.5224 58.7171 97.3595 56.5791 99.8706L55.3918 98.1922L53.0316 94.8556L50.4435 117.926V121.321C50.4435 121.321 35.0597 120.472 15.8535 120.009C15.8535 120.009 19.3246 109.356 20.5588 102.839C21.793 96.3212 26.729 75.1024 26.729 75.1024L33.9156 73.3049L35.7666 72.8424C35.7666 72.8424 38.7363 78.1893 41.7183 79.372C41.7183 79.372 45.4757 75.9863 46.6053 73.4615C46.6053 73.4615 47.1383 73.6217 47.9556 73.875C50.1578 74.5562 54.4231 75.9142 55.8852 76.6459C57.8905 77.6489 61.13 86.2905 62.1326 88.3744C62.6599 89.469 63.3575 91.0262 63.9006 92.2565C64.3911 93.3677 64.7554 94.2127 64.7554 94.2127Z" fill="#00103C"/>
<path d="M47.956 73.875C45.2207 79.8201 41.6674 81.4299 41.6674 81.4299C37.1966 79.2912 34.8134 75.1825 33.916 73.3049L35.767 72.8424C35.767 72.8424 38.7367 78.1893 41.7187 79.372C41.7187 79.372 45.4761 75.9863 46.6057 73.4615C46.6057 73.4615 47.1387 73.6217 47.956 73.875Z" fill="#FCFBF0"/>
<path d="M21.3562 118.724C21.3302 118.724 21.3037 118.721 21.2773 118.715C21.0829 118.672 20.9604 118.479 21.0039 118.285L22.082 113.457L24.5489 99.6786C24.5841 99.4825 24.7717 99.3521 24.9675 99.387C25.1636 99.4221 25.2941 99.6096 25.259 99.8057L22.7908 113.592C22.7898 113.596 22.7888 113.602 22.7877 113.607L21.7079 118.442C21.6704 118.61 21.5214 118.724 21.3562 118.724V118.724Z" fill="url(#paint1_linear_159_2409)"/>
<path d="M41.0448 118.805C36.4684 118.805 31.1913 114.619 30.9515 114.427C30.7961 114.302 30.7711 114.075 30.8956 113.92C31.0201 113.764 31.2471 113.739 31.4026 113.864C31.4636 113.913 37.5553 118.744 42.0198 118.007C42.2164 117.975 42.4019 118.108 42.4343 118.305C42.4667 118.501 42.3336 118.687 42.1371 118.719C41.7798 118.778 41.4143 118.805 41.0448 118.805Z" fill="url(#paint2_linear_159_2409)"/>
<path d="M24.1107 86.5084L53.8618 87.3776L53.1027 94.2125L22.5723 93.3571L24.1107 86.5084Z" fill="#EDAE63"/>
<path d="M45.9287 90.0736L46.0869 87.1505L51.542 87.3099L51.2066 90.4945C51.0626 91.8612 49.8978 92.8908 48.5243 92.8656C47.025 92.838 45.8476 91.5716 45.9288 90.0736H45.9287Z" fill="#FCFBF0"/>
<path d="M64.7552 94.2127C61.4883 95.5223 58.7169 97.3595 56.5789 99.8706L55.3916 98.1922C57.8448 94.6153 61.9968 92.8915 63.9004 92.2565C64.3909 93.3677 64.7552 94.2127 64.7552 94.2127Z" fill="#FCFBF0"/>
<path d="M53.0321 95.2162C53.0187 95.2162 53.0053 95.2155 52.9917 95.2139C52.7937 95.1919 52.6511 95.0136 52.6731 94.8156L53.9073 83.7047C53.9292 83.5066 54.1077 83.3637 54.3055 83.386C54.5035 83.408 54.6461 83.5863 54.6241 83.7843L53.39 94.8952C53.3695 95.0797 53.2133 95.2162 53.032 95.2162H53.0321Z" fill="url(#paint3_linear_159_2409)"/>
<path d="M27.6543 101.414C27.6543 101.414 30.3542 102.657 33.0967 100.017C35.8392 97.3762 36.6623 94.3926 36.6623 94.3926C36.6623 94.3926 34.4247 92.8561 31.0455 95.3322C27.6663 97.8082 27.6543 101.414 27.6543 101.414Z" fill="url(#paint4_linear_159_2409)"/>
<path d="M36.6617 94.3925L37.0384 95.4557L54.6761 98.6621L60.898 98.1991L63.3663 100.36L64.7546 103.059H54.5732C54.5732 103.059 36.1548 103.599 34.2055 103.059C32.2562 102.52 27.5254 97.9557 27.5254 97.9557C27.5254 97.9557 31.6054 93.415 36.6616 94.3925H36.6617Z" fill="#FCCFBF"/>
<path d="M37.0384 95.4558C37.0384 95.4558 32.4077 97.9009 31.5177 101.428L27.5254 97.9558L33.9148 94.5642L36.6616 94.3926L37.0384 95.4558Z" fill="#FCA98F"/>
<path d="M36.6626 94.3925C31.5887 94.7014 27.6546 101.414 27.6546 101.414C27.6546 101.414 27.2211 100.659 26.6 99.4356C25.8592 97.9773 24.8508 95.8516 23.9909 93.5439C22.4098 89.3003 21.0903 83.9832 21.7843 80.0925C22.4789 76.201 26.7291 75.1025 26.7291 75.1025C31.1256 76.1827 33.9157 83.7449 33.9157 83.7449L36.1634 92.4587L36.6626 94.3925Z" fill="#00103C"/>
<path d="M36.6631 94.3924C31.5893 94.7013 27.6552 101.414 27.6552 101.414C27.6552 101.414 27.2217 100.659 26.6006 99.4356C27.7143 97.4231 30.7497 93.0063 36.164 92.4586L36.6631 94.3924Z" fill="#FCFBF0"/>
<path d="M27.6555 101.775C27.5307 101.775 27.4092 101.71 27.3425 101.594C27.3381 101.586 26.8972 100.817 26.279 99.5991C25.5666 98.1966 24.5327 96.0294 23.6537 93.6701C23.5841 93.4834 23.679 93.2756 23.8657 93.206C24.0522 93.1365 24.26 93.2314 24.3295 93.4181C25.1968 95.7457 26.2181 97.8864 26.9221 99.2723C27.5312 100.472 27.9636 101.227 27.9679 101.235C28.0671 101.407 28.0075 101.628 27.8349 101.727C27.7782 101.76 27.7164 101.775 27.6555 101.775V101.775Z" fill="url(#paint5_linear_159_2409)"/>
<path d="M36.662 94.7534C36.5015 94.7534 36.355 94.6455 36.313 94.4828L33.5662 83.8351C33.5164 83.6421 33.6324 83.4454 33.8253 83.3956C34.0181 83.3457 34.2149 83.4619 34.2646 83.6548L37.0114 94.3024C37.0612 94.4953 36.9453 94.6921 36.7524 94.7419C36.7222 94.7497 36.6918 94.7534 36.662 94.7534Z" fill="url(#paint6_linear_159_2409)"/>
<path d="M138.959 56.8933L140.656 54.8872L141.446 52.5852C141.69 51.8737 142.285 51.3394 143.018 51.1729L144.77 50.7753L149.424 46.0256C149.667 45.7777 150.063 45.7689 150.316 46.0058C150.532 46.2069 150.582 46.529 150.438 46.786L148.061 51.0293C148.061 51.0293 149.089 51.698 149.398 52.1095C149.706 52.521 149.603 53.1382 149.603 53.1382C149.603 53.1382 150.195 53.6783 150.375 54.1156C150.555 54.5528 150.375 55.0158 150.375 55.0158C150.375 55.0158 150.812 55.5302 150.683 56.0188C150.555 56.5075 149.218 58.205 148.652 58.1536C148.652 58.1536 146.801 60.4084 144.924 60.4084L142.996 64.3263L138.959 56.8933Z" fill="#A0564F"/>
<path d="M144.465 57.5799C144.392 57.5799 144.318 57.5579 144.255 57.5121C144.093 57.3958 144.056 57.1704 144.172 57.0085C145.115 55.696 144.151 53.677 144.141 53.6567C144.063 53.4967 144.113 53.3035 144.26 53.2021C144.406 53.1006 144.604 53.1208 144.727 53.2498C145.199 53.7468 146.205 53.9926 146.523 53.9018C146.607 53.5425 146.168 52.1245 145.737 51.5786C145.356 51.095 144.81 51.134 144.804 51.1344C144.606 51.1543 144.43 51.0087 144.41 50.8104C144.391 50.612 144.536 50.4356 144.734 50.4162C144.772 50.4123 145.674 50.3344 146.304 51.1315C146.759 51.709 147.378 53.3163 147.225 54.0591C147.169 54.3299 147.023 54.4587 146.911 54.519C146.514 54.7329 145.794 54.6458 145.151 54.3724C145.363 55.2225 145.467 56.4424 144.758 57.4297C144.687 57.5278 144.577 57.5799 144.465 57.5799Z" fill="#63201B"/>
<path d="M138.959 56.8932L139.818 55.8778L144.592 61.0821L142.996 64.3262L138.959 56.8932Z" fill="#63201B"/>
<path d="M148.591 58.5167C148.417 58.5167 148.054 58.4807 147.766 58.2121C147.63 58.0855 147.477 57.8708 147.425 57.5254C146.964 57.4034 146.384 57.0641 146.215 56.3333C145.905 56.225 145.382 55.985 145.146 55.5434C145.021 55.309 144.992 55.0485 145.06 54.7829L144.854 54.1002C144.797 53.9095 144.905 53.7081 145.095 53.6506C145.286 53.593 145.487 53.701 145.545 53.8918L145.783 54.68C145.805 54.7553 145.803 54.8359 145.776 54.9096C145.721 55.0564 145.75 55.1432 145.782 55.2024C145.93 55.4803 146.449 55.661 146.619 55.7024C146.768 55.7387 146.879 55.8662 146.894 56.0195C146.964 56.776 147.708 56.8529 147.793 56.8592C147.986 56.8736 148.136 57.0378 148.129 57.2312C148.122 57.4434 148.165 57.5951 148.256 57.682C148.388 57.8086 148.616 57.7944 148.618 57.7944C148.818 57.7734 148.992 57.9184 149.012 58.1165C149.032 58.3148 148.886 58.4922 148.688 58.5126C148.676 58.5139 148.641 58.5168 148.591 58.5168L148.591 58.5167Z" fill="#63201B"/>
<path d="M147.768 57.5798C147.578 57.5798 147.419 57.4319 147.408 57.2402C147.396 57.0413 147.548 56.8705 147.747 56.8588C148.464 56.8166 149.555 55.582 150.074 54.8137C150.186 54.6487 150.41 54.605 150.575 54.7166C150.74 54.8281 150.784 55.0522 150.672 55.2173C150.515 55.451 149.095 57.5022 147.789 57.579C147.782 57.5794 147.775 57.5797 147.768 57.5797V57.5798Z" fill="#63201B"/>
<path d="M146.535 56.414C146.391 56.414 146.255 56.3274 146.199 56.1854C146.126 56 146.217 55.7905 146.402 55.7175C147.256 55.3813 148.797 53.5809 149.319 52.9155C149.442 52.7587 149.669 52.7315 149.825 52.8544C149.982 52.9775 150.01 53.2042 149.887 53.361C149.682 53.6216 147.855 55.9207 146.667 56.3889C146.623 56.406 146.579 56.4141 146.535 56.4141L146.535 56.414Z" fill="#63201B"/>
<path d="M146.759 53.3657C146.691 53.3657 146.622 53.3465 146.561 53.3063C146.394 53.1967 146.348 52.973 146.458 52.8065L147.758 50.8307C147.867 50.6643 148.091 50.6183 148.257 50.7277C148.424 50.8373 148.47 51.061 148.36 51.2275L147.06 53.2032C146.991 53.3085 146.876 53.3657 146.759 53.3657V53.3657Z" fill="#63201B"/>
<path d="M120.37 50.2844C120.37 50.2844 121.912 50.7206 122.992 51.4151C124.072 52.1095 128.083 69.5474 128.083 69.5474L138.958 56.8934C138.958 56.8934 144.032 63.2723 144.465 66.3327C144.465 66.3327 132.115 80.6983 129.107 82.1643C126.099 83.6304 121.885 80.6249 120.138 78.1121C118.392 75.5993 116.829 68.4858 116.829 68.4858L120.37 50.2843V50.2844Z" fill="url(#paint7_linear_159_2409)"/>
<path d="M126.061 72.5074C125.983 72.5074 125.905 72.4826 125.839 72.4313C125.682 72.309 125.654 72.0823 125.776 71.925L127.799 69.3257C127.921 69.1685 128.147 69.1402 128.305 69.2626C128.462 69.385 128.49 69.6116 128.368 69.7689L126.345 72.3682C126.274 72.4596 126.168 72.5074 126.061 72.5074H126.061Z" fill="#49519C"/>
<path d="M116.453 162.524V175.332H110.668L108.046 162.524H116.453Z" fill="#A0564F"/>
<path d="M128.736 178.907C128.72 179.684 128.588 180.326 128.588 180.326H109.182L109.201 178.907L109.203 178.804C108.997 175.718 110.377 173.909 110.377 173.909C113.608 175.495 116.453 172.529 116.453 172.529L121.544 174.689C121.544 174.689 126.274 175.615 127.766 176.336C128.597 176.737 128.757 177.93 128.736 178.907Z" fill="#6881BD"/>
<path d="M128.736 178.907C128.72 179.685 128.588 180.326 128.588 180.326H109.182L109.201 178.907H128.736Z" fill="#FDFDFD"/>
<path d="M116.453 162.524V167.848L109.553 169.883L108.046 162.524H116.453Z" fill="#63201B"/>
<path d="M95.8792 163.913L94.9705 174.946L89.2458 175.332L87.7031 162.524L95.8792 163.913Z" fill="#A0564F"/>
<path d="M97.1649 178.907C97.0754 179.668 96.9167 180.326 96.9167 180.326H88.0379C88.0379 180.326 88.0213 179.79 88.0703 178.907C88.092 178.509 88.1273 178.041 88.1828 177.518C88.3632 175.838 89.109 174.195 89.109 174.195C91.4144 172.964 95.0701 173.738 95.0701 173.738L95.6825 176.078C95.6825 176.078 96.5048 176.054 97.0191 176.912C97.2723 177.334 97.2514 178.169 97.1649 178.907Z" fill="#6881BD"/>
<path d="M95.8792 163.913L95.415 169.548L88.7051 170.843L87.7031 162.524L95.8792 163.913Z" fill="#63201B"/>
<path d="M97.1649 178.907C97.0754 179.668 96.9167 180.326 96.9167 180.326H88.0379C88.0379 180.326 88.0213 179.791 88.0703 178.907H97.1649Z" fill="#FDFDFD"/>
<path d="M119.503 100.411L117.687 166.073C117.687 166.073 113.008 167.256 106.683 166.845L103.065 114.076L97.2232 167.5C97.2232 167.5 92.7164 168.773 86.1602 167.5L87.3857 99.8707L119.503 100.41L119.503 100.411Z" fill="#39A08F"/>
<path d="M103.064 114.437C103.046 114.437 103.027 114.435 103.008 114.433C102.811 114.402 102.677 114.217 102.707 114.021L103.033 111.929C103.043 111.868 103.068 111.811 103.106 111.762L103.911 110.734C104.034 110.577 104.261 110.549 104.418 110.672C104.574 110.795 104.602 111.022 104.479 111.178L103.731 112.133L103.42 114.132C103.393 114.31 103.239 114.437 103.064 114.437V114.437Z" fill="#1D7D6A"/>
<path d="M110.881 139.351C110.744 139.351 110.612 139.272 110.552 139.138C110.471 138.956 110.552 138.743 110.734 138.661L114.513 136.964C114.695 136.882 114.908 136.963 114.99 137.145C115.071 137.327 114.99 137.541 114.808 137.622L111.029 139.32C110.981 139.341 110.931 139.351 110.881 139.351Z" fill="#1D7D6A"/>
<path d="M90.4406 140.431C90.2844 140.431 90.1405 140.329 90.0946 140.172C90.0388 139.98 90.1486 139.78 90.3398 139.724L94.0422 138.644C94.2334 138.588 94.4336 138.698 94.4894 138.889C94.5453 139.081 94.4354 139.281 94.2442 139.337L90.5418 140.417C90.5081 140.427 90.4741 140.431 90.4407 140.431L90.4406 140.431Z" fill="#1D7D6A"/>
<path d="M97.9915 33.0426C97.9915 33.0426 96.7916 30.985 96.8259 28.4816C96.8602 25.9783 97.8887 25.121 99.397 25.1895C99.397 25.1895 101.317 21.966 106.356 22.0003C111.395 22.0345 112.904 24.9838 115.578 25.4639C118.019 25.9021 118.937 25.9096 118.937 25.9096L117.806 27.6243L118.56 28.2072C118.56 28.2072 117.759 29.6864 114.841 29.7847L100.7 36.0946L97.9915 33.0425V33.0426Z" fill="#431207"/>
<path d="M114.84 29.7848C114.84 29.7848 113.966 39.4554 112.372 41.5387C110.778 43.622 108.618 43.159 108.618 43.159L109.184 48.5087C109.184 48.5087 107.384 50.8749 103.733 50.772C100.082 50.6691 97.4597 47.1198 97.4597 47.1198L99.4652 36.8834C99.4652 36.8834 98.0511 37.1406 97.5883 35.1859C97.1255 33.2312 97.3569 31.7395 98.4367 31.4823C99.5166 31.225 100.288 32.8197 100.288 32.8197L100.494 34.903L101.419 34.8258C101.419 34.8258 101.196 31.7223 102.876 30.6078L102.945 28.636C102.945 28.636 106.407 30.3249 107.975 29.9905C109.544 29.6562 109.209 28.756 109.209 28.756C109.209 28.756 111.421 30.5821 114.84 29.7847L114.84 29.7848Z" fill="#A0564F"/>
<path d="M106.102 37.5006C106.102 37.5006 108.687 38.3579 110.984 38.2207C110.984 38.2207 110.078 40.1754 108.543 39.9011C107.007 39.6267 106.102 37.5006 106.102 37.5006H106.102Z" fill="white"/>
<path d="M108.618 43.159C108.618 43.159 104.607 43.2361 100.236 39.0438C100.236 39.0438 101.784 45.1137 106.101 45.2166C106.101 45.2166 107.519 45.4714 108.738 44.2943L108.618 43.1591V43.159Z" fill="#63201B"/>
<path d="M99.5741 35.1873H99.5728C99.3736 35.1865 99.2127 35.0245 99.2134 34.8252C99.2183 33.4156 98.3442 33.1428 98.3354 33.1402C98.1443 33.0841 98.0348 32.8836 98.0908 32.6924C98.1469 32.5012 98.3471 32.3917 98.5385 32.4478C98.5958 32.4646 99.9415 32.8819 99.9348 34.8276C99.9341 35.0264 99.7727 35.1871 99.5741 35.1871V35.1873Z" fill="#63201B"/>
<path d="M97.7614 45.5798C97.7614 45.5798 99.1566 49.6918 103.836 49.2289C108.515 48.7659 108.99 46.672 108.99 46.672L118.937 50.7754L118.388 101.903C118.388 101.903 99.465 104.681 87.8438 100.668L88.975 49.6404L97.7613 45.5799L97.7614 45.5798Z" fill="#FCFBF0"/>
<path d="M96.8174 100.231C96.6262 100.231 96.4667 100.081 96.4575 99.8879C96.4479 99.6889 96.6014 99.5197 96.8004 99.5102C102.531 99.2347 108.299 95.7894 108.357 95.7547C108.527 95.6515 108.749 95.7065 108.852 95.8771C108.955 96.0477 108.9 96.2695 108.73 96.3724C108.488 96.5182 102.746 99.9467 96.8351 100.231C96.8292 100.231 96.8233 100.231 96.8175 100.231H96.8174Z" fill="#CBD3E9"/>
<path d="M97.7615 45.5798C97.7615 45.5798 99.8509 63.9919 100.237 69.1616C100.622 74.3312 100.802 106.327 100.802 106.327H85.0068L87.3298 63.2204L86.2872 50.1461L97.7615 45.5798Z" fill="url(#paint8_linear_159_2409)"/>
<path d="M108.99 46.672C108.99 46.672 108.105 64.1463 107.179 72.3765C106.253 80.6068 107.179 106.326 107.179 106.326H121.68L119.681 62.243L120.369 50.2843L108.99 46.672Z" fill="url(#paint9_linear_159_2409)"/>
<path d="M100.238 72.223C100.104 72.223 99.9751 72.1478 99.9129 72.0187L93.0739 57.8215C93.0199 57.7095 93.0274 57.5777 93.0936 57.4726L94.5585 55.1463L93.1458 53.7554C93.0559 53.6669 93.0188 53.5378 93.048 53.415L94.6676 46.5886C94.7135 46.3947 94.9078 46.2747 95.1018 46.3209C95.2956 46.367 95.4154 46.5614 95.3694 46.7553L93.7968 53.3838L95.2715 54.8359C95.3923 54.9548 95.414 55.1418 95.3236 55.2853L93.8105 57.6883L100.563 71.7056C100.649 71.885 100.574 72.1007 100.394 72.1872C100.344 72.2116 100.291 72.2231 100.238 72.2231L100.238 72.223Z" fill="#49519C"/>
<path d="M107.179 72.7373C107.135 72.7373 107.091 72.7293 107.048 72.7125C106.862 72.64 106.771 72.4307 106.843 72.2451L112.733 57.1687L111.531 55.7363C111.436 55.6236 111.42 55.4644 111.489 55.3346L112.247 53.9131L110.634 47.3327C110.587 47.1391 110.705 46.9438 110.898 46.8964C111.092 46.8487 111.287 46.9673 111.335 47.1609L112.98 53.8754C113.001 53.9616 112.99 54.0527 112.948 54.131L112.24 55.4591L113.423 56.8687C113.508 56.9698 113.531 57.1091 113.483 57.232L107.515 72.5079C107.459 72.6503 107.323 72.7374 107.179 72.7375L107.179 72.7373Z" fill="#49519C"/>
<path d="M120.709 85.2627C120.517 85.2627 120.358 85.1118 120.349 84.9183L119.34 62.6711C119.331 62.4721 119.485 62.3034 119.684 62.2943C119.884 62.2852 120.052 62.4394 120.061 62.6385L121.069 84.8856C121.078 85.0847 120.924 85.2533 120.725 85.2624C120.72 85.2626 120.714 85.2627 120.709 85.2627H120.709Z" fill="#49519C"/>
<path d="M103.623 52.2301C102.901 52.2301 102.261 52.1367 101.737 52.016C100.305 51.6865 99.4118 51.098 99.3745 51.0731C99.2087 50.9626 99.164 50.7386 99.2745 50.5728C99.3849 50.4071 99.6086 50.3623 99.7742 50.4724C99.7873 50.4811 100.619 51.0234 101.928 51.3193C103.673 51.7142 105.398 51.5073 107.055 50.7045C107.234 50.6178 107.45 50.6925 107.536 50.8719C107.623 51.0512 107.548 51.267 107.369 51.3539C106.005 52.0151 104.718 52.2301 103.623 52.2301H103.623Z" fill="#CBD3E9"/>
<path d="M123.83 72.3765H103.539C103.023 72.3765 102.655 71.8766 102.807 71.3838L107.184 57.2555C107.365 56.673 107.903 56.276 108.513 56.276H128.804C129.32 56.276 129.688 56.7758 129.536 57.2687L125.159 71.397C124.978 71.9794 124.44 72.3765 123.83 72.3765Z" fill="#DC6C54"/>
<path d="M124.498 72.3765H104.207C103.691 72.3765 103.323 71.8766 103.475 71.3838L107.852 57.2555C108.033 56.673 108.571 56.276 109.181 56.276H129.472C129.988 56.276 130.356 56.7758 130.204 57.2687L125.827 71.397C125.646 71.9794 125.108 72.3765 124.498 72.3765Z" fill="#EDAE63"/>
<path d="M127.206 60.4084H125.807C125.43 60.4084 125.161 60.044 125.271 59.6838L125.716 58.2324C125.788 57.997 126.005 57.8364 126.252 57.8364H127.651C128.027 57.8364 128.297 58.2008 128.186 58.561L127.741 60.0123C127.669 60.2477 127.452 60.4084 127.206 60.4084Z" fill="#DC6C54"/>
<path d="M100.237 64.5791L102.243 63.7861C102.243 63.7861 103.4 61.9085 104.3 61.034C105.2 60.1596 105.842 59.2079 106.254 59.4394C106.665 59.6709 106.048 61.7542 106.048 61.7542L105.431 62.9116L112.536 59.4775C112.73 59.3791 112.967 59.4448 113.083 59.6291C113.2 59.8153 113.154 60.0601 112.977 60.1912L109.493 62.6029L114.285 60.9708C114.535 60.9115 114.784 61.0726 114.833 61.3251C114.871 61.5231 114.774 61.7226 114.594 61.8141L110.163 64.7384L114.621 63.1516C114.858 63.131 115.061 63.3174 115.061 63.5547C115.061 63.7309 114.947 63.8869 114.779 63.9403L110.453 66.5465L113.481 66.0769C113.665 66.092 113.804 66.2515 113.793 66.4362C113.784 66.5935 113.669 66.7241 113.514 66.7523L108.602 68.4155C108.602 68.4155 104.42 69.8901 102.671 69.41L99.3633 70.9874L100.237 64.5789L100.237 64.5791Z" fill="#A0564F"/>
<path d="M100.877 64.3263C100.877 64.3263 101.489 68.0556 102.671 69.4102L99.3633 70.9876L100.237 64.5791L100.877 64.3263H100.877Z" fill="#63201B"/>
<path d="M86.2886 50.1462C86.2886 50.1462 84.0402 50.9779 83.2689 52.0066C82.4976 53.0354 79.8237 62.0373 79.8237 62.0373C79.8237 62.0373 78.5896 63.0661 78.5896 64.2492C78.5896 65.4323 77.1498 73.3025 76.7898 75.1543C76.4299 77.0061 77.6126 79.0123 77.6126 79.0123L87.0741 72.8395L91.4964 63.7862L86.2887 50.1461L86.2886 50.1462Z" fill="url(#paint10_linear_159_2409)"/>
<path d="M79.8743 72.3765L100.237 64.5791L100.803 72.9423C100.803 72.9423 89.2305 80.8125 86.2879 81.8928C83.3453 82.973 79.283 82.15 77.6118 79.0122C75.9406 75.8744 79.8743 72.3766 79.8743 72.3766V72.3765Z" fill="url(#paint11_linear_159_2409)"/>
<path d="M81.8813 71.9691C81.7362 71.9691 81.5994 71.8809 81.5444 71.7372C81.4732 71.5511 81.5663 71.3425 81.7523 71.2713L100.109 64.2423C100.295 64.1711 100.503 64.2642 100.574 64.4503C100.646 64.6364 100.553 64.845 100.366 64.9162L82.0102 71.9452C81.9678 71.9614 81.9242 71.9691 81.8813 71.9691Z" fill="#49519C"/>
<path d="M84.1082 71.1161C84.0347 71.1161 83.9605 71.0937 83.8965 71.0472L82.2337 69.8393C82.0726 69.7222 82.0368 69.4965 82.1538 69.3353C82.2709 69.1741 82.4964 69.1384 82.6576 69.2554L84.3204 70.4633C84.4815 70.5804 84.5173 70.8061 84.4003 70.9673C84.3297 71.0645 84.2197 71.1161 84.1082 71.1161V71.1161Z" fill="#49519C"/>
<path d="M89.0079 69.24C88.9547 69.24 88.9008 69.2282 88.8498 69.2033C88.6709 69.1158 88.5967 68.8998 88.6842 68.7207L91.1719 63.6277C91.2592 63.4488 91.4753 63.3745 91.6543 63.462C91.8333 63.5494 91.9074 63.7655 91.82 63.9446L89.3323 69.0376C89.2697 69.1656 89.1414 69.24 89.008 69.24H89.0079Z" fill="#49519C"/>
<path d="M86.2885 82.2537C86.1415 82.2537 86.0034 82.1632 85.9499 82.0171C85.8813 81.8301 85.9772 81.6228 86.1642 81.5541C89.0316 80.5014 100.485 72.7224 100.601 72.644C100.766 72.532 100.99 72.5748 101.102 72.7396C101.214 72.9044 101.171 73.1288 101.006 73.2408C100.532 73.5632 89.3631 81.1485 86.4128 82.2316C86.3718 82.2466 86.3298 82.2538 86.2886 82.2538L86.2885 82.2537Z" fill="#49519C"/>
<path d="M97.6312 74.1262C97.432 74.1262 97.2705 73.9646 97.2705 73.7654V65.5772C97.2705 65.378 97.432 65.2164 97.6312 65.2164C97.8303 65.2164 97.9918 65.378 97.9918 65.5772V73.7654C97.9918 73.9646 97.8303 74.1262 97.6312 74.1262Z" fill="#49519C"/>
<path d="M99.2854 72.6852C99.5827 72.6852 99.8237 72.4441 99.8237 72.1467C99.8237 71.8493 99.5827 71.6082 99.2854 71.6082C98.9881 71.6082 98.7471 71.8493 98.7471 72.1467C98.7471 72.4441 98.9881 72.6852 99.2854 72.6852Z" fill="#FCFBF0"/>
<path d="M108.739 67.3363C108.57 67.3363 108.419 67.2166 108.385 67.0442L107.597 62.9805C107.559 62.7848 107.686 62.5955 107.882 62.5575C108.077 62.5197 108.267 62.6474 108.305 62.843L109.093 66.9067C109.131 67.1023 109.003 67.2917 108.808 67.3296C108.785 67.3341 108.762 67.3363 108.739 67.3363V67.3363Z" fill="#63201B"/>
<path d="M179.068 104.68H41.6699V109.001H179.068V104.68Z" fill="#F09954"/>
<path d="M88.9778 104.68H41.6699V109.001H88.9778V104.68Z" fill="#DC6C54"/>
<path d="M41.6916 180.326H39.0176L45.8052 108.98H52.5929L41.6916 180.326Z" fill="#AC4843"/>
<path d="M89.0196 180.326H91.6935L84.9058 108.98H78.1182L89.0196 180.326Z" fill="#AC4843"/>
<path d="M45.8045 108.98L45.1787 115.557L52.345 110.597L52.5921 108.98H45.8045Z" fill="#712248"/>
<path d="M78.1182 108.98L78.8969 114.076L85.0085 110.059L84.9058 108.98H78.1182Z" fill="#712248"/>
<path d="M131.782 180.326H129.108L135.896 108.98H142.684L131.782 180.326Z" fill="#712248"/>
<path d="M179.111 180.326H181.785L174.998 108.98H168.21L179.111 180.326Z" fill="#AC4843"/>
<path d="M135.896 108.98L135.271 115.557L142.437 110.597L142.684 108.98H135.896Z" fill="#712248"/>
<path d="M168.21 108.98L168.989 114.076L175.1 110.059L174.998 108.98H168.21Z" fill="#712248"/>
<path d="M96.4836 104.68H65.3223L74.3048 83.7446H105.466L96.4836 104.68Z" fill="#60113C"/>
<path d="M95.5027 103.059H47.0938V104.68H95.5027V103.059Z" fill="#60113C"/>
<path d="M97.3772 104.68H66.2158L75.1985 83.7446H106.36L97.3772 104.68Z" fill="#936A83"/>
<path d="M105.174 86.5084L67.699 101.224L66.2158 104.68H97.3772L105.174 86.5084Z" fill="#7C566E"/>
<path d="M86.2883 96.4822C87.5414 96.4822 88.5571 95.466 88.5571 94.2126C88.5571 92.9591 87.5414 91.943 86.2883 91.943C85.0353 91.943 84.0195 92.9591 84.0195 94.2126C84.0195 95.466 85.0353 96.4822 86.2883 96.4822Z" fill="white"/>
<path d="M124.044 104.681H155.206L146.223 83.7448H115.062L124.044 104.681Z" fill="#936A83"/>
<path d="M124.815 104.681H155.976L146.993 83.7448H115.832L124.815 104.681Z" fill="#FDFDFD"/>
<path d="M124.572 101.337L117.474 84.8271H146.28L153.379 101.337H124.572Z" fill="#CBD3E9"/>
<path d="M129.33 93.3747L130.718 92.0888L133.924 94.7979L139.717 88.6937L141.208 90.1341L134.061 97.4704L129.33 93.3747Z" fill="#FDFDFD"/>
<path d="M175.098 103.059H126.689V104.681H175.098V103.059Z" fill="#936A83"/>
<path d="M61.5487 101.789C61.8718 102.044 62.4741 102.372 63.3946 102.314C64.8682 102.223 65.9928 97.8169 64.5552 97.6148C63.6889 97.4929 62.6703 97.9893 61.9973 98.4028C62.0291 97.8371 62.032 97.4669 62.032 97.4669H53.4986C53.5563 101.645 54.4414 103.232 54.797 103.703H50.7734C50.7734 104.243 51.2111 104.681 51.7508 104.681H63.7797C64.3195 104.681 64.7572 104.243 64.7572 103.703H60.7631C61.1123 103.248 61.3655 102.553 61.5487 101.789ZM61.8992 99.6418C62.684 99.04 64.333 97.8847 64.3922 98.7521C64.4701 99.8922 64.131 100.656 63.4811 101.211C62.9639 101.653 62.0666 101.156 61.7232 100.936C61.799 100.496 61.856 100.055 61.8992 99.6418Z" fill="white"/>
<path d="M58.9203 103.677L54.7964 103.703C54.4408 103.232 53.5558 101.645 53.498 97.4669H54.5065C54.8275 98.8054 56.0912 103.198 58.9203 103.677Z" fill="#CBD3E9"/>
<path d="M170 180.297H167.649L185.888 134.132H197.012L215.251 180.297H212.9L194.44 140.018C194.024 139.112 193.119 138.531 192.123 138.531H190.778C189.781 138.531 188.876 139.112 188.461 140.018L170 180.297Z" fill="#712248"/>
<path d="M185.665 180.297H183.314L201.553 134.132H212.678L230.916 180.297H228.565L210.105 140.018C209.689 139.112 208.784 138.531 207.788 138.531H206.443C205.446 138.531 204.541 139.112 204.126 140.018L185.665 180.297Z" fill="#AC4843"/>
<path d="M175.109 130.616V130.618C175.128 130.905 175.303 131.182 175.651 131.291C178.909 133.463 182.091 135.36 185.301 135.328C187.119 135.574 189.683 135.344 191.522 135.273L219.663 133.866C222.387 133.762 224.639 131.708 224.992 129.004L228.953 98.7052C229.075 97.7763 228.395 96.9357 227.463 96.8605L227.431 96.8579L209.219 95.376C208.349 95.3061 207.536 95.8155 207.224 96.6309C206.635 98.1708 205.647 101.005 204.585 105.137C203.541 109.202 202.914 117.26 202.587 122.83C202.389 126.197 199.651 128.853 196.28 128.95L175.859 129.777C175.35 129.79 175.079 130.214 175.109 130.616L175.109 130.616Z" fill="#AEC9A4"/>
<path d="M175.109 130.616V130.618C178.033 132.511 180.903 134.051 183.799 134.022C185.617 134.267 188.18 134.037 190.018 133.967L218.16 132.559C220.884 132.456 223.136 130.401 223.49 127.697L227.45 97.3975C227.473 97.2127 227.467 97.0306 227.431 96.8577L209.219 95.3759C208.349 95.306 207.536 95.8153 207.224 96.6308C206.635 98.1707 205.647 101.005 204.585 105.137C203.541 109.202 202.914 117.26 202.587 122.829C202.389 126.197 199.651 128.853 196.28 128.95L175.859 129.777C175.35 129.79 175.079 130.214 175.109 130.616Z" fill="#C8DAC1"/>
<path d="M193.429 165.07L192.118 169.661L189.804 170.934L186.322 167.207L182.091 162.678L188.571 158.049L191.407 162.148L193.429 165.07Z" fill="#FFC2A0"/>
<path d="M193.43 165.071L192.118 169.661L189.804 170.934L186.322 167.207C189.158 165.605 190.655 163.558 191.407 162.148L193.43 165.071Z" fill="#DC6C54"/>
<path d="M190.295 160.542L185.7 166.541L182.091 162.678L188.571 158.049L190.295 160.542Z" fill="#F79B78"/>
<path d="M200.012 167.179C200.012 167.179 197.646 172.546 195.143 175.632C192.641 178.719 190.585 180.326 190.585 180.326H181.294C181.294 180.326 181.14 179.607 181.09 178.702C181.023 177.482 181.146 175.923 182.091 175.332C183.737 174.303 185.768 174.535 185.768 174.535C185.768 174.535 186.927 170.316 187.465 169.661C188.002 169.006 190.036 168.661 190.036 168.661C190.036 168.661 192.632 167.735 192.928 164.345C192.928 164.345 193.995 163.759 194.869 164.492C194.869 164.492 196.667 164.324 198.715 165.93C199.141 166.264 199.578 166.675 200.012 167.179Z" fill="#39A08F"/>
<path d="M200.012 167.179C200.012 167.179 197.647 172.546 195.144 175.632C192.641 178.719 190.585 180.326 190.585 180.326H181.294C181.294 180.326 181.141 179.607 181.091 178.702H190.087C190.087 178.702 195.178 173.352 196.464 170.934C197.26 169.437 198.152 167.322 198.716 165.93C199.141 166.264 199.579 166.674 200.012 167.179Z" fill="#FDFDFD"/>
<path d="M188.544 174.536C188.508 174.536 188.471 174.53 188.435 174.519C188.245 174.458 188.14 174.255 188.201 174.065L189.641 169.551C189.701 169.362 189.904 169.257 190.094 169.317C190.284 169.378 190.388 169.581 190.328 169.771L188.888 174.285C188.839 174.438 188.697 174.536 188.544 174.536H188.544Z" fill="#1D7D6A"/>
<path d="M182.682 118.054C182.682 118.054 164.042 131.043 162.499 132.355C160.957 133.666 160.108 138.699 161.42 141.005C162.731 143.311 182.682 165.533 182.682 165.533C182.682 165.533 187.876 162.447 190.267 158.512L177.926 138.142C177.926 138.142 197.055 129.963 198.597 124.716C200.14 119.469 198.597 114.84 198.597 114.84L182.682 118.055V118.054Z" fill="#7D305A"/>
<path d="M173.761 163.99L171.008 170.216L168.747 175.332L161.806 174.175L163.157 169.217L164.582 163.99H173.761Z" fill="#FFC2A0"/>
<path d="M171.008 170.216L168.747 175.332L161.806 174.175L163.157 169.217C164.448 169.761 167.562 170.824 171.008 170.216Z" fill="#DC6C54"/>
<path d="M163.967 166.245L171.695 168.661L173.76 163.99H164.581L163.967 166.245Z" fill="#F79B78"/>
<path d="M213.33 121.553C213.33 121.553 212.83 128.343 209.918 130.812C207.005 133.281 183.18 142.128 183.18 142.128L174.918 166.204C174.918 166.204 167.976 166.613 162.809 164.839L167.963 141.453C167.963 141.453 168.426 136.746 171.28 133.968C174.134 131.191 192.505 120.395 192.505 120.395L193.173 115.92C193.173 115.92 212.559 114.3 213.33 121.553H213.33Z" fill="#7D305A"/>
<path d="M176.46 144.135C176.378 144.135 176.296 144.107 176.228 144.05L172.937 141.281C172.785 141.153 172.765 140.925 172.893 140.773C173.022 140.62 173.249 140.601 173.401 140.729L176.692 143.498C176.845 143.626 176.865 143.854 176.736 144.007C176.665 144.091 176.563 144.135 176.46 144.135Z" fill="#551737"/>
<path d="M171.102 178.702C171.09 179.619 171.061 180.326 171.061 180.326H149.412C149.412 180.326 149.283 179.595 149.304 178.702C149.331 177.562 149.603 176.158 150.698 175.667C152.652 174.792 154.76 175.332 154.76 175.332L159.954 172.117C159.954 172.117 161.959 172.169 163.142 172.529C164.325 172.889 166.159 174.51 167.783 174.175C169.407 173.84 169.703 173.169 169.703 173.169C169.703 173.169 170.958 174.432 171.061 176.129C171.109 176.924 171.112 177.894 171.102 178.702Z" fill="#39A08F"/>
<path d="M171.102 178.702C171.09 179.619 171.061 180.326 171.061 180.326H149.412C149.412 180.326 149.283 179.595 149.304 178.702H171.102Z" fill="#FDFDFD"/>
<path d="M157.126 176.336C156.997 176.336 156.872 176.267 156.807 176.145C156.713 175.969 156.78 175.751 156.956 175.657L162.355 172.776C162.531 172.683 162.749 172.749 162.843 172.925C162.937 173.101 162.87 173.319 162.694 173.413L157.295 176.294C157.241 176.323 157.183 176.336 157.126 176.336V176.336Z" fill="#1D7D6A"/>
<path d="M162.807 165.2C162.782 165.2 162.756 165.197 162.729 165.191C162.535 165.148 162.412 164.956 162.455 164.761L167.605 141.396C167.647 140.995 168.183 136.478 171.027 133.71C173.879 130.934 191.569 120.526 192.32 120.084C192.492 119.983 192.713 120.041 192.814 120.212C192.915 120.384 192.857 120.605 192.686 120.706C192.502 120.814 174.32 131.511 171.53 134.227C168.807 136.877 168.325 141.443 168.321 141.488C168.319 141.503 168.317 141.517 168.314 141.531L163.159 164.916C163.122 165.085 162.973 165.2 162.807 165.2V165.2Z" fill="#551737"/>
<path d="M174.917 166.565C174.879 166.565 174.839 166.558 174.8 166.545C174.612 166.48 174.512 166.275 174.576 166.087L182.838 142.011C182.903 141.823 183.108 141.722 183.296 141.787C183.485 141.852 183.585 142.057 183.52 142.246L175.259 166.321C175.207 166.47 175.067 166.565 174.917 166.565L174.917 166.565Z" fill="#551737"/>
<path d="M179.394 76.1732L176.074 83.7446C176.074 83.7446 174.531 84.439 174.454 85.5963C174.377 86.7538 171.278 91.1483 171.278 91.1483L176.151 99.8707L183.179 94.2124C183.179 94.2124 183.256 83.0523 181.568 79.655C179.879 76.2577 179.394 76.1731 179.394 76.1731V76.1732Z" fill="#EDAE63"/>
<path d="M175.637 86.1631C175.465 86.1631 175.312 86.0395 175.282 85.8641C175.248 85.6679 175.379 85.481 175.575 85.4468C175.6 85.4424 178.089 84.9936 178.875 83.803C178.985 83.6368 179.209 83.5909 179.375 83.7008C179.541 83.8106 179.587 84.0344 179.477 84.2007C178.52 85.6513 175.814 86.1377 175.699 86.1577C175.678 86.1613 175.657 86.1631 175.637 86.1631Z" fill="#DC6C54"/>
<path d="M178.516 96.7597C178.473 96.7597 178.43 96.7521 178.388 96.7361C178.202 96.6654 178.108 96.457 178.179 96.2708L179.721 92.2071C179.792 92.0207 180 91.9271 180.187 91.9979C180.373 92.0686 180.467 92.277 180.396 92.4632L178.853 96.5269C178.798 96.6711 178.661 96.7598 178.516 96.7598V96.7597Z" fill="#DC6C54"/>
<path d="M176.152 99.8706C176.152 99.8706 174.938 101.119 172.802 101.654C172.498 101.731 172.174 101.792 171.833 101.834C169.098 102.167 166.073 100.831 164.839 98.439C163.605 96.047 158.133 80.6802 158.133 80.6802C156.345 80.831 154.146 80.2509 151.778 79.372C151.778 79.372 148.898 78.6779 147.947 78.5494C146.996 78.421 146.147 77.9837 146.225 77.7261C146.301 77.4692 146.61 77.4173 147.304 77.4692C147.998 77.5204 149.515 77.5204 149.515 77.5204C149.515 77.5204 146.945 76.8263 146.147 76.6199C145.35 76.4143 144.836 75.5917 145.273 75.2569C145.71 74.9228 145.916 75.36 146.919 75.6429C147.921 75.9258 149.567 76.0289 149.567 76.0289L147.304 75.1024L145.505 73.3793C145.505 73.3793 145.607 72.7883 146.147 72.7111C146.687 72.6339 148.197 73.9457 148.197 73.9457L150.467 74.4595C150.467 74.4595 148.281 72.4535 148.204 72.1194C148.127 71.7846 148.744 71.2449 149.438 71.8618C150.132 72.4795 152.369 74.0222 152.369 74.0222L155.583 74.4342C155.583 74.4342 155.137 73.6795 155.172 72.2392C155.206 70.7989 156.029 71.2449 156.783 72.0682C157.537 72.8908 158.703 74.1601 160.04 74.6421C161.376 75.1248 162.345 78.2406 162.345 78.2406L171.279 91.1481C174.056 92.9232 176.152 99.8706 176.152 99.8706Z" fill="#FFC2A0"/>
<path d="M157.777 77.847C157.719 77.847 157.661 77.8332 157.606 77.8038C156.19 77.0407 155.335 75.4595 155.299 75.3926C155.206 75.2167 155.272 74.9982 155.448 74.9044C155.624 74.8108 155.842 74.8771 155.936 75.0526C155.943 75.0671 156.727 76.5105 157.948 77.1684C158.124 77.2628 158.189 77.4816 158.095 77.6571C158.03 77.7781 157.905 77.8469 157.777 77.8469L157.777 77.847Z" fill="#F79B78"/>
<path d="M150.764 77.9455C150.733 77.9455 150.701 77.9413 150.669 77.9327C150.477 77.8802 150.364 77.6819 150.416 77.4896L151.187 74.6669C151.239 74.4746 151.437 74.3612 151.63 74.4139C151.822 74.4664 151.935 74.6647 151.882 74.857L151.112 77.6797C151.068 77.8401 150.923 77.9456 150.764 77.9456L150.764 77.9455Z" fill="#F79B78"/>
<path d="M176.151 99.8706C176.151 99.8706 174.937 101.119 172.801 101.654C173.492 97.2015 171.278 91.1481 171.278 91.1481C174.055 92.9232 176.151 99.8706 176.151 99.8706Z" fill="#F79B78"/>
<path d="M175.006 100.734C175.006 100.734 175.055 101.542 175.638 101.654C176.221 101.766 176.735 100.908 176.735 100.908C176.735 100.908 177.558 100.445 177.798 99.871C178.038 99.2966 175.535 94.3091 174.233 93.0821C172.93 91.855 171.654 90.3735 171.654 90.3735L171.101 90.8899C171.101 90.8899 174.922 96.7883 175.006 100.734L175.006 100.734Z" fill="#DC6C54"/>
<path d="M185.329 57.3575L184.634 56.207C184.634 56.207 183.158 56.3549 182.597 55.3233C182.036 54.2917 182.896 53.1548 182.896 53.1548C182.896 53.1548 182.618 52.4635 182.821 51.4369C183.024 50.4102 185.47 50.1452 185.47 50.1452C185.47 50.1452 192.073 48.4951 195.51 49.4214C198.947 50.3477 199.236 51.8941 199.236 51.8941C199.236 51.8941 199.249 50.3391 200.08 50.504C200.911 50.6689 200.391 52.2544 200.391 52.2544C200.391 52.2544 201.536 51.9605 202.151 52.5978C202.766 53.2351 201.452 53.6565 201.452 53.6565C201.452 53.6565 202.445 55.1996 202.569 56.1206C202.693 57.0417 199.043 64.5735 199.043 64.5735L193.5 65.0892L185.329 57.3575H185.329Z" fill="#751648"/>
<path d="M184.634 56.207C184.634 56.207 184.085 65.8909 184.386 66.8697C184.686 67.8486 186.024 69.3055 187.705 69.7384L187.396 73.0217C187.396 73.0217 187.5 76.808 190.749 76.7876C193.999 76.7673 198.512 72.435 198.512 72.435L197.84 66.3828C197.84 66.3828 199.118 65.8559 199.654 64.1554C200.189 62.4548 199.732 60.9185 198.508 60.8166C197.283 60.7146 196.956 62.8457 196.956 62.8457L196.099 62.9952L195.725 59.3946L194.72 58.1846L194.713 55.5721C194.713 55.5721 193.498 56.6098 192.484 56.2019C191.469 55.794 191.383 55.4474 191.383 55.4474C191.383 55.4474 190.875 56.2143 190.251 56.1283C189.627 56.0422 188.963 55.2808 188.963 55.2808C188.963 55.2808 188.222 56.2834 187.55 56.0568C186.879 55.8302 186.554 55.5175 186.554 55.5175C186.554 55.5175 185.978 56.7773 184.635 56.2069L184.634 56.207Z" fill="#FFC2A0"/>
<path d="M187.704 69.7385L187.593 70.9106C187.593 70.9106 187.563 71.8382 189.394 72.1061C192.076 72.4984 196.608 67.1252 196.608 67.1252C196.608 67.1252 192.218 71.1649 187.704 69.7385Z" fill="#F79B78"/>
<path d="M187.079 65.2327C187.079 65.2327 188.923 65.5123 191.381 64.7969C191.381 64.7969 190.319 66.8599 188.991 66.752C187.663 66.6441 187.079 65.2327 187.079 65.2327Z" fill="white"/>
<path d="M197.667 65.0624C197.55 65.0624 197.419 65.0049 197.349 64.8713C197.312 64.8016 197.301 64.7202 197.311 64.642C197.5 63.1129 197.99 62.3991 198.367 62.0693C198.571 61.8915 198.89 61.9905 198.952 62.2535L198.954 62.2588C198.985 62.3895 198.939 62.5251 198.838 62.614C198.603 62.8214 198.192 63.3708 198.025 64.7452C198.003 64.9282 197.847 65.0624 197.667 65.0624Z" fill="#F79B78"/>
<path d="M187.286 59.4334L186.514 58.7145L183.627 61.8186L184.4 62.5376L187.286 59.4334Z" fill="white"/>
<path d="M192.89 59.7008L192.117 58.9818L189.231 62.086L190.003 62.8049L192.89 59.7008Z" fill="white"/>
<path d="M199.175 60.2407C199.032 60.1681 198.653 59.9763 195.771 59.8294C195.111 59.7953 194.319 59.7643 193.369 59.7368C193.005 59.1053 192.382 58.6481 191.63 58.5443C190.73 58.4201 189.871 58.8342 189.35 59.5498C188.797 59.2586 188.314 59.1694 187.913 59.286C187.837 59.3079 187.77 59.3368 187.71 59.3679C187.341 58.7689 186.735 58.3373 186.008 58.237C185.475 58.1634 184.957 58.2786 184.514 58.5324C183.852 58.9144 183.359 59.6086 183.242 60.4507C183.101 61.4787 183.558 62.4463 184.336 62.9631C184.621 63.1525 184.949 63.2815 185.306 63.3308C186.637 63.5145 187.878 62.5219 188.072 61.1171C188.125 60.7327 188.093 60.3563 187.993 60.0093C188.025 59.987 188.069 59.9655 188.125 59.9515C188.257 59.9189 188.536 59.9116 189.017 60.1626C188.945 60.3506 188.893 60.5499 188.864 60.758C188.671 62.1621 189.596 63.4543 190.928 63.6381C192.259 63.8219 193.5 62.8285 193.694 61.4244C193.74 61.0864 193.722 60.7548 193.649 60.4432C194.516 60.4699 195.239 60.5 195.844 60.532C198.247 60.6579 198.755 60.8105 198.86 60.8638C198.916 60.8918 198.966 60.9226 199.01 60.9563C199.011 60.9571 199.012 60.9579 199.012 60.958C199.522 61.2207 199.817 61.8152 199.867 62.5667C199.955 62.5238 200.024 62.4439 200.05 62.3418C200.18 61.8342 200.165 60.7415 199.175 60.2408L199.175 60.2407ZM185.401 62.6394C184.986 62.5821 184.626 62.3704 184.365 62.0645C184.028 61.6715 183.854 61.1219 183.934 60.546C183.994 60.1083 184.191 59.7249 184.471 59.4402C184.846 59.0586 185.369 58.8532 185.913 58.9283C186.863 59.0594 187.522 59.9985 187.381 61.0216C187.24 62.0448 186.352 62.7705 185.401 62.6394L185.401 62.6394ZM191.023 62.9467C190.073 62.8156 189.414 61.8765 189.555 60.8534C189.697 59.8302 190.585 59.1046 191.535 59.2357C192.485 59.3668 193.144 60.3059 193.003 61.329C192.862 62.3522 191.973 63.0779 191.023 62.9467Z" fill="#BC4838"/>
<path d="M213.327 121.553C213.327 121.553 212.659 119.547 209.522 119.084C206.385 118.62 196.512 118.467 192.501 118.518C188.49 118.569 182.679 118.055 182.679 118.055C182.679 118.055 181.394 116.769 181.497 115.483C181.6 114.197 182.371 112.654 182.371 112.654C182.371 112.654 181.908 100.678 181.633 94.6104C181.575 93.3239 181.525 92.3028 181.491 91.7176C181.388 89.9858 181.083 87.5072 180.863 85.2162C180.857 85.1542 180.852 85.0921 180.846 85.0308C180.674 83.2131 180.568 81.9857 180.568 81.9857L179.392 76.1734L185.652 73.2705L187.442 72.6384C187.442 72.6384 187.564 75.4626 191.164 76.9036C191.164 76.9036 194.644 76.0413 198.578 71.74L199.701 72.0236L212.659 75.2916C212.659 75.2916 214.098 87.1652 213.79 94.2129C213.481 101.26 213.558 111.009 213.172 112.268C213.172 112.268 213.953 113.651 213.833 115.557C213.713 117.463 215.563 120.087 213.327 121.553Z" fill="#00103C"/>
<path d="M191.759 84.4822L186.679 89.5645L191.759 94.6467L196.84 89.5645L191.759 84.4822Z" fill="#FDFDFD"/>
<path d="M186.677 89.5644L181.633 94.6104C181.575 93.3238 181.525 92.3028 181.491 91.7176C181.388 89.9858 181.083 87.5072 180.863 85.2161L181.597 84.4823L186.677 89.5644Z" fill="#FDFDFD"/>
<path d="M201.919 84.4822L196.839 89.5645L201.919 94.6467L207 89.5645L201.919 84.4822Z" fill="#FDFDFD"/>
<path d="M210.28 117.387C210.222 117.387 210.164 117.373 210.11 117.344C209.934 117.249 209.868 117.031 209.963 116.855C210.786 115.325 210.373 114.896 209.748 114.246C209.521 114.01 209.265 113.743 209.06 113.407C208.922 113.18 208.554 112.576 208.738 106.438C208.827 103.451 209.006 100.571 209.008 100.543C209.021 100.344 209.192 100.192 209.391 100.205C209.59 100.218 209.741 100.389 209.728 100.588C209.726 100.617 209.547 103.486 209.459 106.461C209.295 111.957 209.584 112.88 209.676 113.032C209.84 113.3 210.057 113.527 210.268 113.746C210.925 114.429 211.67 115.204 210.598 117.197C210.533 117.318 210.409 117.387 210.28 117.387L210.28 117.387Z" fill="url(#paint12_linear_159_2409)"/>
<path d="M199.701 72.0236C197.373 75.433 194.536 77.7414 191.13 78.8237C188.283 77.61 186.5 74.8854 185.652 73.2705L187.442 72.6384C187.442 72.6384 187.565 75.4626 191.165 76.9036C191.165 76.9036 194.644 76.0413 198.578 71.74L199.701 72.0236Z" fill="url(#paint13_linear_159_2409)"/>
<path d="M198.318 70.7096L191.985 76.616L195.715 78.575L199.953 72.0866L198.318 70.7096Z" fill="#EDAE63"/>
<path d="M187.558 71.85L190.29 76.492L187.873 78.2407L185.652 73.2705L187.558 71.85Z" fill="#EDAE63"/>
<path d="M180.569 81.986C180.569 81.986 180.506 76.8983 179.581 75.6614L178.724 76.0643C178.724 76.0643 180.083 79.1225 180.569 81.986Z" fill="url(#paint14_linear_159_2409)"/>
<path d="M181.859 100.232C181.671 100.232 181.513 100.087 181.5 99.8965L180.314 83.199C180.3 83.0003 180.45 82.8277 180.649 82.8136C180.849 82.799 181.02 82.9492 181.034 83.1479L182.219 99.8454C182.233 100.044 182.084 100.217 181.885 100.231C181.876 100.231 181.868 100.232 181.859 100.232H181.859Z" fill="url(#paint15_linear_159_2409)"/>
<path d="M214.239 75.8058C214.239 75.8058 215.799 76.8198 216.519 81.5682C217.238 86.3165 219.244 95.627 219.552 97.2217C219.861 98.8163 219.552 99.6908 219.552 99.6908C219.552 99.6908 216.119 96.2444 214.442 95.9871C212.765 95.73 208.96 96.0386 208.96 96.0386L206.423 88.4942C206.423 88.4942 206.697 83.6099 207.314 81.5682C207.931 79.5266 209.731 76.7489 211.428 76.2345C213.125 75.7201 214.239 75.8058 214.239 75.8058Z" fill="#EDAE63"/>
<path d="M219.553 99.6907C219.553 99.6907 219.655 101.697 216.913 103.411C214.17 105.126 195.213 110.476 195.213 110.476L188.803 113.631C188.803 113.631 184.072 113.802 183.626 113.288L183.18 112.773C183.18 112.773 181.878 112.636 181.706 112.156C181.535 111.676 181.706 111.402 181.706 111.402C181.706 111.402 180.661 110.99 180.678 110.459C180.695 109.927 181.295 109.653 181.569 109.653C181.569 109.653 181.192 108.71 181.775 108.35C182.358 107.99 185.392 108.11 185.392 108.11L188.803 107.698C188.803 107.698 187.62 106.841 187.414 106.241C187.208 105.641 187.551 104.886 188.442 105.452C189.334 106.018 191.973 105.983 193.173 106.481L208.96 96.0385C208.96 96.0385 214.153 95.556 216.21 96.646C218.267 97.736 219.553 99.6907 219.553 99.6907L219.553 99.6907Z" fill="#FFC2A0"/>
<path d="M220.855 98.4733C220.855 98.4733 218.729 95.6613 216.535 95.1812C214.341 94.7011 209.034 94.8383 208.671 95.1812C208.308 95.5241 208.309 96.4689 208.309 96.4689C208.309 96.4689 212.485 96.1414 214.442 96.9302C216.398 97.7189 217.804 99.8108 218.215 100.668C218.626 101.525 217.92 102.668 217.92 102.668C217.92 102.668 220.203 103.103 220.409 101.491C220.409 101.491 221.095 101.183 220.855 99.9822C220.855 99.9822 221.751 99.5016 220.855 98.4733H220.855Z" fill="#DC6C54"/>
<path d="M219.69 100.926C219.512 100.926 219.357 100.794 219.333 100.612C219.014 98.1805 215.58 96.7687 215.545 96.7547C215.361 96.6802 215.271 96.4701 215.345 96.2853C215.42 96.1005 215.63 96.0109 215.814 96.0852C215.972 96.1485 219.674 97.667 220.048 100.518C220.074 100.716 219.935 100.897 219.738 100.923C219.722 100.925 219.706 100.926 219.69 100.926L219.69 100.926Z" fill="#AC4843"/>
<path d="M193.174 106.481L195.214 110.476L196.862 110.005L194.677 105.487L193.174 106.481Z" fill="#CBD3E9"/>
<path d="M193.866 107.541L195.348 106.886C195.61 106.77 195.917 106.885 196.039 107.144L196.868 108.902C196.997 109.175 196.871 109.5 196.591 109.615L195.073 110.24C194.811 110.348 194.51 110.229 194.392 109.972L193.6 108.244C193.477 107.977 193.597 107.66 193.866 107.541V107.541Z" fill="#FDFDFD"/>
<path d="M186.162 110.219H184.174C184.165 110.219 184.155 110.219 184.146 110.218L181.54 110.012C181.342 109.997 181.193 109.823 181.209 109.624C181.225 109.426 181.4 109.277 181.597 109.293L184.188 109.498H186.162C186.362 109.498 186.523 109.659 186.523 109.858C186.523 110.058 186.362 110.219 186.162 110.219V110.219Z" fill="#F79B78"/>
<path d="M186.78 111.889H183.866C183.859 111.889 183.852 111.888 183.845 111.888L181.685 111.762C181.486 111.75 181.335 111.58 181.346 111.381C181.358 111.182 181.531 111.03 181.727 111.042L183.877 111.167H186.78C186.979 111.167 187.141 111.329 187.141 111.528C187.141 111.727 186.979 111.889 186.78 111.889Z" fill="#F79B78"/>
<path d="M185.717 113.134H183.18C182.981 113.134 182.819 112.973 182.819 112.774C182.819 112.574 182.981 112.413 183.18 112.413H185.698L187.598 112.209C187.797 112.188 187.974 112.331 187.995 112.529C188.016 112.727 187.873 112.905 187.675 112.926L185.755 113.132C185.742 113.134 185.73 113.134 185.717 113.134H185.717Z" fill="#F79B78"/>
<path d="M188.495 112.38C188.381 112.38 188.269 112.326 188.199 112.225C187.619 111.391 187.071 109.181 187.048 109.088C187 108.894 187.118 108.699 187.312 108.651C187.505 108.603 187.7 108.722 187.748 108.915C187.896 109.517 188.373 111.212 188.791 111.813C188.905 111.977 188.864 112.201 188.701 112.315C188.638 112.359 188.566 112.38 188.495 112.38Z" fill="#F79B78"/>
<path d="M216.416 90.3295C216.361 90.3295 216.305 90.3168 216.252 90.2899C213.852 89.0625 212.147 85.2353 212.076 85.0729C211.995 84.8906 212.078 84.6777 212.26 84.5975C212.443 84.5172 212.655 84.5999 212.736 84.7822C212.752 84.8196 214.409 88.5372 216.581 89.6474C216.758 89.7381 216.828 89.9554 216.738 90.1328C216.674 90.2577 216.547 90.3295 216.416 90.3295H216.416Z" fill="#DC6C54"/>
<path d="M212.764 74.6422C212.764 74.6422 213.895 74.7084 214.238 75.8058C214.238 75.8058 209.062 77.6576 207.93 81.8413C206.799 86.0251 206.422 88.4942 206.422 88.4942C206.422 88.4942 206.079 84.0042 206.696 81.5682C207.313 79.1322 209.576 76.3936 212.764 74.6423V74.6422Z" fill="#1D7D6A"/>
<path d="M165.004 101.789C165.327 102.044 165.929 102.372 166.85 102.314C168.323 102.223 169.448 97.8169 168.01 97.6148C167.144 97.4929 166.125 97.9893 165.452 98.4028C165.484 97.8371 165.487 97.4669 165.487 97.4669H156.954C157.011 101.645 157.896 103.232 158.252 103.703H154.229C154.229 104.243 154.666 104.681 155.206 104.681H167.235C167.775 104.681 168.212 104.243 168.212 103.703H164.218C164.567 103.248 164.821 102.553 165.004 101.789ZM165.354 99.6418C166.139 99.04 167.788 97.8847 167.847 98.7521C167.925 99.8922 167.586 100.656 166.936 101.211C166.419 101.653 165.522 101.156 165.178 100.936C165.254 100.496 165.311 100.055 165.354 99.6418Z" fill="white"/>
<path d="M162.375 103.677L158.252 103.703C157.896 103.232 157.011 101.645 156.953 97.4669H157.962C158.283 98.8054 159.546 103.198 162.375 103.677Z" fill="#CBD3E9"/>
<defs>
<linearGradient id="paint0_linear_159_2409" x1="115" y1="0" x2="115" y2="196" gradientUnits="userSpaceOnUse">
<stop stop-color="#2BC3FC"/>
<stop offset="1" stop-color="#017EAC"/>
</linearGradient>
<linearGradient id="paint1_linear_159_2409" x1="23.1299" y1="99.3813" x2="23.1299" y2="118.724" gradientUnits="userSpaceOnUse">
<stop stop-color="#2BC3FC"/>
<stop offset="1" stop-color="#017EAC"/>
</linearGradient>
<linearGradient id="paint2_linear_159_2409" x1="36.6278" y1="113.784" x2="36.6278" y2="118.805" gradientUnits="userSpaceOnUse">
<stop stop-color="#2BC3FC"/>
<stop offset="1" stop-color="#017EAC"/>
</linearGradient>
<linearGradient id="paint3_linear_159_2409" x1="53.6486" y1="83.3837" x2="53.6486" y2="95.2162" gradientUnits="userSpaceOnUse">
<stop stop-color="#2BC3FC"/>
<stop offset="1" stop-color="#017EAC"/>
</linearGradient>
<linearGradient id="paint4_linear_159_2409" x1="32.1583" y1="93.9214" x2="32.1583" y2="101.707" gradientUnits="userSpaceOnUse">
<stop stop-color="#2BC3FC"/>
<stop offset="1" stop-color="#017EAC"/>
</linearGradient>
<linearGradient id="paint5_linear_159_2409" x1="25.8234" y1="93.1832" x2="25.8234" y2="101.775" gradientUnits="userSpaceOnUse">
<stop stop-color="#2BC3FC"/>
<stop offset="1" stop-color="#017EAC"/>
</linearGradient>
<linearGradient id="paint6_linear_159_2409" x1="35.2888" y1="83.384" x2="35.2888" y2="94.7534" gradientUnits="userSpaceOnUse">
<stop stop-color="#2BC3FC"/>
<stop offset="1" stop-color="#017EAC"/>
</linearGradient>
<linearGradient id="paint7_linear_159_2409" x1="130.647" y1="50.2843" x2="130.647" y2="82.5504" gradientUnits="userSpaceOnUse">
<stop stop-color="#2BC3FC"/>
<stop offset="1" stop-color="#017EAC"/>
</linearGradient>
<linearGradient id="paint8_linear_159_2409" x1="92.9045" y1="45.5798" x2="92.9045" y2="106.327" gradientUnits="userSpaceOnUse">
<stop stop-color="#2BC3FC"/>
<stop offset="1" stop-color="#017EAC"/>
</linearGradient>
<linearGradient id="paint9_linear_159_2409" x1="114.224" y1="46.672" x2="114.224" y2="106.326" gradientUnits="userSpaceOnUse">
<stop stop-color="#2BC3FC"/>
<stop offset="1" stop-color="#017EAC"/>
</linearGradient>
<linearGradient id="paint10_linear_159_2409" x1="84.109" y1="50.1461" x2="84.109" y2="79.0123" gradientUnits="userSpaceOnUse">
<stop stop-color="#2BC3FC"/>
<stop offset="1" stop-color="#017EAC"/>
</linearGradient>
<linearGradient id="paint11_linear_159_2409" x1="89.0006" y1="64.5791" x2="89.0006" y2="82.3436" gradientUnits="userSpaceOnUse">
<stop stop-color="#2BC3FC"/>
<stop offset="1" stop-color="#017EAC"/>
</linearGradient>
<linearGradient id="paint12_linear_159_2409" x1="209.913" y1="100.204" x2="209.913" y2="117.387" gradientUnits="userSpaceOnUse">
<stop stop-color="#2BC3FC"/>
<stop offset="1" stop-color="#017EAC"/>
</linearGradient>
<linearGradient id="paint13_linear_159_2409" x1="192.677" y1="71.74" x2="192.677" y2="78.8237" gradientUnits="userSpaceOnUse">
<stop stop-color="#2BC3FC"/>
<stop offset="1" stop-color="#017EAC"/>
</linearGradient>
<linearGradient id="paint14_linear_159_2409" x1="179.646" y1="75.6614" x2="179.646" y2="81.986" gradientUnits="userSpaceOnUse">
<stop stop-color="#2BC3FC"/>
<stop offset="1" stop-color="#017EAC"/>
</linearGradient>
<linearGradient id="paint15_linear_159_2409" x1="181.267" y1="82.8126" x2="181.267" y2="100.232" gradientUnits="userSpaceOnUse">
<stop stop-color="#2BC3FC"/>
<stop offset="1" stop-color="#017EAC"/>
</linearGradient>
</defs>
</svg>
