<svg width="252" height="196" viewBox="0 0 252 196" fill="none" xmlns="http://www.w3.org/2000/svg">
<path opacity="0.19" d="M98 196C152.124 196 196 152.124 196 98C196 43.8761 152.124 0 98 0C43.8761 0 0 43.8761 0 98C0 152.124 43.8761 196 98 196Z" fill="url(#paint0_linear_86_1719)"/>
<path d="M188.975 32.1625V136.338C188.975 140.845 185.32 144.5 180.812 144.5H20.1625C15.6553 144.5 12 140.845 12 136.338V32.1625C12 27.6553 15.6553 24 20.1625 24H180.812C185.327 24 188.975 27.6553 188.975 32.1625Z" fill="#E9F2FF"/>
<path d="M188.975 32.1625V37.2085H12V32.1625C12 27.6553 15.6553 24 20.1625 24H180.812C185.327 24 188.975 27.6553 188.975 32.1625Z" fill="#BAC9D6"/>
<path d="M19.07 32.644C20.196 32.644 21.1088 31.7312 21.1088 30.6052C21.1088 29.4792 20.196 28.5664 19.07 28.5664C17.9441 28.5664 17.0312 29.4792 17.0312 30.6052C17.0312 31.7312 17.9441 32.644 19.07 32.644Z" fill="#939393"/>
<path d="M25.4997 32.644C26.6257 32.644 27.5385 31.7312 27.5385 30.6052C27.5385 29.4792 26.6257 28.5664 25.4997 28.5664C24.3737 28.5664 23.4609 29.4792 23.4609 30.6052C23.4609 31.7312 24.3737 32.644 25.4997 32.644Z" fill="#CEDCED"/>
<path d="M31.8923 32.644C33.0183 32.644 33.9311 31.7312 33.9311 30.6052C33.9311 29.4792 33.0183 28.5664 31.8923 28.5664C30.7663 28.5664 29.8535 29.4792 29.8535 30.6052C29.8535 31.7312 30.7663 32.644 31.8923 32.644Z" fill="white"/>
<path d="M186.856 37.3161H14.119C14.0607 37.3161 14.0098 37.2651 14.0098 37.2069C14.0098 37.1486 14.0607 37.0977 14.119 37.0977H186.856C186.914 37.0977 186.965 37.1486 186.965 37.2069C186.965 37.2651 186.922 37.3161 186.856 37.3161Z" fill="#939393"/>
<path d="M91.9572 58.8202H86.3651C84.6685 56.1188 81.6613 54.3203 78.239 54.3203C74.8168 54.3203 71.8095 56.1188 70.113 58.8202H64.5208C62.118 58.8202 60.1738 60.7644 60.1738 63.1672V110.242C60.1738 112.644 62.118 114.589 64.5208 114.589H91.9572C94.3601 114.589 96.3042 112.644 96.3042 110.242V63.1672C96.3042 60.7644 94.3601 58.8202 91.9572 58.8202Z" fill="#CEDCED"/>
<path d="M134.307 58.8202H128.715C127.018 56.1188 124.011 54.3203 120.589 54.3203C117.166 54.3203 114.159 56.1188 112.463 58.8202H106.87C104.468 58.8202 102.523 60.7644 102.523 63.1672V110.242C102.523 112.644 104.468 114.589 106.87 114.589H134.307C136.71 114.589 138.654 112.644 138.654 110.242V63.1672C138.654 60.7644 136.702 58.8202 134.307 58.8202Z" fill="#CEDCED"/>
<path d="M176.48 58.8202H170.895C169.199 56.1188 166.192 54.3203 162.769 54.3203C159.34 54.3203 156.34 56.1188 154.643 58.8202H149.051C146.648 58.8202 144.704 60.7644 144.704 63.1672V110.242C144.704 112.644 146.648 114.589 149.051 114.589H176.487C178.89 114.589 180.834 112.644 180.834 110.242V63.1672C180.834 60.7644 178.883 58.8202 176.48 58.8202Z" fill="#CEDCED"/>
<path d="M49.8713 58.8202H44.2792C42.5826 56.1188 39.5754 54.3203 36.1531 54.3203C32.7308 54.3203 29.7236 56.1188 28.027 58.8202H22.4349C20.032 58.8202 18.0879 60.7644 18.0879 63.1672V110.242C18.0879 112.644 20.032 114.589 22.4349 114.589H49.8713C52.2742 114.589 54.2183 112.644 54.2183 110.242V63.1672C54.2256 60.7644 52.2742 58.8202 49.8713 58.8202Z" fill="#CEDCED"/>
<path d="M125.86 125.016H72.1666C69.9749 125.016 68.1982 126.792 68.1982 128.984V133.702C68.1982 135.894 69.9749 137.671 72.1666 137.671H125.86C128.052 137.671 129.828 135.894 129.828 133.702V128.984C129.828 126.792 128.052 125.016 125.86 125.016Z" fill="#CEDCED"/>
<path d="M21.6475 106.443V57.5048C21.6475 55.6189 23.1766 54.0898 25.0624 54.0898H54.3556C56.2415 54.0898 57.7706 55.6189 57.7706 57.5048V106.443C57.7706 108.329 56.2415 109.858 54.3556 109.858H25.0697C23.1766 109.858 21.6475 108.329 21.6475 106.443Z" fill="#7AD001"/>
<path d="M26.6572 80.5598V75.0988C26.6572 74.9313 26.7956 74.793 26.963 74.793H52.4553C52.6228 74.793 52.7611 74.9313 52.7611 75.0988V80.5598C52.7611 80.7273 52.6228 80.8657 52.4553 80.8657H26.9703C26.7956 80.8657 26.6572 80.7273 26.6572 80.5598Z" fill="white"/>
<path d="M26.6572 90.5677V85.1066C26.6572 84.9391 26.7956 84.8008 26.963 84.8008H52.4553C52.6228 84.8008 52.7611 84.9391 52.7611 85.1066V90.5677C52.7611 90.7351 52.6228 90.8735 52.4553 90.8735H26.9703C26.7956 90.8808 26.6572 90.7424 26.6572 90.5677Z" fill="#017326"/>
<path d="M49.3023 59.1722C49.3023 61.3056 48.6033 63.2716 47.431 64.8663C45.6834 67.2327 42.8801 68.7618 39.7127 68.7618C37.1787 68.7618 34.8778 67.7788 33.1594 66.1769C31.2881 64.4294 30.123 61.9391 30.123 59.1795C30.123 53.8859 34.4191 49.5898 39.7127 49.5898C45.0135 49.5898 49.3023 53.8786 49.3023 59.1722Z" fill="#00ABFE"/>
<path d="M47.4308 64.8653C45.6832 67.2318 42.8799 68.7609 39.7125 68.7609C37.1785 68.7609 34.8776 67.7779 33.1592 66.176C33.283 65.943 33.4067 65.71 33.5305 65.477C33.9092 64.7634 34.3169 64.0425 34.9358 63.5255C35.8533 62.7537 37.0911 62.5425 38.2125 62.1057C38.5402 61.9746 38.8532 61.829 39.1518 61.6469C40.0474 61.6324 40.9503 61.6833 41.8313 61.8144C42.727 61.9382 43.608 62.1421 44.4672 62.4042C45.0497 62.5862 45.6395 62.8047 46.1274 63.176C46.7099 63.6056 47.1104 64.2173 47.4308 64.8653Z" fill="#FF6162"/>
<path d="M36.2751 56.353C35.6707 55.938 35.1392 55.4137 34.7314 54.8021C35.263 54.671 35.8018 54.5399 36.2824 54.2778C36.7994 54.0011 37.2435 53.5933 37.7532 53.3094C38.5105 52.887 39.428 52.756 40.258 53.0035C41.0881 53.2511 41.7944 53.9064 42.0566 54.8239C42.6099 54.7511 43.0978 55.2754 43.1779 55.8215C43.258 56.3676 43.0395 56.921 42.7993 57.4161C42.4862 58.0714 42.1221 58.7049 41.7143 59.3384C41.0881 58.5957 40.4328 57.8384 39.5663 57.3942C39.1513 57.1831 38.6925 57.052 38.2411 56.9282C37.6149 56.7608 36.894 56.7753 36.2751 56.353Z" fill="#3B2C26"/>
<path d="M36.1087 56.0673C35.9849 57.0576 35.9339 58.0915 36.298 59.0163C36.6621 59.941 37.5504 60.7274 38.5407 60.742C38.3514 61.6813 38.082 62.5987 37.7397 63.5089C39.2688 63.7128 40.878 63.0793 41.8465 61.8924C41.7154 61.208 41.5843 60.5308 41.3586 59.7371C41.7372 59.526 42.0649 59.2202 42.3125 58.8561C42.4581 58.6376 42.5819 58.3755 42.5382 58.1134C42.4872 57.8003 42.1596 57.56 41.8465 57.5964C41.5334 57.6328 41.2712 57.9386 41.2275 58.1716C40.8416 57.8658 40.5868 57.4144 40.3392 56.7809C39.9533 56.6425 39.6038 56.4241 39.3125 56.1328C39.2616 56.0819 39.2033 56.0236 39.1378 56.0163C39.0577 56.009 38.9921 56.06 38.9266 56.0964C38.5116 56.3586 37.9363 56.3586 37.5213 56.0819C37.0917 56.3149 36.531 56.2493 36.1087 56.0673Z" fill="#FFAD92"/>
<path d="M39.0716 56.9663C38.8604 56.7989 38.5182 56.8644 38.3362 57.0683C38.1541 57.2722 38.1104 57.5707 38.1614 57.8401C38.1832 57.9712 38.2269 58.095 38.2998 58.2042C38.3653 58.2988 38.4672 58.3644 38.5692 58.4081C38.9478 58.561 39.4357 58.3425 39.5667 57.9566C39.7051 57.5707 39.3847 57.2212 39.0716 56.9663Z" fill="#3B2C26"/>
<path d="M36.9231 56.9663C36.712 56.7989 36.3698 56.8644 36.1877 57.0683C36.0057 57.2722 35.962 57.5707 36.013 57.8401C36.0348 57.9712 36.0785 58.095 36.1513 58.2042C36.2168 58.2988 36.3188 58.3644 36.4207 58.4081C36.7994 58.561 37.2872 58.3425 37.4183 57.9566C37.5566 57.5707 37.2362 57.2212 36.9231 56.9663Z" fill="#3B2C26"/>
<path d="M38.4303 60.921C38.3721 60.921 38.3284 60.8773 38.3211 60.8264C38.3138 60.7681 38.3575 60.7099 38.4158 60.7026C39.2386 60.6079 40.0322 60.3094 40.7094 59.8288C40.7604 59.7924 40.8259 59.807 40.8623 59.8579C40.8987 59.9089 40.8842 59.9744 40.8332 60.0109C40.1269 60.506 39.2968 60.8264 38.4376 60.921H38.4303Z" fill="#EB7154"/>
<path d="M37.3099 57.7716C37.288 57.7716 37.2734 57.7644 37.2589 57.7571C37.2079 57.728 37.1861 57.6624 37.2152 57.6115C37.2225 57.5969 37.39 57.3056 37.7103 57.2401C37.9069 57.1964 38.1108 57.2474 38.322 57.3857L39.254 57.0581C39.2686 57.0508 39.2758 57.0508 39.2904 57.0508H41.5622C41.6205 57.0508 41.6714 57.1018 41.6714 57.16C41.6714 57.2183 41.6205 57.2692 41.5622 57.2692H39.305L38.3365 57.6115C38.3001 57.626 38.2637 57.6187 38.2346 57.5969C38.0598 57.4731 37.8996 57.4221 37.754 57.4585C37.5283 57.5095 37.4045 57.7207 37.4045 57.728C37.3827 57.7498 37.3463 57.7716 37.3099 57.7716Z" fill="#3B2C26"/>
<path d="M31.7539 101.534L36.7562 99.5023L31.7539 97.2232V94.8203L39.9091 98.8979V100.289L31.7539 103.908V101.534Z" fill="#017326"/>
<path d="M47.6781 105.899H39.3555V103.918H47.6781V105.899Z" fill="white"/>
<path d="M106.082 106.443V57.5048C106.082 55.6189 107.611 54.0898 109.497 54.0898H138.79C140.676 54.0898 142.205 55.6189 142.205 57.5048V106.443C142.205 108.329 140.676 109.858 138.79 109.858H109.497C107.611 109.858 106.082 108.329 106.082 106.443Z" fill="#00ABFE"/>
<path d="M111.092 80.5598V75.0988C111.092 74.9313 111.23 74.793 111.398 74.793H136.89C137.057 74.793 137.196 74.9313 137.196 75.0988V80.5598C137.196 80.7273 137.057 80.8657 136.89 80.8657H111.398C111.23 80.8657 111.092 80.7273 111.092 80.5598Z" fill="white"/>
<path d="M111.092 90.5677V85.1066C111.092 84.9391 111.23 84.8008 111.398 84.8008H136.89C137.057 84.8008 137.196 84.9391 137.196 85.1066V90.5677C137.196 90.7351 137.057 90.8735 136.89 90.8735H111.398C111.23 90.8808 111.092 90.7424 111.092 90.5677Z" fill="#0097D3"/>
<path d="M133.737 59.1717C133.737 61.3051 133.038 63.2711 131.865 64.8657C131.742 65.0332 131.618 65.1934 131.487 65.3463C129.732 67.4361 127.096 68.7613 124.154 68.7613C124.001 68.7613 123.841 68.754 123.688 68.7467C121.336 68.6375 119.21 67.6764 117.601 66.1691C117.477 66.0526 117.353 65.9361 117.237 65.8123C115.584 64.0939 114.565 61.7493 114.565 59.1717C114.565 53.8781 118.861 49.582 124.154 49.582C129.448 49.582 133.737 53.8781 133.737 59.1717Z" fill="url(#paint1_linear_86_1719)"/>
<path d="M121.176 57.0313C120.775 56.3759 120.513 55.5604 120.768 54.8395C120.95 54.3226 121.372 53.9221 121.86 53.6672C122.348 53.4124 122.887 53.3032 123.433 53.2231C124.059 53.1357 124.707 53.0993 125.319 53.2595C125.93 53.4197 126.506 53.8056 126.731 54.4536C127.074 54.3517 127.452 54.5119 127.678 54.7813C127.904 55.0507 127.991 55.4148 127.998 55.7716C128.02 56.8201 127.387 57.774 126.702 58.5312C125.785 58.5167 124.86 58.5021 123.95 58.3419C123.04 58.1744 121.838 58.1235 121.176 57.0313Z" fill="#3B2C26"/>
<path d="M131.479 65.3537C129.724 67.4435 127.089 68.7687 124.147 68.7687C123.994 68.7687 123.834 68.7614 123.681 68.7542C121.329 68.6449 119.203 67.6838 117.594 66.1765C117.47 66.06 117.346 65.9435 117.229 65.8197C117.426 65.3901 117.623 64.9605 117.812 64.5382C117.972 64.1887 118.14 63.8246 118.431 63.5698C118.678 63.3513 118.999 63.2276 119.312 63.1256C120.28 62.798 121.285 62.5431 122.006 62.463H122.013C122.21 62.4339 122.407 62.3975 122.603 62.3684C122.683 62.3538 122.771 62.3392 122.851 62.3247C123.615 62.1936 124.365 62.0625 125.064 61.9023C125.363 61.946 125.661 62.0043 125.96 62.0625C125.989 62.0698 126.018 62.0771 126.047 62.0771C126.229 62.1135 126.404 62.1499 126.579 62.1936C127.263 62.3538 127.933 62.5431 128.596 62.7615C128.953 62.878 129.309 63.0091 129.622 63.213C130.023 63.4751 130.343 63.8465 130.642 64.2251C130.933 64.5892 131.21 64.9678 131.479 65.3537Z" fill="#FF6162"/>
<path d="M123.645 68.5213C123.587 68.5213 123.536 68.4777 123.536 68.4194C123.47 66.5699 123.536 65.0918 123.616 63.4972C123.616 63.4389 123.674 63.3879 123.732 63.3952C123.79 63.3952 123.841 63.4462 123.834 63.5117C123.754 65.1064 123.688 66.5699 123.754 68.4121C123.761 68.4704 123.71 68.5213 123.645 68.5213C123.652 68.5213 123.652 68.5213 123.645 68.5213Z" fill="#EB7154"/>
<path d="M120.87 56.5581C120.957 57.4246 121.045 58.2911 121.343 59.1066C121.467 59.4561 121.642 59.791 121.904 60.0459C122.166 60.3007 122.545 60.4609 122.792 60.4245C122.741 61.109 122.683 61.7934 122.567 62.6017C123.018 62.8419 123.448 63.1332 123.841 63.4609C124.758 63.2133 125.596 62.6599 126.193 61.8954C126.054 61.2255 125.945 60.541 125.829 59.8129C125.902 59.6818 125.974 59.5435 126.062 59.2741C126.535 59.2158 126.965 58.8736 127.118 58.4221C127.198 58.1746 127.205 57.8906 127.088 57.6576C126.972 57.4246 126.732 57.2425 126.47 57.2353C126.207 57.228 125.945 57.4173 125.814 57.5848C125.698 57.6721 125.538 57.7085 125.399 57.6721C125.312 57.3299 125.254 56.9731 125.203 56.5581C124.919 56.3396 124.729 56.012 124.635 55.6406C123.601 56.3688 122.261 56.6819 120.87 56.5581Z" fill="#FFAD92"/>
<path d="M122.764 60.5392C122.705 60.5392 122.654 60.4956 122.654 60.4373C122.654 60.3791 122.698 60.3281 122.756 60.3208C123.506 60.2844 124.234 60.0441 124.853 59.6218C124.904 59.5854 124.97 59.5999 125.006 59.6509C125.043 59.7019 125.028 59.7674 124.977 59.8038C124.322 60.2407 123.557 60.4956 122.764 60.5392C122.771 60.5392 122.764 60.5392 122.764 60.5392Z" fill="#EB7154"/>
<path d="M126.208 61.793C125.56 62.5284 124.737 63.1109 123.819 63.4531C124.234 63.8172 124.598 64.2468 124.89 64.7128C125.56 63.941 126.135 63.0818 126.594 62.1643C126.441 62.0842 126.295 61.9823 126.208 61.793Z" fill="#E0464F"/>
<path d="M122.596 61.8789C122.902 62.476 123.346 62.993 123.929 63.3862C123.506 63.7138 123.164 64.1434 122.902 64.5512C122.603 63.8522 122.298 63.1532 122.014 62.4614C122.188 62.2794 122.363 62.0973 122.596 61.8789Z" fill="#E0464F"/>
<path d="M123.019 98.7838C122.793 97.1017 123.892 95.4125 125.414 94.6406C126.929 93.8688 128.756 93.9125 130.417 94.4367C129.594 94.7862 129.113 95.6527 128.8 96.4901C128.487 97.3275 128.261 98.2304 127.693 98.9221C126.878 99.9197 125.523 100.276 124.278 100.502C123.776 100.051 123.128 99.6066 123.019 98.7838Z" fill="url(#paint2_linear_86_1719)"/>
<path d="M122.385 99.5352C120.907 100.598 119.4 101.69 118.373 103.19C117.987 103.758 117.674 104.406 117.652 105.091C117.631 105.775 117.958 106.511 118.584 106.802C119.116 107.057 119.771 106.948 120.281 106.649C120.791 106.351 121.191 105.892 121.548 105.426C122.669 103.962 123.55 102.309 124.184 100.533C123.587 100.249 123.041 99.8847 122.385 99.5352Z" fill="#7AD001"/>
<path d="M123.368 99.4908C123.31 99.4908 123.266 99.4471 123.259 99.3888C123.186 98.3476 123.477 97.3063 124.082 96.4544C124.679 95.617 125.589 94.9836 126.579 94.7141C126.638 94.6996 126.696 94.736 126.71 94.7942C126.725 94.8525 126.689 94.9107 126.63 94.9253C125.684 95.1802 124.817 95.7845 124.249 96.5855C123.681 97.3864 123.397 98.3985 123.47 99.3815C123.477 99.4398 123.426 99.4908 123.368 99.498C123.376 99.4908 123.368 99.4908 123.368 99.4908Z" fill="#EAEAEA"/>
<path d="M125.713 96.8703C125.698 96.8703 125.684 96.8703 125.676 96.863C125.618 96.8412 125.589 96.7756 125.611 96.7247C125.836 96.1203 126.332 95.7271 126.703 95.5087C127.169 95.2247 127.693 95.0572 128.196 94.897C128.254 94.8752 128.312 94.9116 128.334 94.9698C128.356 95.0281 128.319 95.0864 128.261 95.1082C127.766 95.2684 127.264 95.4359 126.812 95.698C126.47 95.9019 126.019 96.2659 125.815 96.8048C125.8 96.8412 125.756 96.8703 125.713 96.8703Z" fill="#EAEAEA"/>
<path d="M123.951 100.189C123.893 100.189 123.842 100.145 123.842 100.087C123.842 100.029 123.885 99.9777 123.944 99.9704C125.167 99.9121 126.332 99.2932 127.06 98.3102C127.097 98.2593 127.162 98.252 127.213 98.2884C127.264 98.3248 127.271 98.3903 127.235 98.4413C126.47 99.4752 125.247 100.131 123.951 100.189C123.958 100.189 123.958 100.189 123.951 100.189Z" fill="#EAEAEA"/>
<path d="M126.478 97.7723C126.456 97.7723 126.441 97.765 126.419 97.7577C126.368 97.7286 126.354 97.6558 126.383 97.6048C126.733 97.0368 127.162 96.5199 127.65 96.0684C127.694 96.0247 127.766 96.032 127.803 96.0757C127.847 96.1194 127.839 96.1922 127.796 96.2286C127.322 96.6728 126.907 97.1679 126.565 97.7213C126.55 97.7577 126.514 97.7723 126.478 97.7723Z" fill="#EAEAEA"/>
<path d="M123.68 99.6726C123.644 99.6726 123.615 99.658 123.593 99.6289C123.557 99.578 123.564 99.5124 123.615 99.476C124.212 99.0318 124.722 98.5003 125.137 97.8814C125.173 97.8304 125.239 97.8158 125.29 97.8523C125.341 97.8887 125.355 97.9542 125.319 98.0052C124.889 98.6386 124.358 99.192 123.746 99.6508C123.724 99.6653 123.702 99.6726 123.68 99.6726Z" fill="#EAEAEA"/>
<path d="M121.752 99.5933C122.036 99.2438 122.32 98.887 122.618 98.5156C122.815 98.5593 122.99 98.6613 123.157 98.7705C123.936 99.2583 124.65 99.8627 125.254 100.584C124.868 100.817 124.504 101.079 124.169 101.348C124.104 101.253 124.024 101.173 123.944 101.086C123.368 100.46 122.72 99.7972 121.752 99.5933Z" fill="white"/>
<path d="M148.257 106.443V57.5048C148.257 55.6189 149.786 54.0898 151.672 54.0898H180.965C182.851 54.0898 184.38 55.6189 184.38 57.5048V106.443C184.38 108.329 182.851 109.858 180.965 109.858H151.672C149.793 109.858 148.257 108.329 148.257 106.443Z" fill="#FF6162"/>
<path d="M153.267 80.5559V75.0949C153.267 74.9274 153.405 74.7891 153.572 74.7891H179.065C179.232 74.7891 179.37 74.9274 179.37 75.0949V80.5559C179.37 80.7234 179.232 80.8618 179.065 80.8618H153.572C153.405 80.8618 153.267 80.7234 153.267 80.5559Z" fill="white"/>
<path d="M153.267 90.5677V85.1066C153.267 84.9391 153.405 84.8008 153.572 84.8008H179.065C179.232 84.8008 179.37 84.9391 179.37 85.1066V90.5677C179.37 90.7351 179.232 90.8735 179.065 90.8735H153.572C153.405 90.8808 153.267 90.7424 153.267 90.5677Z" fill="#E0464F"/>
<path d="M175.911 59.1711C175.911 61.3046 175.212 63.2706 174.04 64.8652C173.916 65.0327 173.793 65.1929 173.662 65.3458C173.56 65.4623 173.458 65.5788 173.356 65.688C171.608 67.5739 169.103 68.7535 166.329 68.7535C166.176 68.7535 166.016 68.7462 165.863 68.7389C163.664 68.637 161.654 67.7851 160.089 66.4453C159.98 66.3506 159.878 66.256 159.776 66.1613C159.652 66.0448 159.528 65.9283 159.412 65.8045C157.759 64.0861 156.74 61.7415 156.74 59.1638C156.74 53.8703 161.036 49.5742 166.329 49.5742C171.623 49.5742 175.911 53.8775 175.911 59.1711Z" fill="#7AD001"/>
<path d="M173.357 65.6942C171.609 67.5801 169.104 68.7597 166.33 68.7597C166.177 68.7597 166.017 68.7524 165.864 68.7451C163.665 68.6432 161.655 67.7912 160.09 66.4515C160.155 66.2476 160.235 66.051 160.323 65.8544C160.498 65.4612 160.709 65.0753 161.015 64.7767C161.59 64.2234 162.413 64.0413 162.849 63.852C163.032 63.8447 163.206 63.8302 163.388 63.8156C165.129 63.6408 166.832 63.0292 168.58 63.0947C168.849 63.102 169.112 63.1311 169.381 63.1675C169.767 63.2185 170.16 63.2913 170.546 63.3641C171.114 63.4734 171.718 63.5971 172.155 63.9831C172.709 64.4855 172.912 65.352 173.357 65.6942Z" fill="#C87AED"/>
<path d="M170.247 60.6481C168.573 61.9661 166.294 62.1408 164.167 62.2646C163.301 62.3156 162.413 62.3593 161.59 62.0826C161.772 60.9394 161.845 59.7817 161.808 58.6312C161.786 58.0196 161.743 57.4006 161.859 56.8036C161.983 56.2065 162.303 55.6167 162.93 55.3764C163.09 54.8449 163.556 54.4444 164.073 54.2551C164.597 54.0657 165.165 54.0657 165.718 54.124C166.323 54.1822 166.942 54.3206 167.459 54.641C168.602 55.34 169.061 56.7526 169.432 58.0414C169.694 58.9297 169.956 59.8326 170.247 60.6481Z" fill="#3B2C26"/>
<path d="M167.298 59.0807C167.364 58.7748 167.495 58.4035 167.808 58.3671C168.136 58.3307 168.354 58.7093 168.369 59.037C168.39 59.6413 168.034 60.1947 167.677 60.6753C167.924 61.4398 168.099 62.0296 168.267 62.6267C168.696 62.9398 169.038 63.049 169.381 63.1655C169.089 64.4252 168.434 65.5757 167.386 66.1873C166.337 66.799 164.859 66.748 164.014 65.8742C163.505 65.3572 163.272 64.6291 163.148 63.9155C163.745 63.6825 164.211 63.4786 164.67 63.2675C164.823 62.5612 164.925 62.0296 165.019 61.4981C164.531 61.236 164.073 61.0903 163.745 60.7699C163.468 60.4932 163.323 60.1219 163.206 59.7505C162.966 58.9787 162.849 58.1632 162.878 57.2093C163.17 56.9909 163.432 56.7288 163.643 56.4375C164.211 57.5734 165.565 58.2433 166.81 58.0176C166.854 58.4326 166.963 58.8549 167.298 59.0807Z" fill="#FFAD92"/>
<path d="M165.573 61.7261C165.354 61.7261 165.136 61.6897 164.932 61.6023C164.874 61.5805 164.852 61.5149 164.874 61.4567C164.895 61.3984 164.961 61.3766 165.019 61.3984C165.58 61.6242 166.272 61.4858 166.694 61.0562C166.738 61.0125 166.803 61.0125 166.847 61.0562C166.89 61.0999 166.89 61.1654 166.847 61.2091C166.512 61.5441 166.039 61.7261 165.573 61.7261Z" fill="#EB7154"/>
<path d="M172.97 96.6234L171.572 96.5506L170.523 96.4923C170.305 97.5991 170.385 98.9025 171.237 100.155L172.016 99.5942L173.298 98.6767C173.451 97.6792 172.97 96.6234 172.97 96.6234Z" fill="#00ABFE"/>
<path d="M164.137 102.09C164.137 102.09 164.574 104.493 165.892 105.767C166.139 106.007 166.103 106.415 165.812 106.59C165.608 106.714 165.36 106.837 165.084 106.918C164.909 106.969 164.719 106.918 164.588 106.794C164.115 106.357 162.972 105.097 162.302 102.578L164.137 102.09Z" fill="#BABABA"/>
<path d="M170.909 94.4393C171.375 95.6262 172.219 98.2693 172.176 101.852C172.168 102.201 171.877 102.471 171.535 102.456C169.722 102.369 166.518 102.485 162.375 103.76C162.098 103.847 161.821 103.934 161.537 104.029C160.817 104.269 160.016 104 159.608 103.359C159.193 102.711 158.821 101.772 158.967 100.548C159.04 99.9368 159.44 99.4125 160.016 99.1868C160.263 99.0921 160.554 98.9756 160.882 98.8373C162.338 98.2402 164.486 97.3227 166.263 96.3834C167.705 95.6189 169.03 94.8034 170.013 94.1553C170.326 93.9369 170.763 94.0752 170.909 94.4393Z" fill="white"/>
<path d="M162.368 103.758C162.091 103.846 161.815 103.933 161.531 104.028C160.81 104.268 160.009 103.999 159.601 103.358C159.186 102.71 158.815 101.77 158.96 100.547C159.033 99.9356 159.434 99.4113 160.009 99.1856C160.256 99.0909 160.548 98.9744 160.875 98.8361C160.606 99.8991 160.373 102.178 162.368 103.758Z" fill="#00ABFE"/>
<path d="M176.757 133.933C166.191 137.268 155.684 140.8 145.243 144.521C142.068 145.205 138.551 145.846 135.573 144.426C134.561 143.945 133.665 143.239 132.813 142.518C126.566 137.239 121.724 130.322 118.891 122.647C117.529 121.752 116.415 120.674 115.738 119.32C114.996 117.827 113.823 115.788 113.707 114.121C113.503 111.055 113.081 108.397 114.537 105.245C118.411 103.956 122.015 102.135 125.364 99.9219C128.051 100.439 130.534 101.793 132.311 103.788C133.534 105.164 134.415 106.803 135.384 108.368C138.973 114.186 143.823 119.13 147.66 124.788C157.876 116.596 177.805 103.774 180.71 103.861C182.509 104.815 183.244 106.373 183.659 108.361C185.487 117.106 183.055 126.637 176.757 133.933Z" fill="url(#paint3_linear_86_1719)"/>
<path d="M150.581 129.308C150.545 129.308 150.508 129.293 150.486 129.257L147.632 124.75C147.603 124.699 147.617 124.633 147.668 124.597C147.719 124.568 147.785 124.582 147.821 124.633L150.676 129.14C150.705 129.191 150.69 129.257 150.639 129.293C150.617 129.301 150.596 129.308 150.581 129.308Z" fill="url(#paint4_linear_86_1719)"/>
<path d="M122.664 98.8872C119.955 92.9456 117.253 87.0039 114.304 81.2734C112.535 84.2151 111.472 87.5864 111.115 90.7393C111.88 94.7222 112.899 98.6615 114.181 102.637C115.812 102.258 117.414 101.763 118.972 101.152C120.239 100.649 121.499 100.067 122.664 98.8872Z" fill="#FFAD92"/>
<path d="M114.18 95.0875C114.144 95.0875 114.1 95.0656 114.085 95.0292C114.056 94.9782 114.078 94.9127 114.129 94.8836L116.998 93.3763C117.049 93.3472 117.114 93.3691 117.144 93.42C117.173 93.471 117.151 93.5365 117.1 93.5656L114.231 95.0729C114.216 95.0875 114.195 95.0875 114.18 95.0875Z" fill="#EB7154"/>
<path d="M125.176 100.032C125.001 99.4784 124.826 98.9105 124.491 98.4372C124.156 97.9639 123.647 97.5707 123.071 97.5343C122.387 97.4906 121.768 97.9275 121.207 98.3134C119.03 99.8206 116.613 100.971 114.072 101.714C113.715 101.816 113.322 101.947 113.161 102.274C112.979 102.646 113.183 103.083 113.387 103.447C113.911 104.379 114.436 105.311 115.033 106.25C117.931 105.806 120.632 104.517 123.093 102.923C124.069 102.274 125.613 101.408 125.176 100.032Z" fill="url(#paint5_linear_86_1719)"/>
<path d="M70.995 102.634L86.7593 56.31C87.3709 54.526 89.3078 53.5649 91.099 54.1765L118.834 63.6132C120.618 64.2249 121.579 66.1617 120.967 67.953L105.203 114.277C104.591 116.061 102.655 117.022 100.863 116.411L73.1284 106.974C71.3445 106.362 70.3906 104.426 70.995 102.634Z" fill="#C87AED"/>
<path d="M84.0796 79.7405L85.8417 74.5707C85.9 74.4105 86.0747 74.3231 86.2349 74.3814L110.373 82.5948C110.533 82.6531 110.62 82.8278 110.562 82.988L108.8 88.1578C108.742 88.318 108.567 88.4054 108.407 88.3471L84.269 80.1337C84.1088 80.0755 84.0214 79.9007 84.0796 79.7405Z" fill="white"/>
<path d="M80.854 89.2327L82.6161 84.0629C82.6744 83.9027 82.8492 83.8153 83.0093 83.8736L107.147 92.087C107.307 92.1453 107.395 92.32 107.337 92.4802L105.574 97.65C105.516 97.8102 105.341 97.8976 105.181 97.8393L81.0434 89.6186C80.8832 89.5676 80.7958 89.3929 80.854 89.2327Z" fill="#A65ED1"/>
<path d="M112.405 66.7968C111.72 68.8138 110.424 70.4521 108.8 71.5807C108.254 71.9593 107.672 72.2797 107.06 72.5346C104.97 73.4229 102.56 73.5685 100.237 72.7822C97.8417 71.9666 95.9777 70.2919 94.8709 68.224C94.6889 67.8817 94.5214 67.525 94.383 67.1609C93.5966 65.1367 93.4947 62.8357 94.252 60.6222C95.9558 55.6126 101.402 52.9257 106.419 54.6368C111.429 56.3407 114.108 61.7872 112.405 66.7968Z" fill="#FF6162"/>
<path d="M107.06 72.538C104.97 73.4264 102.56 73.572 100.237 72.7856C97.8415 71.9701 95.9774 70.2954 94.8707 68.2274C94.6886 67.8852 94.5212 67.5284 94.3828 67.1643C94.6741 66.8876 94.9799 66.6182 95.2857 66.3488C95.708 65.9775 96.1522 65.6061 96.6837 65.4022C97.8706 64.9581 99.1594 65.4678 100.419 65.5479C100.63 65.5624 100.834 65.5624 101.045 65.5479C101.686 65.4969 102.327 65.5115 102.938 65.5333C103.281 65.8464 103.623 66.1595 103.965 66.4799C104.074 66.5818 104.184 66.6838 104.293 66.793C104.904 67.3682 105.502 67.958 106.099 68.5478C106.128 68.5769 106.157 68.6061 106.179 68.6279C106.419 68.8755 106.659 69.1376 106.805 69.4507C107.009 69.8803 107.016 70.3754 107.023 70.8487C107.031 71.4021 107.045 71.9701 107.06 72.538Z" fill="#00ABFE"/>
<path d="M100.827 60.7862C100.339 60.2474 100.412 59.3664 100.835 58.7766C101.257 58.1868 101.949 57.8518 102.648 57.6479C103.121 57.5096 103.623 57.4222 104.111 57.495C104.65 57.5751 105.138 57.8445 105.582 58.1504C106.063 58.478 106.529 58.8785 106.754 59.4173C107.009 60.0217 106.929 60.7134 106.754 61.3469C106.594 61.9294 106.347 62.5047 105.939 62.9488C105.531 63.393 104.934 63.6988 104.534 63.7206C103.325 62.927 102.072 62.1551 100.827 60.7862Z" fill="#3B2C26"/>
<path d="M106.136 60.2147C107.468 60.0108 108.873 60.9792 109.157 62.2899C109.441 63.6078 108.706 64.9257 107.905 66.0107C107.104 67.0956 106.172 68.1805 105.954 69.3601C105.145 69.1563 104.483 68.4645 104.308 67.6563C104.133 66.8408 104.446 65.9451 105.043 65.4282C105.087 64.0447 105.407 62.6831 106.136 60.2147Z" fill="#3B2C26"/>
<path d="M100.514 60.5955C100.332 61.2145 100.193 61.8625 100.237 62.5033C100.281 63.1513 100.536 63.7994 100.892 64.2217C100.696 64.8115 100.47 65.3867 100.281 65.9037C99.6036 67.0687 98.9264 68.2337 98.3293 69.4497C99.3706 69.2386 100.419 69.0056 101.402 68.5905C102.385 68.1755 103.303 67.5711 103.98 66.6682C103.885 65.8891 103.841 65.11 103.841 64.1634C104.154 64.1489 104.475 64.0833 104.744 63.9159C105.014 63.7484 105.218 63.4644 105.232 63.144C105.239 62.9474 105.159 62.729 104.985 62.6343C104.81 62.5324 104.548 62.5979 104.344 62.78C103.951 62.3067 103.834 61.6222 103.914 60.9232C103.725 61.0397 103.536 61.1489 103.339 61.2436C103.259 61.28 103.171 61.3164 103.099 61.2873C102.975 61.2363 102.968 61.0543 103.033 60.9305C103.099 60.8067 103.215 60.7193 103.186 60.5664C102.421 60.9086 101.526 60.9669 100.514 60.5955Z" fill="#FFAD92"/>
<path d="M102.232 64.6817C101.715 64.6817 101.198 64.5434 100.761 64.2667C100.71 64.2375 100.696 64.1647 100.725 64.1138C100.754 64.0628 100.827 64.0482 100.878 64.0773C101.526 64.4851 102.378 64.5725 103.099 64.3103C103.157 64.2885 103.215 64.3176 103.237 64.3759C103.259 64.4341 103.23 64.4924 103.171 64.5142C102.873 64.6235 102.552 64.6817 102.232 64.6817Z" fill="#EB7154"/>
<path d="M83.3216 106.407C83.0012 106.298 82.7609 106.021 82.6954 105.686L81.4648 98.8853L83.3143 98.5503L84.1881 103.385L88.5861 98.1935C88.8336 97.895 89.2414 97.7858 89.6055 97.9095L99.0058 101.106L98.4014 102.89L89.6055 99.8974L84.3337 106.123C84.1007 106.4 83.7221 106.516 83.3726 106.422C83.358 106.422 83.3362 106.414 83.3216 106.407Z" fill="white"/>
<path d="M116.599 76.3551C117.007 78.2701 117.706 80.1196 118.652 81.8307C118.987 82.4278 119.351 83.0103 119.555 83.6584C120.4 86.2724 118.565 88.9738 118.383 91.6097C117.422 92.1048 116.395 92.4543 115.339 92.447C114.618 91.8572 114.342 90.8888 114.196 89.9714C113.796 87.3428 114.254 84.5977 115.47 81.9254C114.939 80.5783 114.4 79.1657 114.575 77.724C114.633 77.2289 114.793 76.7337 115.135 76.3769C115.499 76.0347 116.067 75.8672 116.599 76.3551Z" fill="#FFAD92"/>
<path d="M114.785 92.651C114.741 92.651 114.698 92.6219 114.683 92.5782C113.409 89.2069 113.642 85.2968 115.317 82.1075C115.346 82.0565 115.411 82.0347 115.462 82.0638C115.513 82.093 115.535 82.1585 115.506 82.2095C113.86 85.3477 113.627 89.1923 114.887 92.5054C114.909 92.5636 114.88 92.6219 114.821 92.6437C114.814 92.6437 114.8 92.651 114.785 92.651Z" fill="#EB7154"/>
<path d="M231.418 177.831H172.628C172.053 166.523 173.225 154.691 175.949 143.215C175.898 142.334 175.854 141.453 175.818 140.572C175.818 140.565 175.818 140.558 175.818 140.55C175.745 138.672 175.708 136.793 175.716 134.907C175.759 124.735 176.983 114.447 179.371 104.435C179.385 104.369 179.4 104.296 179.422 104.231C182.138 103.051 185.058 102.359 187.963 101.937C188.873 101.806 189.791 101.697 190.693 101.609C191.946 101.1 193.213 100.641 194.502 100.248C197.946 99.192 201.485 98.5512 204.892 98.2891C207.186 98.4784 209.501 98.6968 211.81 99.0099C216.368 99.6216 220.889 100.619 225.135 102.585C226.707 103.313 228.244 104.172 229.729 105.199V105.257C229.627 117.811 229.736 130.364 230.05 142.968C230.05 143.026 230.05 143.092 230.057 143.15C230.1 144.912 230.151 146.681 230.202 148.451C230.202 148.502 230.202 148.56 230.21 148.611C230.414 155.434 230.668 162.285 230.989 169.152C231.12 172.035 231.266 174.933 231.418 177.831Z" fill="url(#paint6_linear_86_1719)"/>
<path d="M185.014 174.27C184.978 174.27 184.934 174.248 184.919 174.212C184.89 174.161 184.912 174.095 184.963 174.066C192.142 170.243 198.696 165.387 204.441 159.634C204.484 159.591 204.55 159.591 204.594 159.634C204.637 159.678 204.637 159.744 204.594 159.787C198.827 165.554 192.259 170.425 185.065 174.255C185.05 174.263 185.029 174.27 185.014 174.27Z" fill="url(#paint7_linear_86_1719)"/>
<path d="M175.985 142.969C175.927 142.969 175.883 142.926 175.876 142.867C175.126 134.086 175.461 125.217 176.866 116.516C176.873 116.458 176.932 116.414 176.99 116.429C177.048 116.436 177.092 116.494 177.077 116.552C175.672 125.239 175.337 134.086 176.087 142.846C176.094 142.904 176.051 142.962 175.985 142.962C175.992 142.969 175.992 142.969 175.985 142.969Z" fill="url(#paint8_linear_86_1719)"/>
<path d="M176.094 122.77C176.05 122.77 176.006 122.741 175.992 122.697C175.526 121.321 175.191 119.887 175.009 118.445C175.001 118.387 175.045 118.328 175.103 118.321C175.162 118.314 175.22 118.358 175.227 118.416C175.409 119.843 175.737 121.263 176.203 122.624C176.225 122.683 176.188 122.741 176.137 122.763C176.123 122.77 176.108 122.77 176.094 122.77Z" fill="url(#paint9_linear_86_1719)"/>
<path d="M195.849 115.549C203.626 115.258 211.089 112.346 217.941 108.647C220.14 107.46 222.332 106.156 224.014 104.3C224.734 103.506 225.375 102.538 225.332 101.467C225.259 99.5958 223.249 98.4818 221.487 97.8483C217.54 96.4357 213.419 95.5255 209.05 95.4017C205.198 95.2197 201.332 95.3289 197.495 95.7294C195.66 95.9187 193.788 96.1881 192.143 97.0255C188.64 98.8167 186.813 103.142 187.49 107.016C188.174 110.889 190.883 115.739 195.849 115.549Z" fill="url(#paint10_linear_86_1719)"/>
<path d="M202.118 114.469C201.819 118.007 201.659 121.575 201.514 125.427C201.623 130.16 201.798 134.893 202.009 139.641C201.368 139.677 200.727 139.721 199.948 139.641C199.548 131.245 199.635 122.82 200.392 114.432C200.414 114.156 200.603 113.915 200.873 113.828C201.011 113.784 201.157 113.748 201.295 113.726C201.747 113.646 202.154 114.01 202.118 114.469Z" fill="white"/>
<path d="M199.053 141.514C199.613 141.755 200.196 142.002 200.807 142.039C201.419 142.075 202.089 141.849 202.417 141.325C202.715 140.852 202.679 140.233 202.526 139.694C202.373 139.155 202.118 138.646 202.002 138.092C201.892 137.582 201.878 136.978 201.47 136.65C201.019 136.286 200.298 136.498 199.919 136.942C199.54 137.386 199.424 137.983 199.315 138.558C199.14 139.476 198.965 140.408 199.06 141.34C199.053 141.471 199.067 141.478 199.053 141.514Z" fill="#4D5A6D"/>
<path d="M192.099 114.01C190.977 117.302 189.965 120.651 188.91 124.27C187.854 128.886 186.871 133.517 185.91 138.177C185.276 138.061 184.643 137.937 183.907 137.675C185.56 129.476 187.694 121.365 190.461 113.45C190.577 113.108 190.897 112.867 191.261 112.867C191.269 112.867 191.276 112.867 191.283 112.867C191.873 112.86 192.288 113.45 192.099 114.01Z" fill="white"/>
<path d="M182.59 139.27C183.077 139.641 183.58 140.027 184.162 140.209C184.752 140.391 185.451 140.333 185.895 139.91C186.303 139.525 186.42 138.92 186.405 138.352C186.39 137.784 186.267 137.231 186.289 136.67C186.31 136.146 186.441 135.563 186.128 135.141C185.779 134.675 185.029 134.704 184.556 135.039C184.082 135.381 183.82 135.928 183.573 136.459C183.179 137.304 182.786 138.17 182.641 139.095C182.597 139.226 182.604 139.233 182.59 139.27Z" fill="#4D5A6D"/>
<path d="M211.256 87.8438C211.758 92.7296 212.006 97.6445 211.671 102.625C213.586 102.953 215.523 103.149 217.481 103.127C213.207 107.365 207.6 110.001 201.906 111.953C199.161 112.892 196.11 113.686 193.46 112.652C192.055 111.552 191.13 109.855 190.962 108.086C190.795 106.309 191.385 104.475 192.477 103.149C192.914 102.945 193.387 102.807 193.897 102.632C194.771 99.2392 195.601 95.846 196.227 92.5621C201.178 90.8655 206.195 89.3656 211.256 87.8438Z" fill="#FFAD92"/>
<path d="M211.256 87.8438C211.758 92.7296 212.006 97.6445 211.671 102.625C213.586 102.953 215.523 103.149 217.481 103.127C213.207 107.365 207.6 110.001 201.906 111.953C199.161 112.892 196.11 113.686 193.46 112.652C192.055 111.552 191.13 109.855 190.962 108.086C190.795 106.309 191.385 104.475 192.477 103.149C192.914 102.945 193.387 102.807 193.897 102.632C194.771 99.2392 195.601 95.846 196.227 92.5621C201.178 90.8655 206.195 89.3656 211.256 87.8438Z" fill="#FFAD92"/>
<path d="M214.955 88.0961C217.715 85.5913 220.496 82.9918 222.324 79.737C223.067 78.4191 223.649 76.9847 223.744 75.4774C223.838 73.9702 223.38 72.3828 222.302 71.327C223.205 70.8974 224.115 70.3222 224.96 69.6668C225.353 69.3537 225.775 68.9169 225.673 68.429C225.571 67.9266 224.989 67.6863 224.479 67.6644C223.125 67.5916 221.902 68.4072 220.787 69.1863C220.343 65.3781 218.283 62.1087 215.603 59.6403C212.916 57.1719 209.632 55.4389 206.246 54.0846C203.611 53.0288 200.858 52.1769 198.018 51.9876C196.373 51.8783 194.662 52.0021 193.191 52.7521C191.72 53.4948 190.533 54.9584 190.468 56.604C188.793 57.4341 187.693 58.8903 186.878 60.3903C185.553 62.8223 184.744 65.5747 184.825 68.3416C184.905 71.1086 185.909 73.8901 187.912 76.0672C195.404 79.7298 202.897 83.3923 210.39 87.0549C211.831 87.7612 213.732 89.2029 214.955 88.0961Z" fill="#3B2C26"/>
<path d="M212.195 78.2686C211.372 80.2928 210.666 82.368 210.098 84.4796C210.011 84.8073 209.923 85.1568 209.982 85.4917C210.047 85.8267 210.302 86.1543 210.644 86.1835C210.914 86.2053 211.161 86.0451 211.38 85.8776C212.443 85.084 213.375 84.1083 214.117 83.0088C214.977 82.7321 215.807 82.2661 216.717 82.1277C217.627 81.9894 218.647 82.2297 219.229 82.936C219.906 83.7588 219.848 84.9747 219.542 86.0014C219.236 87.0208 218.727 87.9747 218.057 88.7975C217.387 89.613 216.535 90.2975 215.552 90.6761C214.569 91.0547 213.44 91.113 212.457 90.7344C208.438 94.2658 203.152 96.3556 197.749 96.6905C194.996 96.9527 191.705 96.8507 189.332 94.9576C186.565 92.7513 185.938 88.8485 185.764 85.317C185.487 79.7758 185.822 74.2128 186.761 68.7372C187.14 68.9556 187.431 69.2906 187.773 69.56C188.123 69.8221 188.582 70.0114 188.989 69.8658C189.332 69.742 189.55 69.4144 189.71 69.0867C190.118 68.2857 190.329 67.3901 190.242 66.4727C191.035 67.9289 191.938 69.327 192.95 70.6522C193.46 71.3148 194.035 71.992 194.836 72.2323C195.965 72.5745 197.21 71.8973 197.894 70.9362C198.579 69.975 198.827 68.7736 198.987 67.7833C200.305 69.7275 201.703 71.6279 203.166 73.4628C203.8 74.2565 204.455 75.0429 205.271 75.64C205.926 76.1205 206.756 76.4773 207.55 76.2807C208.183 76.1278 208.7 75.6327 209.028 75.072C209.355 74.5113 209.53 73.8633 209.821 73.106C210.302 74.941 210.819 76.8705 212.195 78.2686Z" fill="#FFAD92"/>
<path d="M197.072 89.3952C196.664 89.3952 196.249 89.3733 195.826 89.3369C194.079 89.1767 192.302 88.718 190.875 88.3394C190.817 88.3248 190.78 88.2666 190.795 88.2083C190.81 88.1501 190.868 88.1136 190.926 88.1282C192.346 88.4996 194.115 88.9656 195.848 89.1185C197.712 89.286 199.358 89.0821 200.756 88.5141C200.814 88.4923 200.872 88.5214 200.902 88.5724C200.923 88.6306 200.894 88.6889 200.843 88.718C199.722 89.1695 198.462 89.3952 197.072 89.3952Z" fill="#EB7154"/>
<path d="M196.65 96.8894C195.703 96.8894 194.749 96.8311 193.81 96.7073C193.752 96.7001 193.708 96.6418 193.715 96.5836C193.723 96.5253 193.774 96.4816 193.839 96.4889C200.429 97.3263 207.295 95.1637 212.21 90.6856C212.254 90.6419 212.327 90.6492 212.363 90.6929C212.407 90.7366 212.4 90.8094 212.356 90.8458C208.096 94.7268 202.388 96.8894 196.65 96.8894Z" fill="#EB7154"/>
<path d="M213.397 159.787C208.795 157.908 204.135 156.175 199.424 154.581C196.256 154.77 193.198 153.991 190.795 152.265C190.198 152.935 189.113 152.709 188.298 152.345C187.387 151.938 186.528 151.421 185.742 150.809C185.269 150.445 184.81 150.03 184.533 149.491C184.235 148.909 184.191 148.231 184.191 147.576C184.191 146.04 184.395 144.518 184.606 142.996C184.671 142.494 184.744 141.984 184.985 141.533C185.225 141.081 185.654 140.702 186.157 140.673C184.184 139.494 182.269 138.168 180.448 136.719C180.128 136.457 179.793 136.181 179.618 135.809C179.443 135.438 179.487 134.928 179.822 134.681C180.179 134.411 180.681 134.55 181.104 134.695C183.98 135.693 186.812 136.807 189.594 138.045C190.46 138.431 191.319 138.824 192.113 139.341C192.827 139.807 193.482 140.375 194.123 140.943C196.657 143.178 199.132 145.479 201.674 147.838C205.926 148.435 210.171 149.003 214.431 149.564C214.904 149.629 215.377 149.688 216.185 149.433C215.45 152.848 214.496 156.226 213.397 159.787Z" fill="#FFAD92"/>
<path d="M186.193 140.686C186.143 140.686 186.099 140.65 186.084 140.606C186.07 140.548 186.106 140.49 186.164 140.475C187.278 140.198 188.473 140.133 189.616 140.293C189.674 140.3 189.718 140.358 189.71 140.417C189.703 140.475 189.645 140.519 189.587 140.511C188.473 140.351 187.308 140.417 186.223 140.686C186.208 140.679 186.201 140.686 186.193 140.686Z" fill="#EB7154"/>
<path d="M184.707 143.317C184.656 143.317 184.612 143.28 184.598 143.229C184.59 143.171 184.627 143.113 184.685 143.106C185.857 142.902 187.051 142.829 188.238 142.894C188.297 142.894 188.348 142.953 188.34 143.011C188.34 143.069 188.289 143.113 188.224 143.113C187.051 143.047 185.872 143.12 184.721 143.324C184.714 143.317 184.714 143.317 184.707 143.317Z" fill="#EB7154"/>
<path d="M184.437 146.189C184.394 146.189 184.35 146.16 184.335 146.116C184.314 146.058 184.343 146 184.401 145.978C185.515 145.548 186.673 145.25 187.852 145.075C187.911 145.068 187.969 145.104 187.976 145.17C187.983 145.228 187.947 145.286 187.881 145.294C186.716 145.461 185.573 145.76 184.474 146.182C184.459 146.182 184.445 146.189 184.437 146.189Z" fill="#EB7154"/>
<path d="M184.532 149.126C184.489 149.126 184.452 149.104 184.43 149.06C184.408 149.002 184.43 148.943 184.481 148.914C185.559 148.419 186.709 148.113 187.889 147.997C187.947 147.99 188.005 148.033 188.005 148.092C188.013 148.15 187.969 148.208 187.911 148.208C186.753 148.325 185.632 148.63 184.576 149.111C184.569 149.126 184.547 149.126 184.532 149.126Z" fill="#EB7154"/>
<path d="M190.817 152.394C190.773 152.394 190.729 152.365 190.715 152.321C190.365 151.331 189.39 150.588 188.348 150.508C188.29 150.501 188.246 150.45 188.246 150.392C188.254 150.334 188.305 150.283 188.363 150.29C189.491 150.377 190.54 151.185 190.919 152.249C190.94 152.307 190.911 152.365 190.853 152.387C190.839 152.394 190.824 152.394 190.817 152.394Z" fill="#EB7154"/>
<path d="M190.431 148.112C190.372 148.112 190.321 148.069 190.321 148.003C190.263 145.95 190.307 143.875 190.431 141.829C190.438 141.77 190.482 141.727 190.547 141.727C190.605 141.734 190.656 141.785 190.649 141.843C190.518 143.882 190.482 145.957 190.54 147.996C190.54 148.061 190.496 148.112 190.431 148.112Z" fill="#EB7154"/>
<path d="M213.396 159.896C213.381 159.896 213.367 159.896 213.352 159.889C208.779 158.025 204.083 156.277 199.408 154.697C196.219 154.886 193.168 154.078 190.809 152.418C190.059 153.146 188.777 152.687 188.253 152.454C187.336 152.039 186.469 151.522 185.675 150.904C185.231 150.561 184.729 150.124 184.438 149.549C184.124 148.938 184.081 148.239 184.081 147.583C184.081 146.04 184.292 144.489 184.496 142.989C184.561 142.508 184.634 141.962 184.882 141.489C185.064 141.139 185.399 140.768 185.85 140.629C183.942 139.479 182.1 138.19 180.375 136.814C180.025 136.53 179.69 136.246 179.515 135.86C179.333 135.467 179.355 134.884 179.748 134.593C180.134 134.302 180.666 134.426 181.132 134.593C184.001 135.583 186.855 136.712 189.629 137.943C190.51 138.336 191.362 138.729 192.163 139.246C192.869 139.705 193.496 140.244 194.187 140.855C196.707 143.069 199.117 145.319 201.673 147.692L201.709 147.729C205.932 148.319 210.206 148.894 214.43 149.447C214.903 149.513 215.354 149.571 216.141 149.323C216.177 149.309 216.221 149.323 216.25 149.345C216.279 149.367 216.294 149.411 216.286 149.447C215.653 152.462 214.794 155.666 213.505 159.823C213.498 159.852 213.476 159.874 213.447 159.889C213.432 159.896 213.41 159.896 213.396 159.896ZM199.423 154.471C199.437 154.471 199.445 154.471 199.459 154.479C204.112 156.051 208.779 157.784 213.33 159.641C214.568 155.622 215.405 152.505 216.032 149.578C215.303 149.775 214.845 149.717 214.408 149.658C210.177 149.105 205.881 148.53 201.651 147.933C201.629 147.933 201.607 147.918 201.593 147.904L201.527 147.845C198.971 145.472 196.561 143.222 194.042 141.008C193.357 140.404 192.731 139.872 192.047 139.421C191.26 138.911 190.416 138.518 189.542 138.132C186.775 136.909 183.921 135.78 181.059 134.79C180.629 134.637 180.185 134.535 179.879 134.761C179.581 134.986 179.566 135.445 179.712 135.758C179.865 136.1 180.163 136.355 180.506 136.632C182.297 138.066 184.212 139.392 186.2 140.578C186.243 140.6 186.258 140.651 186.251 140.695C186.236 140.739 186.2 140.775 186.149 140.775C185.646 140.804 185.26 141.205 185.064 141.576C184.838 142.013 184.765 142.515 184.7 143.003C184.496 144.496 184.285 146.04 184.285 147.569C184.285 148.202 184.328 148.865 184.62 149.44C184.889 149.979 185.37 150.387 185.792 150.721C186.571 151.326 187.43 151.836 188.326 152.243C188.828 152.469 190.059 152.913 190.7 152.192C190.736 152.149 190.802 152.141 190.845 152.178C193.19 153.852 196.233 154.668 199.423 154.471Z" fill="#EB7154"/>
<path d="M215.879 161.641C214.692 161.502 213.52 161.262 212.384 160.92C212.209 160.869 212.02 160.803 211.904 160.658C211.729 160.432 211.794 160.104 211.874 159.828C212.85 156.405 213.819 152.99 214.794 149.568C214.853 149.35 214.925 149.117 215.115 148.993C215.304 148.862 215.559 148.884 215.785 148.913C216.92 149.044 218.056 149.175 219.119 149.444C219.047 151.687 218.792 153.922 218.355 156.121C217.962 158.058 217.394 160.053 215.879 161.641Z" fill="url(#paint11_linear_86_1719)"/>
<path d="M251.718 158.933C251.492 162.727 248.477 165.894 245.004 167.438C241.531 168.982 237.635 169.2 233.842 169.404C226.932 169.105 220.211 166.528 214.896 162.195C214.801 161.831 214.815 161.788 214.83 161.744C215.857 160.098 216.308 158.169 216.738 156.276C217.291 153.858 217.844 151.441 218.398 149.016C219.235 148.193 220.16 147.356 221.325 147.116C222.133 146.955 222.963 147.101 223.764 147.254C227.106 147.887 230.434 148.623 233.733 149.446C230.128 143.497 226.808 137.439 223.946 131.176C223.524 125.271 225.876 119.279 228.643 113.439C228.33 110.672 228.65 107.832 229.64 105.211C230.456 105.648 231.271 106.077 232.094 106.514C232.771 106.878 233.463 107.25 233.995 107.803C234.519 108.364 234.861 109.157 234.606 109.98C238.444 116.818 241.8 123.917 244.487 131.366C246.409 132.647 247.385 135.203 246.752 137.46C248.856 144.268 252.184 151.135 251.718 158.933Z" fill="url(#paint12_linear_86_1719)"/>
<path d="M243.461 153.074C243.446 153.074 243.432 153.074 243.417 153.067C237.847 150.394 231.337 148.501 224.085 147.438C223.015 147.278 221.974 147.154 220.976 147.351C219.855 147.569 218.952 148.195 218.559 149.033C218.529 149.084 218.471 149.113 218.413 149.084C218.362 149.055 218.333 148.996 218.362 148.938C218.784 148.035 219.753 147.365 220.94 147.132C221.974 146.936 223.037 147.059 224.122 147.22C231.396 148.29 237.92 150.19 243.519 152.87C243.57 152.899 243.599 152.965 243.57 153.016C243.541 153.052 243.497 153.074 243.461 153.074Z" fill="url(#paint13_linear_86_1719)"/>
<path d="M233.61 149.493C233.573 149.493 233.537 149.472 233.515 149.435C230.158 143.544 226.947 137.472 223.984 131.377C223.954 131.326 223.976 131.261 224.035 131.232C224.085 131.202 224.151 131.224 224.18 131.283C227.144 137.37 230.355 143.443 233.704 149.326C233.733 149.377 233.719 149.442 233.661 149.472C233.646 149.493 233.631 149.493 233.61 149.493Z" fill="url(#paint14_linear_86_1719)"/>
<path d="M225.534 134.384C225.52 134.384 225.505 134.384 225.483 134.369L222.199 132.775C222.148 132.745 222.119 132.68 222.148 132.629C222.177 132.578 222.243 132.549 222.294 132.578L225.578 134.173C225.629 134.202 225.658 134.267 225.629 134.318C225.614 134.362 225.578 134.384 225.534 134.384Z" fill="url(#paint15_linear_86_1719)"/>
<path d="M243.127 133.273C243.105 133.273 243.083 133.265 243.068 133.258C239.136 130.68 235.19 127.702 232.94 123.428C232.911 123.377 232.933 123.312 232.983 123.283C233.034 123.253 233.1 123.275 233.129 123.326C235.357 127.557 239.282 130.513 243.185 133.076C243.236 133.112 243.25 133.178 243.214 133.229C243.192 133.258 243.163 133.273 243.127 133.273Z" fill="url(#paint16_linear_86_1719)"/>
<path d="M233.844 169.516C233.837 169.516 233.837 169.516 233.844 169.516C226.941 169.217 220.184 166.647 214.825 162.285C214.81 162.271 214.796 162.249 214.788 162.227C214.694 161.848 214.701 161.79 214.723 161.717C214.745 161.659 214.803 161.63 214.861 161.652C214.919 161.674 214.949 161.732 214.927 161.79C214.919 161.812 214.912 161.841 214.985 162.14C220.3 166.458 226.999 169.006 233.837 169.305C237.412 169.115 241.453 168.897 244.955 167.346C245.014 167.324 245.072 167.346 245.101 167.404C245.13 167.462 245.101 167.521 245.043 167.55C241.511 169.108 237.441 169.319 233.844 169.516Z" fill="url(#paint17_linear_86_1719)"/>
<path d="M196.227 113.255C195.266 113.255 194.32 113.11 193.424 112.76C193.417 112.753 193.402 112.753 193.395 112.746C191.975 111.632 191.021 109.899 190.854 108.1C190.686 106.331 191.262 104.46 192.39 103.091C192.441 103.011 192.492 102.923 192.543 102.828C192.769 102.443 193.053 101.962 193.461 101.401C193.497 101.35 193.562 101.343 193.613 101.379C193.664 101.416 193.672 101.481 193.635 101.532C193.235 102.086 192.951 102.559 192.725 102.938C192.667 103.032 192.616 103.12 192.565 103.207C192.565 103.214 192.558 103.214 192.558 103.222C191.458 104.547 190.905 106.36 191.065 108.078C191.232 109.811 192.143 111.486 193.512 112.564C196.104 113.569 199.06 112.819 201.871 111.857C208.802 109.484 213.739 106.688 217.395 103.061C217.453 102.981 217.948 102.224 217.715 101.547C217.569 101.117 217.147 100.797 216.47 100.6C216.412 100.586 216.375 100.52 216.397 100.462C216.419 100.404 216.477 100.367 216.535 100.389C217.285 100.608 217.751 100.972 217.926 101.474C218.21 102.29 217.598 103.156 217.569 103.193C217.569 103.2 217.562 103.2 217.555 103.207C213.87 106.855 208.912 109.666 201.936 112.061C200.058 112.702 198.099 113.255 196.227 113.255Z" fill="#CE7A00"/>
<path d="M219.761 103.972C219.732 103.972 219.71 103.965 219.688 103.943C219.644 103.9 219.637 103.834 219.681 103.79C220.452 102.924 220.78 102.072 220.642 101.256C220.423 99.9458 219.069 99.1667 219.062 99.1594C219.011 99.1303 218.989 99.0647 219.018 99.0138C219.047 98.9628 219.113 98.941 219.164 98.9701C219.222 99.0065 220.62 99.8074 220.853 101.22C220.998 102.101 220.656 103.019 219.833 103.936C219.819 103.965 219.79 103.972 219.761 103.972Z" fill="#CE7A00"/>
<defs>
<linearGradient id="paint0_linear_86_1719" x1="98" y1="0" x2="98" y2="196" gradientUnits="userSpaceOnUse">
<stop stop-color="#2BC3FC"/>
<stop offset="1" stop-color="#017EAC"/>
</linearGradient>
<linearGradient id="paint1_linear_86_1719" x1="124.151" y1="49.582" x2="124.151" y2="68.7613" gradientUnits="userSpaceOnUse">
<stop stop-color="#2BC3FC"/>
<stop offset="1" stop-color="#017EAC"/>
</linearGradient>
<linearGradient id="paint2_linear_86_1719" x1="126.703" y1="94.0508" x2="126.703" y2="100.502" gradientUnits="userSpaceOnUse">
<stop stop-color="#2BC3FC"/>
<stop offset="1" stop-color="#017EAC"/>
</linearGradient>
<linearGradient id="paint3_linear_86_1719" x1="148.87" y1="99.9219" x2="148.87" y2="145.275" gradientUnits="userSpaceOnUse">
<stop stop-color="#2BC3FC"/>
<stop offset="1" stop-color="#017EAC"/>
</linearGradient>
<linearGradient id="paint4_linear_86_1719" x1="149.154" y1="124.582" x2="149.154" y2="129.308" gradientUnits="userSpaceOnUse">
<stop stop-color="#2BC3FC"/>
<stop offset="1" stop-color="#017EAC"/>
</linearGradient>
<linearGradient id="paint5_linear_86_1719" x1="119.171" y1="97.5312" x2="119.171" y2="106.25" gradientUnits="userSpaceOnUse">
<stop stop-color="#2BC3FC"/>
<stop offset="1" stop-color="#017EAC"/>
</linearGradient>
<linearGradient id="paint6_linear_86_1719" x1="201.952" y1="98.2891" x2="201.952" y2="177.831" gradientUnits="userSpaceOnUse">
<stop stop-color="#2BC3FC"/>
<stop offset="1" stop-color="#017EAC"/>
</linearGradient>
<linearGradient id="paint7_linear_86_1719" x1="194.766" y1="159.602" x2="194.766" y2="174.27" gradientUnits="userSpaceOnUse">
<stop stop-color="#2BC3FC"/>
<stop offset="1" stop-color="#017EAC"/>
</linearGradient>
<linearGradient id="paint8_linear_86_1719" x1="176.283" y1="116.426" x2="176.283" y2="142.969" gradientUnits="userSpaceOnUse">
<stop stop-color="#2BC3FC"/>
<stop offset="1" stop-color="#017EAC"/>
</linearGradient>
<linearGradient id="paint9_linear_86_1719" x1="175.609" y1="118.32" x2="175.609" y2="122.77" gradientUnits="userSpaceOnUse">
<stop stop-color="#2BC3FC"/>
<stop offset="1" stop-color="#017EAC"/>
</linearGradient>
<linearGradient id="paint10_linear_86_1719" x1="206.342" y1="95.3164" x2="206.342" y2="115.555" gradientUnits="userSpaceOnUse">
<stop stop-color="#2BC3FC"/>
<stop offset="1" stop-color="#017EAC"/>
</linearGradient>
<linearGradient id="paint11_linear_86_1719" x1="215.456" y1="148.891" x2="215.456" y2="161.641" gradientUnits="userSpaceOnUse">
<stop stop-color="#2BC3FC"/>
<stop offset="1" stop-color="#017EAC"/>
</linearGradient>
<linearGradient id="paint12_linear_86_1719" x1="233.291" y1="105.211" x2="233.291" y2="169.404" gradientUnits="userSpaceOnUse">
<stop stop-color="#2BC3FC"/>
<stop offset="1" stop-color="#017EAC"/>
</linearGradient>
<linearGradient id="paint13_linear_86_1719" x1="230.966" y1="147.031" x2="230.966" y2="153.074" gradientUnits="userSpaceOnUse">
<stop stop-color="#2BC3FC"/>
<stop offset="1" stop-color="#017EAC"/>
</linearGradient>
<linearGradient id="paint14_linear_86_1719" x1="228.845" y1="131.219" x2="228.845" y2="149.493" gradientUnits="userSpaceOnUse">
<stop stop-color="#2BC3FC"/>
<stop offset="1" stop-color="#017EAC"/>
</linearGradient>
<linearGradient id="paint15_linear_86_1719" x1="223.889" y1="132.566" x2="223.889" y2="134.384" gradientUnits="userSpaceOnUse">
<stop stop-color="#2BC3FC"/>
<stop offset="1" stop-color="#017EAC"/>
</linearGradient>
<linearGradient id="paint16_linear_86_1719" x1="238.08" y1="123.27" x2="238.08" y2="133.273" gradientUnits="userSpaceOnUse">
<stop stop-color="#2BC3FC"/>
<stop offset="1" stop-color="#017EAC"/>
</linearGradient>
<linearGradient id="paint17_linear_86_1719" x1="229.911" y1="161.645" x2="229.911" y2="169.516" gradientUnits="userSpaceOnUse">
<stop stop-color="#2BC3FC"/>
<stop offset="1" stop-color="#017EAC"/>
</linearGradient>
</defs>
</svg>
