<svg width="577" height="450" viewBox="0 0 577 450" fill="none" xmlns="http://www.w3.org/2000/svg">
<path d="M346.254 122.677V257.386C346.254 261.767 343.004 265.305 339 265.305H108.834C104.83 265.305 101.58 261.749 101.58 257.386V122.677C101.58 118.295 104.83 114.758 108.834 114.758H339.018C343.004 114.74 346.254 118.295 346.254 122.677Z" fill="#E9F2FF"/>
<path d="M346.254 122.677V129.536H101.58V122.677C101.58 118.295 104.83 114.758 108.834 114.758H339.018C343.004 114.74 346.254 118.295 346.254 122.677Z" fill="#BAC9D6"/>
<path d="M108.349 124.42C109.599 124.42 110.612 123.407 110.612 122.157C110.612 120.907 109.599 119.895 108.349 119.895C107.1 119.895 106.087 120.907 106.087 122.157C106.087 123.407 107.1 124.42 108.349 124.42Z" fill="#939393"/>
<path d="M116.287 124.42C117.536 124.42 118.549 123.407 118.549 122.157C118.549 120.907 117.536 119.895 116.287 119.895C115.037 119.895 114.024 120.907 114.024 122.157C114.024 123.407 115.037 124.42 116.287 124.42Z" fill="#CEDCED"/>
<path d="M124.205 124.42C125.454 124.42 126.467 123.407 126.467 122.157C126.467 120.907 125.454 119.895 124.205 119.895C122.955 119.895 121.942 120.907 121.942 122.157C121.942 123.407 122.955 124.42 124.205 124.42Z" fill="white"/>
<path d="M342.608 129.804H103.752C103.608 129.804 103.482 129.679 103.482 129.535C103.482 129.391 103.608 129.266 103.752 129.266H342.608C342.752 129.266 342.877 129.391 342.877 129.535C342.877 129.679 342.77 129.804 342.608 129.804Z" fill="#939393"/>
<path d="M247.565 186.029C256.866 174.034 264.246 160.567 269.436 146.309C271.626 134.817 271.393 125.246 273.296 113.485C275.738 111.528 278.414 107.972 278.109 103.375C278.055 102.675 278.701 102.064 278.773 101.364C278.935 99.8199 277.965 98.3296 276.672 97.4497C275.379 96.5698 273.835 96.1748 272.327 95.8157C271.142 95.5284 269.974 95.2411 268.789 94.9358C267.73 94.6665 266.545 94.4151 265.575 94.9178C264.444 95.4925 263.995 96.8392 263.349 98.6169C263.69 102.567 264.031 106.536 264.318 111.097C261.876 122.14 259.093 133.093 255.34 144.442C250.743 152.342 245.913 160.1 241.011 166.833C241.837 173.369 242.842 180.301 247.565 186.029Z" fill="#FFAD92"/>
<path d="M264.569 111.422C263.241 109.016 261.894 106.61 260.565 104.203C260.44 103.97 260.314 103.737 260.332 103.467C260.35 103.18 260.547 102.946 260.727 102.749C261.248 102.138 261.768 101.528 262.307 100.917C262.702 100.45 263.133 99.9836 263.708 99.8041C264.174 99.6604 264.677 99.7502 265.162 99.8759C266.706 100.253 268.197 100.917 269.525 101.815C269.508 102.498 269.095 103.162 268.484 103.485C267.873 103.808 267.101 103.79 266.437 103.503C267.478 104.724 268.538 105.981 269.184 107.454C269.831 108.926 270.01 110.704 269.418 112.176C267.73 111.996 266.078 111.583 264.569 111.422Z" fill="#FFAD92"/>
<path d="M270.046 111.756C269.885 111.756 269.777 111.63 269.777 111.469C269.903 108.793 268.718 106.046 266.671 104.322C266.563 104.232 266.545 104.053 266.635 103.945C266.724 103.837 266.904 103.819 267.012 103.909C269.184 105.741 270.459 108.65 270.316 111.487C270.316 111.648 270.19 111.756 270.046 111.756Z" fill="#EB7154"/>
<path d="M273.009 104.707C272.776 104.707 272.542 104.671 272.363 104.635C271.77 104.527 271.124 104.347 270.729 103.899C269.992 104.294 269.005 104.24 268.34 103.719C268.215 103.629 268.197 103.468 268.287 103.342C268.376 103.216 268.538 103.198 268.664 103.288C269.22 103.719 270.064 103.719 270.639 103.306C270.711 103.252 270.783 103.234 270.854 103.252C270.926 103.27 270.998 103.324 271.034 103.396C271.267 103.827 271.842 103.988 272.435 104.096C272.74 104.15 273.027 104.186 273.278 104.132C273.476 104.078 273.673 103.916 273.691 103.719C273.691 103.593 273.781 103.503 273.889 103.468C274.015 103.432 274.122 103.486 274.194 103.593C274.41 103.952 274.966 103.988 275.343 103.791C275.792 103.539 276.08 103.019 276.277 102.606C276.313 102.516 276.367 102.426 276.403 102.318C276.6 101.887 276.816 101.421 277.139 101.043C277.247 100.936 277.408 100.918 277.516 101.026C277.624 101.133 277.642 101.295 277.534 101.403C277.247 101.726 277.067 102.121 276.888 102.534C276.852 102.624 276.798 102.731 276.762 102.821C276.529 103.324 276.187 103.916 275.595 104.24C275.128 104.491 274.499 104.509 274.051 104.204C273.907 104.401 273.691 104.563 273.422 104.635C273.296 104.689 273.153 104.707 273.009 104.707Z" fill="#EB7154"/>
<path d="M274.141 103.895C274.105 103.895 274.069 103.895 274.033 103.877C273.89 103.823 273.836 103.661 273.89 103.517C274.626 101.812 275.236 100.052 275.721 98.2562C275.757 98.1126 275.901 98.0228 276.044 98.0587C276.188 98.0946 276.278 98.2383 276.242 98.3819C275.757 100.196 275.129 101.991 274.392 103.715C274.339 103.823 274.249 103.895 274.141 103.895Z" fill="#EB7154"/>
<path d="M270.907 103.845C270.889 103.845 270.853 103.845 270.835 103.827C270.692 103.791 270.602 103.647 270.638 103.504L272.254 97.4164C272.29 97.2727 272.433 97.1829 272.577 97.2189C272.721 97.2548 272.811 97.3984 272.775 97.5421L271.159 103.629C271.141 103.755 271.033 103.845 270.907 103.845Z" fill="#EB7154"/>
<path d="M268.053 100.79C268.035 100.79 268.017 100.79 267.981 100.79C267.837 100.754 267.747 100.611 267.783 100.467C268.107 99.2282 268.34 97.9533 268.484 96.6963C268.502 96.5527 268.645 96.4449 268.789 96.4629C268.932 96.4809 269.04 96.6065 269.022 96.7682C268.861 98.061 268.627 99.3539 268.304 100.611C268.286 100.701 268.178 100.79 268.053 100.79Z" fill="#EB7154"/>
<path d="M265.629 99.9579C265.486 99.9579 265.378 99.8502 265.36 99.7245L265.001 96.4205C264.983 96.2768 265.091 96.1332 265.234 96.1152C265.378 96.0973 265.522 96.205 265.54 96.3487L265.899 99.6526C265.917 99.7963 265.809 99.94 265.665 99.9579C265.647 99.9579 265.647 99.9579 265.629 99.9579Z" fill="#EB7154"/>
<path d="M267.012 163.947C260.242 177.719 252.198 190.846 242.95 203.523C243.704 207.186 243.722 210.993 243.04 214.674C241.998 220.222 239.377 225.322 237.15 229.865C237.348 241.644 238.461 253.496 241.998 264.826C241.639 264.988 241.28 265.149 240.921 265.311H188.632C188.345 259.439 188.452 254.196 188.56 249.078C188.56 248.988 188.56 248.899 188.56 248.809C188.596 247.175 188.632 245.559 188.65 243.943C188.829 239.005 188.829 234.067 188.668 229.147C188.668 229.075 188.668 228.985 188.668 228.913C188.65 228.177 188.614 227.441 188.578 226.705C188.578 226.687 188.578 226.669 188.578 226.651C188.111 215.769 186.854 204.977 184.897 194.293C184.879 194.185 184.861 194.096 184.843 193.988C188.704 191.959 192.582 189.445 196.928 188.691C197.143 188.655 197.359 188.619 197.592 188.583C198.795 188.421 200.016 188.421 201.219 188.35C201.938 188.314 202.674 188.242 203.374 188.116C203.518 188.08 203.679 188.062 203.823 188.026C207.917 187.147 211.508 184.345 215.566 183.573C216.015 183.483 216.482 183.43 216.949 183.394C217.093 183.376 217.236 183.358 217.362 183.34C217.596 183.304 217.811 183.286 218.044 183.25C222.031 182.747 225.802 182.209 229.321 181.365C235.426 171.004 242.321 161.128 249.576 152.473C251.479 144.662 253.796 136.94 256.489 129.506C258.285 124.55 260.242 119.702 262.379 115.016C269.148 117.44 274.948 122.521 278.36 129.506C278.396 129.578 278.432 129.632 278.45 129.704C274.302 141.16 270.495 152.724 267.012 163.947Z" fill="url(#paint0_linear_86_2172)"/>
<path d="M218.386 174.177C221.528 174.518 224.76 174.105 227.705 172.974C228.477 172.687 229.267 172.292 229.806 171.609C228.226 168.126 227.723 164.283 227.22 160.494C226.718 156.705 226.197 152.863 224.617 149.379C223.037 145.896 220.199 142.789 216.016 141.981C211.957 140.132 207.486 139.054 203.033 139.306C198.58 139.557 194.145 141.209 190.895 144.28C186.136 148.787 184.466 155.664 184.017 162.182C183.586 168.718 184.125 175.344 182.329 181.934C186.8 182.365 191.308 182.814 195.078 182.437C196.838 182.383 198.616 182.132 200.25 181.342C205.565 177.84 211.491 173.423 218.386 174.177Z" fill="#3B2C26"/>
<path d="M209.389 191.308C205.493 191.056 201.704 189.279 199.029 186.424C199.316 180.588 199.873 175.021 200.627 169.473C205.295 170.353 209.802 171.107 214.309 171.825C215.082 176.027 216.195 180.354 217.667 184.053C216.267 187.178 213.789 189.799 209.389 191.308Z" fill="#FFAD92"/>
<path d="M200.771 174.661C204.057 176.385 207.684 177.498 211.383 177.911C212.982 178.091 214.669 178.127 216.178 177.552C218.207 176.762 219.661 174.894 220.433 172.865C221.206 170.836 221.367 168.628 221.439 166.455C221.565 162.074 221.331 157.674 220.739 153.329C217.902 151.946 215.908 149.271 215.226 146.254C211.473 151.587 205.853 155.573 199.73 157.728C199.909 163.205 200.089 168.699 200.771 174.661Z" fill="#FFAD92"/>
<path d="M209.516 168.789C212.012 168.969 214.526 168.718 216.932 168.035C217.004 169.148 216.716 170.28 216.25 171.303C216.016 171.842 215.711 172.363 215.262 172.722C214.202 173.584 212.568 173.332 211.491 172.506C210.432 171.68 209.803 170.387 209.516 168.789Z" fill="white"/>
<path d="M199.119 155.625C199.675 164.801 200.843 174.407 206.23 181.698C203.033 182.308 199.711 182.919 196.551 182.165C195.115 181.823 193.75 181.195 192.565 179.866C193.355 171.552 195.438 163.364 199.119 155.625Z" fill="#3B2C26"/>
<path d="M213.143 178.053C208.834 178.053 203.896 176.329 203.608 176.239C203.465 176.186 203.393 176.042 203.447 175.898C203.501 175.755 203.644 175.683 203.788 175.737C203.878 175.773 213.377 179.077 217.345 176.599C217.471 176.527 217.632 176.563 217.722 176.688C217.794 176.814 217.758 176.976 217.632 177.065C216.447 177.802 214.849 178.053 213.143 178.053Z" fill="#EB7154"/>
<path d="M215.548 258.79C215.404 258.79 215.296 258.683 215.278 258.539C213.357 236.004 211.903 213.109 210.933 190.502C210.933 190.358 211.041 190.233 211.184 190.215C211.328 190.215 211.454 190.323 211.472 190.466C212.423 213.055 213.896 235.95 215.817 258.485C215.835 258.629 215.727 258.772 215.566 258.772C215.566 258.79 215.548 258.79 215.548 258.79Z" fill="#2D1D4F"/>
<path d="M225.784 207.63C224.85 207.63 223.916 207.594 223 207.54C222.857 207.522 222.731 207.397 222.749 207.253C222.767 207.109 222.893 207.002 223.036 207.002C227.579 207.289 232.104 206.858 236.504 205.727C236.647 205.691 236.791 205.781 236.827 205.924C236.863 206.068 236.773 206.211 236.629 206.247C233.092 207.163 229.447 207.63 225.784 207.63Z" fill="#2D1D4F"/>
<path d="M242.752 203.898C242.663 203.898 242.555 203.844 242.519 203.754C239.7 198.439 236.988 192.962 234.457 187.485C234.403 187.342 234.457 187.198 234.582 187.126C234.726 187.072 234.87 187.126 234.941 187.252C237.455 192.711 240.167 198.187 242.986 203.485C243.058 203.61 243.004 203.772 242.878 203.844C242.824 203.88 242.788 203.898 242.752 203.898Z" fill="#2D1D4F"/>
<path d="M248.444 186.298C248.426 186.298 248.408 186.298 248.39 186.298C248.247 186.262 248.157 186.119 248.193 185.975C249.593 179.636 250.473 173.118 250.814 166.636C250.814 166.492 250.958 166.367 251.102 166.385C251.245 166.385 251.371 166.528 251.353 166.672C250.994 173.19 250.114 179.726 248.713 186.101C248.678 186.208 248.552 186.298 248.444 186.298Z" fill="#2D1D4F"/>
<path d="M196.173 239.27C200.195 234.996 204.217 230.723 208.239 226.449C209.873 226.521 211.256 225.749 212.243 224.707C213.231 223.666 213.913 222.355 214.56 221.062C217.523 221.439 220.18 219.697 220.934 217.237C221.473 213.305 220.108 209.408 217.505 206.625C213.913 207.361 210.807 208.798 207.988 210.665C206.39 213.772 204.738 216.806 203.283 219.931C199.566 222.732 195.921 225.731 192.168 229.232C192.473 232.464 193.335 235.625 194.718 238.552C194.951 238.982 195.311 239.485 196.173 239.27Z" fill="#FFAD92"/>
<path d="M214.219 218.242C214.093 218.242 213.985 218.152 213.95 218.027C213.375 215.513 212.621 213.017 211.687 210.629C211.633 210.485 211.705 210.341 211.849 210.287C211.992 210.234 212.136 210.305 212.19 210.449C213.142 212.873 213.896 215.387 214.47 217.919C214.506 218.063 214.416 218.206 214.273 218.242C214.255 218.242 214.237 218.242 214.219 218.242Z" fill="#EB7154"/>
<path d="M214.255 210.843C214.129 210.843 214.022 210.754 213.986 210.628C213.95 210.484 214.058 210.341 214.201 210.305C215.853 209.964 217.469 209.407 218.996 208.653C219.121 208.581 219.283 208.635 219.355 208.778C219.427 208.922 219.373 209.066 219.229 209.138C217.667 209.91 216.015 210.484 214.309 210.825C214.291 210.843 214.273 210.843 214.255 210.843Z" fill="#EB7154"/>
<path d="M215.136 213.489C215.028 213.489 214.92 213.417 214.884 213.291C214.848 213.148 214.92 213.004 215.064 212.95L220.056 211.478C220.2 211.442 220.343 211.514 220.397 211.657C220.451 211.801 220.361 211.945 220.217 211.999L215.226 213.471C215.19 213.489 215.172 213.489 215.136 213.489Z" fill="#EB7154"/>
<path d="M215.979 216.881C215.871 216.881 215.763 216.809 215.727 216.701C215.673 216.558 215.745 216.414 215.889 216.36C217.433 215.749 219.139 215.534 220.791 215.714C220.934 215.732 221.042 215.857 221.024 216.019C221.006 216.162 220.881 216.27 220.719 216.252C219.157 216.073 217.541 216.288 216.068 216.863C216.05 216.881 216.014 216.881 215.979 216.881Z" fill="#EB7154"/>
<path d="M214.399 221.008C214.363 221.008 214.327 221.008 214.291 220.99C214.148 220.919 214.094 220.775 214.166 220.631C214.597 219.698 215.548 219.033 216.572 218.943C216.716 218.925 216.859 219.033 216.859 219.195C216.877 219.338 216.769 219.482 216.608 219.482C215.782 219.554 214.992 220.111 214.651 220.847C214.597 220.954 214.489 221.008 214.399 221.008Z" fill="#EB7154"/>
<path d="M191.109 220.579C189.816 223.722 188.524 226.864 187.213 230.007C189.35 228.839 191.828 227.062 194.431 225.517C195.096 230.599 196.119 235.124 197.34 239.577C190.05 248.556 182.221 255.253 173.584 260.64C170.98 262.274 167.515 261.987 165.234 260.245C162.954 258.503 161.733 255.612 161.481 252.757C161.23 249.902 161.804 247.029 162.523 244.246C163.708 239.613 165.252 235.088 166.814 230.581C168.861 224.602 170.908 218.604 173.189 212.697C175.882 205.711 178.522 198.619 184.86 194.004C187.985 202.515 194.629 212.068 191.109 220.579Z" fill="url(#paint1_linear_86_2172)"/>
<path d="M173.494 240.598C173.422 240.598 173.35 240.562 173.296 240.508C173.206 240.4 173.206 240.221 173.332 240.131C179.814 234.636 186.799 229.591 194.054 225.173C194.179 225.102 194.341 225.137 194.431 225.263C194.521 225.389 194.467 225.55 194.341 225.64C187.105 230.057 180.155 235.085 173.691 240.562C173.619 240.58 173.565 240.598 173.494 240.598Z" fill="#2D1D4F"/>
<path d="M187.248 229.933C187.212 229.933 187.176 229.933 187.14 229.915C186.996 229.861 186.942 229.699 186.996 229.556C189.097 224.869 191.054 220.057 192.796 215.226C192.85 215.083 192.994 215.011 193.137 215.065C193.281 215.119 193.353 215.262 193.299 215.406C191.557 220.254 189.6 225.084 187.481 229.789C187.463 229.861 187.355 229.933 187.248 229.933Z" fill="#2D1D4F"/>
<path d="M190.48 222.95C190.427 222.95 190.373 222.932 190.337 222.914C190.211 222.825 190.175 222.663 190.265 222.537C191.396 220.832 192.779 219.323 194.395 218.048C194.521 217.959 194.682 217.976 194.772 218.102C194.862 218.228 194.844 218.389 194.718 218.479C193.156 219.7 191.809 221.173 190.714 222.825C190.66 222.897 190.57 222.95 190.48 222.95Z" fill="#2D1D4F"/>
<path d="M183.064 254.019C182.992 254.019 182.902 253.983 182.866 253.929C182.777 253.822 182.777 253.642 182.902 253.552C188.038 249.207 192.868 244.413 197.214 239.277C197.303 239.169 197.483 239.151 197.591 239.241C197.698 239.331 197.716 239.51 197.627 239.618C193.245 244.772 188.415 249.584 183.243 253.947C183.19 254.001 183.118 254.019 183.064 254.019Z" fill="#2D1D4F"/>
<path d="M207.576 198.422C208.51 195.801 209.641 193.269 210.988 190.845C213.268 192.066 215.297 193.736 217.129 195.585C218.691 192.551 218.835 188.187 219.194 184.829C218.422 182.836 218.547 183.159 217.237 181.902C216.536 185.44 213.699 187.99 211.167 190.503C206.876 189.426 202.979 187.415 198.777 185.134C197.987 186.122 197 187.523 196.658 188.474C200.322 191.527 203.859 194.759 207.576 198.422Z" fill="#2D1D4F"/>
<path d="M208.564 189.764L211.365 194.289L213.071 188.273L208.564 189.764Z" fill="#FFAD92"/>
<path d="M243.622 330.129H312.862V325.065H243.622V330.129Z" fill="#017326"/>
<path d="M164.768 284.791L179.312 328.354C179.671 329.413 180.659 330.131 181.79 330.131H268.34C270.118 330.131 271.393 328.39 270.818 326.684L256.274 283.121C255.914 282.062 254.927 281.344 253.796 281.344H167.246C165.45 281.344 164.193 283.103 164.768 284.791Z" fill="#7AD001"/>
<path d="M214.023 314.94C217.841 314.94 220.936 311.845 220.936 308.027C220.936 304.208 217.841 301.113 214.023 301.113C210.205 301.113 207.109 304.208 207.109 308.027C207.109 311.845 210.205 314.94 214.023 314.94Z" fill="white"/>
<path d="M343.578 330.148H118.045V342.107H343.578V330.148Z" fill="#CEDCED"/>
<path d="M343.596 330.148H275.469V342.107H343.596V330.148Z" fill="#E9F2FF"/>
<path d="M327.943 448.89H336.221V342.104H327.943V448.89Z" fill="#BAC9D6"/>
<path d="M282.472 448.89H290.75V342.104H282.472V448.89Z" fill="#BAC9D6"/>
<path d="M290.743 424.5H327.931V417.587H290.743V424.5Z" fill="#BAC9D6"/>
<path d="M170.447 448.89H178.725V342.104H170.447V448.89Z" fill="#BAC9D6"/>
<path d="M124.957 448.89H133.235V342.104H124.957L124.957 448.89Z" fill="#BAC9D6"/>
<path d="M133.247 424.5H170.435V417.587H133.247V424.5Z" fill="#BAC9D6"/>
<path d="M521.186 104.277C518.313 110.688 511.992 115.428 505.007 116.38C510.843 119.235 515.404 124.586 517.343 130.817C519.911 126.22 524.4 122.719 529.553 121.39C526.483 120.079 524.364 117.098 523.304 113.938C522.245 110.76 522.101 107.366 521.186 104.277Z" fill="#FEB000"/>
<path d="M313.806 155.18C310.933 161.59 304.613 166.331 297.628 167.282C303.464 170.137 308.024 175.488 309.964 181.719C312.532 177.122 317.021 173.621 322.174 172.292C319.104 170.981 316.985 168.001 315.925 164.84C314.866 161.644 314.74 158.25 313.806 155.18Z" fill="#FEB000"/>
<path d="M423.054 6.80859C422.694 13.8296 418.511 20.5273 412.352 23.939C418.816 24.4777 425.011 27.8356 429.069 32.9352C429.787 27.7099 432.714 22.8257 437.042 19.7193C433.702 19.6115 430.649 17.6004 428.512 15.0326C426.393 12.4649 425.047 9.34045 423.054 6.80859Z" fill="#FEB000"/>
<path d="M307.073 20.1484C309.461 26.7564 315.423 31.9458 322.318 33.4182C316.285 35.8244 311.347 40.8342 308.959 46.9035C306.732 42.1271 302.53 38.3024 297.484 36.5965C300.645 35.5191 302.979 32.7 304.272 29.6115C305.547 26.523 305.924 23.1472 307.073 20.1484Z" fill="#FEB000"/>
<path d="M426.196 206.324C424.292 203.703 420.845 203.451 418.133 203.487C417.702 203.487 417.217 203.559 416.984 203.918C416.822 204.152 416.822 204.457 416.822 204.726C416.84 209.664 416.876 214.62 416.894 219.558C418.384 218.714 419.893 217.835 421.401 216.955C423.628 215.644 426.016 214.153 426.932 211.729C427.596 209.952 427.327 207.851 426.196 206.324Z" fill="#037AA8"/>
<path d="M373.207 116.685C368.269 114.35 364.659 109.412 363.923 104.007C363.187 98.6025 365.378 92.8744 369.526 89.3191C371.339 87.7748 373.476 86.6256 375.272 85.0634C378.827 81.9749 380.856 77.4678 382.059 72.9069C383.262 68.346 383.729 63.6234 384.771 59.0266C385.74 54.735 387.877 49.9406 392.169 48.953C394.988 48.3066 397.879 49.5456 401.38 51.7183C405.905 46.1339 415.027 46.08 420.953 50.1561C426.878 54.2502 430.021 61.3609 431.475 68.3998C432.93 75.4567 432.948 82.7291 434.169 89.8218C434.851 93.8441 436.323 98.2973 440.04 99.9852C441.818 100.775 443.829 100.811 445.643 101.494C450.006 103.146 452.143 108.55 451.066 113.093C449.988 117.618 446.325 121.192 442.159 123.293C437.993 125.394 433.325 126.22 428.153 126.291C424.185 130.403 418.708 133.187 412.998 133.312C407.288 133.438 401.452 130.727 398.274 125.052C395.939 127.854 392.133 129.362 388.523 128.931C386.602 128.697 384.771 127.961 382.993 127.153C379.006 125.322 374.769 122.503 373.207 116.685Z" fill="#3B2C26"/>
<path d="M385.416 208.098C389.115 214.76 388.002 222.984 386.404 230.454C383.1 245.752 378.18 260.656 373.26 275.506C376.169 275.632 379.508 275.991 382.777 276.368C392.419 277.463 402.044 278.738 411.65 280.193C416.571 285.257 418.761 292.17 417.899 298.724C398.668 299.765 379.257 299.729 359.918 298.562C353.526 301.417 344.655 295.905 341.064 288.453C337.472 281.001 337.868 272.31 338.747 264.086C341.028 242.448 345.966 221.188 350.509 200.395C362.468 202.477 374.499 204.327 385.416 208.098Z" fill="#4D5A6D"/>
<path d="M369.021 283.512C368.986 283.512 368.932 283.494 368.896 283.476C368.77 283.404 368.716 283.243 368.788 283.117L373.349 274.48C373.421 274.354 373.582 274.3 373.708 274.372C373.834 274.444 373.888 274.605 373.816 274.731L369.255 283.368C369.219 283.458 369.111 283.512 369.021 283.512Z" fill="#3C4A5B"/>
<path d="M460.814 244.082C463.454 247.314 466.309 250.366 469.38 253.221C471.032 254.766 473.168 256.346 475.359 255.735C476.814 255.322 477.855 253.994 478.268 252.539C478.681 251.103 478.555 249.558 478.34 248.068C477.352 241.568 474.497 235.534 471.678 229.609C469.865 225.802 467.512 221.546 463.382 220.666C459.755 219.894 456.002 222.265 454.117 225.461C452.213 228.675 451.567 232.733 460.814 244.082Z" fill="#FF6162"/>
<path d="M445.14 241.388C447.348 238.928 449.539 236.486 451.748 234.026C452.592 233.074 453.525 232.087 454.764 231.782C455.698 231.548 456.668 231.764 457.565 232.105C461.426 233.577 463.886 237.492 464.946 241.55C462.755 245.985 460.51 250.402 458.176 254.766C453.956 250.582 449.754 246.38 445.14 241.388Z" fill="#FFAD92"/>
<path d="M441.996 278.613C443.325 284.934 444.151 291.362 444.492 297.809C444.618 300.089 444.636 302.513 443.451 304.471C443.02 305.189 442.391 305.853 441.583 306.087C440.775 306.32 439.895 306.105 439.105 305.763C437.022 304.884 435.371 303.267 433.754 301.687C431.797 299.766 429.858 297.845 427.901 295.941C427.362 295.42 426.769 294.684 426.805 293.822C429.193 286.819 434.634 280.948 441.996 278.613Z" fill="#FF6162"/>
<path d="M406.3 302.638C410.322 303.985 414.506 305.35 418.69 304.739C423.412 304.057 427.434 300.95 430.792 297.556C442.302 285.903 449.162 269.419 463.257 261.087C463.455 256.275 460.259 251.534 456.955 247.296C455.626 245.591 454.243 243.885 452.466 242.682C449.934 240.958 446.827 240.383 443.811 239.844C441.566 242.322 438.98 245.77 436.395 249.218C431.439 255.826 426.429 262.488 420.234 267.964C418.815 253.438 418.205 240.042 418.205 226.647C420.485 218.62 420.629 209.229 417.9 199.945C401.29 204.093 384.429 207.2 367.855 208.762C365.628 212.461 366.185 217.273 367.927 221.224C369.669 225.174 372.452 228.55 374.768 232.195C381.735 243.202 384.213 256.328 387.679 268.898C391.144 281.432 393.91 298.49 406.3 302.638Z" fill="#4D5A6D"/>
<path d="M420.413 284.322C420.269 284.322 420.161 284.214 420.143 284.07C419.676 278.773 419.551 273.404 419.766 268.089C419.766 267.945 419.892 267.82 420.053 267.838C420.197 267.838 420.323 267.963 420.305 268.125C420.071 273.404 420.197 278.755 420.682 284.034C420.7 284.178 420.592 284.322 420.431 284.322C420.431 284.322 420.431 284.322 420.413 284.322Z" fill="#3C4A5B"/>
<path d="M384.698 256.883C384.573 256.883 384.465 256.793 384.429 256.668C382.382 246.864 378.18 237.4 372.273 229.302C369.759 228.279 367.406 226.25 365.988 223.843C365.916 223.718 365.952 223.556 366.078 223.466C366.203 223.394 366.365 223.43 366.455 223.556C367.837 225.872 370.118 227.848 372.56 228.817C372.614 228.835 372.65 228.871 372.686 228.907C378.665 237.077 382.921 246.63 384.986 256.542C385.022 256.686 384.914 256.829 384.77 256.865C384.734 256.883 384.716 256.883 384.698 256.883Z" fill="#3C4A5B"/>
<path d="M416.589 305.172C412.979 305.172 409.424 303.986 406.21 302.909C395.239 299.228 391.755 285.743 388.702 273.838C388.271 272.132 387.858 270.534 387.41 268.953C387.374 268.81 387.445 268.666 387.589 268.63C387.733 268.594 387.876 268.666 387.912 268.81C388.343 270.39 388.756 271.988 389.205 273.694C392.24 285.455 395.67 298.797 406.372 302.388C410.142 303.663 414.434 305.1 418.654 304.489C422.568 303.915 426.375 301.67 430.613 297.378C430.72 297.271 430.882 297.271 430.99 297.378C431.098 297.486 431.098 297.648 430.99 297.756C426.68 302.119 422.784 304.435 418.726 305.028C418.025 305.118 417.307 305.172 416.589 305.172Z" fill="#3C4A5B"/>
<path d="M356.184 113.326C348.588 96.5906 343.668 78.6342 341.567 60.3905C342.214 46.2228 345.177 35.018 346.236 20.617C343.902 17.6182 341.765 12.6802 343.399 7.34718C343.65 6.52118 343.076 5.64131 343.183 4.79736C343.417 2.92989 344.997 1.43951 346.757 0.757167C348.517 0.0748228 350.456 0.0568664 352.341 0.03891C353.814 0.0209536 355.286 0.0209568 356.759 0.00300042C358.087 -0.014956 359.542 0.0209557 360.547 0.882864C361.714 1.87047 361.876 3.59428 362.145 5.87475C360.637 10.4357 359.129 15.0146 357.495 20.3117C357.279 34.0125 357.477 47.7132 358.716 62.1322C361.912 72.7445 365.431 83.231 369.31 92.5324C366.455 100.002 363.349 107.885 356.184 113.326Z" fill="#FFAD92"/>
<path d="M357.065 20.5991C359.309 18.1391 361.572 15.6791 363.816 13.2011C364.032 12.9676 364.247 12.7163 364.301 12.411C364.355 12.0698 364.193 11.7466 364.032 11.4413C363.583 10.5794 363.134 9.69958 362.685 8.83767C362.344 8.19124 361.985 7.50889 361.338 7.13181C360.818 6.8445 360.207 6.80859 359.614 6.80859C357.675 6.82655 355.754 7.16772 353.94 7.86802C353.779 8.69402 354.066 9.57388 354.694 10.1305C355.323 10.6872 356.239 10.8667 357.101 10.7231C355.52 11.8723 353.922 13.0395 352.755 14.6017C351.588 16.1639 350.87 18.193 351.157 20.0963C353.186 20.4016 355.251 20.3836 357.065 20.5991Z" fill="#FFAD92"/>
<path d="M350.58 19.4151C350.562 19.4151 350.544 19.4151 350.526 19.4151C350.383 19.3791 350.275 19.2534 350.311 19.1098C350.939 15.734 353.238 12.6814 356.308 11.1371C356.434 11.0653 356.595 11.1192 356.667 11.2628C356.739 11.3885 356.685 11.5501 356.542 11.622C353.615 13.0944 351.442 16.0033 350.831 19.2175C350.831 19.3253 350.706 19.4151 350.58 19.4151Z" fill="#EB7154"/>
<path d="M353.741 10.6321C353.076 10.6321 352.412 10.3807 351.927 9.93175C351.352 10.3807 350.544 10.4166 349.79 10.3627C349.431 10.3448 348.964 10.3088 348.551 10.0934C348.282 9.94971 348.03 9.69832 347.923 9.3751C347.33 9.62649 346.576 9.44693 346.109 9.01598C345.517 8.47728 345.283 7.66924 345.157 7.04077C345.139 6.91508 345.104 6.78938 345.086 6.66369C344.978 6.10704 344.87 5.5863 344.637 5.13739C344.565 5.0117 344.619 4.85009 344.744 4.77827C344.87 4.70644 345.032 4.7603 345.104 4.886C345.391 5.42469 345.499 5.9993 345.624 6.57391C345.642 6.6996 345.678 6.82529 345.696 6.95099C345.822 7.50764 346.019 8.20794 346.486 8.6389C346.881 8.99802 347.617 9.12372 347.977 8.72868C348.066 8.6389 348.192 8.62094 348.3 8.67481C348.408 8.72867 348.461 8.85437 348.443 8.96211C348.39 9.23146 348.605 9.5008 348.838 9.6265C349.126 9.77015 349.467 9.80606 349.862 9.82402C350.616 9.85993 351.352 9.84197 351.765 9.3751C351.819 9.32124 351.891 9.28532 351.963 9.28532C352.035 9.28532 352.124 9.32124 352.16 9.3751C352.717 10.0395 353.759 10.2909 354.549 9.93175C354.692 9.87789 354.836 9.93176 354.908 10.0754C354.962 10.2191 354.908 10.3627 354.764 10.4345C354.423 10.5602 354.082 10.6321 353.741 10.6321Z" fill="#EB7154"/>
<path d="M347.978 8.99891C347.852 8.99891 347.727 8.90913 347.709 8.78343C347.314 6.53888 347.098 4.25842 347.026 1.99591C347.026 1.85226 347.134 1.72656 347.296 1.72656C347.439 1.72656 347.565 1.8343 347.565 1.99591C347.637 4.24046 347.87 6.50297 348.247 8.71161C348.265 8.85526 348.176 8.99891 348.032 9.01686C348.014 8.99891 347.996 8.99891 347.978 8.99891Z" fill="#EB7154"/>
<path d="M351.802 9.84205C351.658 9.84205 351.532 9.73431 351.532 9.5727L351.335 1.94122C351.335 1.79757 351.443 1.67188 351.604 1.67188C351.748 1.67188 351.874 1.77961 351.874 1.94122L352.071 9.5727C352.071 9.71635 351.963 9.84205 351.802 9.84205Z" fill="#EB7154"/>
<path d="M356.003 7.04368C355.86 7.04368 355.734 6.91798 355.734 6.77433C355.716 5.19417 355.788 3.614 355.968 2.0518C355.985 1.90814 356.129 1.80041 356.273 1.81836C356.416 1.83632 356.524 1.96201 356.506 2.12362C356.327 3.66787 356.255 5.23008 356.273 6.77433C356.291 6.93594 356.165 7.04368 356.003 7.04368C356.021 7.04368 356.021 7.04368 356.003 7.04368Z" fill="#EB7154"/>
<path d="M359.112 6.7493C359.076 6.7493 359.058 6.7493 359.022 6.73134C358.879 6.67747 358.807 6.53382 358.861 6.39017L360.207 2.60137C360.261 2.45772 360.405 2.38589 360.549 2.43976C360.692 2.49363 360.764 2.63728 360.71 2.78093L359.363 6.56974C359.328 6.69543 359.22 6.7493 359.112 6.7493Z" fill="#EB7154"/>
<path d="M434.168 140.638C444.996 136.131 455.823 131.642 466.651 127.135C470.081 125.716 473.582 124.244 476.276 121.694C478.377 119.701 479.867 117.169 481.268 114.619C486.637 104.851 491.054 94.5436 494.394 83.9134C490.282 82.5667 485.739 81.2559 481.34 79.5859C477.443 89.7493 471.05 99.356 463.76 108.191C456.326 111.207 448.874 113.488 440.632 114.924C438.047 123.453 435.479 131.983 434.168 140.638Z" fill="#FFAD92"/>
<path d="M427.29 209.841C422.262 204.651 414.649 203.897 407.592 205.405C400.535 206.914 393.981 210.236 386.978 212.013C370.835 216.107 352.699 211.169 340.884 199.444C345.57 194.919 348.677 189.694 351.765 184.504C358.176 173.694 364.802 162.22 364.874 149.669C364.91 142.738 362.97 135.519 365.412 129.037C360.528 125.05 356.614 120.472 353.399 115.444C356.56 105.765 362.036 96.1945 369.255 88.168C372.667 93.7524 375.719 99.5523 378.377 105.532C379.275 105.245 380.801 104.921 382.184 105.298C385.649 106.25 387.032 111.062 390.551 111.763C399.458 111.709 409.028 110.865 417.917 111.601C419.479 110.254 421.221 112.499 423.286 113.091C425.71 113.792 428.296 113.594 430.792 113.343C436.61 112.732 442.373 111.781 448.497 110.739C444.313 120.633 441.476 131.084 439.985 141.912C434.652 144.012 429.409 146.347 423.968 149.022C421.239 156.492 418.491 163.98 415.475 171.737C416.947 178.309 418.402 184.863 419.874 191.435C420.269 193.159 420.664 194.919 421.508 196.481C422.603 198.456 424.363 199.965 425.656 201.814C427.29 204.077 427.595 206.914 427.29 209.841Z" fill="url(#paint2_linear_86_2172)"/>
<path d="M424.22 149.365C424.185 149.365 424.167 149.365 424.131 149.347C423.987 149.293 423.915 149.149 423.969 149.006L428.745 134.91C428.799 134.766 428.943 134.694 429.087 134.748C429.23 134.802 429.302 134.946 429.248 135.09L424.472 149.185C424.436 149.293 424.328 149.365 424.22 149.365Z" fill="#2D1D4F"/>
<path d="M365.395 129.895C365.341 129.895 365.305 129.877 365.252 129.859C365.126 129.787 365.072 129.625 365.162 129.482C368.232 124.238 371.734 119.193 375.559 114.488C375.648 114.38 375.828 114.362 375.936 114.452C376.043 114.542 376.061 114.721 375.972 114.829C372.165 119.516 368.681 124.544 365.611 129.751C365.575 129.841 365.485 129.895 365.395 129.895Z" fill="#2D1D4F"/>
<path d="M393.748 151.355C393.658 151.355 393.586 151.319 393.532 151.248C390.444 147.01 388.415 142.036 387.66 136.847C387.643 136.703 387.732 136.559 387.894 136.541C388.038 136.523 388.181 136.613 388.199 136.775C388.953 141.874 390.947 146.776 393.981 150.942C394.071 151.068 394.035 151.23 393.927 151.319C393.855 151.337 393.802 151.355 393.748 151.355Z" fill="#2D1D4F"/>
<path d="M372.723 205.41C372.597 205.41 372.489 205.32 372.453 205.195C372.417 205.051 372.525 204.907 372.669 204.871C379.744 203.399 386.28 199.628 391.074 194.223C391.164 194.115 391.343 194.097 391.451 194.205C391.559 194.295 391.577 194.475 391.469 194.582C386.603 200.077 379.959 203.92 372.776 205.41C372.759 205.392 372.741 205.41 372.723 205.41Z" fill="#2D1D4F"/>
<path d="M411.291 108.675C411.596 102.642 412.333 96.6262 413.626 90.3594C407.359 93.1247 400.607 94.7587 394.34 94.651C393.012 99.2658 391.431 103.809 389.241 107.849C387.786 107.849 386.332 107.526 384.536 106.556C384.644 109.824 385.039 113.128 386.224 116.199C387.409 119.269 389.42 122.07 392.239 123.74C396.764 126.434 402.726 125.751 407.287 123.112C411.848 120.472 415.224 116.199 417.935 111.62C415.583 111.081 413.338 110.147 411.291 108.675Z" fill="#FFAD92"/>
<path d="M413.895 78.954C413.159 80.0673 412.423 81.2345 412.333 82.5633C412.261 83.8921 412.926 85.2208 414.039 85.957C414.991 84.718 416.589 83.3893 418.42 82.6531C418.995 82.4196 419.623 82.258 420.234 82.2939C422.155 82.4376 423.322 84.7719 422.838 86.6394C422.353 88.5068 420.701 89.8356 418.959 90.6616C417.217 91.4876 415.332 91.9365 413.608 92.7984C409.604 96.8925 406.102 98.5086 400.248 98.4906C395.975 98.4727 389.582 97.7185 386.943 94.3606C384.698 91.4876 383.405 86.7651 383.98 83.1738C384.878 77.4457 386.673 71.8433 389.295 66.6719C391.593 62.1109 394.933 57.5679 400.805 56.3828C400.32 61.231 400.805 66.2768 403.014 70.6043C405.222 74.9318 409.298 78.4513 413.895 78.954Z" fill="#FFAD92"/>
<path d="M391.36 84.0156C393.964 85.7574 397.124 86.6552 400.249 86.5295C399.53 87.6967 398.704 88.8459 397.573 89.6539C396.442 90.444 394.97 90.857 393.659 90.444C392.527 90.0849 391.648 89.1332 391.217 88.0379C390.804 86.9246 390.804 85.6856 391.36 84.0156Z" fill="white"/>
<path d="M398.614 98.2222C396.477 98.2222 394.358 97.9708 392.293 97.4501C392.15 97.4142 392.06 97.2705 392.096 97.1269C392.132 96.9832 392.275 96.8934 392.419 96.9293C399.512 98.6891 407.359 97.3064 413.41 93.1944C413.536 93.1046 413.697 93.1405 413.787 93.2662C413.877 93.3919 413.841 93.5535 413.715 93.6433C409.316 96.642 403.965 98.2222 398.614 98.2222Z" fill="#EB7154"/>
<path d="M515.158 63.0995L474.117 52.1172L466.482 80.6512L507.522 91.6335L515.158 63.0995Z" fill="#FF6162"/>
<path d="M495.057 78.6758C492.454 83.129 489.976 87.636 487.605 92.2149C488.88 91.5864 490.173 90.958 491.448 90.3295C491.574 90.2577 491.735 90.2038 491.879 90.2397C492.041 90.2756 492.148 90.4552 492.238 90.5988C492.956 91.8917 493.657 93.1846 494.357 94.4774C496.099 89.9345 497.571 85.2837 498.756 80.4894C497.41 80.22 496.117 79.6275 495.057 78.6758Z" fill="#00ABFE"/>
<path d="M500.445 80.0384C501.379 85.0123 502.78 89.9144 504.629 94.619C505.437 93.0927 506.138 91.4946 506.694 89.8426C508.346 89.8246 509.98 89.8067 511.632 89.7708C508.939 86.2154 506.245 82.66 503.552 79.0508C502.421 79.7331 501.307 80.3975 500.445 80.0384Z" fill="#00ABFE"/>
<path d="M500.463 71.1981C498.057 70.4081 495.22 71.7009 494.053 73.9275C492.886 76.1721 493.371 79.099 495.077 80.9664C495.633 81.577 496.315 82.0977 497.106 82.385C498.363 82.8339 499.745 82.6543 501.002 82.2234C502.78 81.6129 504.486 80.4098 505.078 78.6321C505.527 77.2495 505.24 75.7052 504.504 74.4662C503.749 73.2093 502.726 71.9344 500.463 71.1981Z" fill="#FEB000"/>
<path d="M487.983 56.012C488.72 55.1501 489.546 54.3241 490.605 53.9111C491.664 53.4981 492.975 53.5879 493.765 54.4319C495.058 54.4498 496.1 55.4913 497.357 55.7786C497.734 55.8684 498.147 55.9043 498.524 56.03C499.009 56.2095 499.404 56.6046 499.637 57.1792C500.445 56.8201 501.415 57.3588 501.846 58.1309C502.259 58.903 502.259 59.8368 502.169 60.7166C502.079 61.5965 501.936 62.4763 502.061 63.3383C501.918 63.9488 501.702 64.5413 501.397 65.08C501.145 65.5469 500.786 66.0138 500.284 66.2113C499.781 66.4088 499.098 66.2113 498.937 65.6905C498.093 66.0497 496.98 65.4571 496.818 64.5413C495.741 65.0262 494.322 64.5593 493.747 63.4999C492.778 63.6794 491.826 62.9791 491.395 62.0993C490.964 61.2194 490.964 60.1959 491 59.2083C491.036 58.2207 491.108 57.2151 490.856 56.2993C490.102 56.5148 489.294 56.4609 487.983 56.012Z" fill="#FFAD92"/>
<path d="M493.657 63.6087C493.639 63.6087 493.639 63.6087 493.621 63.6087C493.477 63.5908 493.37 63.4471 493.388 63.3035C493.693 61.1128 493.729 58.9042 493.46 56.7135C493.442 56.5698 493.549 56.4262 493.693 56.4082C493.837 56.3903 493.98 56.498 493.998 56.6416C494.268 58.8862 494.232 61.1487 493.926 63.3753C493.908 63.5189 493.801 63.6087 493.657 63.6087Z" fill="#EB7154"/>
<path d="M496.476 64.7363H496.458C496.315 64.7184 496.207 64.5927 496.207 64.449L496.71 57.9308C496.728 57.7872 496.853 57.6794 496.997 57.6794C497.141 57.6974 497.249 57.8231 497.249 57.9668L496.746 64.4849C496.728 64.6286 496.62 64.7363 496.476 64.7363Z" fill="#EB7154"/>
<path d="M499.277 65.6539C499.259 65.6539 499.241 65.6539 499.223 65.6539C499.08 65.6359 498.972 65.4923 499.008 65.3486C499.367 63.2837 499.511 61.1648 499.439 59.0818C499.439 58.9382 499.547 58.8125 499.708 58.8125C499.852 58.8125 499.978 58.9202 499.978 59.0818C500.049 61.2187 499.888 63.3555 499.529 65.4564C499.511 65.5462 499.403 65.6539 499.277 65.6539Z" fill="#EB7154"/>
<path d="M576.311 449.347H0.448911C0.197521 449.347 0 449.15 0 448.898C0 448.647 0.197521 448.449 0.448911 448.449H576.311C576.563 448.449 576.76 448.647 576.76 448.898C576.76 449.15 576.563 449.347 576.311 449.347Z" fill="#3C4A5B"/>
<path d="M175.164 79.1223V33.6207C175.164 28.9161 178.971 25.1094 183.675 25.1094H229.159C233.864 25.1094 237.67 28.9161 237.67 33.6207V79.1043C237.67 83.8089 233.864 87.6157 229.159 87.6157H183.675C178.971 87.6336 175.164 83.8089 175.164 79.1223Z" fill="#00ABFE"/>
<path d="M202.8 74.5977C201.687 74.5977 200.627 74.0591 199.981 73.1433L188.237 56.5875C187.124 55.0252 187.501 52.8705 189.063 51.7751C190.625 50.6618 192.78 51.0389 193.876 52.6011L202.656 64.9911L218.889 39.7443C219.912 38.1462 222.049 37.6793 223.665 38.7029C225.263 39.7264 225.73 41.8632 224.707 43.4793L205.709 73.0355C205.08 74.0052 204.021 74.5977 202.89 74.6157C202.854 74.5977 202.836 74.5977 202.8 74.5977Z" fill="white"/>
<path d="M70.3171 213.844V172.509C70.3171 166.655 75.0576 161.914 80.9114 161.914H122.247C128.101 161.914 132.841 166.655 132.841 172.509V213.844C132.841 219.698 128.101 224.439 122.247 224.439H80.9114C75.0756 224.439 70.3171 219.698 70.3171 213.844Z" fill="#7AD001"/>
<path d="M126.107 177.249H88.9913C88.4885 177.249 88.0935 176.854 88.0935 176.351C88.0935 175.848 88.4885 175.453 88.9913 175.453H126.107C126.61 175.453 127.005 175.848 127.005 176.351C127.005 176.854 126.592 177.249 126.107 177.249Z" fill="#017326"/>
<path d="M126.107 194.077H88.9913C88.4885 194.077 88.0935 193.682 88.0935 193.179C88.0935 192.677 88.4885 192.281 88.9913 192.281H126.107C126.61 192.281 127.005 192.677 127.005 193.179C127.005 193.682 126.592 194.077 126.107 194.077Z" fill="#017326"/>
<path d="M126.107 210.901H88.9913C88.4885 210.901 88.0935 210.506 88.0935 210.004C88.0935 209.501 88.4885 209.106 88.9913 209.106H126.107C126.61 209.106 127.005 209.501 127.005 210.004C127.005 210.506 126.592 210.901 126.107 210.901Z" fill="#017326"/>
<path d="M79.5825 181.616C79.2054 181.616 78.8463 181.437 78.6309 181.131L74.6984 175.583C74.3213 175.062 74.447 174.344 74.9677 173.967C75.4885 173.59 76.2067 173.715 76.5838 174.236L79.5287 178.384L84.9695 169.909C85.3106 169.37 86.0289 169.208 86.5676 169.567C87.1063 169.909 87.2679 170.627 86.9088 171.165L80.5342 181.077C80.3187 181.401 79.9776 181.598 79.5825 181.616C79.5825 181.616 79.6005 181.616 79.5825 181.616Z" fill="white"/>
<path d="M79.5825 198.315C79.2054 198.315 78.8463 198.136 78.6309 197.831L74.6984 192.282C74.3213 191.761 74.447 191.043 74.9677 190.666C75.4885 190.289 76.2067 190.415 76.5838 190.935L79.5287 195.083L84.9695 186.608C85.3106 186.069 86.0289 185.907 86.5676 186.267C87.1063 186.608 87.2679 187.326 86.9088 187.865L80.5342 197.777C80.3187 198.1 79.9776 198.297 79.5825 198.315C79.5825 198.315 79.6005 198.315 79.5825 198.315Z" fill="white"/>
<path d="M79.5825 214.636C79.2054 214.636 78.8463 214.456 78.6309 214.151L74.6984 208.602C74.3213 208.082 74.447 207.363 74.9677 206.986C75.4885 206.609 76.2067 206.735 76.5838 207.256L79.5287 211.403L84.9695 202.928C85.3106 202.389 86.0289 202.228 86.5676 202.587C87.1063 202.928 87.2679 203.646 86.9088 204.185L80.5342 214.097C80.3187 214.42 79.9776 214.618 79.5825 214.636C79.5825 214.636 79.6005 214.636 79.5825 214.636Z" fill="white"/>
<defs>
<linearGradient id="paint0_linear_86_2172" x1="231.646" y1="115.016" x2="231.646" y2="265.311" gradientUnits="userSpaceOnUse">
<stop stop-color="#2BC3FC"/>
<stop offset="1" stop-color="#017EAC"/>
</linearGradient>
<linearGradient id="paint1_linear_86_2172" x1="179.381" y1="194.004" x2="179.381" y2="261.721" gradientUnits="userSpaceOnUse">
<stop stop-color="#2BC3FC"/>
<stop offset="1" stop-color="#017EAC"/>
</linearGradient>
<linearGradient id="paint2_linear_86_2172" x1="394.69" y1="88.168" x2="394.69" y2="213.433" gradientUnits="userSpaceOnUse">
<stop stop-color="#2BC3FC"/>
<stop offset="1" stop-color="#017EAC"/>
</linearGradient>
</defs>
</svg>
