<svg width="250" height="196" viewBox="0 0 250 196" fill="none" xmlns="http://www.w3.org/2000/svg">
<path opacity="0.19" d="M98 196C152.124 196 196 152.124 196 98C196 43.8761 152.124 0 98 0C43.8761 0 0 43.8761 0 98C0 152.124 43.8761 196 98 196Z" fill="url(#paint0_linear_86_1878)"/>
<path d="M100.306 179.052L85.5895 146.221C85.1707 145.28 84.2381 144.68 83.2106 144.68H32.731C30.8421 144.68 29.5775 146.632 30.3521 148.355L45.0684 181.186C45.4873 182.126 46.4199 182.727 47.4473 182.727H97.9269C99.8237 182.727 101.08 180.775 100.306 179.052Z" fill="#00ABFE"/>
<path d="M65.0483 167.704C62.7741 167.704 60.9306 165.861 60.9306 163.586C60.9306 161.312 62.7741 159.469 65.0483 159.469C67.3224 159.469 69.166 161.312 69.166 163.586C69.166 165.861 67.3224 167.704 65.0483 167.704Z" fill="white"/>
<path d="M2.00049 35.3064V130.725C2.00049 133.618 4.34782 135.965 7.24049 135.965H151.614C154.506 135.965 156.854 133.618 156.854 130.725V35.3064C156.854 32.4137 154.506 30.0664 151.614 30.0664H7.24838C4.34781 30.0664 2.00049 32.4137 2.00049 35.3064Z" fill="#E9F2FF"/>
<path d="M2.00049 35.3064V40.6334H156.854V35.3064C156.854 32.4137 154.506 30.0664 151.614 30.0664H7.24838C4.34781 30.0664 2.00049 32.4137 2.00049 35.3064Z" fill="#BAC9D6"/>
<path d="M109.971 49.9962V81.2862C109.971 83.1672 111.497 84.6926 113.378 84.6926H144.668C146.549 84.6926 148.074 83.1672 148.074 81.2862V49.9962C148.074 48.1152 146.549 46.5898 144.668 46.5898H113.378C111.497 46.5898 109.971 48.1152 109.971 49.9962Z" fill="#00ABFE"/>
<path d="M117.115 74.8879C119.928 74.959 122.734 75.0222 125.548 75.0933C127.65 75.1408 129.744 75.1961 131.847 75.1012C135.617 74.9353 139.394 74.3267 143.133 74.8167C141.971 72.3113 140.746 70.1142 139.418 67.9802C138.889 67.1266 138.312 66.2573 137.49 65.6803C136.707 65.135 135.751 64.8978 134.818 64.7003C132.684 64.2498 130.511 63.9573 128.914 63.9731C125.579 64.0522 122.26 64.7635 119.138 66.3205C116.956 68.5967 115.581 71.6316 117.115 74.8879Z" fill="#FF6162"/>
<path d="M126.132 59.3397C125.918 60.9599 125.713 62.5802 125.436 64.3268C126.804 66.113 128.677 67.5119 130.842 68.3102C131.419 67.1958 132.02 65.9945 132.075 64.8959C131.601 63.8526 131.127 62.8015 130.621 61.8056C129.183 61.1812 127.815 60.3988 126.132 59.3397Z" fill="#FFAD92"/>
<path d="M124.503 54.3192C124.393 55.2992 124.551 56.3188 125.064 57.1645C125.578 58.0022 126.471 58.6266 127.451 58.7056C127.736 58.7294 128.028 58.7056 128.281 58.5634C128.716 58.3263 128.913 57.8205 129.079 57.3463C129.277 56.7851 129.475 56.2319 129.672 55.6707C129.735 55.4968 129.799 55.3072 129.767 55.1254C129.735 54.9436 129.609 54.7855 129.482 54.6512C128.36 53.4814 126.376 53.2601 124.503 54.3192Z" fill="#3B2C26"/>
<path d="M133.363 54.537C133.221 55.9675 133.466 57.564 133.308 58.9866C133.142 60.4092 132.415 61.9267 131.047 62.3772C130.233 62.638 129.332 62.472 128.566 62.1085C127.799 61.737 127.135 61.1838 126.661 60.6068C125.713 59.9983 125.001 59.0261 124.693 57.9355C124.598 57.6035 124.543 57.2557 124.622 56.9238C124.693 56.5919 124.922 56.2757 125.246 56.1651C125.634 56.0307 126.068 56.2204 126.337 56.5286C126.606 56.8369 126.732 57.2399 126.953 57.6983C127.246 57.6746 127.578 57.9275 127.799 57.73C127.878 57.6588 127.91 57.5561 127.933 57.4533C128.155 56.5602 128.344 55.6592 128.447 54.861C129.19 54.5211 129.973 54.2524 130.787 54.205C131.585 54.1497 132.431 54.1813 133.363 54.537Z" fill="#FFAD92"/>
<path d="M130.692 60.6292C130.984 60.6292 131.285 60.5897 131.569 60.5028C131.633 60.4869 131.672 60.4158 131.648 60.3526C131.633 60.2894 131.561 60.2577 131.498 60.2736C130.581 60.5423 129.554 60.3368 128.819 59.7361C128.771 59.6966 128.692 59.7045 128.653 59.7519C128.613 59.7993 128.621 59.8784 128.669 59.9179C129.246 60.3842 129.965 60.6292 130.692 60.6292Z" fill="#EB7154"/>
<path d="M133.488 54.4968C133.567 53.09 133.465 51.9519 132.485 50.9403C131.607 50.0314 130.248 49.8101 128.983 49.7864C127.893 49.7706 126.731 49.8891 125.846 50.5293C125.15 51.0351 124.7 51.8097 124.439 52.6237C124.178 53.4378 124.32 54.2518 124.297 55.2714C125.798 54.9394 126.857 55.058 128.399 55.0106C129.141 54.9869 130.169 55.0106 130.88 54.813C131.773 54.5759 132.587 54.6312 133.488 54.4968Z" fill="white"/>
<path d="M136.714 54.7516C134.959 54.3881 133.149 54.5145 131.703 54.8228C131.758 54.4039 131.83 53.9455 132.146 53.6689C132.335 53.495 132.596 53.416 132.849 53.3369C133.339 53.1868 133.837 53.0366 134.351 53.0208C134.864 53.005 135.402 53.1235 135.781 53.4713C136.003 53.6768 136.161 53.9376 136.319 54.1984C136.445 54.4355 136.587 54.6805 136.714 54.7516Z" fill="#E0464F"/>
<path d="M129.886 62.6534C130.305 62.6534 130.724 62.5823 131.111 62.519C131.174 62.5111 131.222 62.4479 131.206 62.3847C131.198 62.3215 131.135 62.274 131.072 62.2898C130.455 62.3926 129.752 62.5111 129.119 62.3215C128.661 62.1792 128.274 61.8947 127.95 61.6259C127.483 61.2466 127.057 60.8119 126.669 60.3535C126.63 60.3061 126.551 60.2982 126.503 60.3377C126.456 60.3772 126.448 60.4562 126.488 60.5037C126.883 60.9779 127.325 61.4126 127.8 61.8077C128.139 62.0923 128.55 62.4005 129.048 62.5507C129.325 62.6218 129.609 62.6534 129.886 62.6534Z" fill="#EB7154"/>
<path d="M136.777 54.7561C136.572 54.195 136.343 53.6022 135.876 53.2308C135.299 52.7724 134.501 52.7565 133.766 52.8198C132.549 52.9304 131.3 53.2387 130.138 53.0964C129.285 53.3177 128.566 54.0053 128.392 55.0169C129.38 55.0565 130.368 55.0881 131.356 55.1276C131.442 55.1276 131.529 55.1355 131.616 55.1039C131.711 55.0644 131.782 54.9774 131.853 54.8984C132.391 54.274 133.063 53.7287 133.861 53.5311C134.659 53.3414 135.6 53.5627 136.082 54.2266C136.279 54.4953 136.437 54.8589 136.777 54.7561Z" fill="#FF6162"/>
<path d="M109.971 73.0273V81.2786C109.971 83.1596 111.497 84.685 113.378 84.685H144.668C146.549 84.685 148.074 83.1596 148.074 81.2786V73.0273H109.971Z" fill="white"/>
<path d="M120.474 77.1797H145.046V80.5308H120.474V77.1797Z" fill="#CEDCED"/>
<path d="M115.433 81.4345C114.006 81.4345 112.849 80.2774 112.849 78.8501C112.849 77.4227 114.006 76.2656 115.433 76.2656C116.86 76.2656 118.018 77.4227 118.018 78.8501C118.018 80.2774 116.86 81.4345 115.433 81.4345Z" fill="#BAC9D6"/>
<path d="M59.7215 49.9962V81.2862C59.7215 83.1672 61.2469 84.6926 63.1279 84.6926H94.4178C96.2989 84.6926 97.8242 83.1672 97.8242 81.2862V49.9962C97.8242 48.1152 96.2989 46.5898 94.4178 46.5898H63.1279C61.2469 46.5898 59.7215 48.1152 59.7215 49.9962Z" fill="#FF6162"/>
<path d="M85.6526 54.7141C86.111 55.1014 86.6326 55.3938 87.091 55.7732C87.5494 56.1525 87.9604 56.6504 88.0394 57.2432C88.1185 57.836 87.7786 58.5078 87.1938 58.6342C87.7312 59.3376 87.9446 60.3493 87.5257 61.1238C87.0989 61.9063 85.945 62.2461 85.2732 61.6692C85.0361 62.7361 83.9375 63.4316 82.8469 63.5502C81.7562 63.6687 80.6813 63.321 79.6539 62.9574C79.5037 62.9021 79.3377 62.8468 79.1796 62.8705C79.0058 62.8942 78.8556 62.9969 78.6975 63.0839C77.4251 63.811 75.631 63.4 74.7932 62.1987C74.4217 62.586 73.8211 62.7282 73.3074 62.5623C72.7936 62.3963 72.3985 61.93 72.3194 61.4004C71.9638 61.5822 71.4975 61.5348 71.1813 61.2898C70.8652 61.0369 70.715 60.5943 70.8098 60.207C70.8415 60.0648 70.9126 59.9225 70.8731 59.7802C70.8415 59.638 70.7229 59.5431 70.6202 59.4404C70.0037 58.816 69.9484 57.7806 70.3356 56.9903C70.7229 56.2 71.4658 55.6467 72.5565 55.3622C72.5012 53.4337 73.7658 51.5369 75.5598 50.8335C76.5557 50.4462 77.6464 50.4067 78.7212 50.3988C79.4879 50.3909 80.4205 50.5094 80.8236 51.4421C82.3252 51.0706 84.0166 51.6871 84.9255 52.9279C85.2258 53.3389 85.455 53.8368 85.6526 54.7141Z" fill="#3B2C26"/>
<path d="M67.9083 75.5305C69.7972 75.8862 71.7336 75.7835 73.6541 75.6965C79.3683 75.4515 85.0905 75.4041 90.8047 75.5701C89.6587 73.0963 88.5522 70.8754 87.3904 68.6782C87.0742 68.0855 86.7502 67.4848 86.2602 67.0264C85.7465 66.5522 85.0905 66.2677 84.4266 66.0306C82.2689 65.256 80.0006 64.8845 78.2698 64.3945C76.1516 64.6395 74.0177 64.8846 72.0023 65.5643C71.2515 65.8172 70.5006 66.1491 69.9237 66.6945C69.4337 67.1608 69.1017 67.7614 68.8014 68.3621C67.7344 70.5276 67.0626 72.8987 66.8097 75.3172C67.2444 75.491 67.6791 75.6096 67.9083 75.5305Z" fill="#FEB000"/>
<path d="M80.467 62.2199C80.791 63.1288 81.1072 64.0456 81.3205 64.9545C82.024 65.16 82.7195 65.405 83.3359 65.6974C83.2648 66.796 82.6167 67.8234 81.7078 68.4478C80.7989 69.0722 79.6608 69.3251 78.5622 69.2382C76.2544 69.0643 74.1047 67.3176 73.7806 65.2627C74.3971 64.8675 75.0452 64.5277 75.8671 64.1799C75.9225 62.9944 76.0885 61.8168 76.4362 60.7656C77.5822 60.9395 78.7124 61.224 79.7952 61.6271C80.0876 61.7378 80.3484 61.8879 80.467 62.2199Z" fill="#FFAD92"/>
<path d="M83.5642 55.7486C83.4615 56.8946 83.3666 58.0564 83.0268 59.155C82.6869 60.2536 82.0942 61.3127 81.1774 62.0082C80.2606 62.7037 78.9802 62.9803 77.9211 62.5298C76.9727 62.1267 76.3325 61.2415 75.7635 60.3484C75.2656 60.0797 74.7597 59.8031 74.3962 59.3763C74.0326 58.9495 73.835 58.3252 74.0563 57.8114C74.2776 57.2898 75.0047 57.0132 75.4473 57.3688C75.6923 57.5664 75.8267 57.9142 76.1349 57.9853C76.3641 58.0327 76.6012 57.8905 76.7198 57.685C76.8383 57.4795 76.8779 57.2503 76.9016 57.0132C76.9253 56.7603 76.9253 56.4678 76.7435 56.3493C77.1782 56.3967 77.7077 56.3967 77.9527 56.0331C78.0397 55.8988 78.0713 55.7407 78.1029 55.5826C78.174 55.2191 78.2452 54.8634 78.3163 54.4999C78.5297 54.7133 78.8063 54.8871 79.1066 54.9108C79.4781 54.9346 79.8259 54.7212 80.063 54.4366C80.3001 54.1521 80.4344 53.8044 80.8375 53.504C81.0825 53.7807 81.3749 54.0099 81.699 54.1758C81.7069 54.6263 81.8571 55.0926 82.1653 55.4246C82.4735 55.7407 82.9635 55.9225 83.5642 55.7486Z" fill="#FFAD92"/>
<path d="M79.9212 60.7041C80.3875 60.7041 80.8222 60.5224 81.0909 60.1983C81.1304 60.1509 81.1225 60.0719 81.0751 60.0324C81.0277 59.9928 80.9486 60.0007 80.9091 60.0482C80.6246 60.3959 80.0951 60.5461 79.5734 60.4275C79.1467 60.3327 78.7357 60.0877 78.2694 59.6609C78.2219 59.6135 78.1429 59.6214 78.1034 59.6688C78.056 59.7162 78.0639 59.7952 78.1113 59.8348C78.6092 60.2932 79.0518 60.5619 79.5181 60.6646C79.6525 60.6883 79.7868 60.7041 79.9212 60.7041Z" fill="#EB7154"/>
<path d="M79.3063 62.5553C79.9623 62.5553 80.6104 62.3972 81.1953 62.089C81.2506 62.0573 81.2743 61.9862 81.2427 61.9309C81.2111 61.8756 81.1399 61.8519 81.0846 61.8835C80.2231 62.3419 79.1878 62.4446 78.2552 62.168C77.3147 61.8914 76.5085 61.2433 76.0343 60.3897C76.0027 60.3344 75.9315 60.3107 75.8762 60.3423C75.8209 60.3739 75.7972 60.445 75.8288 60.5004C76.3346 61.4093 77.1961 62.0969 78.1919 62.3893C78.5476 62.4999 78.927 62.5553 79.3063 62.5553Z" fill="#EB7154"/>
<path d="M59.7215 73.0273V81.2786C59.7215 83.1596 61.2469 84.685 63.1279 84.685H94.4178C96.2989 84.685 97.8242 83.1596 97.8242 81.2786V73.0273H59.7215Z" fill="white"/>
<path d="M70.2171 77.1797H94.7891V80.5308H70.2171V77.1797Z" fill="#CEDCED"/>
<path d="M65.1831 81.4345C63.7558 81.4345 62.5987 80.2774 62.5987 78.8501C62.5987 77.4227 63.7558 76.2656 65.1831 76.2656C66.6105 76.2656 67.7676 77.4227 67.7676 78.8501C67.7676 80.2774 66.6105 81.4345 65.1831 81.4345Z" fill="#BAC9D6"/>
<path d="M10.7889 49.9962V81.2862C10.7889 83.1672 12.3143 84.6926 14.1953 84.6926H45.4852C47.3662 84.6926 48.8916 83.1672 48.8916 81.2862V49.9962C48.8916 48.1152 47.3662 46.5898 45.4852 46.5898H14.1953C12.3143 46.5898 10.7889 48.1152 10.7889 49.9962Z" fill="#7AD001"/>
<path d="M34.404 57.6051C34.9493 57.2336 35.5026 56.8463 35.9135 56.3247C36.3166 55.8031 36.5616 55.1076 36.3957 54.4674C36.3324 54.2303 36.1586 53.9695 35.9057 53.9932C35.7397 52.9815 34.5937 52.2544 33.6057 52.5469C33.2975 51.5747 32.0566 51.0294 31.1319 51.4641C31.0134 51.5194 30.8948 51.5905 30.7605 51.5747C30.6419 51.5589 30.5471 51.472 30.4601 51.4008C29.8832 50.9345 29.0454 50.8081 28.3578 51.0768C27.6702 51.3534 27.1486 52.0173 27.0538 52.7523C26.4926 52.6338 25.8761 52.8077 25.4572 53.2028C25.0384 53.598 24.8329 54.2066 24.8882 55.076C24.4061 55.234 24.0109 55.645 23.8766 56.135C23.7422 56.625 23.8765 57.1862 24.2164 57.5577C23.9161 57.9765 24.003 58.5693 24.2322 59.0356C24.6037 59.7785 25.3071 60.3476 26.1053 60.4899C26.951 60.8297 27.9389 60.7902 28.753 60.395C29.2509 60.1579 29.6777 59.7943 30.1361 59.494C31.3612 58.7037 32.9498 58.6088 34.404 57.6051Z" fill="#3B2C26"/>
<path d="M24.107 75.0082C29.6632 75.2137 35.2272 75.0635 40.7676 74.5577C40.0405 73.0007 39.6374 71.7361 39.0841 70.5427C38.5309 69.3493 37.8038 68.1717 36.7052 67.4524C36.1677 67.1047 35.5671 66.8834 34.9664 66.6858C32.8957 66.0219 30.7222 65.7216 28.9123 65.4766C26.8337 65.5556 24.7709 65.9113 22.7871 66.5277C21.4277 66.9545 20.0683 67.5315 19.112 68.5826C17.7447 70.0843 17.4602 72.2499 17.2942 74.3917C19.444 74.9212 21.6569 75.1979 24.107 75.0082Z" fill="#C87AED"/>
<path d="M34.8082 56.7204C34.8319 58.1746 34.8478 59.6605 34.421 61.0594C33.9942 62.4504 33.03 63.7624 31.6627 64.2524C31.7654 64.9479 31.8681 65.6513 31.9709 66.3468C31.9788 66.4021 31.9867 66.4575 31.963 66.5049C31.9393 66.5602 31.884 66.5918 31.8365 66.6234C31.2438 66.9396 30.5325 66.9238 29.8686 66.8526C28.5803 66.7104 27.3157 66.3863 26.0828 65.9042C26.3989 64.5922 26.636 63.2566 26.7783 61.913C26.6439 61.7391 26.5175 61.5652 26.3673 61.4071C25.9089 61.1305 25.6244 60.6326 25.3636 60.1584C25.1423 59.7474 24.921 59.2416 25.166 58.8385C25.411 58.4275 26.0512 58.3959 26.4385 58.6883C26.8257 58.9729 26.9996 59.4629 27.0865 59.9371C27.5212 59.6368 27.8374 59.1625 27.9638 58.6488C27.9875 58.5619 28.0033 58.467 28.0429 58.3801C28.0982 58.2774 28.1851 58.2062 28.2721 58.1272C28.8411 57.566 28.928 56.6888 28.9834 55.8905C29.1414 56.3094 29.7421 56.4833 30.0978 56.2145C30.1452 56.175 30.1926 56.1355 30.2558 56.1118C30.3744 56.0802 30.485 56.1592 30.5799 56.2304C31.3702 56.831 32.3582 57.1709 33.3461 57.1946C33.765 57.2104 34.2313 57.1393 34.8082 56.7204Z" fill="#FFAD92"/>
<path d="M31.4264 64.378C31.5213 64.378 31.6082 64.378 31.7031 64.3701C31.7663 64.3701 31.8216 64.3148 31.8137 64.2436C31.8137 64.1804 31.7505 64.1251 31.6872 64.133C30.1223 64.212 28.5496 63.5876 27.4589 62.4574C27.4114 62.41 27.3403 62.41 27.2929 62.4574C27.2455 62.5049 27.2455 62.576 27.2929 62.6234C28.3599 63.7378 29.8853 64.378 31.4264 64.378Z" fill="#EB7154"/>
<path d="M31.6014 62.0051C31.8385 62.0051 32.0756 61.9656 32.3048 61.8786C32.368 61.8549 32.3996 61.7838 32.3759 61.7285C32.3522 61.6652 32.2811 61.6336 32.2257 61.6573C31.4749 61.9419 30.5502 61.6652 30.0839 61.0172C30.0444 60.9618 29.9733 60.9539 29.9179 60.9934C29.8626 61.033 29.8547 61.1041 29.8942 61.1594C30.2736 61.689 30.9454 62.0051 31.6014 62.0051Z" fill="#EB7154"/>
<path d="M26.2644 65.2422C27.0311 65.8191 27.8372 66.3408 28.6592 66.7992C28.2561 67.2971 27.8925 67.8266 27.5606 68.372C26.9283 67.5816 26.296 66.7913 25.6637 65.993C25.8692 65.7638 26.0826 65.5267 26.2644 65.2422Z" fill="#FF6162"/>
<path d="M31.9312 65.707C31.1487 66.0627 30.3584 66.4104 29.5285 66.774C29.9 67.2719 30.2398 67.7935 30.5323 68.3389C31.1645 67.7935 31.7573 67.2008 32.3105 66.5685C32.2552 66.2919 32.1604 66.0153 31.9312 65.707Z" fill="#FF6162"/>
<path d="M10.7889 73.0273V81.2786C10.7889 83.1596 12.3143 84.685 14.1953 84.685H45.4852C47.3662 84.685 48.8916 83.1596 48.8916 81.2786V73.0273H10.7889Z" fill="white"/>
<path d="M21.2913 77.1797H45.8633V80.5308H21.2913V77.1797Z" fill="#CEDCED"/>
<path d="M16.2583 81.4345C14.831 81.4345 13.6739 80.2774 13.6739 78.8501C13.6739 77.4227 14.831 76.2656 16.2583 76.2656C17.6857 76.2656 18.8428 77.4227 18.8428 78.8501C18.8428 80.2774 17.6857 81.4345 16.2583 81.4345Z" fill="#BAC9D6"/>
<path d="M10.7889 95.3712V126.661C10.7889 128.542 12.3143 130.068 14.1953 130.068H45.4852C47.3662 130.068 48.8916 128.542 48.8916 126.661V95.3712C48.8916 93.4902 47.3662 91.9648 45.4852 91.9648H14.1953C12.3143 91.9727 10.7889 93.4981 10.7889 95.3712Z" fill="#FEB000"/>
<path d="M22.7707 101.475C22.4704 101.87 22.0278 102.155 21.7828 102.589C21.522 103.056 21.5299 103.633 21.688 104.138C21.846 104.644 22.1385 105.103 22.4309 105.553C21.7512 105.529 21.4271 105.782 21.1426 106.075C20.4313 106.826 20.0203 107.94 20.3286 108.928C24.4542 109.734 28.809 109.892 33.0374 109.22C34.9421 108.92 36.8548 108.446 38.7832 108.564C38.4987 107.569 38.0324 106.628 37.4159 105.798C38.0403 104.344 37.2895 102.447 35.8273 101.823C36.096 101.269 36.0407 100.582 35.685 100.084C35.3294 99.586 34.6971 99.2936 33.9305 99.4121C33.1085 97.4758 30.8955 96.2981 28.809 96.5036C26.7225 96.7091 25.126 98.3768 22.7707 101.475Z" fill="#3B2C26"/>
<path d="M18.835 118.868C22.4944 119.958 26.4066 119.737 30.2161 119.516C33.4328 119.326 36.6495 119.136 39.8662 118.947C39.1312 116.821 38.1116 114.892 36.8866 113.09C36.61 112.687 36.3175 112.284 35.9145 112.015C35.5351 111.762 35.0846 111.644 34.642 111.533C32.9586 111.122 31.2435 110.798 29.8762 110.901C27.8213 110.656 25.719 110.846 23.7431 111.446C22.115 111.944 20.5027 112.79 19.6175 114.244C18.8429 115.54 18.7481 117.105 18.835 118.868Z" fill="#00ABFE"/>
<path d="M27.0394 106.875C26.7312 108.337 25.8065 109.736 26.0673 111.214C26.1779 111.854 26.5178 112.439 26.8813 112.984C27.9957 114.66 29.4263 116.13 31.1334 117.378C31.7025 115.315 32.2636 113.126 31.5207 111.063C31.3942 110.479 31.3784 110.384 31.252 109.799C31.2678 109.823 31.252 109.641 31.2915 109.522C31.8526 109.103 32.4217 108.669 32.7536 108.06C32.9512 107.697 33.0461 107.293 33.1409 106.898C33.4649 105.547 33.789 104.195 34.0498 102.773C33.3622 102.188 32.888 101.358 32.7378 100.465C32.4217 100.655 32.0107 100.686 31.4575 101.018C31.4496 101.579 31.1176 102.132 30.6276 102.401C30.1297 102.678 29.4895 102.662 29.0074 102.37C29.0311 102.962 28.707 103.555 28.2012 103.863C27.6954 104.172 27.0157 104.187 26.4625 103.903C26.3676 103.555 25.9645 103.35 25.6168 103.421C25.269 103.492 24.9924 103.8 24.8818 104.14C24.779 104.48 24.8185 104.859 24.9292 105.199C25.2374 106.124 26.0989 106.859 27.0394 106.875Z" fill="#FFAD92"/>
<path d="M31.0612 107.376C31.3458 107.376 31.6145 107.313 31.8437 107.194C31.899 107.162 31.9227 107.091 31.8911 107.036C31.8595 106.981 31.7884 106.957 31.733 106.989C31.4011 107.162 30.9743 107.194 30.5396 107.068C30.1128 106.949 29.7256 106.72 29.4015 106.499C29.3462 106.459 29.2751 106.475 29.2355 106.53C29.196 106.585 29.2118 106.657 29.2672 106.696C29.607 106.925 30.0101 107.17 30.4764 107.297C30.674 107.352 30.8716 107.376 31.0612 107.376Z" fill="#EB7154"/>
<path d="M31.0221 109.724C31.0853 109.724 31.1485 109.724 31.2197 109.717C31.2829 109.717 31.3382 109.653 31.3303 109.59C31.3303 109.527 31.275 109.479 31.2039 109.479C29.7733 109.558 28.3112 108.721 27.6473 107.456C27.6157 107.401 27.5445 107.377 27.4892 107.409C27.4339 107.44 27.4102 107.511 27.4418 107.567C28.1136 108.855 29.5678 109.724 31.0221 109.724Z" fill="#EB7154"/>
<path d="M10.7889 118.406V126.657C10.7889 128.539 12.3143 130.064 14.1953 130.064H45.4852C47.3662 130.064 48.8916 128.539 48.8916 126.657V118.406H10.7889Z" fill="white"/>
<path d="M21.2913 122.559H45.8633V125.91H21.2913V122.559Z" fill="#CEDCED"/>
<path d="M16.2583 126.821C14.831 126.821 13.6739 125.664 13.6739 124.237C13.6739 122.809 14.831 121.652 16.2583 121.652C17.6857 121.652 18.8428 122.809 18.8428 124.237C18.8428 125.664 17.6857 126.821 16.2583 126.821Z" fill="#BAC9D6"/>
<path d="M109.971 95.3752V126.665C109.971 128.546 111.496 130.071 113.377 130.071H144.667C146.548 130.071 148.073 128.546 148.073 126.665V95.3752C148.073 93.4941 146.548 91.9688 144.667 91.9688H113.377C111.496 91.9767 109.971 93.502 109.971 95.3752Z" fill="#CEDCED"/>
<path d="M60.0281 95.3712V126.661C60.0281 128.542 61.5535 130.068 63.4345 130.068H94.7244C96.6055 130.068 98.1309 128.542 98.1309 126.661V95.3712C98.1309 93.4902 96.6055 91.9648 94.7244 91.9648H63.4345C61.5535 91.9727 60.0281 93.4981 60.0281 95.3712Z" fill="#C87AED"/>
<path d="M84.2777 102.458C84.7519 102.142 85.234 101.81 85.5502 101.336C86.0007 100.68 86.0718 99.7947 85.811 99.036C85.5502 98.2772 84.9969 97.645 84.333 97.2182C84.4121 97.5343 84.0801 97.8346 83.7561 97.8662C83.432 97.8979 83.1159 97.7556 82.8156 97.6291C81.9146 97.2656 80.9424 97.0917 79.9782 97.1154C79.3064 97.1312 78.6109 97.2498 78.0577 97.6371C77.3226 98.1429 76.6983 98.459 76.556 99.3837C76.0344 99.0755 75.6708 99.3758 75.086 99.5576C74.5959 99.7078 74.2403 100.15 74.0822 100.64C73.932 101.13 73.9558 101.652 74.0269 102.158C74.185 103.28 74.588 104.363 75.2361 105.28C76.5402 105.62 77.9628 105.477 79.1721 104.885C80.4208 104.268 81.4641 103.193 82.8235 102.917C83.3214 102.806 83.8272 102.759 84.2777 102.458Z" fill="#3B2C26"/>
<path d="M79.7707 112.047C80.6875 112.023 81.6991 112.023 82.4104 112.608C82.8925 113.011 83.1533 113.612 83.3588 114.205C83.8568 115.619 84.1334 117.311 83.2561 118.536C82.3788 119.761 80.6875 120.045 79.1779 120.014C77.8185 119.99 76.3801 119.761 75.3684 118.86C74.6571 118.228 74.2303 117.334 73.9537 116.418C73.5743 115.161 73.4795 113.667 74.3093 112.64C74.8863 111.921 75.8347 111.573 76.7515 111.525C77.6683 111.478 78.593 111.723 79.7707 112.047Z" fill="#FEB000"/>
<path d="M67.6084 119.251C70.7777 119.33 73.9391 119.417 77.1084 119.496C76.1521 116.635 75.6462 113.995 75.5909 111.355C73.7731 111.83 71.9553 112.304 70.1375 112.77C69.6554 112.897 69.1575 113.031 68.7781 113.339C68.4304 113.624 68.2091 114.027 68.0352 114.438C67.6795 115.284 67.4978 116.192 67.3239 117.101C67.1737 117.852 67.0315 118.603 66.8339 119.354C67.1263 119.37 67.4266 119.385 67.6084 119.251Z" fill="#FF6162"/>
<path d="M76.4048 107.302C76.1519 108.669 75.899 110.037 75.6223 111.444C75.8357 112.068 76.057 112.692 76.4206 113.246C76.7841 113.799 77.29 114.281 77.9302 114.463C78.681 114.676 79.5108 114.447 80.1352 113.989C80.7596 113.53 81.2101 112.858 81.6211 112.258C81.542 111.467 81.4709 110.685 81.297 109.942C82.7434 109.515 83.7708 108.179 84.245 106.749C84.7192 105.318 84.7192 103.785 84.8457 102.236C84.1897 102.133 83.5653 101.841 83.0595 101.414C82.8066 101.643 82.4589 101.73 82.1269 101.809C80.6411 102.141 79.1157 102.283 77.5587 102.315C77.5034 102.9 77.4006 103.477 77.2504 104.046C77.1872 104.283 77.0608 104.568 76.8158 104.599C76.5866 104.623 76.4048 104.402 76.3178 104.18C76.2309 103.959 76.1914 103.714 76.0412 103.556C75.8199 103.248 75.3062 103.271 75.0296 103.532C74.753 103.793 74.666 104.204 74.666 104.583C74.666 105.69 75.401 106.765 76.4048 107.302Z" fill="#FFAD92"/>
<path d="M81.3834 110.163C81.4466 110.163 81.502 110.107 81.502 110.044C81.502 109.981 81.4545 109.926 81.3834 109.926C80.0477 109.902 78.7199 109.293 77.8268 108.298C77.7794 108.25 77.7083 108.242 77.6609 108.29C77.6134 108.337 77.6055 108.408 77.653 108.456C78.5856 109.499 79.9845 110.131 81.3834 110.163Z" fill="#EB7154"/>
<path d="M81.4867 107.451C81.6448 107.451 81.795 107.443 81.953 107.419C82.0163 107.411 82.0637 107.348 82.0558 107.285C82.0479 107.222 81.9847 107.174 81.9214 107.182C80.9809 107.324 79.9772 106.992 79.2975 106.329C79.25 106.281 79.1789 106.281 79.1315 106.329C79.0841 106.376 79.0841 106.447 79.1315 106.495C79.748 107.103 80.6173 107.451 81.4867 107.451Z" fill="#EB7154"/>
<path d="M75.4241 111.625C74.7839 112.874 74.1516 114.13 73.5431 115.395C73.9303 115.403 74.3255 115.34 74.6811 115.197C74.776 115.158 74.8787 115.118 74.9815 115.142C75.0526 115.158 75.1159 115.213 75.1712 115.261C75.4715 115.521 75.7797 115.782 76.0801 116.043C75.8035 114.644 75.6138 113.229 75.4241 111.625Z" fill="#E0464F"/>
<path d="M80.3417 105.621C80.6815 105.621 81.0056 105.511 81.2585 105.297C81.6062 104.997 81.7959 104.531 81.8591 103.867C82.0883 103.883 82.3175 103.906 82.5546 103.922C82.5862 104.412 83.013 104.855 83.5188 104.902C84.0247 104.949 84.5463 104.618 84.7518 104.112C84.7755 104.048 84.7439 103.985 84.6886 103.954C84.6253 103.93 84.5621 103.962 84.5305 104.017C84.3645 104.42 83.9377 104.697 83.5347 104.665C83.1158 104.625 82.7601 104.222 82.7838 103.819C82.7838 103.756 82.7364 103.701 82.6732 103.693C82.357 103.669 82.0488 103.645 81.7564 103.622C81.7248 103.622 81.6932 103.63 81.6694 103.653C81.6457 103.677 81.6299 103.701 81.6299 103.732C81.5904 104.396 81.4165 104.847 81.1004 105.115C80.7131 105.447 80.0808 105.471 79.6303 105.171C79.2035 104.886 78.9427 104.333 78.9665 103.772C78.9665 103.709 78.9269 103.653 78.8637 103.653L75.9473 103.306C75.8841 103.298 75.8209 103.345 75.8129 103.408C75.805 103.472 75.8525 103.535 75.9157 103.543L78.7214 103.875C78.7293 104.483 79.0297 105.06 79.496 105.376C79.7489 105.542 80.0492 105.621 80.3417 105.621Z" fill="#3B2C26"/>
<path d="M81.542 111.422C83.3677 112.283 85.6914 112.307 87.0271 113.817C87.5408 114.401 87.8411 115.137 88.1019 115.872C88.5287 117.049 88.9002 118.243 89.3428 119.531C87.5092 119.547 85.6677 119.562 83.834 119.578C83.0832 119.586 82.3324 119.594 81.6922 119.578C81.542 116.97 81.5104 114.346 81.542 111.422Z" fill="#FF6162"/>
<path d="M81.5419 111.422C82.1109 112.489 82.7195 113.54 83.502 114.789C83.2411 114.718 82.9803 114.654 82.7195 114.583C82.6484 114.567 82.5772 114.552 82.514 114.567C82.4508 114.591 82.4034 114.639 82.3559 114.694C82.0398 115.05 81.7237 115.405 81.4075 115.761C81.5182 114.291 81.5498 112.813 81.5419 111.422Z" fill="#E0464F"/>
<path d="M60.0281 118.406V126.657C60.0281 128.539 61.5535 130.064 63.4345 130.064H94.7244C96.6055 130.064 98.1309 128.539 98.1309 126.657V118.406H60.0281Z" fill="white"/>
<path d="M70.5238 122.559H95.0957V125.91H70.5238V122.559Z" fill="#CEDCED"/>
<path d="M65.4898 126.821C64.0624 126.821 62.9053 125.664 62.9053 124.237C62.9053 122.809 64.0624 121.652 65.4898 121.652C66.9171 121.652 68.0742 122.809 68.0742 124.237C68.0742 125.664 66.9171 126.821 65.4898 126.821Z" fill="#BAC9D6"/>
<path d="M134.7 36.1398H136.011C137.197 36.1398 138.153 35.1834 138.153 33.9979V26.1418C138.153 24.9563 137.197 24 136.011 24H134.7C133.514 24 132.558 24.9563 132.558 26.1418V33.9979C132.558 35.1834 133.522 36.1398 134.7 36.1398Z" fill="#939393"/>
<path d="M106.605 36.1398H107.917C109.102 36.1398 110.059 35.1834 110.059 33.9979V26.1418C110.059 24.9563 109.102 24 107.917 24H106.605C105.419 24 104.463 24.9563 104.463 26.1418V33.9979C104.463 35.1834 105.419 36.1398 106.605 36.1398Z" fill="#939393"/>
<path d="M78.5052 36.1398H79.8171C81.0027 36.1398 81.959 35.1834 81.959 33.9979V26.1418C81.959 24.9563 81.0027 24 79.8171 24H78.5052C77.3196 24 76.3633 24.9563 76.3633 26.1418V33.9979C76.3633 35.1834 77.3196 36.1398 78.5052 36.1398Z" fill="#939393"/>
<path d="M50.4104 36.1398H51.7224C52.9079 36.1398 53.8643 35.1834 53.8643 33.9979V26.1418C53.8643 24.9563 52.9079 24 51.7224 24H50.4104C49.2249 24 48.2686 24.9563 48.2686 26.1418V33.9979C48.2686 35.1834 49.2249 36.1398 50.4104 36.1398Z" fill="#939393"/>
<path d="M22.305 36.1398H23.617C24.8025 36.1398 25.7588 35.1834 25.7588 33.9979V26.1418C25.7588 24.9563 24.8025 24 23.617 24H22.305C21.1194 24 20.1631 24.9563 20.1631 26.1418V33.9979C20.171 35.1834 21.1273 36.1398 22.305 36.1398Z" fill="#939393"/>
<path d="M118.853 92.5749C119.137 91.9268 119.959 91.7055 120.544 92.1086L126.701 96.3054C126.867 96.416 127.025 96.5267 127.191 96.6373L127.507 96.8507C129.001 97.8861 130.447 98.9688 131.854 100.123C132.913 99.9884 133.83 100.146 134.715 100.399C135.498 100.629 136.296 100.953 136.833 101.561C137.418 102.217 137.64 103.118 137.829 103.98C138.145 105.347 138.454 106.714 138.77 108.082C140.429 110.216 141.994 112.349 143.551 114.483C144.405 115.645 143.591 117.526 143.101 119.06C142.516 120.877 141.773 122.648 140.817 124.3C138.09 121.138 135.687 117.321 133.514 113.369C132.779 112.95 132.218 112.681 131.665 112.413C129.096 111.48 126.59 110.16 124.298 108.532C123.611 108.042 122.892 107.465 122.686 106.643C122.536 106.058 122.67 105.442 122.805 104.849C123.255 102.873 123.706 100.897 124.156 98.9214C124.132 98.8898 124.109 98.8582 124.085 98.8266C122.536 97.5067 119.517 94.9065 118.9 94.1319C118.537 93.6498 118.632 93.0728 118.853 92.5749Z" fill="#FFAD92"/>
<path d="M133.577 110.068C133.601 110.068 133.617 110.061 133.641 110.053C133.696 110.021 133.712 109.942 133.68 109.887C132.613 108.172 132.344 105.99 132.961 104.07C132.969 104.03 132.969 103.991 132.945 103.959C132.921 103.927 132.89 103.912 132.85 103.912C132.036 103.935 131.254 103.943 130.511 103.722C129.728 103.485 129.104 102.995 128.804 102.378C128.685 102.141 128.646 101.928 128.685 101.754C128.772 101.343 129.231 101.122 129.626 100.972C130.392 100.679 131.191 100.434 131.997 100.244C132.06 100.229 132.099 100.165 132.084 100.102C132.068 100.039 132.005 99.9994 131.941 100.015C131.127 100.205 130.321 100.45 129.539 100.75C129.088 100.924 128.559 101.185 128.456 101.707C128.409 101.936 128.456 102.197 128.598 102.481C128.93 103.153 129.602 103.69 130.456 103.943C131.175 104.165 131.926 104.172 132.7 104.149C132.123 106.101 132.416 108.274 133.498 110.005C133.498 110.053 133.538 110.068 133.577 110.068Z" fill="#EB7154"/>
<path d="M126.924 108.777C127.114 108.777 127.304 108.745 127.485 108.674C127.881 108.508 128.181 108.074 128.173 107.702C129.129 107.283 129.738 106.161 129.564 105.134C130.046 104.92 130.402 104.446 130.457 103.924C130.465 103.861 130.418 103.798 130.354 103.79C130.291 103.782 130.228 103.829 130.22 103.893C130.173 104.367 129.833 104.786 129.39 104.944C129.335 104.968 129.303 105.023 129.311 105.078C129.517 106.058 128.932 107.141 127.999 107.505C127.944 107.528 127.92 107.576 127.928 107.631C127.975 107.916 127.707 108.311 127.391 108.445C127.011 108.603 126.561 108.508 126.252 108.421C126.158 108.398 126.063 108.366 125.96 108.334C125.66 108.24 125.344 108.145 125.02 108.129C124.956 108.121 124.901 108.176 124.893 108.24C124.893 108.303 124.941 108.358 125.004 108.366C125.296 108.382 125.581 108.469 125.881 108.556C125.976 108.587 126.079 108.619 126.173 108.643C126.395 108.722 126.648 108.777 126.924 108.777Z" fill="#EB7154"/>
<path d="M127.96 107.585C128.007 107.585 128.054 107.553 128.07 107.505C128.094 107.442 128.062 107.379 127.999 107.355C126.49 106.81 125.02 106.138 123.628 105.348C123.573 105.316 123.502 105.332 123.47 105.395C123.439 105.451 123.455 105.522 123.518 105.553C124.925 106.352 126.403 107.031 127.92 107.577C127.936 107.585 127.952 107.585 127.96 107.585Z" fill="#EB7154"/>
<path d="M129.522 105.059C129.569 105.059 129.609 105.035 129.632 104.988C129.656 104.925 129.632 104.861 129.577 104.83C127.925 104.071 126.297 103.225 124.716 102.324C124.661 102.293 124.59 102.309 124.558 102.372C124.527 102.427 124.543 102.498 124.606 102.53C126.187 103.439 127.83 104.284 129.482 105.043C129.49 105.051 129.506 105.059 129.522 105.059Z" fill="#EB7154"/>
<path d="M128.313 101.005C128.352 101.005 128.392 100.989 128.408 100.95C128.447 100.895 128.431 100.823 128.376 100.784C127.112 99.9224 125.721 99.2506 124.266 98.7843C124.203 98.7606 124.14 98.8001 124.116 98.8633C124.092 98.9266 124.132 98.9898 124.195 99.0135C125.634 99.4719 127.001 100.136 128.25 100.989C128.265 100.997 128.289 101.005 128.313 101.005Z" fill="#EB7154"/>
<path d="M197.31 57.8794C194.931 55.7455 191.019 56.2118 188.49 58.1639C185.961 60.1161 184.578 63.1827 183.582 66.2176C181.235 73.3624 180.571 81.0445 181.906 88.8137C179.725 92.8681 177.504 97.0807 177.156 101.673C176.785 106.636 178.674 111.544 181.353 115.741C183.353 118.879 186.103 121.906 189.755 122.609C193.477 123.328 197.176 121.487 200.416 119.527C201.673 118.76 202.93 117.962 203.933 116.879C205.285 115.417 206.075 113.528 206.7 111.631C210.248 100.906 209.087 88.7109 203.578 78.8395C201.104 74.4056 197.674 69.9401 198.18 64.8898C198.306 63.5857 198.709 62.2975 198.575 60.9934C198.441 59.6893 197.674 58.2035 197.31 57.8794Z" fill="#3B2C26"/>
<path d="M181.394 134.718C181.608 135.856 181.9 136.97 182.272 138.061C183.449 141.57 185.386 144.874 187.749 148.059C187.757 148.162 187.757 148.265 187.765 148.367C188.002 154.287 188.247 160.215 188.563 166.395C187.298 171.785 185.868 177.144 184.809 182.716H232.807C231.384 176.733 229.835 170.774 228.057 164.838C227.859 164.166 227.654 163.495 227.44 162.823C227.369 162.594 227.298 162.356 227.227 162.127C227.187 158.911 227.258 155.686 227.448 152.477C227.488 151.805 227.527 151.134 227.582 150.47C227.582 150.462 227.582 150.462 227.582 150.462C227.899 146.091 228.42 141.752 229.155 137.468C230.048 132.244 231.242 127.115 232.736 122.144C232.174 117.733 231.755 113.3 231.234 108.684C231.171 108.099 231.099 107.506 231.028 106.921C231.028 106.898 231.02 106.882 231.02 106.858C230.198 106.526 229.369 106.202 228.547 105.878C226.215 104.961 223.868 104.068 221.465 103.207C220.201 102.756 218.92 102.306 217.616 101.871C214.589 102.005 211.562 102.179 208.527 102.401C208.448 102.409 208.361 102.409 208.282 102.416C202.615 102.835 196.941 103.436 191.226 104.353C189.875 104.566 188.531 104.795 187.172 105.048C186.745 109.727 185.82 114.359 184.461 119.124C184.453 119.14 184.453 119.164 184.445 119.188C184.295 119.717 184.137 120.247 183.979 120.776C182.256 123.242 181.339 126.166 181.094 129.17C181.094 129.178 181.094 129.186 181.094 129.193C180.944 131.027 181.055 132.908 181.394 134.718Z" fill="url(#paint1_linear_86_1878)"/>
<path d="M187.172 105.051C185.235 105.43 184.129 107.066 182.809 108.544C175.854 116.369 170.314 125.323 164.916 134.42C156.759 125.829 148.595 117.23 140.478 108.758C137.751 113.294 135.696 118.242 134.914 124.201C140.099 132.729 146.706 140.403 154.633 146.931C156.427 148.18 158.253 149.453 160.3 150.219C162.347 150.994 164.686 151.239 167.16 150.124C175.483 144.805 182.967 138.182 189.061 130.476C190.159 122.446 189.401 114.108 187.172 105.051Z" fill="url(#paint2_linear_86_1878)"/>
<path d="M167.706 137.993C167.73 137.993 167.761 137.985 167.785 137.97C167.832 137.93 167.84 137.851 167.801 137.804L164.639 134.01C164.6 133.962 164.521 133.955 164.474 133.994C164.426 134.034 164.418 134.113 164.458 134.16L167.619 137.954C167.635 137.977 167.674 137.993 167.706 137.993Z" fill="url(#paint3_linear_86_1878)"/>
<path d="M187.914 148.697C187.937 148.697 187.961 148.69 187.985 148.674C188.04 148.634 188.048 148.555 188.009 148.508C184.531 144.058 182.334 139.593 181.488 135.23C180.469 129.982 181.457 124.797 184.183 121.004C184.191 120.988 184.199 120.972 184.207 120.956C184.515 119.233 184.918 117.613 185.313 116.04C185.329 115.977 185.29 115.914 185.226 115.898C185.163 115.882 185.1 115.922 185.084 115.985C184.697 117.55 184.294 119.17 183.986 120.885C181.227 124.726 180.231 129.966 181.267 135.277C182.12 139.672 184.325 144.177 187.835 148.658C187.85 148.682 187.882 148.697 187.914 148.697Z" fill="url(#paint4_linear_86_1878)"/>
<path d="M202.189 177.687C202.212 177.687 202.236 177.679 202.26 177.663C206.962 174.123 210.701 169.136 212.779 163.627C212.803 163.564 212.771 163.5 212.708 163.477C212.645 163.453 212.582 163.485 212.558 163.548C210.495 169.017 206.78 173.965 202.117 177.482C202.062 177.521 202.054 177.592 202.094 177.648C202.117 177.671 202.157 177.687 202.189 177.687Z" fill="url(#paint5_linear_86_1878)"/>
<path d="M187.203 71.9668C186.974 77.7759 187.724 83.577 188.783 89.2991C189.297 92.0812 191.313 95.5508 193.85 96.4281C195.897 97.1315 196.885 97.1552 198.947 96.5071C202.536 95.369 205.879 93.4406 208.969 91.2829C205.381 83.3399 200.947 75.7842 195.778 68.7738C195.462 68.347 195.138 67.9123 194.695 67.6278C194.182 67.2958 193.557 67.1852 192.957 67.1141C191.344 66.9323 187.416 66.4344 187.203 71.9668Z" fill="#FFAD92"/>
<path d="M195.012 90.0033C196.885 90.0033 198.743 89.4658 200.323 88.4305C200.379 88.391 200.395 88.3198 200.355 88.2645C200.315 88.2092 200.244 88.1934 200.189 88.2329C198.071 89.616 195.447 90.0981 192.973 89.5449C192.91 89.5291 192.847 89.5686 192.831 89.6318C192.815 89.695 192.855 89.7583 192.918 89.7741C193.621 89.9321 194.317 90.0033 195.012 90.0033Z" fill="#EB7154"/>
<path d="M197.635 90.7893C197.287 94.6699 196.86 98.5347 196.267 102.558C194.402 102.803 192.576 103.356 191.106 104.431C192.576 106.897 194.094 109.347 195.975 111.512C197.856 113.678 200.124 115.567 202.788 116.618C203.278 118.894 203.776 121.178 204.542 123.13C205.941 121.463 207.143 119.629 208.383 117.108C212.675 113.899 216.682 110.311 220.341 106.399C221.132 105.553 221.922 104.668 222.238 103.561C219.156 102.139 215.939 101.016 212.873 100.439C211.75 95.8476 210.336 91.3268 208.613 86.6953C206.005 87.1379 203.467 88.0152 201.152 89.2877C200.085 89.8646 199.049 90.5364 197.635 90.7893Z" fill="#FFAD92"/>
<path d="M196.25 97.0744C196.993 97.0744 197.72 96.9084 198.589 96.6476C201.577 95.7308 204.422 94.4109 207.054 92.7195C207.109 92.6879 207.125 92.6089 207.085 92.5536C207.054 92.4982 206.975 92.4824 206.919 92.522C204.311 94.1975 201.482 95.5174 198.518 96.4263C196.922 96.9163 195.886 97.0427 194.29 96.4658C194.227 96.4421 194.163 96.4737 194.14 96.5369C194.116 96.6002 194.147 96.6634 194.211 96.6871C194.969 96.9558 195.618 97.0744 196.25 97.0744Z" fill="#EB7154"/>
<path d="M228.402 135.297C230.347 140.956 232.07 146.054 233.88 151.42L249.173 156.036C249.157 155.056 249.07 154.076 248.912 153.112C247.482 144.291 245.925 135.645 244.368 126.991C243.625 122.865 242.85 118.637 240.708 115.033C238.551 111.397 234.615 108.07 230.592 106.773C227.849 110.275 226.814 115.214 226.672 119.696C226.514 124.936 228.094 130.073 228.402 135.297Z" fill="url(#paint6_linear_86_1878)"/>
<path d="M233.878 151.539C233.894 151.539 233.902 151.539 233.918 151.531C233.981 151.508 234.013 151.444 233.997 151.381C233.396 149.555 232.804 147.785 232.227 146.07C231.65 144.355 231.057 142.585 230.456 140.759C230.432 140.696 230.369 140.664 230.306 140.68C230.243 140.704 230.211 140.767 230.227 140.83C230.828 142.656 231.42 144.426 231.997 146.141C232.574 147.856 233.167 149.627 233.768 151.452C233.784 151.508 233.831 151.539 233.878 151.539Z" fill="url(#paint7_linear_86_1878)"/>
<path d="M198.125 169.488L227.17 174.673C227.628 174.752 228.063 174.452 228.15 173.993L236.077 129.576C236.156 129.117 235.856 128.683 235.398 128.596L206.352 123.411C205.894 123.332 205.459 123.632 205.372 124.091L197.445 168.508C197.358 168.967 197.666 169.409 198.125 169.488Z" fill="#4D5A6D"/>
<path d="M229.059 163.17C223.068 161.091 217.196 158.673 211.482 155.93C209.111 155.93 206.937 156.104 204.78 155.891C202.622 155.685 200.472 155.085 198.646 153.915C197.927 152.974 197.738 152.002 197.809 151.054C197.39 149.615 197.548 148.414 198.085 147.402C197.35 145.996 197.864 144.739 198.836 144.367C198.868 143.237 198.836 142.297 199.476 141.886C200.022 141.538 200.733 141.783 201.318 142.052C202.63 142.652 203.894 143.348 205.104 144.13C203.981 142.905 203.286 141.736 202.938 140.463C202.883 140.266 202.843 140.036 202.954 139.863C203.167 139.523 203.697 139.689 204.045 139.902C205.151 140.566 206.257 141.238 207.372 141.902C208.044 142.305 208.715 142.708 209.332 143.19C211.245 144.684 212.517 146.825 213.742 148.912C219.33 150.129 224.791 151.236 230.284 152.334C230.505 156.104 230.15 159.906 229.059 163.17Z" fill="#FFAD92"/>
<path d="M199.974 151.725C200.037 151.725 200.084 151.678 200.092 151.615C200.313 149.18 200.875 146.801 201.76 144.525C201.783 144.462 201.752 144.399 201.689 144.375C201.625 144.351 201.562 144.383 201.538 144.446C200.645 146.738 200.084 149.149 199.855 151.607C199.847 151.67 199.894 151.733 199.966 151.733C199.974 151.725 199.974 151.725 199.974 151.725Z" fill="#EB7154"/>
<path d="M199.944 145.123C199.983 145.123 200.015 145.107 200.039 145.075C200.078 145.02 200.062 144.949 200.007 144.909L198.987 144.19C198.932 144.15 198.861 144.166 198.821 144.222C198.782 144.277 198.798 144.348 198.853 144.388L199.873 145.107C199.896 145.115 199.92 145.123 199.944 145.123Z" fill="#EB7154"/>
<path d="M199.184 148.187C199.223 148.187 199.271 148.164 199.287 148.124C199.318 148.069 199.295 147.998 199.239 147.966L198.18 147.405C198.125 147.373 198.054 147.397 198.022 147.452C197.99 147.508 198.014 147.579 198.069 147.61L199.129 148.171C199.152 148.187 199.168 148.187 199.184 148.187Z" fill="#EB7154"/>
<path d="M199.271 152.648C199.303 152.648 199.342 152.632 199.366 152.601C199.405 152.545 199.398 152.474 199.342 152.435C198.789 152.008 198.307 151.502 197.912 150.933C197.872 150.878 197.801 150.87 197.746 150.901C197.69 150.941 197.682 151.012 197.714 151.067C198.125 151.66 198.623 152.182 199.192 152.616C199.224 152.64 199.247 152.648 199.271 152.648Z" fill="#EB7154"/>
<path d="M207.972 145.75C208.011 145.75 208.059 145.726 208.075 145.687C208.106 145.631 208.083 145.56 208.027 145.529L204.384 143.6C204.328 143.568 204.257 143.592 204.226 143.648C204.194 143.703 204.218 143.774 204.273 143.806L207.917 145.734C207.932 145.742 207.948 145.75 207.972 145.75Z" fill="#EB7154"/>
<path d="M220.57 160.755C224.727 163.355 229.058 165.458 233.516 167.22C235.389 167.955 237.31 168.643 239.309 168.817C241.309 168.991 243.427 168.619 245.039 167.418C246.565 166.28 247.497 164.501 248.114 162.699C248.849 160.558 249.204 158.289 249.173 156.029L233.88 151.413C229.643 150.599 225.929 150.062 221.93 150.457C221.89 153.381 221.289 157.918 220.57 160.755Z" fill="url(#paint8_linear_86_1878)"/>
<path d="M239.358 152.539C239.413 152.539 239.469 152.5 239.477 152.436C239.484 152.373 239.445 152.31 239.374 152.302C237.848 152.073 236.291 151.78 234.782 151.488C230.561 150.69 226.199 149.86 221.923 150.334C221.86 150.342 221.812 150.397 221.82 150.468C221.828 150.54 221.883 150.579 221.955 150.571C226.191 150.105 230.538 150.927 234.742 151.725C236.252 152.01 237.817 152.31 239.342 152.539C239.342 152.539 239.35 152.539 239.358 152.539Z" fill="url(#paint9_linear_86_1878)"/>
<path d="M209.205 132.838L227.936 136.181C228.395 136.26 228.829 135.96 228.916 135.501L229.24 133.668C229.319 133.209 229.019 132.775 228.561 132.688L209.829 129.345C209.371 129.266 208.936 129.566 208.849 130.024L208.525 131.858C208.446 132.324 208.747 132.759 209.205 132.838Z" fill="#939393"/>
<path d="M206.802 137.311L230.346 141.507C230.805 141.586 231.239 141.286 231.326 140.828L231.65 138.994C231.73 138.536 231.429 138.101 230.971 138.014L207.426 133.817C206.968 133.738 206.533 134.039 206.446 134.497L206.122 136.331C206.035 136.789 206.344 137.224 206.802 137.311Z" fill="#3C4A5B"/>
<path d="M186.199 71.8647C188.025 69.9995 191.107 69.5095 193.423 70.7266C195.818 71.9833 197.098 74.6467 197.92 77.2233C198.742 79.7998 199.295 82.5423 200.876 84.7316C202.006 86.2965 203.579 87.482 204.875 88.9125C207.222 91.5286 208.582 95.014 208.614 98.5232C208.645 102.111 207.357 105.652 207.689 109.224C208.076 113.358 210.55 116.946 212.368 120.677C214.185 124.407 215.339 129.046 212.668 133.291C216.351 133.638 220.089 132.026 222.626 129.339C225.163 126.652 226.539 122.977 226.744 119.286C226.831 117.768 226.768 116.124 227.645 114.875C228.206 114.085 229.076 113.571 229.74 112.868C231.834 110.647 231.447 107.043 230.214 104.261C228.981 101.471 227.037 98.9737 226.294 96.0178C225.732 93.7732 225.898 91.41 225.622 89.1101C225.14 85.1189 223.243 81.3094 220.326 78.8672C218.216 74.5361 219.331 68.7033 215.893 65.3364C214.992 64.4591 213.869 63.8506 212.866 63.0918C211.459 62.0328 210.297 60.6813 208.945 59.5432C205.152 56.366 199.841 55.0856 195.059 56.7295C191.052 61.0132 187.978 66.1584 186.199 71.8647Z" fill="#3B2C26"/>
<path d="M87.9122 176.535H149.662V182.731H87.9122V176.535Z" fill="#C87AED"/>
<path d="M156.847 176.535H95.9824V170.576H156.847V176.535Z" fill="#FEB000"/>
<path d="M90.6797 162.309H153.03V170.568H90.6797V162.309Z" fill="#4D5A6D"/>
<path d="M144.908 162.309H97.0762V157.764H144.908V162.309Z" fill="#939393"/>
<defs>
<linearGradient id="paint0_linear_86_1878" x1="98" y1="0" x2="98" y2="196" gradientUnits="userSpaceOnUse">
<stop stop-color="#2BC3FC"/>
<stop offset="1" stop-color="#017EAC"/>
</linearGradient>
<linearGradient id="paint1_linear_86_1878" x1="206.918" y1="101.871" x2="206.918" y2="182.716" gradientUnits="userSpaceOnUse">
<stop stop-color="#2BC3FC"/>
<stop offset="1" stop-color="#017EAC"/>
</linearGradient>
<linearGradient id="paint2_linear_86_1878" x1="162.236" y1="105.051" x2="162.236" y2="150.881" gradientUnits="userSpaceOnUse">
<stop stop-color="#2BC3FC"/>
<stop offset="1" stop-color="#017EAC"/>
</linearGradient>
<linearGradient id="paint3_linear_86_1878" x1="166.129" y1="133.969" x2="166.129" y2="137.993" gradientUnits="userSpaceOnUse">
<stop stop-color="#2BC3FC"/>
<stop offset="1" stop-color="#017EAC"/>
</linearGradient>
<linearGradient id="paint4_linear_86_1878" x1="184.45" y1="115.895" x2="184.45" y2="148.697" gradientUnits="userSpaceOnUse">
<stop stop-color="#2BC3FC"/>
<stop offset="1" stop-color="#017EAC"/>
</linearGradient>
<linearGradient id="paint5_linear_86_1878" x1="207.428" y1="163.469" x2="207.428" y2="177.687" gradientUnits="userSpaceOnUse">
<stop stop-color="#2BC3FC"/>
<stop offset="1" stop-color="#017EAC"/>
</linearGradient>
<linearGradient id="paint6_linear_86_1878" x1="237.917" y1="106.773" x2="237.917" y2="156.036" gradientUnits="userSpaceOnUse">
<stop stop-color="#2BC3FC"/>
<stop offset="1" stop-color="#017EAC"/>
</linearGradient>
<linearGradient id="paint7_linear_86_1878" x1="232.112" y1="140.676" x2="232.112" y2="151.539" gradientUnits="userSpaceOnUse">
<stop stop-color="#2BC3FC"/>
<stop offset="1" stop-color="#017EAC"/>
</linearGradient>
<linearGradient id="paint8_linear_86_1878" x1="234.872" y1="150.324" x2="234.872" y2="168.857" gradientUnits="userSpaceOnUse">
<stop stop-color="#2BC3FC"/>
<stop offset="1" stop-color="#017EAC"/>
</linearGradient>
<linearGradient id="paint9_linear_86_1878" x1="230.648" y1="150.195" x2="230.648" y2="152.539" gradientUnits="userSpaceOnUse">
<stop stop-color="#2BC3FC"/>
<stop offset="1" stop-color="#017EAC"/>
</linearGradient>
</defs>
</svg>
