<svg width="245" height="196" viewBox="0 0 245 196" fill="none" xmlns="http://www.w3.org/2000/svg">
<path opacity="0.19" d="M115.581 196C169.705 196 213.581 152.124 213.581 98C213.581 43.8761 169.705 0 115.581 0C61.4571 0 17.5811 43.8761 17.5811 98C17.5811 152.124 61.4571 196 115.581 196Z" fill="url(#paint0_linear_159_2408)"/>
<path d="M209.299 63.7324L208.15 59.1306L189.986 61.4315L189.373 65.1885L188.123 68.6372L193.764 72.1462L204.854 71.4345L209.299 63.7324Z" fill="#EF8E70"/>
<path d="M211.08 73.6953L188.376 71.6644L184.008 78.1403L186.48 105.347H199.642L211.08 73.6953Z" fill="#D3D3D3"/>
<path d="M204.24 73.2362L200.753 76.471H200.752L199.986 77.1822L199.555 84.0582L199.452 85.6934L198.897 94.5384L198.791 96.2381L198.262 104.669L198.147 106.502L197.62 106.631L188.951 108.756L187.57 100.002L188.588 96.317L189.202 94.0917L191.01 87.543L191.544 85.6095L193.339 79.1108L193.713 77.7562L193.818 77.374L193.648 77.0837L193.116 76.1726L192.54 75.1857L190.82 72.2394C190.82 72.2394 190.176 72.0862 193.358 70.9365C193.842 70.7607 194.366 70.6301 194.906 70.535C195.498 70.4302 196.111 70.3673 196.712 70.3334C197.947 70.2657 199.134 70.3221 200.005 70.3947C200.855 70.4657 201.405 70.5528 201.405 70.5528L201.461 70.606L204.24 73.2361V73.2362Z" fill="#E54257"/>
<path d="M189.203 94.0917L198.263 104.669L198.148 106.502L197.621 106.631L188.589 96.317L189.203 94.0917Z" fill="#B42B47"/>
<path d="M191.544 85.6096L198.898 94.5385L198.791 96.2381L191.011 87.5431L191.544 85.6096Z" fill="#B42B47"/>
<path d="M199.555 84.0583L199.452 85.6935L193.339 79.1109L193.713 77.7563L199.555 84.0583Z" fill="#B42B47"/>
<path d="M196.713 70.3335L193.117 76.1727L192.541 75.1858C193.231 73.8119 194.226 71.8412 194.907 70.5351C195.498 70.4303 196.111 70.3674 196.713 70.3335Z" fill="#B42B47"/>
<path d="M197.763 76.3017L200.751 76.471L199.985 77.1822C197.416 76.8371 193.817 77.3741 193.817 77.3741L193.647 77.0838L196.958 76.1469L200.004 70.3948C200.854 70.4658 201.404 70.5529 201.404 70.5529L201.46 70.606L197.763 76.3017Z" fill="#B42B47"/>
<path d="M211.08 65.5361L209.298 63.7324L201.404 70.5532L207.152 79.1366L211.08 65.5361Z" fill="#E2E2E2"/>
<path d="M193.357 70.9364L189.371 65.1886L187.379 66.7972L185.616 78.1404L193.357 70.9364Z" fill="#E2E2E2"/>
<path d="M167.185 157.064L165.617 173.949H225.392L223.495 157.817L186.867 145.658L167.185 157.064Z" fill="#181E2B"/>
<path d="M116.337 112.142C116.337 112.142 121.471 112.397 123.464 110.75L120.897 100.001L115.762 103.086L113.961 110.251L116.337 112.142Z" fill="#EF8E70"/>
<path d="M125.439 99.4261H120.246L122.842 113.47L129.289 115.038L125.439 99.4261Z" fill="#E2E2E2"/>
<path d="M232.52 76.4549L228.669 105.691L228.341 109.498L225.393 143.627L227.807 171.734C227.807 171.734 222.219 172.433 215.119 172.729C206.148 173.107 194.763 172.844 189.182 169.728L185.215 153.743L179.008 169.728C179.008 169.728 169.104 170.431 163.661 170.278L164.888 162.155C164.888 162.155 163.661 149.145 168.144 122.897C168.144 122.897 166.524 124.21 162.015 123.879C160.891 123.797 159.588 123.612 158.085 123.279C150.556 121.614 127.795 117.302 127.795 117.302L125.438 99.4262C125.438 99.4262 126.071 98.6795 127.852 98.8521C129.634 99.0246 158.143 103.335 158.143 103.335C158.143 103.335 165.769 77.2967 170.138 73.2362C173 70.5755 179.513 68.6372 183.664 67.6164C185.851 67.081 187.381 66.7972 187.381 66.7972C187.381 66.7972 186.307 94.0804 191.519 105.04C191.519 105.04 203.149 92.9758 211.081 65.5361C211.081 65.5361 213.131 65.9554 214.127 67.181C214.127 67.181 226.925 70.3997 232.52 76.4549H232.52Z" fill="#001449"/>
<path d="M170.788 107.812L168.143 122.897C168.143 122.897 166.522 124.21 162.014 123.879C168.295 116.79 170.212 94.6561 170.212 94.6561L170.788 107.812H170.788Z" fill="#283043"/>
<path d="M160.615 105.734C160.471 105.734 160.333 105.653 160.266 105.515C159.553 104.037 158.079 103.717 158.065 103.714C157.948 103.69 157.849 103.613 157.796 103.506C157.743 103.399 157.743 103.274 157.794 103.167C157.833 103.087 158.776 101.213 161.76 102.102C161.964 102.163 162.081 102.378 162.02 102.583C161.959 102.788 161.743 102.905 161.538 102.844C160.007 102.387 159.182 102.795 158.79 103.143C159.409 103.402 160.384 103.979 160.963 105.178C161.056 105.371 160.975 105.602 160.783 105.695C160.728 105.721 160.671 105.734 160.615 105.734L160.615 105.734Z" fill="#181E2B"/>
<path d="M185.213 154.13C185.038 154.13 184.88 154.01 184.837 153.833C184.787 153.623 183.631 148.557 185.001 135.196C186.368 121.866 191.097 105.102 191.145 104.934C191.203 104.728 191.417 104.609 191.623 104.667C191.829 104.726 191.948 104.94 191.89 105.145C191.842 105.312 187.132 122.014 185.771 135.275C184.418 148.471 185.579 153.603 185.59 153.653C185.64 153.861 185.511 154.07 185.303 154.119C185.273 154.126 185.243 154.13 185.213 154.13V154.13Z" fill="#181E2B"/>
<path d="M192.773 111.506C193.467 111.506 194.028 110.945 194.028 110.252C194.028 109.558 193.467 108.997 192.773 108.997C192.08 108.997 191.519 109.558 191.519 110.252C191.519 110.945 192.08 111.506 192.773 111.506Z" fill="#4B556E"/>
<path d="M188.123 131.901C188.816 131.901 189.378 131.339 189.378 130.646C189.378 129.953 188.816 129.391 188.123 129.391C187.43 129.391 186.868 129.953 186.868 130.646C186.868 131.339 187.43 131.901 188.123 131.901Z" fill="#4B556E"/>
<path d="M187.571 153.322C188.264 153.322 188.826 152.76 188.826 152.067C188.826 151.374 188.264 150.812 187.571 150.812C186.878 150.812 186.316 151.374 186.316 152.067C186.316 152.76 186.878 153.322 187.571 153.322Z" fill="#4B556E"/>
<path d="M174.581 158.204C174.432 158.204 174.291 158.118 174.227 157.974C174.14 157.778 174.228 157.55 174.424 157.463L183.62 153.389C183.816 153.302 184.044 153.39 184.131 153.586C184.218 153.781 184.129 154.01 183.934 154.097L174.737 158.171C174.686 158.193 174.633 158.204 174.581 158.204H174.581Z" fill="#181E2B"/>
<path d="M183.011 152.454C182.967 152.454 182.921 152.446 182.877 152.43L178.202 150.696C178.001 150.622 177.899 150.399 177.974 150.198C178.048 149.998 178.27 149.896 178.471 149.97L183.146 151.704C183.346 151.778 183.449 152.001 183.374 152.202C183.316 152.358 183.168 152.454 183.011 152.454L183.011 152.454Z" fill="#181E2B"/>
<path d="M188.828 150.72C188.667 150.72 188.517 150.62 188.462 150.46C188.392 150.258 188.499 150.038 188.701 149.967L197.523 146.902C197.725 146.831 197.946 146.939 198.016 147.14C198.086 147.342 197.979 147.563 197.777 147.633L188.955 150.699C188.912 150.713 188.87 150.72 188.827 150.72H188.828Z" fill="#181E2B"/>
<path d="M199.641 156.774C199.599 156.774 199.557 156.768 199.515 156.753L189.251 153.228C189.049 153.159 188.941 152.938 189.01 152.736C189.08 152.534 189.3 152.426 189.502 152.496L199.767 156.021C199.969 156.091 200.077 156.311 200.007 156.513C199.952 156.674 199.802 156.774 199.641 156.774V156.774Z" fill="#181E2B"/>
<path d="M211.138 170.722C211.131 170.722 211.124 170.722 211.117 170.722C202.471 170.263 193.149 165.362 193.056 165.313C192.867 165.212 192.796 164.978 192.896 164.789C192.996 164.6 193.23 164.529 193.419 164.629C193.511 164.677 202.686 169.499 211.158 169.949C211.371 169.96 211.535 170.142 211.524 170.356C211.513 170.562 211.342 170.722 211.138 170.722Z" fill="#181E2B"/>
<path d="M213.091 80.4187L209.298 83.6197L211.712 88.4478C211.712 88.4478 199.223 103.313 191.097 106.572C191.097 106.572 180.754 96.0349 179.335 85.8047L183.087 82.1247L179.985 78.6771L183.663 67.6164C185.85 67.081 187.38 66.7972 187.38 66.7972C187.38 66.7972 186.306 94.0804 191.518 105.04C191.518 105.04 203.148 92.9758 211.08 65.5361C211.08 65.5361 213.13 65.9554 214.126 67.181L213.091 80.4187Z" fill="#4B556E"/>
<path d="M215.199 101.285H201.404V103.8H215.199V101.285Z" fill="#4B556E"/>
<path d="M225.392 143.627L227.806 171.734C227.806 171.734 222.218 172.432 215.118 172.729C214.665 171.483 214.605 169.835 215.199 167.653C217.766 158.226 219.183 142.076 219.356 131.9C219.528 121.726 217.804 97.7021 217.804 97.7021L228.339 109.498L225.392 143.627H225.392Z" fill="#283043"/>
<path d="M167.652 126.324C167.63 126.324 167.608 126.322 167.586 126.318C167.375 126.281 167.234 126.081 167.27 125.871L170.396 107.808C168.927 98.0459 170.389 87.1256 170.404 87.0162C170.433 86.8044 170.63 86.6562 170.84 86.6853C171.052 86.7143 171.2 86.9095 171.171 87.1213C171.157 87.2298 169.703 98.0891 171.171 107.754C171.177 107.795 171.176 107.837 171.169 107.878L168.033 126.003C168 126.191 167.837 126.324 167.652 126.324L167.652 126.324Z" fill="#181E2B"/>
<path d="M81.8125 146.348L83.5942 150.812L71.9122 155.962L68.4775 151.674L81.8125 146.348Z" fill="#FBB330"/>
<path d="M83.5944 150.812L90.032 156.272L92.0437 161.362L76.582 162.192C76.582 162.192 73.1811 158.195 73.7559 155.149L83.5944 150.812Z" fill="#FFBCAC"/>
<path d="M61.082 173.948C61.082 173.948 62.2463 170.013 63.8705 166.14C64.9299 163.614 67.1895 161.789 69.8835 161.292C77.0163 159.977 92.3438 158.189 107.462 163.14C108.947 163.627 109.787 165.198 109.383 166.708L107.448 173.948H61.082Z" fill="#399F8F"/>
<path d="M84.2255 154.95L85.7199 158.788C85.7199 158.788 87.6742 163.285 86.2372 163.917C84.8003 164.549 83.1949 163.17 82.4456 161.043L81.2365 159.511C81.2365 159.511 77.9028 159.663 75.2588 156.502L84.2254 154.95L84.2255 154.95Z" fill="#FFBCAC"/>
<path d="M59.395 75.2278C59.395 75.2278 62.8443 78.4469 63.8789 87.7583C64.9135 97.0698 67.3276 120.866 67.3276 120.866L81.8121 146.348L67.5575 153.743L48.9346 120.406L53.6478 86.2975L59.395 75.2279V75.2278Z" fill="url(#paint1_linear_159_2408)"/>
<path d="M59.373 139.092L55.3721 103.162L50.8723 106.383L48.9346 120.406L59.373 139.092Z" fill="#49519A"/>
<path d="M85.5136 164.458C85.1976 164.458 84.8766 164.389 84.5593 164.252C83.544 163.812 82.6289 162.686 82.1028 161.233L81.0494 159.898C80.2543 159.879 77.3501 159.606 74.9622 156.75C74.8251 156.586 74.8468 156.342 75.0108 156.205C75.1748 156.068 75.4189 156.09 75.556 156.254C78.0362 159.219 81.1889 159.126 81.2201 159.124C81.3443 159.119 81.4638 159.173 81.5408 159.271L82.7499 160.803C82.7763 160.837 82.7969 160.874 82.8111 160.914C83.2632 162.197 84.0318 163.18 84.8672 163.541C85.2892 163.724 85.6979 163.731 86.0817 163.563C86.7882 163.252 86.1196 160.679 85.3653 158.942C85.3634 158.937 85.3614 158.933 85.3597 158.928L83.8652 155.091C83.7877 154.892 83.8862 154.667 84.0855 154.59C84.2846 154.512 84.509 154.611 84.5866 154.81L86.0784 158.641C86.1248 158.748 86.5892 159.837 86.8928 161.019C87.357 162.827 87.189 163.921 86.3936 164.271C86.1104 164.396 85.8145 164.458 85.5139 164.458L85.5136 164.458Z" fill="#EF8E70"/>
<path d="M97.9873 173.949H147.579L159.319 142.56C159.75 141.407 158.898 140.178 157.667 140.178H112.127C111.22 140.178 110.407 140.742 110.089 141.592L97.9874 173.949L97.9873 173.949Z" fill="#E54257"/>
<path d="M130.516 161.362C132.474 161.362 134.062 159.775 134.062 157.817C134.062 155.859 132.474 154.271 130.516 154.271C128.558 154.271 126.971 155.859 126.971 157.817C126.971 159.775 128.558 161.362 130.516 161.362Z" fill="white"/>
<path d="M69.4468 173.949H104.34V171.231H69.4468V173.949Z" fill="#B42B47"/>
<path d="M153.363 158.485C137.406 165.676 119.282 169.022 99.6082 169.615L97.9873 173.949H147.579L153.363 158.485Z" fill="#B42B47"/>
<path d="M52.2106 33.507L53.5894 34.8293C53.0153 38.1061 48.0244 39.1607 48.0244 39.1607L31.9776 53.6256L30.6698 53.424L25.6563 52.6483L23.1261 46.785C23.1261 46.785 19.4478 43.7969 20.138 41.1523C20.1509 41.1039 20.1638 41.0539 20.18 41.0055C20.9604 38.4157 24.4485 35.979 24.4485 35.979C24.4485 35.979 22.8971 34.5422 26.8044 31.2655C30.7133 27.9904 43.8188 27.2421 46.6924 28.737C49.566 30.2318 53.8781 30.2883 53.8781 30.2883L52.2107 33.5071L52.2106 33.507Z" fill="#5F173C"/>
<path d="M33.6724 46.3738L30.6698 53.424L25.6563 52.6483L23.1261 46.785C23.1261 46.785 19.4478 43.7969 20.138 41.1523C20.1509 41.1039 20.1638 41.0539 20.18 41.0055C20.5541 41.9521 21.1362 42.71 22.0232 42.4084C22.0232 42.4084 23.7583 43.9226 25.1387 42.4762C25.1387 42.4762 28.0123 43.5582 29.104 41.6602C29.104 41.6602 32.0341 43.3405 33.6725 42.5584C35.3125 41.7763 33.6725 46.3738 33.6725 46.3738H33.6724Z" fill="#490F2F"/>
<path d="M26.5949 53.644L27.2847 55.7132L25.2921 67.2088L35.2432 74.1828C35.2432 74.1828 39.9298 73.7996 41.8458 74.1828L43.915 67.2854L43.3785 61.8441C43.3785 61.8441 48.2834 61.7675 48.4366 56.4028C48.5899 51.0382 48.0255 39.1606 48.0255 39.1606C48.0255 39.1606 37.2476 40.9221 32.4194 40.0024C32.4194 40.0024 32.8026 41.7651 33.6456 42.5315C34.4886 43.2979 32.1129 43.4511 30.81 42.6081C30.81 42.6081 31.2698 45.9035 30.3502 46.5933C29.4305 47.283 28.5875 48.3559 28.6641 49.6588C28.7408 50.9616 27.8978 52.0346 27.8978 52.0346C27.8978 52.0346 28.166 46.2676 25.9052 45.6928C23.6444 45.118 21.8626 45.9802 22.035 48.9116C22.2074 51.843 24.7173 54.7552 26.5949 53.644Z" fill="#FFBCAC"/>
<path d="M26.4788 52.1152C26.2822 52.1152 26.1139 51.9661 26.0941 51.7664C25.7186 47.977 23.8885 47.9745 23.8113 47.9765C23.5985 47.9878 23.4186 47.823 23.4077 47.6095C23.3969 47.396 23.5638 47.214 23.7773 47.2032C23.8849 47.1977 26.4118 47.1222 26.8644 51.69C26.8855 51.9027 26.7302 52.0922 26.5174 52.1133C26.5045 52.1146 26.4916 52.1152 26.4788 52.1152Z" fill="#EF8E70"/>
<path d="M43.3774 61.8442C43.3774 61.8442 34.0468 63.6835 28.3564 56.7286C28.3564 56.7286 35.3878 69.9411 43.6263 64.3694L43.3774 61.8442Z" fill="#EF8E70"/>
<path d="M41.4221 56.0496C39.4515 56.0496 37.9649 55.0803 37.8755 55.0207C37.6976 54.9021 37.6496 54.6618 37.7681 54.4839C37.8866 54.3062 38.1266 54.2582 38.3043 54.3761C38.4187 54.4518 41.138 56.2107 43.9517 54.5929C44.1371 54.4864 44.3736 54.5501 44.4802 54.7355C44.5867 54.9208 44.5229 55.1574 44.3376 55.264C43.3231 55.8473 42.322 56.0495 41.4222 56.0495L41.4221 56.0496Z" fill="#EF8E70"/>
<path d="M23.7959 65.536L35.6364 71.1664L42.2272 70.8599L43.8132 66.2714L44.9862 66.7214L47.4386 77.3741L40.5412 99.369L25.1371 79.3666L23.7959 65.536Z" fill="#F29353"/>
<path d="M32.2656 73.5612L36.2891 78.6193L34.2774 97.5296L41.1173 101.898L42.9566 96.5525L40.3126 78.2745L42.4393 74.183L41.1173 71.3771C41.1173 71.3771 38.7032 70.1125 34.6223 71.0322L32.2657 73.5612L32.2656 73.5612Z" fill="#E54357"/>
<path d="M25.9797 63.2318C25.9797 63.2318 29.7935 68.913 36.4031 70.7486C36.4031 70.7486 33.2415 72.8716 32.2643 75.1133C31.2872 77.3549 27.9535 79.9989 27.9535 79.9989L23.7959 65.536C23.7959 65.536 24.5808 62.2712 25.9798 63.2318H25.9797Z" fill="#FBB330"/>
<path d="M43.6274 64.3696L44.9878 66.7213L45.7159 78.0445L45.0261 78.9066C45.0261 78.9066 42.321 76.7374 42.0928 74.85C41.8646 72.9626 40.2678 71.0113 39.6143 70.901C39.6143 70.901 42.8034 69.7199 43.6274 64.3695V64.3696Z" fill="#FBB330"/>
<path d="M53.647 173.948H3.60373C3.60373 173.948 2.07175 160.87 3.60373 153.398C5.13572 145.927 43.1281 143.627 43.1281 143.627L51.9231 158.485L52.2472 161.388L53.6469 173.948H53.647Z" fill="#E47A53"/>
<path d="M52.2472 161.388L43.1281 164.549L41.4042 148.11L37.247 151.214L34.0863 161.446L6.85953 166.216L5.56466 173.948H3.60373C3.60373 173.948 2.07175 160.87 3.60373 153.398C5.13572 145.927 43.1281 143.627 43.1281 143.627L51.9231 158.485L52.2472 161.388Z" fill="#C35E4C"/>
<path d="M38.4736 174.336C38.4546 174.336 38.4354 174.334 38.416 174.332C38.2046 174.3 38.0587 174.103 38.0902 173.892L38.8566 168.746C38.8668 168.677 38.8954 168.612 38.9392 168.558L41.6215 165.263C41.7564 165.097 42.0003 165.072 42.166 165.207C42.3318 165.342 42.3569 165.586 42.2219 165.751L39.6066 168.965L38.8559 174.006C38.8273 174.198 38.6621 174.336 38.4736 174.336V174.336Z" fill="#C35E4C"/>
<path d="M60.0263 88.4478C59.8537 98.1039 53.8775 111.382 53.8775 111.382L50.8878 136.73L53.8775 160.008L44.144 162.078L40.1963 149.145L35.9907 163.112C21.9564 164.665 1.80078 155.007 1.80078 155.007L6.91748 125.176L1.80078 77.5274C1.80078 77.5274 7.54963 72.1237 12.4922 69.4806C15.7496 67.7375 19.623 66.5796 21.8856 65.991C23.0563 65.6878 23.7965 65.5363 23.7965 65.5363C27.199 78.5724 32.5915 88.9719 39.7755 96.9929C44.3504 86.4934 45.197 67.7923 44.9874 66.7215C45.6163 66.9908 46.2517 67.281 46.887 67.5891C53.1422 70.6175 59.3942 75.2279 59.3942 75.2279C59.3942 75.2279 60.1989 78.7917 60.0263 88.4478H60.0263Z" fill="url(#paint2_linear_159_2408)"/>
<path d="M47.8214 78.9062L49.8145 83.0457L41.1162 101.898L22.0216 83.6585L23.7955 78.4467L21.3057 76.2246L21.8845 65.9911C23.0552 65.6879 23.7955 65.5364 23.7955 65.5364C27.198 78.5725 32.5905 88.972 39.7745 96.993C44.3494 86.4935 45.196 67.7924 44.9864 66.7216C45.6153 66.9909 46.2507 67.2812 46.886 67.5892L49.8144 75.6118L47.8213 78.9063L47.8214 78.9062Z" fill="#49519A"/>
<path d="M40.1966 149.532C39.9857 149.532 39.8132 149.363 39.8097 149.152L39.2266 113.4C39.2265 113.389 39.2267 113.379 39.2274 113.368L40.1559 99.3435C40.1701 99.1301 40.3534 98.9697 40.5678 98.9828C40.781 98.997 40.9425 99.1813 40.9284 99.3946L40.001 113.403L40.5837 149.139C40.5872 149.353 40.4167 149.529 40.203 149.532C40.2008 149.532 40.1987 149.532 40.1966 149.532V149.532Z" fill="#38387F"/>
<path d="M42.2664 149.145C42.7426 149.145 43.1286 148.682 43.1286 148.111C43.1286 147.539 42.7426 147.076 42.2664 147.076C41.7903 147.076 41.4043 147.539 41.4043 148.111C41.4043 148.682 41.7903 149.145 42.2664 149.145Z" fill="#49519A"/>
<path d="M41.9217 129.948C42.3978 129.948 42.7838 129.484 42.7838 128.913C42.7838 128.342 42.3978 127.878 41.9217 127.878C41.4456 127.878 41.0596 128.342 41.0596 128.913C41.0596 129.484 41.4456 129.948 41.9217 129.948Z" fill="#49519A"/>
<path d="M38.7787 149.111C38.7242 149.111 38.6687 149.099 38.616 149.075C34.4453 147.138 21.956 146.738 21.8304 146.735C21.6167 146.728 21.4488 146.55 21.4553 146.336C21.4616 146.126 21.6336 145.961 21.8419 145.961C21.8459 145.961 21.8499 145.961 21.8538 145.961C22.3734 145.977 34.628 146.37 38.942 148.372C39.1359 148.462 39.2201 148.693 39.1301 148.887C39.0646 149.028 38.9248 149.111 38.7787 149.111Z" fill="#38387F"/>
<path d="M37.2472 146.122C37.1381 146.122 37.0297 146.076 36.9531 145.987C35.6374 144.452 30.7944 141.888 30.7456 141.862C30.5566 141.762 30.4841 141.528 30.5838 141.339C30.6835 141.15 30.9176 141.078 31.1067 141.177C31.3112 141.285 36.1295 143.836 37.5409 145.483C37.68 145.645 37.6612 145.89 37.499 146.029C37.426 146.091 37.3364 146.122 37.2473 146.122H37.2472Z" fill="#38387F"/>
<path d="M43.991 146.735C43.849 146.735 43.7122 146.656 43.6444 146.521C43.5489 146.329 43.6264 146.097 43.8175 146.001C43.9071 145.957 46.0302 144.901 47.6734 144.588C47.8836 144.548 48.0861 144.686 48.126 144.896C48.1661 145.106 48.0283 145.308 47.8182 145.349C46.2813 145.641 44.1847 146.683 44.1636 146.694C44.1081 146.722 44.0491 146.735 43.9909 146.735H43.991Z" fill="#38387F"/>
<path d="M51.5357 95.7008C48.3706 95.7008 45.7191 95.4662 45.6794 95.4626C45.4665 95.4434 45.3095 95.2552 45.3287 95.0423C45.348 94.8294 45.537 94.6732 45.749 94.6917C45.8081 94.697 51.7051 95.2184 56.3616 94.6925C56.574 94.6687 56.7657 94.8213 56.7897 95.0337C56.8137 95.2461 56.6608 95.4377 56.4485 95.4617C54.8605 95.641 53.1324 95.7008 51.5356 95.7008H51.5357Z" fill="#38387F"/>
<path d="M50.8876 137.117C50.8724 137.117 50.8572 137.116 50.8418 137.115C50.6294 137.09 50.4776 136.897 50.5027 136.685L53.4924 111.337C53.4971 111.298 53.5076 111.259 53.5239 111.223C53.5833 111.091 59.4695 97.9053 59.6386 88.4409C59.6425 88.2272 59.8159 88.0546 60.0325 88.0608C60.2463 88.0646 60.4164 88.241 60.4126 88.4547C60.3226 93.4919 58.6451 99.5031 57.2536 103.659C55.8545 107.837 54.4554 111.032 54.2543 111.486L51.2715 136.775C51.2483 136.972 51.0811 137.117 50.8876 137.117V137.117Z" fill="#38387F"/>
<path d="M38.7792 118.452L3.60354 94.3148L5.05935 107.871L6.91755 125.176L3.16113 147.076L9.04382 125.234L9.80927 112.81C9.91525 111.09 11.6071 109.926 13.2512 110.442L38.7791 118.452L38.7792 118.452Z" fill="#49519A"/>
<path d="M87.29 112.091L93.2678 111.784L105.376 114.275C105.376 114.275 110.051 115.386 111.124 114.926C112.197 114.466 112.465 114.16 112.465 114.16C112.465 114.16 114.075 114.313 114.803 113.7C115.531 113.087 115.761 112.742 115.761 112.742C115.761 112.742 116.834 113.278 117.715 112.704C118.597 112.129 118.367 111.133 118.367 111.133C118.367 111.133 120.437 112.397 120.896 112.156C122.447 111.341 117.255 106.036 117.255 106.036L109.362 101.131C109.362 101.131 102.618 99.9051 93.0187 101.131L87.29 112.09V112.091Z" fill="#FFBCAC"/>
<path d="M94.1133 101.001L95.0058 112.142L93.2677 111.784L87.29 112.091L93.0187 101.131L94.1133 101.001Z" fill="#EF8E70"/>
<path d="M83.5355 101.151L93.0193 101.131L88.2774 115.635L79.2246 118.451L83.5355 101.151Z" fill="#FBB330"/>
<path d="M85.777 101.146L84.9054 116.684L79.2246 118.451L83.5355 101.151L85.777 101.146Z" fill="#F29353"/>
<path d="M84.5703 115.635C85.0147 115.635 85.375 115.275 85.375 114.83C85.375 114.386 85.0147 114.026 84.5703 114.026C84.1259 114.026 83.7656 114.386 83.7656 114.83C83.7656 115.275 84.1259 115.635 84.5703 115.635Z" fill="white"/>
<path d="M85.3749 101.132C85.3749 101.132 82.8077 113.93 79.2245 122.897H75.0285C75.0285 122.897 59.3575 122.055 48.945 121.196C44.6234 120.838 41.2079 120.478 40.1968 120.175C39.3131 119.911 36.7088 118.448 33.2514 116.353C23.2083 110.275 5.981 98.8874 2.92354 96.1492C-1.18696 92.4709 -0.383889 80.4007 1.80122 77.5271C3.98625 74.6535 13.873 73.6182 19.8508 78.9059C25.827 84.1952 27.093 86.298 27.093 86.298L43.9912 100.058C43.9912 100.058 46.4439 100.097 46.4439 101.093L85.3749 101.132Z" fill="url(#paint3_linear_159_2408)"/>
<path d="M41.0604 108.493C41.0347 108.493 41.0087 108.49 40.9825 108.485C40.773 108.442 40.638 108.237 40.6808 108.028C41.2661 105.163 42.7561 103.335 43.903 102.307C45.1506 101.188 46.2572 100.75 46.3037 100.732C46.5029 100.655 46.7272 100.754 46.8046 100.953C46.8819 101.152 46.7835 101.376 46.5846 101.454C46.5743 101.458 45.5408 101.87 44.3952 102.905C42.8673 104.286 41.8728 106.061 41.4392 108.183C41.4018 108.366 41.2405 108.493 41.0604 108.493V108.493Z" fill="#38387F"/>
<path d="M41.0599 102.917C41.0141 102.917 40.9675 102.909 40.9221 102.892C40.7224 102.815 40.6222 102.592 40.6984 102.392C41.6537 99.887 43.8665 99.6802 43.9603 99.6726C44.1728 99.6543 44.36 99.8141 44.3773 100.027C44.3945 100.24 44.2366 100.426 44.0243 100.444C43.9473 100.451 42.1974 100.634 41.4217 102.668C41.3629 102.822 41.2159 102.917 41.0599 102.917V102.917Z" fill="#38387F"/>
<path d="M48.9446 121.196C44.623 120.838 41.2075 120.478 40.1964 120.175C39.3127 119.911 36.7083 118.448 33.251 116.353C35.2828 115.42 38.9434 114.402 42.9555 116.44C46.0274 118 47.8722 119.796 48.9446 121.196Z" fill="#49519A"/>
<path d="M75.8909 119.931C75.8431 119.931 75.7944 119.922 75.7473 119.903C75.5489 119.824 75.4523 119.598 75.5317 119.4C77.5646 114.318 79.5732 104.844 79.5932 104.749C79.6374 104.54 79.8424 104.406 80.0518 104.45C80.261 104.495 80.3948 104.7 80.3507 104.909C80.3305 105.005 78.3083 114.543 76.2504 119.687C76.1899 119.839 76.0445 119.931 75.8909 119.931V119.931Z" fill="#38387F"/>
<path d="M79.2251 123.284H75.0292C75.0223 123.284 75.0153 123.284 75.0084 123.284C74.8517 123.275 59.2127 122.432 48.9139 121.582C43.918 121.168 41.0305 120.829 40.0863 120.546C39.2193 120.286 36.8525 118.987 33.0515 116.684C23.1434 110.688 5.75568 99.2046 2.66594 96.4376C2.5067 96.295 2.49324 96.0503 2.63583 95.891C2.77842 95.7317 3.0232 95.7184 3.18236 95.8609C6.24609 98.6046 23.5697 110.041 33.4524 116.022C38.363 118.997 39.8557 119.669 40.3083 119.804C41.1882 120.068 44.1048 120.406 48.9776 120.81C59.1552 121.65 74.56 122.484 75.0396 122.51H78.9622C82.0617 114.652 84.4073 103.868 84.9002 101.519L46.4441 101.48C46.2305 101.48 46.0574 101.307 46.0574 101.093C46.0574 100.742 44.9635 100.462 43.9854 100.445C43.8987 100.443 43.8147 100.413 43.7473 100.358L26.849 86.598C26.8144 86.5698 26.7849 86.5358 26.7619 86.4975C26.7497 86.4777 25.4221 84.3531 19.5949 79.1956C19.4348 79.0539 19.4199 78.8093 19.5616 78.6492C19.7032 78.4892 19.9478 78.4741 20.1079 78.6159C25.5824 83.4612 27.1317 85.6488 27.3863 86.0371L44.1341 99.6747C44.7317 99.6977 46.3746 99.8402 46.7531 100.707L85.3758 100.745C85.4918 100.745 85.6016 100.797 85.6749 100.887C85.7483 100.977 85.7777 101.094 85.7549 101.208C85.7291 101.336 83.1396 114.143 79.5845 123.041C79.5257 123.188 79.3834 123.284 79.2251 123.284L79.2251 123.284Z" fill="#38387F"/>
<path d="M118.367 111.52C118.266 111.52 118.165 111.48 118.089 111.402L114.918 108.13L110.611 106.039C110.418 105.946 110.338 105.715 110.432 105.522C110.525 105.33 110.757 105.249 110.949 105.343L115.317 107.464C115.358 107.483 115.395 107.51 115.426 107.543L118.645 110.863C118.794 111.017 118.79 111.262 118.636 111.41C118.561 111.483 118.464 111.52 118.367 111.52H118.367Z" fill="#EF8E70"/>
<path d="M115.762 113.129C115.687 113.129 115.612 113.108 115.545 113.063L112.742 111.169L107.759 109.115C107.562 109.033 107.467 108.807 107.549 108.609C107.63 108.412 107.857 108.317 108.054 108.399L113.074 110.468C113.098 110.478 113.121 110.491 113.143 110.505L115.979 112.421C116.156 112.541 116.202 112.781 116.083 112.958C116.008 113.069 115.886 113.129 115.762 113.129V113.129Z" fill="#EF8E70"/>
<path d="M112.466 114.547C112.396 114.547 112.325 114.528 112.261 114.488L110.043 113.097L105.571 111.733C105.367 111.67 105.251 111.454 105.314 111.25C105.376 111.045 105.593 110.93 105.797 110.992L110.319 112.372C110.351 112.382 110.382 112.396 110.411 112.414L112.672 113.832C112.853 113.945 112.908 114.184 112.794 114.365C112.721 114.483 112.595 114.547 112.466 114.547H112.466Z" fill="#EF8E70"/>
<path d="M104.305 110.638C104.226 110.638 104.146 110.614 104.078 110.564C103.905 110.439 103.866 110.197 103.992 110.024C106.357 106.766 108.722 102.921 108.746 102.883C108.858 102.701 109.096 102.644 109.278 102.756C109.461 102.868 109.517 103.106 109.406 103.288C109.382 103.327 107.002 107.196 104.618 110.479C104.543 110.583 104.425 110.638 104.305 110.638Z" fill="#EF8E70"/>
<path d="M98.2374 113.063C98.2374 113.063 99.8755 110.17 100.45 109.863C101.025 109.557 101.945 110.036 101.485 111.463C101.485 111.463 102.548 109.561 103.669 109.775C104.79 109.988 103.928 112.488 103.928 112.488C103.928 112.488 104.445 110.409 105.451 110.744C106.457 111.08 106.26 113.178 106.26 113.178C106.26 113.178 106.859 112.086 107.52 112.229C108.181 112.373 107.865 114.931 107.52 115.247C107.175 115.563 106.083 115.489 105.824 114.65C105.824 114.65 105.796 115.419 104.962 115.419C104.129 115.419 103.324 114.988 103.41 114.097C103.41 114.097 102.577 115.173 101.629 114.65C100.68 114.126 100.996 113.178 100.996 113.178C100.996 113.178 100.307 114.586 99.3584 114.442C98.41 114.299 97.9214 113.925 98.2375 113.063H98.2374Z" fill="#FFBCAC"/>
<path d="M120.351 100.001C120.351 100.001 116.471 97.7019 113.079 97.7019C110.5 97.7019 105.958 100.628 103.932 102.029C103.433 102.374 103.544 103.148 104.123 103.328C105.111 103.635 106.597 103.77 108.194 102.76L111.551 102.492C111.551 102.492 114.229 105.365 121.339 105.346L120.351 100.001Z" fill="#FFBCAC"/>
<path d="M117.222 105.238C113.915 105.238 111.922 103.438 111.395 102.892L108.319 103.138C106.62 104.177 105.041 104.018 104.009 103.698C103.601 103.571 103.307 103.229 103.242 102.804C103.176 102.376 103.356 101.957 103.712 101.711C104.356 101.266 105.361 100.593 106.492 99.9172C106.675 99.8075 106.913 99.8673 107.022 100.051C107.132 100.234 107.072 100.472 106.889 100.582C105.777 101.246 104.787 101.909 104.153 102.348C103.987 102.462 103.999 102.637 104.007 102.687C104.017 102.75 104.058 102.903 104.239 102.958C105.132 103.236 106.507 103.37 107.987 102.433C108.04 102.399 108.101 102.379 108.163 102.374L111.521 102.106C111.646 102.096 111.767 102.146 111.848 102.242C111.868 102.266 114.001 104.713 117.824 104.443C118.035 104.427 118.222 104.589 118.237 104.802C118.252 105.015 118.091 105.2 117.878 105.215C117.654 105.231 117.435 105.238 117.222 105.238L117.222 105.238Z" fill="#EF8E70"/>
<path d="M107.521 115.634C107.416 115.634 107.312 115.592 107.235 115.509C107.094 115.355 107.101 115.118 107.248 114.973C107.478 114.645 107.636 112.927 107.406 112.604C107.164 112.595 106.781 113.037 106.6 113.364C106.511 113.525 106.322 113.601 106.147 113.547C105.972 113.493 105.858 113.324 105.875 113.142C105.929 112.557 105.866 111.291 105.329 111.112C105.246 111.084 105.176 111.091 105.097 111.134C104.816 111.288 104.564 111.797 104.411 112.23C104.357 112.427 104.31 112.567 104.294 112.614C104.226 112.81 104.017 112.918 103.818 112.859C103.62 112.8 103.502 112.595 103.552 112.395C103.564 112.349 103.603 112.199 103.672 112C103.838 111.379 103.946 110.593 103.76 110.271C103.719 110.202 103.674 110.169 103.597 110.155C102.909 110.024 102.064 111.222 101.823 111.652C101.725 111.825 101.513 111.897 101.33 111.817C101.148 111.738 101.056 111.533 101.117 111.344C101.281 110.834 101.252 110.424 101.04 110.246C100.927 110.152 100.763 110.135 100.633 110.205C100.333 110.372 99.3308 111.918 98.5745 113.253C98.4692 113.439 98.2328 113.505 98.047 113.4C97.861 113.294 97.7956 113.058 97.9009 112.872C98.2981 112.17 99.643 109.855 100.268 109.522C100.681 109.302 101.179 109.353 101.537 109.652C101.646 109.743 101.816 109.925 101.916 110.225C102.386 109.722 103.031 109.259 103.742 109.394C104.039 109.451 104.277 109.62 104.429 109.883C104.535 110.065 104.592 110.286 104.616 110.523C104.651 110.499 104.687 110.476 104.724 110.456C104.992 110.308 105.286 110.281 105.574 110.377C106.296 110.618 106.55 111.432 106.631 112.131C106.901 111.918 107.233 111.771 107.603 111.851C107.803 111.895 108.07 112.05 108.203 112.54C108.417 113.334 108.217 115.134 107.782 115.532C107.708 115.6 107.614 115.634 107.52 115.634L107.521 115.634ZM107.259 114.962C107.257 114.963 107.255 114.965 107.253 114.967C107.255 114.965 107.257 114.963 107.259 114.962Z" fill="#EF8E70"/>
<path d="M181.423 40.0514C181.423 40.0514 179.354 39.0551 178.357 35.5298C178.357 35.5298 187.171 30.7782 195.371 30.3951C203.571 30.0119 209.779 33.3839 210.66 36.9093C210.66 36.9093 215.373 37.5224 216.753 43.6534L212.001 53.8064L204.491 55.5322L181.423 40.0514H181.423Z" fill="#5F173C"/>
<path d="M181.424 40.0515C181.424 40.0515 178.971 57.2183 180.274 61.5866C181.577 65.955 187.125 68.106 194.759 67.2578C202.346 66.4148 206.714 64.1157 208.477 60.1305C208.477 60.1305 212.845 59.7473 214.148 54.9958C215.451 50.2442 211.849 49.6311 210.316 50.3975C208.783 51.1639 207.557 53.879 207.557 53.879L206.254 53.5397L206.407 50.3209L203.648 47.6385C203.648 47.6385 204.798 40.7411 201.886 40.0514C198.974 39.3616 190.16 41.3542 190.16 41.3542L181.424 40.0514L181.424 40.0515Z" fill="#FFBCAC"/>
<path d="M208.707 57.2221C208.685 57.2221 208.662 57.2202 208.64 57.2162C208.429 57.1793 208.288 56.9787 208.325 56.7681C208.738 54.4147 209.866 53.281 210.74 52.7443C211.703 52.1523 212.575 52.1375 212.611 52.1371C212.827 52.1365 213 52.3067 213.002 52.5205C213.004 52.7337 212.833 52.9083 212.62 52.9111C212.501 52.9135 209.77 53.0127 209.088 56.9018C209.055 57.0897 208.891 57.222 208.707 57.222L208.707 57.2221Z" fill="#EF8E70"/>
<path d="M190.678 59.5177C188.739 59.5177 187.047 59.2441 186.975 59.2323C186.764 59.1977 186.621 58.9987 186.656 58.7878C186.69 58.5769 186.889 58.4338 187.1 58.4684C188.984 58.7767 194.149 59.1893 195.401 57.4198C195.524 57.2452 195.766 57.2039 195.94 57.3273C196.115 57.4507 196.156 57.6923 196.033 57.8667C195.265 58.9521 193.489 59.5075 190.753 59.5176C190.728 59.5176 190.703 59.5176 190.678 59.5176V59.5177Z" fill="#EF8E70"/>
<path d="M218.214 172.754C218.688 173.339 220.042 172.798 220.042 172.798C221.58 173.864 223.337 172.843 223.337 172.843C223.337 172.843 223.579 173.369 224.775 173.61C225.972 173.85 226.739 173.272 226.739 173.272C226.739 173.272 228.123 173.665 228.99 173.389C229.858 173.111 231.042 171.502 231.185 170.266C231.329 169.031 230.183 168.686 230.183 168.686C230.183 168.686 230.574 166.94 230.829 164.692C231.083 162.444 229.262 160.288 229.262 160.288C229.262 160.288 232.972 150.679 234.825 144.152C236.677 137.625 239.606 121.342 237.673 116.287C236.945 114.385 235.044 113.069 232.953 112.17C229.485 110.675 229.613 111.991 229.613 111.991L227.48 124.304L226.408 128.171L220.042 157.629C220.042 157.629 215.562 167.017 215.581 168.048C215.6 169.08 217.739 172.171 218.214 172.754L218.214 172.754Z" fill="#FFBCAC"/>
<path d="M227.039 170.158C227.022 170.158 227.004 170.157 226.987 170.155L217.084 168.809C216.872 168.78 216.724 168.585 216.753 168.373C216.781 168.162 216.976 168.013 217.188 168.042L227.091 169.388C227.303 169.416 227.451 169.612 227.422 169.823C227.396 170.018 227.23 170.158 227.039 170.158Z" fill="#EF8E70"/>
<path d="M220.042 173.185C219.878 173.185 219.725 173.079 219.673 172.914L218.911 170.494C218.846 170.29 218.96 170.073 219.163 170.008C219.368 169.944 219.585 170.057 219.649 170.261L220.411 172.682C220.476 172.885 220.362 173.103 220.158 173.167C220.12 173.179 220.08 173.185 220.042 173.185Z" fill="#EF8E70"/>
<path d="M223.337 173.23C223.156 173.23 222.994 173.102 222.957 172.918L222.446 170.339C222.404 170.129 222.541 169.925 222.75 169.884C222.959 169.842 223.164 169.978 223.205 170.188L223.717 172.767C223.758 172.977 223.622 173.181 223.412 173.222C223.387 173.227 223.362 173.23 223.337 173.23V173.23Z" fill="#EF8E70"/>
<path d="M226.738 173.659C226.572 173.659 226.418 173.552 226.368 173.385L225.617 170.912C225.555 170.707 225.671 170.491 225.875 170.429C226.08 170.366 226.296 170.482 226.358 170.687L227.108 173.16C227.171 173.364 227.055 173.581 226.851 173.643C226.813 173.654 226.775 173.659 226.738 173.659Z" fill="#EF8E70"/>
<path d="M229.041 171.066C228.976 171.066 228.91 171.049 228.849 171.015C228.664 170.908 228.599 170.672 228.706 170.486L229.847 168.493C229.953 168.308 230.189 168.243 230.375 168.35C230.56 168.456 230.625 168.692 230.518 168.878L229.377 170.871C229.306 170.996 229.175 171.066 229.041 171.066V171.066Z" fill="#EF8E70"/>
<path d="M219.834 154.148L218.627 159.641C218.627 159.641 226.849 160.66 231.907 160.372L235.126 155.78L219.834 154.147L219.834 154.148Z" fill="#E2E2E2"/>
<path d="M232.52 76.455C232.52 76.455 236.658 80.746 239.187 93.0463C239.187 93.0463 244.13 114.428 244.935 118.222C245.74 122.015 238.308 157.471 238.308 157.471C238.308 157.471 227.088 159.144 218.731 155.132L225.392 122.705C225.392 122.705 224.626 121.172 225.354 120.214L216.426 96.3801C216.426 96.3801 214.664 77.7585 232.52 76.455L232.52 76.455Z" fill="#001449"/>
<path d="M218.73 155.519C218.705 155.519 218.678 155.517 218.652 155.511C218.443 155.468 218.308 155.264 218.351 155.054L224.987 122.751C224.816 122.353 224.368 121.118 224.922 120.165L216.063 96.5159C215.988 96.3157 216.089 96.0926 216.29 96.0176C216.49 95.9427 216.713 96.0442 216.788 96.2443L225.716 120.079C225.763 120.203 225.742 120.343 225.662 120.449C225.095 121.194 225.731 122.519 225.738 122.532C225.777 122.61 225.788 122.698 225.771 122.783L219.109 155.21C219.072 155.393 218.91 155.519 218.73 155.519Z" fill="#181E2B"/>
<defs>
<linearGradient id="paint0_linear_159_2408" x1="115.581" y1="0" x2="115.581" y2="196" gradientUnits="userSpaceOnUse">
<stop stop-color="#2BC3FC"/>
<stop offset="1" stop-color="#017EAC"/>
</linearGradient>
<linearGradient id="paint1_linear_159_2408" x1="65.3733" y1="75.2278" x2="65.3733" y2="153.743" gradientUnits="userSpaceOnUse">
<stop stop-color="#2BC3FC"/>
<stop offset="1" stop-color="#017EAC"/>
</linearGradient>
<linearGradient id="paint2_linear_159_2408" x1="30.9257" y1="65.5363" x2="30.9257" y2="163.281" gradientUnits="userSpaceOnUse">
<stop stop-color="#2BC3FC"/>
<stop offset="1" stop-color="#017EAC"/>
</linearGradient>
<linearGradient id="paint3_linear_159_2408" x1="42.6874" y1="75.1547" x2="42.6874" y2="122.897" gradientUnits="userSpaceOnUse">
<stop stop-color="#2BC3FC"/>
<stop offset="1" stop-color="#017EAC"/>
</linearGradient>
</defs>
</svg>
