<svg width="929" height="106" viewBox="0 0 929 106" fill="none" xmlns="http://www.w3.org/2000/svg">
<path d="M61 14L877 13.9999" stroke="#00103C" stroke-width="2" stroke-linecap="round"/>
<path d="M13.28 50.96L8.42 60.36V65H5V60.36L0.14 50.96H4.02L6.74 56.84L9.44 50.96H13.28ZM19.738 65.16C18.6446 65.16 17.658 64.9267 16.778 64.46C15.9113 63.9933 15.2246 63.3267 14.718 62.46C14.2246 61.5933 13.978 60.58 13.978 59.42C13.978 58.2733 14.2313 57.2667 14.738 56.4C15.2446 55.52 15.938 54.8467 16.818 54.38C17.698 53.9133 18.6846 53.68 19.778 53.68C20.8713 53.68 21.858 53.9133 22.738 54.38C23.618 54.8467 24.3113 55.52 24.818 56.4C25.3246 57.2667 25.578 58.2733 25.578 59.42C25.578 60.5667 25.318 61.58 24.798 62.46C24.2913 63.3267 23.5913 63.9933 22.698 64.46C21.818 64.9267 20.8313 65.16 19.738 65.16ZM19.738 62.2C20.3913 62.2 20.9446 61.96 21.398 61.48C21.8646 61 22.098 60.3133 22.098 59.42C22.098 58.5267 21.8713 57.84 21.418 57.36C20.978 56.88 20.4313 56.64 19.778 56.64C19.1113 56.64 18.558 56.88 18.118 57.36C17.678 57.8267 17.458 58.5133 17.458 59.42C17.458 60.3133 17.6713 61 18.098 61.48C18.538 61.96 19.0846 62.2 19.738 62.2ZM38.4123 53.84V65H34.9923V63.48C34.6457 63.9733 34.1723 64.3733 33.5723 64.68C32.9857 64.9733 32.3323 65.12 31.6123 65.12C30.759 65.12 30.0057 64.9333 29.3523 64.56C28.699 64.1733 28.1923 63.62 27.8323 62.9C27.4723 62.18 27.2923 61.3333 27.2923 60.36V53.84H30.6923V59.9C30.6923 60.6467 30.8857 61.2267 31.2723 61.64C31.659 62.0533 32.179 62.26 32.8323 62.26C33.499 62.26 34.0257 62.0533 34.4123 61.64C34.799 61.2267 34.9923 60.6467 34.9923 59.9V53.84H38.4123ZM44.2889 55.7C44.6889 55.0867 45.1889 54.6067 45.7889 54.26C46.3889 53.9 47.0556 53.72 47.7889 53.72V57.34H46.8489C45.9956 57.34 45.3556 57.5267 44.9289 57.9C44.5022 58.26 44.2889 58.9 44.2889 59.82V65H40.8689V53.84H44.2889V55.7ZM64.3619 55.48C64.3619 56.2933 64.1752 57.04 63.8019 57.72C63.4285 58.3867 62.8552 58.9267 62.0819 59.34C61.3085 59.7533 60.3485 59.96 59.2019 59.96H57.0819V65H53.6619V50.96H59.2019C60.3219 50.96 61.2685 51.1533 62.0419 51.54C62.8152 51.9267 63.3952 52.46 63.7819 53.14C64.1685 53.82 64.3619 54.6 64.3619 55.48ZM58.9419 57.24C59.5952 57.24 60.0819 57.0867 60.4019 56.78C60.7219 56.4733 60.8819 56.04 60.8819 55.48C60.8819 54.92 60.7219 54.4867 60.4019 54.18C60.0819 53.8733 59.5952 53.72 58.9419 53.72H57.0819V57.24H58.9419ZM69.5623 55.7C69.9623 55.0867 70.4623 54.6067 71.0623 54.26C71.6623 53.9 72.329 53.72 73.0623 53.72V57.34H72.1223C71.269 57.34 70.629 57.5267 70.2023 57.9C69.7757 58.26 69.5623 58.9 69.5623 59.82V65H66.1423V53.84H69.5623V55.7ZM79.777 65.16C78.6837 65.16 77.697 64.9267 76.817 64.46C75.9504 63.9933 75.2637 63.3267 74.757 62.46C74.2637 61.5933 74.017 60.58 74.017 59.42C74.017 58.2733 74.2704 57.2667 74.777 56.4C75.2837 55.52 75.977 54.8467 76.857 54.38C77.737 53.9133 78.7237 53.68 79.817 53.68C80.9104 53.68 81.897 53.9133 82.777 54.38C83.657 54.8467 84.3504 55.52 84.857 56.4C85.3637 57.2667 85.617 58.2733 85.617 59.42C85.617 60.5667 85.357 61.58 84.837 62.46C84.3304 63.3267 83.6304 63.9933 82.737 64.46C81.857 64.9267 80.8704 65.16 79.777 65.16ZM79.777 62.2C80.4304 62.2 80.9837 61.96 81.437 61.48C81.9037 61 82.137 60.3133 82.137 59.42C82.137 58.5267 81.9104 57.84 81.457 57.36C81.017 56.88 80.4704 56.64 79.817 56.64C79.1504 56.64 78.597 56.88 78.157 57.36C77.717 57.8267 77.497 58.5133 77.497 59.42C77.497 60.3133 77.7104 61 78.137 61.48C78.577 61.96 79.1237 62.2 79.777 62.2ZM93.0314 56.68H91.1914V65H87.7714V56.68H86.5314V53.84H87.7714V53.52C87.7714 52.1467 88.1647 51.1067 88.9514 50.4C89.7381 49.68 90.8914 49.32 92.4114 49.32C92.6647 49.32 92.8514 49.3267 92.9714 49.34V52.24C92.3181 52.2 91.8581 52.2933 91.5914 52.52C91.3247 52.7467 91.1914 53.1533 91.1914 53.74V53.84H93.0314V56.68ZM96.3584 52.68C95.7584 52.68 95.2651 52.5067 94.8784 52.16C94.5051 51.8 94.3184 51.36 94.3184 50.84C94.3184 50.3067 94.5051 49.8667 94.8784 49.52C95.2651 49.16 95.7584 48.98 96.3584 48.98C96.9451 48.98 97.4251 49.16 97.7984 49.52C98.1851 49.8667 98.3784 50.3067 98.3784 50.84C98.3784 51.36 98.1851 51.8 97.7984 52.16C97.4251 52.5067 96.9451 52.68 96.3584 52.68ZM98.0584 53.84V65H94.6384V53.84H98.0584ZM103.957 50.2V65H100.537V50.2H103.957ZM116.955 59.24C116.955 59.56 116.935 59.8933 116.895 60.24H109.155C109.209 60.9333 109.429 61.4667 109.815 61.84C110.215 62.2 110.702 62.38 111.275 62.38C112.129 62.38 112.722 62.02 113.055 61.3H116.695C116.509 62.0333 116.169 62.6933 115.675 63.28C115.195 63.8667 114.589 64.3267 113.855 64.66C113.122 64.9933 112.302 65.16 111.395 65.16C110.302 65.16 109.329 64.9267 108.475 64.46C107.622 63.9933 106.955 63.3267 106.475 62.46C105.995 61.5933 105.755 60.58 105.755 59.42C105.755 58.26 105.989 57.2467 106.455 56.38C106.935 55.5133 107.602 54.8467 108.455 54.38C109.309 53.9133 110.289 53.68 111.395 53.68C112.475 53.68 113.435 53.9067 114.275 54.36C115.115 54.8133 115.769 55.46 116.235 56.3C116.715 57.14 116.955 58.12 116.955 59.24ZM113.455 58.34C113.455 57.7533 113.255 57.2867 112.855 56.94C112.455 56.5933 111.955 56.42 111.355 56.42C110.782 56.42 110.295 56.5867 109.895 56.92C109.509 57.2533 109.269 57.7267 109.175 58.34H113.455Z" fill="#00103C"/>
<circle cx="59" cy="14" r="14" fill="#1DFF4E"/>
<circle cx="59.0004" cy="13.9999" r="7.77778" fill="white"/>
<path d="M403.25 67.4L401.45 64.98C400.916 65.0867 400.396 65.14 399.89 65.14C398.57 65.14 397.356 64.8333 396.25 64.22C395.156 63.6067 394.283 62.7533 393.63 61.66C392.99 60.5533 392.67 59.3133 392.67 57.94C392.67 56.5667 392.99 55.3333 393.63 54.24C394.283 53.1467 395.156 52.2933 396.25 51.68C397.356 51.0667 398.57 50.76 399.89 50.76C401.21 50.76 402.416 51.0667 403.51 51.68C404.616 52.2933 405.483 53.1467 406.11 54.24C406.75 55.3333 407.07 56.5667 407.07 57.94C407.07 59.14 406.823 60.24 406.33 61.24C405.85 62.2267 405.176 63.0467 404.31 63.7L407.39 67.4H403.25ZM396.17 57.94C396.17 59.18 396.503 60.1733 397.17 60.92C397.85 61.6533 398.756 62.02 399.89 62.02C401.01 62.02 401.903 61.6467 402.57 60.9C403.25 60.1533 403.59 59.1667 403.59 57.94C403.59 56.7 403.25 55.7133 402.57 54.98C401.903 54.2333 401.01 53.86 399.89 53.86C398.756 53.86 397.85 54.2267 397.17 54.96C396.503 55.6933 396.17 56.6867 396.17 57.94ZM420.031 53.84V65H416.611V63.48C416.265 63.9733 415.791 64.3733 415.191 64.68C414.605 64.9733 413.951 65.12 413.231 65.12C412.378 65.12 411.625 64.9333 410.971 64.56C410.318 64.1733 409.811 63.62 409.451 62.9C409.091 62.18 408.911 61.3333 408.911 60.36V53.84H412.311V59.9C412.311 60.6467 412.505 61.2267 412.891 61.64C413.278 62.0533 413.798 62.26 414.451 62.26C415.118 62.26 415.645 62.0533 416.031 61.64C416.418 61.2267 416.611 60.6467 416.611 59.9V53.84H420.031ZM421.808 59.4C421.808 58.2533 422.021 57.2467 422.448 56.38C422.888 55.5133 423.481 54.8467 424.228 54.38C424.975 53.9133 425.808 53.68 426.728 53.68C427.515 53.68 428.201 53.84 428.788 54.16C429.388 54.48 429.848 54.9 430.168 55.42V53.84H433.588V65H430.168V63.42C429.835 63.94 429.368 64.36 428.768 64.68C428.181 65 427.495 65.16 426.708 65.16C425.801 65.16 424.975 64.9267 424.228 64.46C423.481 63.98 422.888 63.3067 422.448 62.44C422.021 61.56 421.808 60.5467 421.808 59.4ZM430.168 59.42C430.168 58.5667 429.928 57.8933 429.448 57.4C428.981 56.9067 428.408 56.66 427.728 56.66C427.048 56.66 426.468 56.9067 425.988 57.4C425.521 57.88 425.288 58.5467 425.288 59.4C425.288 60.2533 425.521 60.9333 425.988 61.44C426.468 61.9333 427.048 62.18 427.728 62.18C428.408 62.18 428.981 61.9333 429.448 61.44C429.928 60.9467 430.168 60.2733 430.168 59.42ZM439.482 50.2V65H436.062V50.2H439.482ZM443.681 52.68C443.081 52.68 442.587 52.5067 442.201 52.16C441.827 51.8 441.641 51.36 441.641 50.84C441.641 50.3067 441.827 49.8667 442.201 49.52C442.587 49.16 443.081 48.98 443.681 48.98C444.267 48.98 444.747 49.16 445.121 49.52C445.507 49.8667 445.701 50.3067 445.701 50.84C445.701 51.36 445.507 51.8 445.121 52.16C444.747 52.5067 444.267 52.68 443.681 52.68ZM445.381 53.84V65H441.961V53.84H445.381ZM453.459 56.68H451.619V65H448.199V56.68H446.959V53.84H448.199V53.52C448.199 52.1467 448.592 51.1067 449.379 50.4C450.166 49.68 451.319 49.32 452.839 49.32C453.092 49.32 453.279 49.3267 453.399 49.34V52.24C452.746 52.2 452.286 52.2933 452.019 52.52C451.752 52.7467 451.619 53.1533 451.619 53.74V53.84H453.459V56.68ZM456.786 52.68C456.186 52.68 455.693 52.5067 455.306 52.16C454.933 51.8 454.746 51.36 454.746 50.84C454.746 50.3067 454.933 49.8667 455.306 49.52C455.693 49.16 456.186 48.98 456.786 48.98C457.373 48.98 457.853 49.16 458.226 49.52C458.613 49.8667 458.806 50.3067 458.806 50.84C458.806 51.36 458.613 51.8 458.226 52.16C457.853 52.5067 457.373 52.68 456.786 52.68ZM458.486 53.84V65H455.066V53.84H458.486ZM460.285 59.42C460.285 58.26 460.518 57.2467 460.985 56.38C461.465 55.5133 462.125 54.8467 462.965 54.38C463.818 53.9133 464.791 53.68 465.885 53.68C467.285 53.68 468.451 54.0467 469.385 54.78C470.331 55.5133 470.951 56.5467 471.245 57.88H467.605C467.298 57.0267 466.705 56.6 465.825 56.6C465.198 56.6 464.698 56.8467 464.325 57.34C463.951 57.82 463.765 58.5133 463.765 59.42C463.765 60.3267 463.951 61.0267 464.325 61.52C464.698 62 465.198 62.24 465.825 62.24C466.705 62.24 467.298 61.8133 467.605 60.96H471.245C470.951 62.2667 470.331 63.2933 469.385 64.04C468.438 64.7867 467.271 65.16 465.885 65.16C464.791 65.16 463.818 64.9267 462.965 64.46C462.125 63.9933 461.465 63.3267 460.985 62.46C460.518 61.5933 460.285 60.58 460.285 59.42ZM472.394 59.4C472.394 58.2533 472.607 57.2467 473.034 56.38C473.474 55.5133 474.067 54.8467 474.814 54.38C475.561 53.9133 476.394 53.68 477.314 53.68C478.101 53.68 478.787 53.84 479.374 54.16C479.974 54.48 480.434 54.9 480.754 55.42V53.84H484.174V65H480.754V63.42C480.421 63.94 479.954 64.36 479.354 64.68C478.767 65 478.081 65.16 477.294 65.16C476.387 65.16 475.561 64.9267 474.814 64.46C474.067 63.98 473.474 63.3067 473.034 62.44C472.607 61.56 472.394 60.5467 472.394 59.4ZM480.754 59.42C480.754 58.5667 480.514 57.8933 480.034 57.4C479.567 56.9067 478.994 56.66 478.314 56.66C477.634 56.66 477.054 56.9067 476.574 57.4C476.107 57.88 475.874 58.5467 475.874 59.4C475.874 60.2533 476.107 60.9333 476.574 61.44C477.054 61.9333 477.634 62.18 478.314 62.18C478.994 62.18 479.567 61.9333 480.034 61.44C480.514 60.9467 480.754 60.2733 480.754 59.42ZM492.868 62.1V65H491.128C489.888 65 488.922 64.7 488.228 64.1C487.535 63.4867 487.188 62.4933 487.188 61.12V56.68H485.828V53.84H487.188V51.12H490.608V53.84H492.848V56.68H490.608V61.16C490.608 61.4933 490.688 61.7333 490.848 61.88C491.008 62.0267 491.275 62.1 491.648 62.1H492.868ZM496.493 52.68C495.893 52.68 495.4 52.5067 495.013 52.16C494.64 51.8 494.453 51.36 494.453 50.84C494.453 50.3067 494.64 49.8667 495.013 49.52C495.4 49.16 495.893 48.98 496.493 48.98C497.08 48.98 497.56 49.16 497.933 49.52C498.32 49.8667 498.513 50.3067 498.513 50.84C498.513 51.36 498.32 51.8 497.933 52.16C497.56 52.5067 497.08 52.68 496.493 52.68ZM498.193 53.84V65H494.773V53.84H498.193ZM505.752 65.16C504.658 65.16 503.672 64.9267 502.792 64.46C501.925 63.9933 501.238 63.3267 500.732 62.46C500.238 61.5933 499.992 60.58 499.992 59.42C499.992 58.2733 500.245 57.2667 500.752 56.4C501.258 55.52 501.952 54.8467 502.832 54.38C503.712 53.9133 504.698 53.68 505.792 53.68C506.885 53.68 507.872 53.9133 508.752 54.38C509.632 54.8467 510.325 55.52 510.832 56.4C511.338 57.2667 511.592 58.2733 511.592 59.42C511.592 60.5667 511.332 61.58 510.812 62.46C510.305 63.3267 509.605 63.9933 508.712 64.46C507.832 64.9267 506.845 65.16 505.752 65.16ZM505.752 62.2C506.405 62.2 506.958 61.96 507.412 61.48C507.878 61 508.112 60.3133 508.112 59.42C508.112 58.5267 507.885 57.84 507.432 57.36C506.992 56.88 506.445 56.64 505.792 56.64C505.125 56.64 504.572 56.88 504.132 57.36C503.692 57.8267 503.472 58.5133 503.472 59.42C503.472 60.3133 503.685 61 504.112 61.48C504.552 61.96 505.098 62.2 505.752 62.2ZM520.206 53.72C521.513 53.72 522.553 54.1467 523.326 55C524.113 55.84 524.506 57 524.506 58.48V65H521.106V58.94C521.106 58.1933 520.913 57.6133 520.526 57.2C520.139 56.7867 519.619 56.58 518.966 56.58C518.313 56.58 517.793 56.7867 517.406 57.2C517.019 57.6133 516.826 58.1933 516.826 58.94V65H513.406V53.84H516.826V55.32C517.173 54.8267 517.639 54.44 518.226 54.16C518.813 53.8667 519.473 53.72 520.206 53.72ZM531.423 65.16C530.449 65.16 529.583 64.9933 528.823 64.66C528.063 64.3267 527.463 63.8733 527.023 63.3C526.583 62.7133 526.336 62.06 526.283 61.34H529.663C529.703 61.7267 529.883 62.04 530.203 62.28C530.523 62.52 530.916 62.64 531.383 62.64C531.809 62.64 532.136 62.56 532.363 62.4C532.603 62.2267 532.723 62.0067 532.723 61.74C532.723 61.42 532.556 61.1867 532.223 61.04C531.889 60.88 531.349 60.7067 530.603 60.52C529.803 60.3333 529.136 60.14 528.603 59.94C528.069 59.7267 527.609 59.4 527.223 58.96C526.836 58.5067 526.643 57.9 526.643 57.14C526.643 56.5 526.816 55.92 527.163 55.4C527.523 54.8667 528.043 54.4467 528.723 54.14C529.416 53.8333 530.236 53.68 531.183 53.68C532.583 53.68 533.683 54.0267 534.483 54.72C535.296 55.4133 535.763 56.3333 535.883 57.48H532.723C532.669 57.0933 532.496 56.7867 532.203 56.56C531.923 56.3333 531.549 56.22 531.083 56.22C530.683 56.22 530.376 56.3 530.163 56.46C529.949 56.6067 529.843 56.8133 529.843 57.08C529.843 57.4 530.009 57.64 530.343 57.8C530.689 57.96 531.223 58.12 531.943 58.28C532.769 58.4933 533.443 58.7067 533.963 58.92C534.483 59.12 534.936 59.4533 535.323 59.92C535.723 60.3733 535.929 60.9867 535.943 61.76C535.943 62.4133 535.756 63 535.383 63.52C535.023 64.0267 534.496 64.4267 533.803 64.72C533.123 65.0133 532.329 65.16 531.423 65.16ZM553.013 65L551.713 63.74C550.42 64.7267 548.873 65.22 547.073 65.22C545.993 65.22 545.053 65.0467 544.253 64.7C543.453 64.34 542.833 63.84 542.393 63.2C541.967 62.5467 541.753 61.7867 541.753 60.92C541.753 60.04 541.987 59.2467 542.453 58.54C542.933 57.82 543.647 57.2333 544.593 56.78C544.247 56.3533 544 55.9467 543.853 55.56C543.707 55.16 543.633 54.7267 543.633 54.26C543.633 53.5933 543.807 52.9867 544.153 52.44C544.5 51.8933 545 51.4667 545.653 51.16C546.32 50.84 547.107 50.68 548.013 50.68C548.933 50.68 549.713 50.8467 550.353 51.18C550.993 51.5133 551.473 51.96 551.793 52.52C552.113 53.08 552.26 53.6933 552.233 54.36H549.013C549.027 54 548.933 53.7267 548.733 53.54C548.547 53.34 548.293 53.24 547.973 53.24C547.653 53.24 547.387 53.3333 547.173 53.52C546.96 53.7067 546.853 53.9467 546.853 54.24C546.853 54.52 546.94 54.8133 547.113 55.12C547.3 55.4267 547.587 55.78 547.973 56.18L551.393 59.52C551.42 59.4533 551.453 59.3733 551.493 59.28C551.547 59.1867 551.6 59.08 551.653 58.96L552.393 57.7H555.813L554.853 59.44C554.493 60.2267 554.08 60.9733 553.613 61.68L556.993 65H553.013ZM547.233 62.46C548.127 62.46 548.92 62.2067 549.613 61.7L546.493 58.68C545.533 59.1733 545.053 59.84 545.053 60.68C545.053 61.1867 545.247 61.6133 545.633 61.96C546.033 62.2933 546.567 62.46 547.233 62.46ZM422.578 85.7V88.54H427.158V91.18H422.578V94.26H427.758V97H419.158V82.96H427.758V85.7H422.578ZM436.578 97L434.438 93.9L432.638 97H428.938L432.618 91.3L428.838 85.84H432.678L434.818 88.92L436.618 85.84H440.318L436.578 91.46L440.418 97H436.578ZM445.156 87.42C445.489 86.9 445.949 86.48 446.536 86.16C447.123 85.84 447.809 85.68 448.596 85.68C449.516 85.68 450.349 85.9133 451.096 86.38C451.843 86.8467 452.429 87.5133 452.856 88.38C453.296 89.2467 453.516 90.2533 453.516 91.4C453.516 92.5467 453.296 93.56 452.856 94.44C452.429 95.3067 451.843 95.98 451.096 96.46C450.349 96.9267 449.516 97.16 448.596 97.16C447.823 97.16 447.136 97 446.536 96.68C445.949 96.36 445.489 95.9467 445.156 95.44V102.32H441.736V85.84H445.156V87.42ZM450.036 91.4C450.036 90.5467 449.796 89.88 449.316 89.4C448.849 88.9067 448.269 88.66 447.576 88.66C446.896 88.66 446.316 88.9067 445.836 89.4C445.369 89.8933 445.136 90.5667 445.136 91.42C445.136 92.2733 445.369 92.9467 445.836 93.44C446.316 93.9333 446.896 94.18 447.576 94.18C448.256 94.18 448.836 93.9333 449.316 93.44C449.796 92.9333 450.036 92.2533 450.036 91.4ZM465.83 91.24C465.83 91.56 465.81 91.8933 465.77 92.24H458.03C458.084 92.9333 458.304 93.4667 458.69 93.84C459.09 94.2 459.577 94.38 460.15 94.38C461.004 94.38 461.597 94.02 461.93 93.3H465.57C465.384 94.0333 465.044 94.6933 464.55 95.28C464.07 95.8667 463.464 96.3267 462.73 96.66C461.997 96.9933 461.177 97.16 460.27 97.16C459.177 97.16 458.204 96.9267 457.35 96.46C456.497 95.9933 455.83 95.3267 455.35 94.46C454.87 93.5933 454.63 92.58 454.63 91.42C454.63 90.26 454.864 89.2467 455.33 88.38C455.81 87.5133 456.477 86.8467 457.33 86.38C458.184 85.9133 459.164 85.68 460.27 85.68C461.35 85.68 462.31 85.9067 463.15 86.36C463.99 86.8133 464.644 87.46 465.11 88.3C465.59 89.14 465.83 90.12 465.83 91.24ZM462.33 90.34C462.33 89.7533 462.13 89.2867 461.73 88.94C461.33 88.5933 460.83 88.42 460.23 88.42C459.657 88.42 459.17 88.5867 458.77 88.92C458.384 89.2533 458.144 89.7267 458.05 90.34H462.33ZM471.055 87.7C471.455 87.0867 471.955 86.6067 472.555 86.26C473.155 85.9 473.821 85.72 474.555 85.72V89.34H473.615C472.761 89.34 472.121 89.5267 471.695 89.9C471.268 90.26 471.055 90.9 471.055 91.82V97H467.635V85.84H471.055V87.7ZM477.909 84.68C477.309 84.68 476.816 84.5067 476.429 84.16C476.056 83.8 475.869 83.36 475.869 82.84C475.869 82.3067 476.056 81.8667 476.429 81.52C476.816 81.16 477.309 80.98 477.909 80.98C478.496 80.98 478.976 81.16 479.349 81.52C479.736 81.8667 479.929 82.3067 479.929 82.84C479.929 83.36 479.736 83.8 479.349 84.16C478.976 84.5067 478.496 84.68 477.909 84.68ZM479.609 85.84V97H476.189V85.84H479.609ZM492.608 91.24C492.608 91.56 492.588 91.8933 492.548 92.24H484.808C484.861 92.9333 485.081 93.4667 485.468 93.84C485.868 94.2 486.354 94.38 486.928 94.38C487.781 94.38 488.374 94.02 488.708 93.3H492.348C492.161 94.0333 491.821 94.6933 491.328 95.28C490.848 95.8667 490.241 96.3267 489.508 96.66C488.774 96.9933 487.954 97.16 487.048 97.16C485.954 97.16 484.981 96.9267 484.128 96.46C483.274 95.9933 482.608 95.3267 482.128 94.46C481.648 93.5933 481.408 92.58 481.408 91.42C481.408 90.26 481.641 89.2467 482.108 88.38C482.588 87.5133 483.254 86.8467 484.108 86.38C484.961 85.9133 485.941 85.68 487.048 85.68C488.128 85.68 489.088 85.9067 489.928 86.36C490.768 86.8133 491.421 87.46 491.888 88.3C492.368 89.14 492.608 90.12 492.608 91.24ZM489.108 90.34C489.108 89.7533 488.908 89.2867 488.508 88.94C488.108 88.5933 487.608 88.42 487.008 88.42C486.434 88.42 485.948 88.5867 485.548 88.92C485.161 89.2533 484.921 89.7267 484.828 90.34H489.108ZM501.212 85.72C502.519 85.72 503.559 86.1467 504.332 87C505.119 87.84 505.512 89 505.512 90.48V97H502.112V90.94C502.112 90.1933 501.919 89.6133 501.532 89.2C501.145 88.7867 500.625 88.58 499.972 88.58C499.319 88.58 498.799 88.7867 498.412 89.2C498.025 89.6133 497.832 90.1933 497.832 90.94V97H494.412V85.84H497.832V87.32C498.179 86.8267 498.645 86.44 499.232 86.16C499.819 85.8667 500.479 85.72 501.212 85.72ZM507.208 91.42C507.208 90.26 507.442 89.2467 507.908 88.38C508.388 87.5133 509.048 86.8467 509.888 86.38C510.742 85.9133 511.715 85.68 512.808 85.68C514.208 85.68 515.375 86.0467 516.308 86.78C517.255 87.5133 517.875 88.5467 518.168 89.88H514.528C514.222 89.0267 513.628 88.6 512.748 88.6C512.122 88.6 511.622 88.8467 511.248 89.34C510.875 89.82 510.688 90.5133 510.688 91.42C510.688 92.3267 510.875 93.0267 511.248 93.52C511.622 94 512.122 94.24 512.748 94.24C513.628 94.24 514.222 93.8133 514.528 92.96H518.168C517.875 94.2667 517.255 95.2933 516.308 96.04C515.362 96.7867 514.195 97.16 512.808 97.16C511.715 97.16 510.742 96.9267 509.888 96.46C509.048 95.9933 508.388 95.3267 507.908 94.46C507.442 93.5933 507.208 92.58 507.208 91.42ZM530.518 91.24C530.518 91.56 530.498 91.8933 530.458 92.24H522.718C522.771 92.9333 522.991 93.4667 523.378 93.84C523.778 94.2 524.264 94.38 524.838 94.38C525.691 94.38 526.284 94.02 526.618 93.3H530.258C530.071 94.0333 529.731 94.6933 529.238 95.28C528.758 95.8667 528.151 96.3267 527.418 96.66C526.684 96.9933 525.864 97.16 524.958 97.16C523.864 97.16 522.891 96.9267 522.038 96.46C521.184 95.9933 520.518 95.3267 520.038 94.46C519.558 93.5933 519.318 92.58 519.318 91.42C519.318 90.26 519.551 89.2467 520.018 88.38C520.498 87.5133 521.164 86.8467 522.018 86.38C522.871 85.9133 523.851 85.68 524.958 85.68C526.038 85.68 526.998 85.9067 527.838 86.36C528.678 86.8133 529.331 87.46 529.798 88.3C530.278 89.14 530.518 90.12 530.518 91.24ZM527.018 90.34C527.018 89.7533 526.818 89.2867 526.418 88.94C526.018 88.5933 525.518 88.42 524.918 88.42C524.344 88.42 523.858 88.5867 523.458 88.92C523.071 89.2533 522.831 89.7267 522.738 90.34H527.018Z" fill="#00103C"/>
<circle cx="475" cy="14" r="14" fill="url(#paint0_linear_169_3208)"/>
<circle cx="475" cy="13.9999" r="7.77778" fill="white"/>
<path d="M836.135 50.96V65H832.715V50.96H836.135ZM845.413 53.72C846.72 53.72 847.76 54.1467 848.533 55C849.32 55.84 849.713 57 849.713 58.48V65H846.313V58.94C846.313 58.1933 846.12 57.6133 845.733 57.2C845.346 56.7867 844.826 56.58 844.173 56.58C843.52 56.58 843 56.7867 842.613 57.2C842.226 57.6133 842.033 58.1933 842.033 58.94V65H838.613V53.84H842.033V55.32C842.38 54.8267 842.846 54.44 843.433 54.16C844.02 53.8667 844.68 53.72 845.413 53.72ZM863.488 65L860.568 59.7H859.748V65H856.328V50.96H862.068C863.175 50.96 864.115 51.1533 864.888 51.54C865.675 51.9267 866.261 52.46 866.648 53.14C867.035 53.8067 867.228 54.5533 867.228 55.38C867.228 56.3133 866.961 57.1467 866.428 57.88C865.908 58.6133 865.135 59.1333 864.108 59.44L867.348 65H863.488ZM859.748 57.28H861.868C862.495 57.28 862.961 57.1267 863.268 56.82C863.588 56.5133 863.748 56.08 863.748 55.52C863.748 54.9867 863.588 54.5667 863.268 54.26C862.961 53.9533 862.495 53.8 861.868 53.8H859.748V57.28ZM879.895 59.24C879.895 59.56 879.875 59.8933 879.835 60.24H872.095C872.148 60.9333 872.368 61.4667 872.755 61.84C873.155 62.2 873.641 62.38 874.215 62.38C875.068 62.38 875.661 62.02 875.995 61.3H879.635C879.448 62.0333 879.108 62.6933 878.615 63.28C878.135 63.8667 877.528 64.3267 876.795 64.66C876.061 64.9933 875.241 65.16 874.335 65.16C873.241 65.16 872.268 64.9267 871.415 64.46C870.561 63.9933 869.895 63.3267 869.415 62.46C868.935 61.5933 868.695 60.58 868.695 59.42C868.695 58.26 868.928 57.2467 869.395 56.38C869.875 55.5133 870.541 54.8467 871.395 54.38C872.248 53.9133 873.228 53.68 874.335 53.68C875.415 53.68 876.375 53.9067 877.215 54.36C878.055 54.8133 878.708 55.46 879.175 56.3C879.655 57.14 879.895 58.12 879.895 59.24ZM876.395 58.34C876.395 57.7533 876.195 57.2867 875.795 56.94C875.395 56.5933 874.895 56.42 874.295 56.42C873.721 56.42 873.235 56.5867 872.835 56.92C872.448 57.2533 872.208 57.7267 872.115 58.34H876.395ZM886.719 61.8L889.139 53.84H892.779L888.819 65H884.599L880.639 53.84H884.299L886.719 61.8ZM895.939 52.68C895.339 52.68 894.845 52.5067 894.459 52.16C894.085 51.8 893.899 51.36 893.899 50.84C893.899 50.3067 894.085 49.8667 894.459 49.52C894.845 49.16 895.339 48.98 895.939 48.98C896.525 48.98 897.005 49.16 897.379 49.52C897.765 49.8667 897.959 50.3067 897.959 50.84C897.959 51.36 897.765 51.8 897.379 52.16C897.005 52.5067 896.525 52.68 895.939 52.68ZM897.639 53.84V65H894.219V53.84H897.639ZM910.637 59.24C910.637 59.56 910.617 59.8933 910.577 60.24H902.837C902.89 60.9333 903.11 61.4667 903.497 61.84C903.897 62.2 904.384 62.38 904.957 62.38C905.81 62.38 906.404 62.02 906.737 61.3H910.377C910.19 62.0333 909.85 62.6933 909.357 63.28C908.877 63.8667 908.27 64.3267 907.537 64.66C906.804 64.9933 905.984 65.16 905.077 65.16C903.984 65.16 903.01 64.9267 902.157 64.46C901.304 63.9933 900.637 63.3267 900.157 62.46C899.677 61.5933 899.437 60.58 899.437 59.42C899.437 58.26 899.67 57.2467 900.137 56.38C900.617 55.5133 901.284 54.8467 902.137 54.38C902.99 53.9133 903.97 53.68 905.077 53.68C906.157 53.68 907.117 53.9067 907.957 54.36C908.797 54.8133 909.45 55.46 909.917 56.3C910.397 57.14 910.637 58.12 910.637 59.24ZM907.137 58.34C907.137 57.7533 906.937 57.2867 906.537 56.94C906.137 56.5933 905.637 56.42 905.037 56.42C904.464 56.42 903.977 56.5867 903.577 56.92C903.19 57.2533 902.95 57.7267 902.857 58.34H907.137ZM928.461 53.84L925.441 65H921.661L919.901 57.76L918.081 65H914.321L911.281 53.84H914.701L916.281 61.82L918.161 53.84H921.781L923.681 61.78L925.241 53.84H928.461Z" fill="#00103C"/>
<circle cx="880" cy="14" r="14" fill="url(#paint1_linear_169_3208)"/>
<circle cx="880" cy="13.9999" r="7.77778" fill="white"/>
<defs>
<linearGradient id="paint0_linear_169_3208" x1="475" y1="0" x2="475" y2="28" gradientUnits="userSpaceOnUse">
<stop stop-color="#2BC3FC"/>
<stop offset="1" stop-color="#017EAC"/>
</linearGradient>
<linearGradient id="paint1_linear_169_3208" x1="880" y1="0" x2="880" y2="28" gradientUnits="userSpaceOnUse">
<stop stop-color="#2BC3FC"/>
<stop offset="1" stop-color="#017EAC"/>
</linearGradient>
</defs>
</svg>
