<svg width="250" height="196" viewBox="0 0 250 196" fill="none" xmlns="http://www.w3.org/2000/svg">
<path opacity="0.19" d="M98 196C152.124 196 196 152.124 196 98C196 43.8761 152.124 0 98 0C43.8761 0 0 43.8761 0 98C0 152.124 43.8761 196 98 196Z" fill="url(#paint0_linear_86_2027)"/>
<path d="M190.282 32.673V128.327C190.282 134.785 185.04 140 178.609 140H15.673C9.21502 140 4 134.758 4 128.327V32.673C4 26.215 9.24204 21 15.673 21H178.609C185.067 21 190.282 26.2421 190.282 32.673Z" fill="#CEDCED"/>
<path d="M190.282 32.673V37.807H4V32.673C4 26.215 9.24204 21 15.673 21H178.609C185.067 21 190.282 26.2421 190.282 32.673Z" fill="#BAC9D6"/>
<path d="M14.9974 32.6452C16.7882 32.6452 18.2399 31.1934 18.2399 29.4027C18.2399 27.6119 16.7882 26.1602 14.9974 26.1602C13.2066 26.1602 11.7549 27.6119 11.7549 29.4027C11.7549 31.1934 13.2066 32.6452 14.9974 32.6452Z" fill="#939393"/>
<path d="M25.3197 32.6452C27.1104 32.6452 28.5622 31.1934 28.5622 29.4027C28.5622 27.6119 27.1104 26.1602 25.3197 26.1602C23.5289 26.1602 22.0771 27.6119 22.0771 29.4027C22.0771 31.1934 23.5289 32.6452 25.3197 32.6452Z" fill="#CEDCED"/>
<path d="M35.9388 32.6452C37.7296 32.6452 39.1813 31.1934 39.1813 29.4027C39.1813 27.6119 37.7296 26.1602 35.9388 26.1602C34.148 26.1602 32.6963 27.6119 32.6963 29.4027C32.6963 31.1934 34.148 32.6452 35.9388 32.6452Z" fill="white"/>
<path d="M99.5996 67.512C99.5996 63.9182 102.518 61 106.112 61H170.205C173.799 61 176.717 63.9182 176.717 67.512C176.717 71.1058 173.799 74.0241 170.205 74.0241H106.112C102.518 74.0241 99.5996 71.1058 99.5996 67.512Z" fill="white"/>
<path d="M99.5996 89.5198C99.5996 85.9261 102.518 83.0078 106.112 83.0078H170.205C173.799 83.0078 176.717 85.9261 176.717 89.5198C176.717 93.1136 173.799 96.0319 170.205 96.0319H106.112C102.518 96.0319 99.5996 93.1136 99.5996 89.5198Z" fill="white"/>
<path d="M100 111.508C100 107.921 102.429 105.008 105.421 105.008H144.579C147.571 105.008 150 107.921 150 111.508C150 115.095 147.571 118.008 144.579 118.008H105.421C102.429 118.008 100 115.095 100 111.508Z" fill="#BAC9D6"/>
<path d="M55.4742 80.634C58.7872 80.634 61.4728 77.9483 61.4728 74.6353C61.4728 71.3224 58.7872 68.6367 55.4742 68.6367C52.1613 68.6367 49.4756 71.3224 49.4756 74.6353C49.4756 77.9483 52.1613 80.634 55.4742 80.634Z" fill="#FEB000"/>
<path d="M18 110.634V68.3404C18 62.0793 23.0793 57 29.3404 57H71.6595C77.9207 57 83 62.0793 83 68.3404V110.66C83 116.921 77.9207 122 71.6595 122H29.3404C23.0793 122 18 116.921 18 110.634Z" fill="#00ABFE"/>
<path d="M44.6603 113.139C43.1714 113.139 41.7818 112.444 40.8885 111.253L22.923 87.7293C21.3349 85.6449 21.732 82.6672 23.8163 81.0791C25.9007 79.491 28.8784 79.888 30.4665 81.9724L44.6934 100.633L70.5001 67.6794C72.1213 65.6281 75.099 65.2641 77.1834 66.8853C79.2347 68.5065 79.5987 71.4842 77.9775 73.5686L48.3659 111.352C47.5056 112.477 46.116 113.139 44.6603 113.139Z" fill="white"/>
<path d="M153.981 138.796C155.01 141.243 156.233 143.615 157.621 145.882C159.933 149.97 165.945 150.835 170.54 148.941C175.12 147.046 178.491 143.018 181.117 138.811C183.742 134.604 185.846 130.039 188.934 126.16C190.142 120.909 189.844 115.509 188.651 110.422C187.457 105.335 186.413 99.4866 184.384 94.668C181.356 96.0404 178.849 100.232 177.522 103.276C173.195 113.286 169.51 123.565 166.512 134.052L153.981 138.796Z" fill="url(#paint1_linear_86_2027)"/>
<path d="M170.255 138.765C170.3 138.765 170.36 138.751 170.39 138.721C170.479 138.646 170.509 138.497 170.42 138.407L166.809 133.857C166.735 133.768 166.586 133.738 166.496 133.827C166.407 133.902 166.377 134.051 166.466 134.141L170.076 138.691C170.136 138.736 170.196 138.765 170.255 138.765Z" fill="url(#paint2_linear_86_2027)"/>
<path d="M193.007 80.4518C193.365 84.0769 193.723 87.6871 194.081 91.3123C195.304 92.8339 198.288 96.0861 200.362 96.1607C204.688 96.3099 207.478 89.3132 208.611 85.1361C206.09 79.6313 204.389 75.842 202.375 71.0234C199.824 73.6341 197.288 76.2299 194.737 78.8406C194.111 79.4821 193.454 80.1385 193.007 80.4518Z" fill="#FFAD92"/>
<path d="M185.909 121.982C186.983 129.471 187.431 137.646 187.565 145.821C186.372 148.566 186.118 151.147 186.76 153.489C185.671 156.458 185.709 173.248 185.5 176.5C190.348 176.754 196.212 175.672 202 177C207.803 177.94 213 176.5 220 177C226.5 177 228.286 177.291 234 177.5C234.462 174.501 234.543 173.524 235.035 169.855C236.751 174.986 234.789 170.664 236.907 175.109C242.906 173.16 241.906 174.109 246.406 174.109C241.543 156.088 238.317 146.269 235.498 126.935C234.856 123.265 234.215 119.491 233.588 115.731C230.843 106.019 228.143 97.0982 225.443 88.1771C219.923 86.551 214.329 85.1487 208.689 84C208.451 85.0294 208.003 86.014 207.347 86.8643C206.258 88.2815 204.617 89.2811 202.856 89.6093C201.946 90.3253 201.708 91.2801 201.573 92.1901C201.424 93.13 201.335 94.0698 201.32 95.0097C200.962 93.3836 200.29 91.847 199.38 90.4447C197.232 90.758 194.95 90.0717 193.428 88.5799C190.086 90.1762 186.968 92.1006 184.313 94.6964C182.553 98.5751 182.911 102.678 183.403 106.616C184.044 111.748 184.88 116.88 185.909 121.982Z" fill="url(#paint3_linear_86_2027)"/>
<path d="M201.256 165.367C201.331 165.367 201.406 165.323 201.45 165.248C202.345 163.682 203.972 162.831 205.687 161.921C207.254 161.086 208.88 160.235 209.909 158.773C211.774 156.118 210.998 152.508 210.371 149.599C209.148 143.9 208.372 138.052 208.074 132.219C208.074 132.204 208.074 132.204 208.074 132.189C205.642 120.15 203.33 107.544 201.092 95.341C201.077 95.2217 200.958 95.1322 200.839 95.162C200.719 95.177 200.63 95.2963 200.66 95.4156C202.897 107.604 205.21 120.21 207.641 132.249C207.94 138.097 208.716 143.96 209.939 149.673C210.536 152.493 211.296 156.014 209.551 158.505C208.581 159.877 207.015 160.713 205.478 161.518C203.778 162.413 202.032 163.338 201.063 165.009C201.003 165.114 201.033 165.248 201.152 165.308C201.182 165.352 201.212 165.367 201.256 165.367Z" fill="url(#paint4_linear_86_2027)"/>
<path d="M214.982 158.581C215.011 158.581 215.041 158.581 215.071 158.566C220.039 156.552 225.469 155.821 230.78 156.462C230.899 156.477 231.019 156.388 231.034 156.268C231.048 156.149 230.959 156.03 230.84 156.015C225.454 155.373 219.934 156.104 214.907 158.148C214.788 158.193 214.743 158.327 214.788 158.446C214.817 158.536 214.892 158.581 214.982 158.581Z" fill="url(#paint5_linear_86_2027)"/>
<path d="M206.403 156.82C206.463 156.82 206.537 156.79 206.582 156.745C206.657 156.655 206.642 156.506 206.552 156.432C203.628 153.985 199.75 152.628 195.945 152.702C195.826 152.702 195.722 152.807 195.722 152.926C195.722 153.045 195.826 153.15 195.945 153.15C199.66 153.075 203.419 154.403 206.254 156.775C206.314 156.805 206.358 156.82 206.403 156.82Z" fill="url(#paint6_linear_86_2027)"/>
<path d="M228.944 174.214C229.049 174.214 229.138 174.14 229.168 174.035C229.198 173.916 229.108 173.797 228.989 173.767C226.14 173.2 223.618 171.544 221.187 169.933C219.024 168.516 216.786 167.039 214.28 166.293C214.16 166.263 214.041 166.323 213.996 166.442C213.966 166.561 214.026 166.681 214.145 166.725C216.592 167.456 218.8 168.903 220.933 170.321C223.41 171.947 225.961 173.618 228.9 174.214C228.914 174.214 228.929 174.214 228.944 174.214Z" fill="url(#paint7_linear_86_2027)"/>
<path d="M196.871 96.1584C197.095 94.2489 197.826 92.4139 198.975 90.8774C196.677 90.1016 194.932 88.6993 193.753 86.8047C193.35 87.6849 192.903 88.5352 192.53 89.3706C194.022 91.4144 195.514 93.4731 196.871 96.1584Z" fill="#4D5A6D"/>
<path d="M205.464 93.8203C204.614 92.3732 203.495 91.0753 202.182 90.031C204.599 87.659 206.255 84.8395 207.21 81.7812C207.777 82.7211 208.359 83.646 209 84.5113C208.015 87.7336 206.837 90.8963 205.464 93.8203Z" fill="#4D5A6D"/>
<path d="M202.747 68.517C203.926 65.056 203.926 61.3265 203.97 57.8953C202.21 54.9713 198.481 53.4049 195.064 54.4641C190.962 51.2566 184.89 51.3014 180.385 53.8972C175.879 56.4929 172.911 61.2817 172.135 66.697C172.568 66.339 173 65.966 173.433 65.608C173.299 67.249 173.388 68.89 173.671 70.5012C174.134 69.8448 174.686 69.248 175.312 68.7557C175.506 69.8149 175.805 70.8443 176.208 71.8289C176.67 70.8891 177.356 70.0685 178.565 69.3376C182.622 69.9343 186.621 71.0084 190.708 71.3366C194.796 71.6648 199.152 71.2023 202.747 68.517Z" fill="#3B2C26"/>
<path d="M203.299 73.8129C202.225 78.2138 199.137 82.0776 195.094 84.0916C194.095 84.5839 193.006 84.9867 191.887 84.8823C190.693 84.7629 189.634 84.0767 188.679 83.3308C183.995 79.646 180.996 74.2605 178.356 68.7258C181.041 66.3687 184.01 64.3398 187.173 62.669C188.456 61.9977 189.828 61.3711 191.35 61.3711C191.335 62.3706 192.26 63.1464 193.214 63.5044C194.154 63.8624 195.199 63.9519 196.094 64.3995C197.6 65.1752 198.421 66.8013 199.48 68.1291C199.659 68.3528 199.898 68.5915 200.181 68.5766C200.718 68.5319 200.748 67.771 200.897 67.2489C201.226 66.0256 203.031 65.6974 204.045 66.4582C205.06 67.2191 205.373 68.6363 205.283 69.9043C205.209 71.1425 204.746 72.4255 203.299 73.8129Z" fill="#FFAD92"/>
<path d="M190.5 79.0935C191.618 79.0786 192.767 78.6758 193.797 77.9299C194.647 77.3182 195.423 76.4828 196.169 75.3938C196.243 75.2894 196.213 75.1551 196.109 75.0805C196.004 75.0059 195.87 75.0357 195.796 75.1402C195.079 76.1994 194.349 76.99 193.528 77.5718C192.558 78.2581 191.514 78.631 190.485 78.646C190.365 78.646 190.261 78.7504 190.261 78.8697C190.276 78.9891 190.38 79.0935 190.5 79.0935Z" fill="#EB7154"/>
<path d="M192.648 85.0632C194.11 85.0632 195.661 84.4068 197.392 83.0791C200.659 80.543 202.852 77.2013 203.553 73.6806C203.583 73.5612 203.493 73.4419 203.374 73.412C203.254 73.3822 203.135 73.4717 203.105 73.5911C202.419 77.0073 200.286 80.2595 197.108 82.721C195.288 84.1383 193.677 84.7499 192.185 84.5858C192.066 84.5709 191.946 84.6604 191.946 84.7797C191.931 84.8991 192.021 85.0184 192.14 85.0184C192.304 85.0483 192.483 85.0632 192.648 85.0632Z" fill="#EB7154"/>
<path d="M208.879 115.258C204.852 113.483 200.809 111.693 196.781 109.917C196.184 109.664 195.572 109.395 195.02 109.246C191.291 110.678 187.472 112.17 184.548 114.87C184.279 115.109 184.011 115.452 184.13 115.795C184.279 116.183 184.831 116.198 185.234 116.094C185.801 115.944 186.323 115.676 187.114 115.303C187.576 115.005 188.083 114.781 189.083 114.617C188.74 115.124 188.412 115.616 188.069 116.123C187.979 116.243 187.904 116.377 187.89 116.526C187.875 116.646 187.934 116.78 187.979 116.884C188.337 117.735 188.814 118.525 189.456 119.197C189.456 119.689 189.859 120.092 190.232 120.42C190.59 120.733 191.037 121.076 191.5 120.942C191.843 120.852 192.082 120.509 192.141 120.166C192.216 119.823 192.156 119.45 192.141 119.092C193.006 118.421 193.872 117.75 195.035 116.899C194.647 117.585 194.26 118.257 193.872 118.943C193.752 119.152 193.633 119.376 193.633 119.614C193.648 119.808 193.737 119.987 193.827 120.151C194.14 120.718 194.439 121.285 194.752 121.852C194.797 121.927 194.841 122.016 194.901 122.076C195.095 122.255 195.438 122.165 195.602 121.956C195.766 121.748 195.796 121.464 195.781 121.196C195.766 120.659 195.617 120.122 195.528 119.584C195.96 119.316 196.363 118.973 197.109 118.391C199.183 119.823 201.704 120.599 204.225 120.614C204.583 120.614 204.926 120.599 205.269 120.688C205.508 120.748 205.732 120.867 205.941 120.987C206.672 121.375 207.388 121.763 208.268 121.792C208.715 120.793 209.178 119.793 209.342 118.719C209.536 117.63 209.387 116.511 208.879 115.258Z" fill="#FFAD92"/>
<path d="M188.724 114.973C188.769 114.973 188.828 114.958 188.858 114.929C190.514 113.601 192.379 112.601 194.408 111.96C194.527 111.915 194.587 111.796 194.557 111.676C194.512 111.557 194.393 111.497 194.273 111.527C192.2 112.198 190.29 113.213 188.59 114.585C188.5 114.66 188.47 114.809 188.56 114.899C188.59 114.958 188.664 114.973 188.724 114.973Z" fill="#EB7154"/>
<path d="M189.545 119.584C189.575 119.584 189.619 119.569 189.649 119.555C189.754 119.495 189.798 119.361 189.739 119.256C189.515 118.853 189.53 118.301 189.783 117.794C190.022 117.287 190.425 116.899 190.828 116.526C192.051 115.422 193.438 114.542 194.96 113.915C195.079 113.871 195.124 113.736 195.079 113.617C195.035 113.498 194.9 113.453 194.781 113.498C193.215 114.154 191.782 115.064 190.514 116.198C190.097 116.571 189.649 117.033 189.366 117.6C189.052 118.242 189.052 118.943 189.336 119.48C189.396 119.54 189.47 119.584 189.545 119.584Z" fill="#EB7154"/>
<path d="M194.737 117.451C194.781 117.451 194.826 117.436 194.871 117.406C195.706 116.78 196.497 116.064 197.213 115.318C197.303 115.228 197.303 115.094 197.213 115.005C197.124 114.915 196.989 114.915 196.9 115.005C196.199 115.751 195.423 116.437 194.602 117.048C194.498 117.123 194.483 117.257 194.558 117.362C194.602 117.421 194.662 117.451 194.737 117.451Z" fill="#EB7154"/>
<path d="M199.139 116.183C199.168 116.183 199.183 116.183 199.213 116.168C199.333 116.123 199.392 116.004 199.347 115.885C198.766 114.214 198.005 112.588 197.08 111.066C197.02 110.962 196.871 110.932 196.767 110.991C196.662 111.051 196.632 111.2 196.692 111.305C197.602 112.796 198.348 114.378 198.915 116.034C198.96 116.123 199.049 116.183 199.139 116.183Z" fill="#EB7154"/>
<path d="M222.485 110.827C224.231 113.825 225.961 116.824 227.707 119.823C223.515 118.256 219.517 116.884 215.518 115.496C214.802 115.243 214.071 115.004 213.311 114.989C212.55 114.989 211.759 115.273 211.326 115.899C210.133 115.601 209.372 115.377 208.611 115.138C208.328 117.6 207.701 120.061 206.761 122.389C207.761 122.806 208.731 123.284 209.656 123.836C210.804 127.341 214.579 129.564 218.069 131.459C220.874 132.981 223.664 134.502 226.468 136.024C228.915 137.352 231.391 138.694 234.077 139.485C236.747 140.276 239.686 140.484 242.312 139.53C244.863 138.62 246.996 136.621 248.07 134.129C248.905 132.205 249.114 130.057 248.95 127.968C248.279 119.494 241.879 112.587 239.522 104.412C236.523 100.28 235.434 95.0732 231.72 91.9404C229.81 90.3442 226.931 89.1507 225.006 88.5391C223.485 89.2253 223.201 91.2393 222.679 92.8355C220.859 98.5343 219.308 105.352 222.485 110.827Z" fill="url(#paint8_linear_86_2027)"/>
<path d="M236.494 123.134C236.584 123.134 236.673 123.074 236.703 122.985C236.748 122.865 236.688 122.746 236.569 122.701L216.459 115.585C214.564 114.914 212.446 114.407 210.939 115.63L208.88 114.973C208.761 114.944 208.642 115.003 208.597 115.123C208.552 115.242 208.627 115.361 208.746 115.406L210.924 116.107C210.999 116.137 211.073 116.107 211.133 116.062C212.461 114.899 214.4 115.361 216.31 116.033L236.419 123.149C236.449 123.134 236.479 123.134 236.494 123.134Z" fill="url(#paint9_linear_86_2027)"/>
<path d="M227.781 120.135C227.826 120.135 227.855 120.12 227.9 120.105C228.005 120.045 228.049 119.911 227.975 119.807L221.948 109.409C221.888 109.304 221.754 109.259 221.649 109.334C221.545 109.394 221.5 109.528 221.575 109.632L227.602 120.03C227.632 120.09 227.706 120.135 227.781 120.135Z" fill="url(#paint10_linear_86_2027)"/>
<path d="M223.5 112.855C223.559 112.855 223.634 112.826 223.679 112.766C223.753 112.676 223.738 112.527 223.649 112.453C222.739 111.722 221.754 111.08 220.725 110.558C220.621 110.498 220.486 110.543 220.427 110.647C220.367 110.752 220.412 110.886 220.516 110.946C221.531 111.468 222.485 112.095 223.366 112.796C223.395 112.84 223.455 112.855 223.5 112.855Z" fill="url(#paint11_linear_86_2027)"/>
<path d="M237.971 140.635C238.776 140.635 239.582 140.531 240.373 140.292C240.492 140.262 240.552 140.128 240.522 140.009C240.492 139.889 240.358 139.83 240.238 139.859C237.135 140.784 233.779 139.561 230.616 138.099C225.216 135.608 219.934 132.728 214.922 129.521C212.654 128.074 210.506 126.388 210.163 123.971C210.148 123.912 210.118 123.852 210.059 123.807C209.014 123.136 208.03 122.614 207.045 122.226C206.926 122.181 206.806 122.241 206.747 122.345C206.702 122.465 206.762 122.584 206.866 122.644C207.791 123.017 208.716 123.509 209.716 124.136C210.118 126.672 212.326 128.402 214.653 129.894C219.681 133.116 224.977 136.01 230.407 138.502C232.898 139.651 235.464 140.635 237.971 140.635Z" fill="url(#paint12_linear_86_2027)"/>
<path d="M209.924 122.374C210.014 122.374 210.088 122.329 210.133 122.24C210.879 120.554 211.222 118.689 211.133 116.839C211.133 116.72 211.028 116.615 210.894 116.63C210.775 116.63 210.67 116.735 210.685 116.869C210.775 118.644 210.446 120.434 209.73 122.061C209.686 122.18 209.73 122.299 209.85 122.359C209.864 122.359 209.894 122.374 209.924 122.374Z" fill="url(#paint13_linear_86_2027)"/>
<path d="M189.262 129.234L172.21 92.1916C172.031 91.7888 171.629 91.5352 171.196 91.5352H143.552C142.732 91.5352 142.195 92.3855 142.538 93.1165L159.59 130.173C159.769 130.576 160.171 130.83 160.604 130.83H188.248C189.068 130.815 189.605 129.979 189.262 129.234Z" fill="#ABB9C4"/>
<path d="M157.635 123.49C155.979 119.894 153.816 116.538 151.235 113.539C150.429 115.105 149.892 116.791 149.654 118.537C149.609 118.865 149.579 119.208 149.683 119.521C149.758 119.73 149.877 119.909 149.997 120.088C151.444 122.192 152.876 124.295 154.323 126.399C154.398 126.518 154.487 126.637 154.621 126.667C154.815 126.712 154.994 126.563 155.129 126.428C155.994 125.533 156.74 124.549 157.635 123.49Z" fill="#EB7154"/>
<path d="M188.084 129.234L171.032 92.1916C170.853 91.7888 170.45 91.5352 170.018 91.5352H142.374C141.554 91.5352 141.017 92.3855 141.36 93.1165L158.411 130.159C158.59 130.561 158.993 130.815 159.426 130.815H187.069C187.875 130.815 188.427 129.979 188.084 129.234Z" fill="#4D5A6D"/>
<path d="M169.972 98.755L168.197 95.473C168.182 95.4283 168.122 95.3984 168.077 95.3984H164.84C164.751 95.3984 164.676 95.5029 164.721 95.5774L166.496 98.8595C166.511 98.9042 166.571 98.9341 166.615 98.9341H169.853C169.942 98.9341 170.017 98.8446 169.972 98.755Z" fill="white"/>
<path d="M150.862 126.859C148.789 123.145 146.76 119.415 144.776 115.641C144.627 115.357 144.477 115.074 144.463 114.761C144.448 114.388 144.612 114.045 144.761 113.702C145.208 112.777 145.641 111.867 146.238 110.942C147.431 109.972 148.64 109.002 149.833 108.048C150.042 107.883 150.296 107.704 150.564 107.749C151.042 107.824 151.101 108.495 150.997 108.958C150.788 109.793 150.385 110.599 150.132 111.404C151.191 110.434 152.459 109.689 153.816 109.226C153.951 109.181 154.115 109.137 154.249 109.181C154.517 109.286 154.532 109.659 154.458 109.942C154.309 110.464 153.995 110.927 153.876 111.404C154.428 111.523 154.771 112.21 154.547 112.717C154.488 112.851 154.383 112.985 154.294 113.105C153.727 113.836 153.145 114.582 152.593 115.432C152.399 116.297 152.22 117.163 152.145 118.132C152.832 117.416 153.563 116.73 154.353 116.103C155.04 116.044 155.726 116.118 156.382 116.312C156.561 116.357 156.77 116.447 156.845 116.596C156.517 117.386 155.487 117.804 154.726 117.506C154.294 118.639 153.563 119.669 152.697 120.519C153.995 121.996 154.637 124.04 154.517 126.128C154.085 126.755 153.533 127.352 152.817 127.59C152.086 127.829 151.235 127.546 150.862 126.859Z" fill="#FFAD92"/>
<path d="M148.28 115.524C148.369 115.524 148.459 115.464 148.489 115.375L149.294 112.854C149.637 112.272 149.995 111.81 150.488 111.302C150.577 111.213 150.577 111.079 150.488 110.989C150.398 110.899 150.264 110.899 150.174 110.989C149.652 111.526 149.264 112.033 148.906 112.645C148.891 112.66 148.891 112.675 148.891 112.69L148.071 115.226C148.026 115.345 148.101 115.464 148.22 115.509C148.235 115.524 148.265 115.524 148.28 115.524Z" fill="#EB7154"/>
<path d="M149.893 117.222C149.982 117.222 150.072 117.162 150.102 117.073L151.295 113.701C152.071 112.985 152.951 112.254 154.01 111.463C154.115 111.389 154.13 111.254 154.055 111.15C153.98 111.046 153.846 111.031 153.742 111.105C152.653 111.926 151.743 112.672 150.952 113.403C150.922 113.432 150.907 113.462 150.892 113.492L149.684 116.923C149.639 117.043 149.699 117.162 149.818 117.207C149.848 117.222 149.878 117.222 149.893 117.222Z" fill="#EB7154"/>
<path d="M148.415 118.655C148.475 118.655 148.535 118.625 148.58 118.58C148.669 118.49 148.654 118.341 148.565 118.267C147.431 117.237 146.401 116.193 146.029 114.85C145.999 114.731 145.879 114.656 145.76 114.686C145.641 114.716 145.566 114.835 145.596 114.955C145.984 116.417 147.132 117.551 148.251 118.595C148.311 118.64 148.371 118.655 148.415 118.655Z" fill="#EB7154"/>
<path d="M151.801 129.752C151.473 131.453 151.861 132.87 152.294 134.227C152.786 135.764 153.353 137.286 153.979 138.778L166.511 134.034L166.347 133.586L166.332 133.541C165.81 132.169 165.287 131.348 164.78 130.528C163.453 128.424 161.841 126.127 159.38 125.739C158.544 124.605 157.992 123.695 157.426 122.785C155.382 124.814 153.159 126.291 150.727 126.873C150.966 127.857 151.339 128.842 151.801 129.752Z" fill="url(#paint14_linear_86_2027)"/>
<defs>
<linearGradient id="paint0_linear_86_2027" x1="98" y1="0" x2="98" y2="196" gradientUnits="userSpaceOnUse">
<stop stop-color="#2BC3FC"/>
<stop offset="1" stop-color="#017EAC"/>
</linearGradient>
<linearGradient id="paint1_linear_86_2027" x1="171.843" y1="94.668" x2="171.843" y2="149.898" gradientUnits="userSpaceOnUse">
<stop stop-color="#2BC3FC"/>
<stop offset="1" stop-color="#017EAC"/>
</linearGradient>
<linearGradient id="paint2_linear_86_2027" x1="168.443" y1="133.773" x2="168.443" y2="138.765" gradientUnits="userSpaceOnUse">
<stop stop-color="#2BC3FC"/>
<stop offset="1" stop-color="#017EAC"/>
</linearGradient>
<linearGradient id="paint3_linear_86_2027" x1="214.703" y1="84" x2="214.703" y2="177.5" gradientUnits="userSpaceOnUse">
<stop stop-color="#2BC3FC"/>
<stop offset="1" stop-color="#017EAC"/>
</linearGradient>
<linearGradient id="paint4_linear_86_2027" x1="205.866" y1="95.1562" x2="205.866" y2="165.367" gradientUnits="userSpaceOnUse">
<stop stop-color="#2BC3FC"/>
<stop offset="1" stop-color="#017EAC"/>
</linearGradient>
<linearGradient id="paint5_linear_86_2027" x1="222.903" y1="155.789" x2="222.903" y2="158.581" gradientUnits="userSpaceOnUse">
<stop stop-color="#2BC3FC"/>
<stop offset="1" stop-color="#017EAC"/>
</linearGradient>
<linearGradient id="paint6_linear_86_2027" x1="201.176" y1="152.699" x2="201.176" y2="156.82" gradientUnits="userSpaceOnUse">
<stop stop-color="#2BC3FC"/>
<stop offset="1" stop-color="#017EAC"/>
</linearGradient>
<linearGradient id="paint7_linear_86_2027" x1="221.581" y1="166.285" x2="221.581" y2="174.214" gradientUnits="userSpaceOnUse">
<stop stop-color="#2BC3FC"/>
<stop offset="1" stop-color="#017EAC"/>
</linearGradient>
<linearGradient id="paint8_linear_86_2027" x1="227.882" y1="88.5391" x2="227.882" y2="140.165" gradientUnits="userSpaceOnUse">
<stop stop-color="#2BC3FC"/>
<stop offset="1" stop-color="#017EAC"/>
</linearGradient>
<linearGradient id="paint9_linear_86_2027" x1="222.651" y1="114.887" x2="222.651" y2="123.149" gradientUnits="userSpaceOnUse">
<stop stop-color="#2BC3FC"/>
<stop offset="1" stop-color="#017EAC"/>
</linearGradient>
<linearGradient id="paint10_linear_86_2027" x1="224.775" y1="109.297" x2="224.775" y2="120.135" gradientUnits="userSpaceOnUse">
<stop stop-color="#2BC3FC"/>
<stop offset="1" stop-color="#017EAC"/>
</linearGradient>
<linearGradient id="paint11_linear_86_2027" x1="222.063" y1="110.531" x2="222.063" y2="112.855" gradientUnits="userSpaceOnUse">
<stop stop-color="#2BC3FC"/>
<stop offset="1" stop-color="#017EAC"/>
</linearGradient>
<linearGradient id="paint12_linear_86_2027" x1="223.631" y1="122.211" x2="223.631" y2="140.635" gradientUnits="userSpaceOnUse">
<stop stop-color="#2BC3FC"/>
<stop offset="1" stop-color="#017EAC"/>
</linearGradient>
<linearGradient id="paint13_linear_86_2027" x1="210.43" y1="116.629" x2="210.43" y2="122.374" gradientUnits="userSpaceOnUse">
<stop stop-color="#2BC3FC"/>
<stop offset="1" stop-color="#017EAC"/>
</linearGradient>
<linearGradient id="paint14_linear_86_2027" x1="158.619" y1="122.785" x2="158.619" y2="138.778" gradientUnits="userSpaceOnUse">
<stop stop-color="#2BC3FC"/>
<stop offset="1" stop-color="#017EAC"/>
</linearGradient>
</defs>
</svg>
