<svg width="59" height="59" viewBox="0 0 59 59" fill="none" xmlns="http://www.w3.org/2000/svg">
<rect width="59" height="59" rx="8" fill="#00103C"/>
<path d="M46.7734 9.73758C47.0078 9.97578 47.1875 10.25 47.3125 10.543C47.4297 10.8359 47.4297 11.1562 47.5 11.4922V19C47.5 20.3828 46.3828 21.5 45 21.5C43.6172 21.5 42.5 20.3828 42.5 19V17.5391L34.2656 25.7656C33.3438 26.6953 31.8672 26.75 30.875 25.8984L23.6797 19.7891L16.6266 25.8984C15.5789 26.7969 14 26.6719 13.1016 25.625C12.2031 24.5781 12.325 23 13.3727 22.1016L22.125 14.6016C23.0625 13.7992 24.4375 13.7992 25.375 14.6016L32.3672 20.5938L38.9609 14H37.5C36.1172 14 35 12.8805 35 11.5C35 10.1195 36.1172 9 37.5 9H44.9297C45.6875 9 46.3125 9.27766 46.7656 9.72695L46.7734 9.73758ZM10 32.75C10 30.6797 11.6789 29 13.75 29H46.25C48.3203 29 50 30.6797 50 32.75V45.25C50 47.3203 48.3203 49 46.25 49H13.75C11.6789 49 10 47.3203 10 45.25V32.75ZM13.75 45.25H17.5C17.5 43.1797 15.8211 41.5 13.75 41.5V45.25ZM13.75 32.75V36.5C15.8211 36.5 17.5 34.8203 17.5 32.75H13.75ZM46.25 41.5C44.1797 41.5 42.5 43.1797 42.5 45.25H46.25V41.5ZM42.5 32.75C42.5 34.8203 44.1797 36.5 46.25 36.5V32.75H42.5ZM30 34C27.2422 34 25 36.2422 25 39C25 41.7578 27.2422 44 30 44C32.7578 44 35 41.7578 35 39C35 36.2422 32.7578 34 30 34Z" fill="#2BC3FC"/>
</svg>
