<svg width="398" height="84" viewBox="0 0 398 84" fill="none" xmlns="http://www.w3.org/2000/svg">
<path d="M48 14H359" stroke="#00103C" stroke-width="2" stroke-linecap="round"/>
<path d="M10.624 46.768L6.736 54.288V58H4V54.288L0.112 46.768H3.216L5.392 51.472L7.552 46.768H10.624ZM15.7904 58.128C14.9157 58.128 14.1264 57.9413 13.4224 57.568C12.729 57.1947 12.1797 56.6613 11.7744 55.968C11.3797 55.2747 11.1824 54.464 11.1824 53.536C11.1824 52.6187 11.385 51.8133 11.7904 51.12C12.1957 50.416 12.7504 49.8773 13.4544 49.504C14.1584 49.1307 14.9477 48.944 15.8224 48.944C16.697 48.944 17.4864 49.1307 18.1904 49.504C18.8944 49.8773 19.449 50.416 19.8544 51.12C20.2597 51.8133 20.4624 52.6187 20.4624 53.536C20.4624 54.4533 20.2544 55.264 19.8384 55.968C19.433 56.6613 18.873 57.1947 18.1584 57.568C17.4544 57.9413 16.665 58.128 15.7904 58.128ZM15.7904 55.76C16.313 55.76 16.7557 55.568 17.1184 55.184C17.4917 54.8 17.6784 54.2507 17.6784 53.536C17.6784 52.8213 17.497 52.272 17.1344 51.888C16.7824 51.504 16.345 51.312 15.8224 51.312C15.289 51.312 14.8464 51.504 14.4944 51.888C14.1424 52.2613 13.9664 52.8107 13.9664 53.536C13.9664 54.2507 14.137 54.8 14.4784 55.184C14.8304 55.568 15.2677 55.76 15.7904 55.76ZM30.7299 49.072V58H27.9939V56.784C27.7165 57.1787 27.3379 57.4987 26.8579 57.744C26.3885 57.9787 25.8659 58.096 25.2899 58.096C24.6072 58.096 24.0045 57.9467 23.4819 57.648C22.9592 57.3387 22.5539 56.896 22.2659 56.32C21.9779 55.744 21.8339 55.0667 21.8339 54.288V49.072H24.5539V53.92C24.5539 54.5173 24.7085 54.9813 25.0179 55.312C25.3272 55.6427 25.7432 55.808 26.2659 55.808C26.7992 55.808 27.2205 55.6427 27.5299 55.312C27.8392 54.9813 27.9939 54.5173 27.9939 53.92V49.072H30.7299ZM35.4311 50.56C35.7511 50.0693 36.1511 49.6853 36.6311 49.408C37.1111 49.12 37.6445 48.976 38.2311 48.976V51.872H37.4791C36.7965 51.872 36.2845 52.0213 35.9431 52.32C35.6018 52.608 35.4311 53.12 35.4311 53.856V58H32.6951V49.072H35.4311V50.56ZM51.4895 50.384C51.4895 51.0347 51.3402 51.632 51.0415 52.176C50.7428 52.7093 50.2842 53.1413 49.6655 53.472C49.0468 53.8027 48.2788 53.968 47.3615 53.968H45.6655V58H42.9295V46.768H47.3615C48.2575 46.768 49.0148 46.9227 49.6335 47.232C50.2522 47.5413 50.7162 47.968 51.0255 48.512C51.3348 49.056 51.4895 49.68 51.4895 50.384ZM47.1535 51.792C47.6762 51.792 48.0655 51.6693 48.3215 51.424C48.5775 51.1787 48.7055 50.832 48.7055 50.384C48.7055 49.936 48.5775 49.5893 48.3215 49.344C48.0655 49.0987 47.6762 48.976 47.1535 48.976H45.6655V51.792H47.1535ZM55.6499 50.56C55.9699 50.0693 56.3699 49.6853 56.8499 49.408C57.3299 49.12 57.8632 48.976 58.4499 48.976V51.872H57.6979C57.0152 51.872 56.5032 52.0213 56.1619 52.32C55.8205 52.608 55.6499 53.12 55.6499 53.856V58H52.9139V49.072H55.6499V50.56ZM63.8216 58.128C62.947 58.128 62.1576 57.9413 61.4536 57.568C60.7603 57.1947 60.211 56.6613 59.8056 55.968C59.411 55.2747 59.2136 54.464 59.2136 53.536C59.2136 52.6187 59.4163 51.8133 59.8216 51.12C60.227 50.416 60.7816 49.8773 61.4856 49.504C62.1896 49.1307 62.979 48.944 63.8536 48.944C64.7283 48.944 65.5176 49.1307 66.2216 49.504C66.9256 49.8773 67.4803 50.416 67.8856 51.12C68.291 51.8133 68.4936 52.6187 68.4936 53.536C68.4936 54.4533 68.2856 55.264 67.8696 55.968C67.4643 56.6613 66.9043 57.1947 66.1896 57.568C65.4856 57.9413 64.6963 58.128 63.8216 58.128ZM63.8216 55.76C64.3443 55.76 64.787 55.568 65.1496 55.184C65.523 54.8 65.7096 54.2507 65.7096 53.536C65.7096 52.8213 65.5283 52.272 65.1656 51.888C64.8136 51.504 64.3763 51.312 63.8536 51.312C63.3203 51.312 62.8776 51.504 62.5256 51.888C62.1736 52.2613 61.9976 52.8107 61.9976 53.536C61.9976 54.2507 62.1683 54.8 62.5096 55.184C62.8616 55.568 63.299 55.76 63.8216 55.76ZM74.4251 51.344H72.9531V58H70.2171V51.344H69.2251V49.072H70.2171V48.816C70.2171 47.7173 70.5318 46.8853 71.1611 46.32C71.7905 45.744 72.7131 45.456 73.9291 45.456C74.1318 45.456 74.2811 45.4613 74.3771 45.472V47.792C73.8545 47.76 73.4865 47.8347 73.2731 48.016C73.0598 48.1973 72.9531 48.5227 72.9531 48.992V49.072H74.4251V51.344ZM77.0868 48.144C76.6068 48.144 76.2121 48.0053 75.9028 47.728C75.6041 47.44 75.4548 47.088 75.4548 46.672C75.4548 46.2453 75.6041 45.8933 75.9028 45.616C76.2121 45.328 76.6068 45.184 77.0868 45.184C77.5561 45.184 77.9401 45.328 78.2388 45.616C78.5481 45.8933 78.7028 46.2453 78.7028 46.672C78.7028 47.088 78.5481 47.44 78.2388 47.728C77.9401 48.0053 77.5561 48.144 77.0868 48.144ZM78.4468 49.072V58H75.7108V49.072H78.4468ZM83.1655 46.16V58H80.4295V46.16H83.1655ZM93.5642 53.392C93.5642 53.648 93.5483 53.9147 93.5163 54.192H87.3243C87.3669 54.7467 87.5429 55.1733 87.8523 55.472C88.1723 55.76 88.5616 55.904 89.0203 55.904C89.7029 55.904 90.1776 55.616 90.4443 55.04H93.3563C93.2069 55.6267 92.9349 56.1547 92.5403 56.624C92.1563 57.0933 91.6709 57.4613 91.0843 57.728C90.4976 57.9947 89.8416 58.128 89.1163 58.128C88.2416 58.128 87.4629 57.9413 86.7803 57.568C86.0976 57.1947 85.5643 56.6613 85.1803 55.968C84.7963 55.2747 84.6043 54.464 84.6043 53.536C84.6043 52.608 84.7909 51.7973 85.1643 51.104C85.5483 50.4107 86.0816 49.8773 86.7643 49.504C87.4469 49.1307 88.2309 48.944 89.1163 48.944C89.9803 48.944 90.7483 49.1253 91.4203 49.488C92.0923 49.8507 92.6149 50.368 92.9883 51.04C93.3723 51.712 93.5642 52.496 93.5642 53.392ZM90.7643 52.672C90.7643 52.2027 90.6043 51.8293 90.2843 51.552C89.9643 51.2747 89.5643 51.136 89.0843 51.136C88.6256 51.136 88.2363 51.2693 87.9163 51.536C87.6069 51.8027 87.4149 52.1813 87.3403 52.672H90.7643Z" fill="#00103C"/>
<circle cx="48" cy="14" r="14" fill="#1DFF4E"/>
<circle cx="48.0004" cy="13.9999" r="7.77778" fill="white"/>
<path d="M136 55.92L134.56 53.984C134.133 54.0693 133.717 54.112 133.312 54.112C132.256 54.112 131.285 53.8667 130.4 53.376C129.525 52.8853 128.826 52.2027 128.304 51.328C127.792 50.4427 127.536 49.4507 127.536 48.352C127.536 47.2533 127.792 46.2667 128.304 45.392C128.826 44.5173 129.525 43.8347 130.4 43.344C131.285 42.8533 132.256 42.608 133.312 42.608C134.368 42.608 135.333 42.8533 136.208 43.344C137.093 43.8347 137.786 44.5173 138.288 45.392C138.8 46.2667 139.056 47.2533 139.056 48.352C139.056 49.312 138.858 50.192 138.464 50.992C138.08 51.7813 137.541 52.4373 136.848 52.96L139.312 55.92H136ZM130.336 48.352C130.336 49.344 130.602 50.1387 131.136 50.736C131.68 51.3227 132.405 51.616 133.312 51.616C134.208 51.616 134.922 51.3173 135.456 50.72C136 50.1227 136.272 49.3333 136.272 48.352C136.272 47.36 136 46.5707 135.456 45.984C134.922 45.3867 134.208 45.088 133.312 45.088C132.405 45.088 131.68 45.3813 131.136 45.968C130.602 46.5547 130.336 47.3493 130.336 48.352ZM149.425 45.072V54H146.689V52.784C146.412 53.1787 146.033 53.4987 145.553 53.744C145.084 53.9787 144.561 54.096 143.985 54.096C143.303 54.096 142.7 53.9467 142.177 53.648C141.655 53.3387 141.249 52.896 140.961 52.32C140.673 51.744 140.529 51.0667 140.529 50.288V45.072H143.249V49.92C143.249 50.5173 143.404 50.9813 143.713 51.312C144.023 51.6427 144.439 51.808 144.961 51.808C145.495 51.808 145.916 51.6427 146.225 51.312C146.535 50.9813 146.689 50.5173 146.689 49.92V45.072H149.425ZM150.846 49.52C150.846 48.6027 151.017 47.7973 151.358 47.104C151.71 46.4107 152.185 45.8773 152.782 45.504C153.38 45.1307 154.046 44.944 154.782 44.944C155.412 44.944 155.961 45.072 156.43 45.328C156.91 45.584 157.278 45.92 157.534 46.336V45.072H160.27V54H157.534V52.736C157.268 53.152 156.894 53.488 156.414 53.744C155.945 54 155.396 54.128 154.766 54.128C154.041 54.128 153.38 53.9413 152.782 53.568C152.185 53.184 151.71 52.6453 151.358 51.952C151.017 51.248 150.846 50.4373 150.846 49.52ZM157.534 49.536C157.534 48.8533 157.342 48.3147 156.958 47.92C156.585 47.5253 156.126 47.328 155.582 47.328C155.038 47.328 154.574 47.5253 154.19 47.92C153.817 48.304 153.63 48.8373 153.63 49.52C153.63 50.2027 153.817 50.7467 154.19 51.152C154.574 51.5467 155.038 51.744 155.582 51.744C156.126 51.744 156.585 51.5467 156.958 51.152C157.342 50.7573 157.534 50.2187 157.534 49.536ZM164.986 42.16V54H162.25V42.16H164.986ZM168.345 44.144C167.865 44.144 167.47 44.0053 167.161 43.728C166.862 43.44 166.713 43.088 166.713 42.672C166.713 42.2453 166.862 41.8933 167.161 41.616C167.47 41.328 167.865 41.184 168.345 41.184C168.814 41.184 169.198 41.328 169.497 41.616C169.806 41.8933 169.961 42.2453 169.961 42.672C169.961 43.088 169.806 43.44 169.497 43.728C169.198 44.0053 168.814 44.144 168.345 44.144ZM169.705 45.072V54H166.969V45.072H169.705ZM176.167 47.344H174.695V54H171.959V47.344H170.967V45.072H171.959V44.816C171.959 43.7173 172.274 42.8853 172.903 42.32C173.533 41.744 174.455 41.456 175.671 41.456C175.874 41.456 176.023 41.4613 176.119 41.472V43.792C175.597 43.76 175.229 43.8347 175.015 44.016C174.802 44.1973 174.695 44.5227 174.695 44.992V45.072H176.167V47.344ZM178.829 44.144C178.349 44.144 177.954 44.0053 177.645 43.728C177.346 43.44 177.197 43.088 177.197 42.672C177.197 42.2453 177.346 41.8933 177.645 41.616C177.954 41.328 178.349 41.184 178.829 41.184C179.298 41.184 179.682 41.328 179.981 41.616C180.29 41.8933 180.445 42.2453 180.445 42.672C180.445 43.088 180.29 43.44 179.981 43.728C179.682 44.0053 179.298 44.144 178.829 44.144ZM180.189 45.072V54H177.453V45.072H180.189ZM181.628 49.536C181.628 48.608 181.814 47.7973 182.188 47.104C182.572 46.4107 183.1 45.8773 183.772 45.504C184.454 45.1307 185.233 44.944 186.108 44.944C187.228 44.944 188.161 45.2373 188.908 45.824C189.665 46.4107 190.161 47.2373 190.396 48.304H187.484C187.238 47.6213 186.764 47.28 186.06 47.28C185.558 47.28 185.158 47.4773 184.86 47.872C184.561 48.256 184.412 48.8107 184.412 49.536C184.412 50.2613 184.561 50.8213 184.86 51.216C185.158 51.6 185.558 51.792 186.06 51.792C186.764 51.792 187.238 51.4507 187.484 50.768H190.396C190.161 51.8133 189.665 52.6347 188.908 53.232C188.15 53.8293 187.217 54.128 186.108 54.128C185.233 54.128 184.454 53.9413 183.772 53.568C183.1 53.1947 182.572 52.6613 182.188 51.968C181.814 51.2747 181.628 50.464 181.628 49.536ZM191.315 49.52C191.315 48.6027 191.486 47.7973 191.827 47.104C192.179 46.4107 192.654 45.8773 193.251 45.504C193.849 45.1307 194.515 44.944 195.251 44.944C195.881 44.944 196.43 45.072 196.899 45.328C197.379 45.584 197.747 45.92 198.003 46.336V45.072H200.739V54H198.003V52.736C197.737 53.152 197.363 53.488 196.883 53.744C196.414 54 195.865 54.128 195.235 54.128C194.51 54.128 193.849 53.9413 193.251 53.568C192.654 53.184 192.179 52.6453 191.827 51.952C191.486 51.248 191.315 50.4373 191.315 49.52ZM198.003 49.536C198.003 48.8533 197.811 48.3147 197.427 47.92C197.054 47.5253 196.595 47.328 196.051 47.328C195.507 47.328 195.043 47.5253 194.659 47.92C194.286 48.304 194.099 48.8373 194.099 49.52C194.099 50.2027 194.286 50.7467 194.659 51.152C195.043 51.5467 195.507 51.744 196.051 51.744C196.595 51.744 197.054 51.5467 197.427 51.152C197.811 50.7573 198.003 50.2187 198.003 49.536ZM207.695 51.68V54H206.303C205.311 54 204.537 53.76 203.983 53.28C203.428 52.7893 203.151 51.9947 203.151 50.896V47.344H202.063V45.072H203.151V42.896H205.887V45.072H207.679V47.344H205.887V50.928C205.887 51.1947 205.951 51.3867 206.079 51.504C206.207 51.6213 206.42 51.68 206.719 51.68H207.695ZM210.595 44.144C210.115 44.144 209.72 44.0053 209.411 43.728C209.112 43.44 208.963 43.088 208.963 42.672C208.963 42.2453 209.112 41.8933 209.411 41.616C209.72 41.328 210.115 41.184 210.595 41.184C211.064 41.184 211.448 41.328 211.747 41.616C212.056 41.8933 212.211 42.2453 212.211 42.672C212.211 43.088 212.056 43.44 211.747 43.728C211.448 44.0053 211.064 44.144 210.595 44.144ZM211.955 45.072V54H209.219V45.072H211.955ZM218.001 54.128C217.127 54.128 216.337 53.9413 215.633 53.568C214.94 53.1947 214.391 52.6613 213.985 51.968C213.591 51.2747 213.393 50.464 213.393 49.536C213.393 48.6187 213.596 47.8133 214.001 47.12C214.407 46.416 214.961 45.8773 215.665 45.504C216.369 45.1307 217.159 44.944 218.033 44.944C218.908 44.944 219.697 45.1307 220.401 45.504C221.105 45.8773 221.66 46.416 222.065 47.12C222.471 47.8133 222.673 48.6187 222.673 49.536C222.673 50.4533 222.465 51.264 222.049 51.968C221.644 52.6613 221.084 53.1947 220.369 53.568C219.665 53.9413 218.876 54.128 218.001 54.128ZM218.001 51.76C218.524 51.76 218.967 51.568 219.329 51.184C219.703 50.8 219.889 50.2507 219.889 49.536C219.889 48.8213 219.708 48.272 219.345 47.888C218.993 47.504 218.556 47.312 218.033 47.312C217.5 47.312 217.057 47.504 216.705 47.888C216.353 48.2613 216.177 48.8107 216.177 49.536C216.177 50.2507 216.348 50.8 216.689 51.184C217.041 51.568 217.479 51.76 218.001 51.76ZM229.565 44.976C230.61 44.976 231.442 45.3173 232.061 46C232.69 46.672 233.005 47.6 233.005 48.784V54H230.285V49.152C230.285 48.5547 230.13 48.0907 229.821 47.76C229.511 47.4293 229.095 47.264 228.573 47.264C228.05 47.264 227.634 47.4293 227.325 47.76C227.015 48.0907 226.861 48.5547 226.861 49.152V54H224.125V45.072H226.861V46.256C227.138 45.8613 227.511 45.552 227.981 45.328C228.45 45.0933 228.978 44.976 229.565 44.976ZM238.538 54.128C237.759 54.128 237.066 53.9947 236.458 53.728C235.85 53.4613 235.37 53.0987 235.018 52.64C234.666 52.1707 234.469 51.648 234.426 51.072H237.13C237.162 51.3813 237.306 51.632 237.562 51.824C237.818 52.016 238.133 52.112 238.506 52.112C238.847 52.112 239.109 52.048 239.29 51.92C239.482 51.7813 239.578 51.6053 239.578 51.392C239.578 51.136 239.445 50.9493 239.178 50.832C238.911 50.704 238.479 50.5653 237.882 50.416C237.242 50.2667 236.709 50.112 236.282 49.952C235.855 49.7813 235.487 49.52 235.178 49.168C234.869 48.8053 234.714 48.32 234.714 47.712C234.714 47.2 234.853 46.736 235.13 46.32C235.418 45.8933 235.834 45.5573 236.378 45.312C236.933 45.0667 237.589 44.944 238.346 44.944C239.466 44.944 240.346 45.2213 240.986 45.776C241.637 46.3307 242.01 47.0667 242.106 47.984H239.578C239.535 47.6747 239.397 47.4293 239.162 47.248C238.938 47.0667 238.639 46.976 238.266 46.976C237.946 46.976 237.701 47.04 237.53 47.168C237.359 47.2853 237.274 47.4507 237.274 47.664C237.274 47.92 237.407 48.112 237.674 48.24C237.951 48.368 238.378 48.496 238.954 48.624C239.615 48.7947 240.154 48.9653 240.57 49.136C240.986 49.296 241.349 49.5627 241.658 49.936C241.978 50.2987 242.143 50.7893 242.154 51.408C242.154 51.9307 242.005 52.4 241.706 52.816C241.418 53.2213 240.997 53.5413 240.442 53.776C239.898 54.0107 239.263 54.128 238.538 54.128ZM255.811 54L254.771 52.992C253.736 53.7813 252.499 54.176 251.059 54.176C250.195 54.176 249.443 54.0373 248.803 53.76C248.163 53.472 247.667 53.072 247.315 52.56C246.973 52.0373 246.803 51.4293 246.803 50.736C246.803 50.032 246.989 49.3973 247.363 48.832C247.747 48.256 248.317 47.7867 249.075 47.424C248.797 47.0827 248.6 46.7573 248.483 46.448C248.365 46.128 248.307 45.7813 248.307 45.408C248.307 44.8747 248.445 44.3893 248.723 43.952C249 43.5147 249.4 43.1733 249.923 42.928C250.456 42.672 251.085 42.544 251.811 42.544C252.547 42.544 253.171 42.6773 253.683 42.944C254.195 43.2107 254.579 43.568 254.835 44.016C255.091 44.464 255.208 44.9547 255.187 45.488H252.611C252.621 45.2 252.547 44.9813 252.387 44.832C252.237 44.672 252.035 44.592 251.779 44.592C251.523 44.592 251.309 44.6667 251.139 44.816C250.968 44.9653 250.883 45.1573 250.883 45.392C250.883 45.616 250.952 45.8507 251.091 46.096C251.24 46.3413 251.469 46.624 251.779 46.944L254.515 49.616C254.536 49.5627 254.563 49.4987 254.595 49.424C254.637 49.3493 254.68 49.264 254.723 49.168L255.315 48.16H258.051L257.283 49.552C256.995 50.1813 256.664 50.7787 256.291 51.344L258.995 54H255.811ZM251.187 51.968C251.901 51.968 252.536 51.7653 253.091 51.36L250.595 48.944C249.827 49.3387 249.443 49.872 249.443 50.544C249.443 50.9493 249.597 51.2907 249.907 51.568C250.227 51.8347 250.653 51.968 251.187 51.968ZM151.462 68.96V71.232H155.126V73.344H151.462V75.808H155.606V78H148.726V66.768H155.606V68.96H151.462ZM162.663 78L160.951 75.52L159.511 78H156.551L159.495 73.44L156.471 69.072H159.543L161.255 71.536L162.695 69.072H165.655L162.663 73.568L165.735 78H162.663ZM169.525 70.336C169.792 69.92 170.16 69.584 170.629 69.328C171.098 69.072 171.648 68.944 172.277 68.944C173.013 68.944 173.68 69.1307 174.277 69.504C174.874 69.8773 175.344 70.4107 175.685 71.104C176.037 71.7973 176.213 72.6027 176.213 73.52C176.213 74.4373 176.037 75.248 175.685 75.952C175.344 76.6453 174.874 77.184 174.277 77.568C173.68 77.9413 173.013 78.128 172.277 78.128C171.658 78.128 171.109 78 170.629 77.744C170.16 77.488 169.792 77.1573 169.525 76.752V82.256H166.789V69.072H169.525V70.336ZM173.429 73.52C173.429 72.8373 173.237 72.304 172.853 71.92C172.48 71.5253 172.016 71.328 171.461 71.328C170.917 71.328 170.453 71.5253 170.069 71.92C169.696 72.3147 169.509 72.8533 169.509 73.536C169.509 74.2187 169.696 74.7573 170.069 75.152C170.453 75.5467 170.917 75.744 171.461 75.744C172.005 75.744 172.469 75.5467 172.853 75.152C173.237 74.7467 173.429 74.2027 173.429 73.52ZM186.064 73.392C186.064 73.648 186.048 73.9147 186.016 74.192H179.824C179.867 74.7467 180.043 75.1733 180.352 75.472C180.672 75.76 181.062 75.904 181.52 75.904C182.203 75.904 182.678 75.616 182.944 75.04H185.856C185.707 75.6267 185.435 76.1547 185.04 76.624C184.656 77.0933 184.171 77.4613 183.584 77.728C182.998 77.9947 182.342 78.128 181.616 78.128C180.742 78.128 179.963 77.9413 179.28 77.568C178.598 77.1947 178.064 76.6613 177.68 75.968C177.296 75.2747 177.104 74.464 177.104 73.536C177.104 72.608 177.291 71.7973 177.664 71.104C178.048 70.4107 178.582 69.8773 179.264 69.504C179.947 69.1307 180.731 68.944 181.616 68.944C182.48 68.944 183.248 69.1253 183.92 69.488C184.592 69.8507 185.115 70.368 185.488 71.04C185.872 71.712 186.064 72.496 186.064 73.392ZM183.264 72.672C183.264 72.2027 183.104 71.8293 182.784 71.552C182.464 71.2747 182.064 71.136 181.584 71.136C181.126 71.136 180.736 71.2693 180.416 71.536C180.107 71.8027 179.915 72.1813 179.84 72.672H183.264ZM190.244 70.56C190.564 70.0693 190.964 69.6853 191.444 69.408C191.924 69.12 192.457 68.976 193.044 68.976V71.872H192.292C191.609 71.872 191.097 72.0213 190.756 72.32C190.414 72.608 190.244 73.12 190.244 73.856V78H187.508V69.072H190.244V70.56ZM195.727 68.144C195.247 68.144 194.853 68.0053 194.543 67.728C194.245 67.44 194.095 67.088 194.095 66.672C194.095 66.2453 194.245 65.8933 194.543 65.616C194.853 65.328 195.247 65.184 195.727 65.184C196.197 65.184 196.581 65.328 196.879 65.616C197.189 65.8933 197.343 66.2453 197.343 66.672C197.343 67.088 197.189 67.44 196.879 67.728C196.581 68.0053 196.197 68.144 195.727 68.144ZM197.087 69.072V78H194.351V69.072H197.087ZM207.486 73.392C207.486 73.648 207.47 73.9147 207.438 74.192H201.246C201.289 74.7467 201.465 75.1733 201.774 75.472C202.094 75.76 202.483 75.904 202.942 75.904C203.625 75.904 204.099 75.616 204.366 75.04H207.278C207.129 75.6267 206.857 76.1547 206.462 76.624C206.078 77.0933 205.593 77.4613 205.006 77.728C204.419 77.9947 203.763 78.128 203.038 78.128C202.163 78.128 201.385 77.9413 200.702 77.568C200.019 77.1947 199.486 76.6613 199.102 75.968C198.718 75.2747 198.526 74.464 198.526 73.536C198.526 72.608 198.713 71.7973 199.086 71.104C199.47 70.4107 200.003 69.8773 200.686 69.504C201.369 69.1307 202.153 68.944 203.038 68.944C203.902 68.944 204.67 69.1253 205.342 69.488C206.014 69.8507 206.537 70.368 206.91 71.04C207.294 71.712 207.486 72.496 207.486 73.392ZM204.686 72.672C204.686 72.2027 204.526 71.8293 204.206 71.552C203.886 71.2747 203.486 71.136 203.006 71.136C202.547 71.136 202.158 71.2693 201.838 71.536C201.529 71.8027 201.337 72.1813 201.262 72.672H204.686ZM214.37 68.976C215.415 68.976 216.247 69.3173 216.866 70C217.495 70.672 217.81 71.6 217.81 72.784V78H215.09V73.152C215.09 72.5547 214.935 72.0907 214.626 71.76C214.316 71.4293 213.9 71.264 213.378 71.264C212.855 71.264 212.439 71.4293 212.13 71.76C211.82 72.0907 211.666 72.5547 211.666 73.152V78H208.93V69.072H211.666V70.256C211.943 69.8613 212.316 69.552 212.786 69.328C213.255 69.0933 213.783 68.976 214.37 68.976ZM219.167 73.536C219.167 72.608 219.353 71.7973 219.727 71.104C220.111 70.4107 220.639 69.8773 221.311 69.504C221.993 69.1307 222.772 68.944 223.647 68.944C224.767 68.944 225.7 69.2373 226.447 69.824C227.204 70.4107 227.7 71.2373 227.935 72.304H225.023C224.777 71.6213 224.303 71.28 223.599 71.28C223.097 71.28 222.697 71.4773 222.399 71.872C222.1 72.256 221.951 72.8107 221.951 73.536C221.951 74.2613 222.1 74.8213 222.399 75.216C222.697 75.6 223.097 75.792 223.599 75.792C224.303 75.792 224.777 75.4507 225.023 74.768H227.935C227.7 75.8133 227.204 76.6347 226.447 77.232C225.689 77.8293 224.756 78.128 223.647 78.128C222.772 78.128 221.993 77.9413 221.311 77.568C220.639 77.1947 220.111 76.6613 219.727 75.968C219.353 75.2747 219.167 74.464 219.167 73.536ZM237.814 73.392C237.814 73.648 237.798 73.9147 237.766 74.192H231.574C231.617 74.7467 231.793 75.1733 232.102 75.472C232.422 75.76 232.812 75.904 233.27 75.904C233.953 75.904 234.428 75.616 234.694 75.04H237.606C237.457 75.6267 237.185 76.1547 236.79 76.624C236.406 77.0933 235.921 77.4613 235.334 77.728C234.748 77.9947 234.092 78.128 233.366 78.128C232.492 78.128 231.713 77.9413 231.03 77.568C230.348 77.1947 229.814 76.6613 229.43 75.968C229.046 75.2747 228.854 74.464 228.854 73.536C228.854 72.608 229.041 71.7973 229.414 71.104C229.798 70.4107 230.332 69.8773 231.014 69.504C231.697 69.1307 232.481 68.944 233.366 68.944C234.23 68.944 234.998 69.1253 235.67 69.488C236.342 69.8507 236.865 70.368 237.238 71.04C237.622 71.712 237.814 72.496 237.814 73.392ZM235.014 72.672C235.014 72.2027 234.854 71.8293 234.534 71.552C234.214 71.2747 233.814 71.136 233.334 71.136C232.876 71.136 232.486 71.2693 232.166 71.536C231.857 71.8027 231.665 72.1813 231.59 72.672H235.014Z" fill="#00103C"/>
<circle cx="194" cy="14" r="14" fill="#1DFF4E"/>
<circle cx="194" cy="13.9999" r="7.77778" fill="white"/>
<path d="M323.908 46.768V58H321.172V46.768H323.908ZM331.33 48.976C332.376 48.976 333.208 49.3173 333.826 50C334.456 50.672 334.77 51.6 334.77 52.784V58H332.05V53.152C332.05 52.5547 331.896 52.0907 331.586 51.76C331.277 51.4293 330.861 51.264 330.338 51.264C329.816 51.264 329.4 51.4293 329.09 51.76C328.781 52.0907 328.626 52.5547 328.626 53.152V58H325.89V49.072H328.626V50.256C328.904 49.8613 329.277 49.552 329.746 49.328C330.216 49.0933 330.744 48.976 331.33 48.976ZM345.79 58L343.454 53.76H342.798V58H340.062V46.768H344.654C345.54 46.768 346.292 46.9227 346.91 47.232C347.54 47.5413 348.009 47.968 348.318 48.512C348.628 49.0453 348.782 49.6427 348.782 50.304C348.782 51.0507 348.569 51.7173 348.142 52.304C347.726 52.8907 347.108 53.3067 346.286 53.552L348.878 58H345.79ZM342.798 51.824H344.494C344.996 51.824 345.369 51.7013 345.614 51.456C345.87 51.2107 345.998 50.864 345.998 50.416C345.998 49.9893 345.87 49.6533 345.614 49.408C345.369 49.1627 344.996 49.04 344.494 49.04H342.798V51.824ZM358.916 53.392C358.916 53.648 358.9 53.9147 358.868 54.192H352.676C352.718 54.7467 352.894 55.1733 353.204 55.472C353.524 55.76 353.913 55.904 354.372 55.904C355.054 55.904 355.529 55.616 355.796 55.04H358.708C358.558 55.6267 358.286 56.1547 357.892 56.624C357.508 57.0933 357.022 57.4613 356.436 57.728C355.849 57.9947 355.193 58.128 354.468 58.128C353.593 58.128 352.814 57.9413 352.132 57.568C351.449 57.1947 350.916 56.6613 350.532 55.968C350.148 55.2747 349.956 54.464 349.956 53.536C349.956 52.608 350.142 51.7973 350.516 51.104C350.9 50.4107 351.433 49.8773 352.116 49.504C352.798 49.1307 353.582 48.944 354.468 48.944C355.332 48.944 356.1 49.1253 356.772 49.488C357.444 49.8507 357.966 50.368 358.34 51.04C358.724 51.712 358.916 52.496 358.916 53.392ZM356.116 52.672C356.116 52.2027 355.956 51.8293 355.636 51.552C355.316 51.2747 354.916 51.136 354.436 51.136C353.977 51.136 353.588 51.2693 353.268 51.536C352.958 51.8027 352.766 52.1813 352.692 52.672H356.116ZM364.375 55.44L366.311 49.072H369.223L366.055 58H362.679L359.511 49.072H362.439L364.375 55.44ZM371.751 48.144C371.271 48.144 370.876 48.0053 370.567 47.728C370.268 47.44 370.119 47.088 370.119 46.672C370.119 46.2453 370.268 45.8933 370.567 45.616C370.876 45.328 371.271 45.184 371.751 45.184C372.22 45.184 372.604 45.328 372.903 45.616C373.212 45.8933 373.367 46.2453 373.367 46.672C373.367 47.088 373.212 47.44 372.903 47.728C372.604 48.0053 372.22 48.144 371.751 48.144ZM373.111 49.072V58H370.375V49.072H373.111ZM383.51 53.392C383.51 53.648 383.494 53.9147 383.462 54.192H377.27C377.312 54.7467 377.488 55.1733 377.798 55.472C378.118 55.76 378.507 55.904 378.966 55.904C379.648 55.904 380.123 55.616 380.39 55.04H383.302C383.152 55.6267 382.88 56.1547 382.486 56.624C382.102 57.0933 381.616 57.4613 381.03 57.728C380.443 57.9947 379.787 58.128 379.062 58.128C378.187 58.128 377.408 57.9413 376.726 57.568C376.043 57.1947 375.51 56.6613 375.126 55.968C374.742 55.2747 374.55 54.464 374.55 53.536C374.55 52.608 374.736 51.7973 375.11 51.104C375.494 50.4107 376.027 49.8773 376.71 49.504C377.392 49.1307 378.176 48.944 379.062 48.944C379.926 48.944 380.694 49.1253 381.366 49.488C382.038 49.8507 382.56 50.368 382.934 51.04C383.318 51.712 383.51 52.496 383.51 53.392ZM380.71 52.672C380.71 52.2027 380.55 51.8293 380.23 51.552C379.91 51.2747 379.51 51.136 379.03 51.136C378.571 51.136 378.182 51.2693 377.862 51.536C377.552 51.8027 377.36 52.1813 377.286 52.672H380.71ZM397.769 49.072L395.353 58H392.329L390.921 52.208L389.465 58H386.457L384.025 49.072H386.761L388.025 55.456L389.529 49.072H392.425L393.945 55.424L395.193 49.072H397.769Z" fill="#00103C"/>
<circle cx="359" cy="14" r="14" fill="url(#paint0_linear_537_4212)"/>
<circle cx="359" cy="13.9999" r="7.77778" fill="white"/>
<defs>
<linearGradient id="paint0_linear_537_4212" x1="359" y1="0" x2="359" y2="28" gradientUnits="userSpaceOnUse">
<stop stop-color="#2BC3FC"/>
<stop offset="1" stop-color="#017EAC"/>
</linearGradient>
</defs>
</svg>
