<svg width="59" height="59" viewBox="0 0 59 59" fill="none" xmlns="http://www.w3.org/2000/svg">
<rect width="59" height="59" rx="8" fill="#00103C"/>
<path d="M22.2211 26.0077H21.0417C19.4323 25.9496 17.8281 26.2223 16.3287 26.8089C14.8293 27.3954 13.4667 28.2833 12.3253 29.4175L12 29.7963V41H17.5308V34.6404L18.2763 33.8015L18.6152 33.4091C20.3801 31.5993 22.5773 30.2676 25 29.5392C23.787 28.618 22.8304 27.4022 22.2211 26.0077Z" fill="#2BC3FC"/>
<path d="M47.7194 29.4052C46.5945 28.2751 45.2515 27.3904 43.7737 26.806C42.2958 26.2215 40.7147 25.9498 39.1285 26.0076C38.642 26.009 38.1559 26.036 37.6721 26.0885C37.0603 27.3921 36.1432 28.5258 35 29.3917C37.5492 30.1034 39.8585 31.5015 41.6804 33.4364L42.0144 33.8139L42.7359 34.6498V41H48V29.7827L47.7194 29.4052Z" fill="#2BC3FC"/>
<path d="M20.9026 23.9462H21.274C21.1014 22.2831 21.3614 20.5995 22.0226 19.0985C22.6838 17.5976 23.7178 16.3436 25 15.4878C24.5352 14.6908 23.894 14.043 23.1392 13.6078C22.3843 13.1725 21.5417 12.9648 20.6938 13.0049C19.8459 13.045 19.0219 13.3316 18.3023 13.8365C17.5828 14.3415 16.9924 15.0476 16.589 15.8856C16.1856 16.7236 15.983 17.6649 16.0011 18.6172C16.0192 19.5695 16.2573 20.5002 16.6921 21.3182C17.127 22.1362 17.7436 22.8134 18.4817 23.2835C19.2198 23.7536 20.054 24.0005 20.9026 24V23.9462Z" fill="#2BC3FC"/>
<path d="M38.5042 23.0042C38.5186 23.3135 38.5186 23.6234 38.5042 23.9327C38.7314 23.9737 38.9609 23.9961 39.1909 24H39.4158C40.2507 23.9494 41.0598 23.6539 41.7644 23.1424C42.469 22.6308 43.0451 21.9206 43.4365 21.0808C43.828 20.241 44.0214 19.3004 43.9981 18.3504C43.9748 17.4004 43.7355 16.4735 43.3035 15.6598C42.8714 14.8462 42.2614 14.1736 41.5328 13.7075C40.8042 13.2414 39.9819 12.9976 39.1458 13C38.3098 13.0024 37.4885 13.2508 36.762 13.7211C36.0354 14.1914 35.4284 14.8675 35 15.6836C36.0715 16.4788 36.9526 17.5639 37.5642 18.8416C38.1758 20.1193 38.4988 21.5496 38.5042 23.0042Z" fill="#2BC3FC"/>
<path d="M30 29C33.3137 29 36 26.3137 36 23C36 19.6863 33.3137 17 30 17C26.6863 17 24 19.6863 24 23C24 26.3137 26.6863 29 30 29Z" fill="#2BC3FC"/>
<path d="M30.5194 32.0116C28.8303 31.9436 27.1448 32.2169 25.5644 32.8151C23.9841 33.4133 22.5414 34.324 21.3233 35.4925L21 35.8534V44.0142C21.005 44.28 21.0626 44.5423 21.1693 44.7859C21.2761 45.0296 21.4299 45.2499 21.6221 45.4342C21.8143 45.6186 22.041 45.7634 22.2893 45.8605C22.5377 45.9575 22.8028 46.0048 23.0694 45.9996H37.9306C38.1972 46.0048 38.4623 45.9575 38.7107 45.8605C38.959 45.7634 39.1857 45.6186 39.3779 45.4342C39.5701 45.2499 39.7239 45.0296 39.8307 44.7859C39.9374 44.5423 39.995 44.28 40 44.0142V35.8792L39.6896 35.4925C38.4794 34.3205 37.0418 33.4072 35.4649 32.8086C33.8881 32.2101 32.2052 31.9388 30.5194 32.0116Z" fill="#2BC3FC"/>
</svg>
