<svg width="247" height="196" viewBox="0 0 247 196" fill="none" xmlns="http://www.w3.org/2000/svg">
<path opacity="0.19" d="M123 196C177.124 196 221 152.124 221 98C221 43.8761 177.124 0 123 0C68.8761 0 25 43.8761 25 98C25 152.124 68.8761 196 123 196Z" fill="url(#paint0_linear_161_2578)"/>
<path d="M134.067 59.0592V124.51C134.067 126.639 132.488 128.358 130.543 128.358H18.7122C16.7666 128.358 15.1875 126.63 15.1875 124.51V59.0592C15.1875 56.9304 16.7666 55.2117 18.7122 55.2117H130.551C132.488 55.203 134.067 56.9304 134.067 59.0592Z" fill="#E9F2FF"/>
<path d="M134.067 59.0592V62.3919H15.1875V59.0592C15.1875 56.9304 16.7666 55.2117 18.7122 55.2117H130.551C132.488 55.203 134.067 56.9304 134.067 59.0592Z" fill="#BAC9D6"/>
<path d="M18.4772 59.9054C19.0843 59.9054 19.5765 59.4132 19.5765 58.8061C19.5765 58.199 19.0843 57.7068 18.4772 57.7068C17.8701 57.7068 17.3779 58.199 17.3779 58.8061C17.3779 59.4132 17.8701 59.9054 18.4772 59.9054Z" fill="#939393"/>
<path d="M22.3327 59.9054C22.9398 59.9054 23.432 59.4132 23.432 58.8061C23.432 58.199 22.9398 57.7068 22.3327 57.7068C21.7256 57.7068 21.2334 58.199 21.2334 58.8061C21.2334 59.4132 21.7256 59.9054 22.3327 59.9054Z" fill="#CEDCED"/>
<path d="M26.1803 59.9054C26.7875 59.9054 27.2796 59.4132 27.2796 58.8061C27.2796 58.199 26.7875 57.7068 26.1803 57.7068C25.5732 57.7068 25.0811 58.199 25.0811 58.8061C25.0811 59.4132 25.5732 59.9054 26.1803 59.9054Z" fill="white"/>
<path d="M132.297 62.5227H16.2441C16.1744 62.5227 16.1133 62.4616 16.1133 62.3919C16.1133 62.3221 16.1744 62.261 16.2441 62.261H132.297C132.367 62.261 132.428 62.3221 132.428 62.3919C132.428 62.4616 132.376 62.5227 132.297 62.5227Z" fill="#939393"/>
<path d="M86.1171 89.8391C90.6363 84.0111 94.2221 77.4678 96.7435 70.5405C97.8079 64.9568 97.6944 60.3067 98.6192 54.5922C99.8058 53.6412 101.106 51.9137 100.957 49.6803C100.931 49.34 101.245 49.0434 101.28 48.7031C101.359 47.9528 100.888 47.2287 100.259 46.8012C99.6313 46.3737 98.881 46.1818 98.1481 46.0073C97.5723 45.8677 97.0052 45.7281 96.4294 45.5798C95.9146 45.4489 95.3388 45.3268 94.8677 45.5711C94.3181 45.8502 94.1 46.5046 93.7859 47.3683C93.9516 49.2877 94.1174 51.2158 94.257 53.4318C93.0705 58.7974 91.7182 64.1193 89.8948 69.6332C87.6613 73.4719 85.3144 77.2409 82.9326 80.5126C83.3339 83.6883 83.8225 87.056 86.1171 89.8391Z" fill="#FFAD92"/>
<path d="M94.3791 53.5888C93.7335 52.4197 93.0792 51.2507 92.4336 50.0816C92.3725 49.9682 92.3114 49.8547 92.3202 49.7239C92.3289 49.5843 92.4249 49.4709 92.5121 49.3749C92.7651 49.0783 93.0181 48.7816 93.2799 48.485C93.4718 48.2582 93.6812 48.0313 93.9604 47.9441C94.1872 47.8743 94.4315 47.9179 94.667 47.979C95.4174 48.1622 96.1415 48.485 96.7871 48.9212C96.7784 49.2528 96.5777 49.5756 96.2811 49.7326C95.9844 49.8896 95.6093 49.8809 95.2865 49.7413C95.7925 50.3346 96.3073 50.9453 96.6213 51.6607C96.9354 52.3761 97.0227 53.2398 96.7347 53.9553C95.9146 53.868 95.112 53.6673 94.3791 53.5888Z" fill="#FFAD92"/>
<path d="M97.041 53.7545C96.9625 53.7545 96.9102 53.6934 96.9102 53.6149C96.9712 52.3149 96.3954 50.9801 95.4009 50.1425C95.3485 50.0989 95.3398 50.0117 95.3834 49.9593C95.427 49.907 95.5143 49.8982 95.5666 49.9419C96.6223 50.8318 97.2417 52.2451 97.1719 53.6236C97.1719 53.7021 97.1108 53.7545 97.041 53.7545Z" fill="#EB7154"/>
<path d="M98.48 50.3259C98.3666 50.3259 98.2532 50.3084 98.1659 50.291C97.878 50.2386 97.5639 50.1514 97.372 49.9333C97.0143 50.1252 96.5344 50.099 96.2116 49.846C96.1506 49.8024 96.1419 49.7239 96.1855 49.6628C96.2291 49.6018 96.3076 49.593 96.3687 49.6366C96.6391 49.846 97.0492 49.846 97.3284 49.6454C97.3633 49.6192 97.3982 49.6105 97.4331 49.6192C97.468 49.6279 97.5029 49.6541 97.5203 49.689C97.6337 49.8984 97.9129 49.9769 98.2008 50.0293C98.3491 50.0554 98.4887 50.0729 98.6109 50.0467C98.7068 50.0205 98.8028 49.942 98.8115 49.846C98.8115 49.785 98.8552 49.7413 98.9075 49.7239C98.9686 49.7064 99.0209 49.7326 99.0558 49.785C99.1605 49.9595 99.431 49.9769 99.6142 49.8809C99.8323 49.7588 99.9719 49.5058 100.068 49.3051C100.085 49.2615 100.111 49.2179 100.129 49.1655C100.225 48.9561 100.33 48.7293 100.487 48.5461C100.539 48.4937 100.618 48.485 100.67 48.5374C100.722 48.5897 100.731 48.6682 100.679 48.7206C100.539 48.8776 100.452 49.0696 100.364 49.2702C100.347 49.3138 100.321 49.3662 100.303 49.4098C100.19 49.6541 100.024 49.942 99.7363 50.099C99.5095 50.2212 99.2041 50.2299 98.986 50.0816C98.9162 50.1776 98.8115 50.2561 98.6807 50.291C98.6196 50.3172 98.5498 50.3259 98.48 50.3259Z" fill="#EB7154"/>
<path d="M99.0296 49.9333C99.0121 49.9333 98.9947 49.9333 98.9772 49.9246C98.9074 49.8984 98.8812 49.8199 98.9074 49.7501C99.2651 48.9213 99.5617 48.0663 99.7973 47.1938C99.8148 47.124 99.8846 47.0804 99.9544 47.0978C100.024 47.1153 100.068 47.1851 100.05 47.2549C99.8147 48.1361 99.5094 49.0085 99.1517 49.8461C99.1255 49.8984 99.0819 49.9333 99.0296 49.9333Z" fill="#EB7154"/>
<path d="M97.4589 49.9071C97.4502 49.9071 97.4328 49.9071 97.424 49.8984C97.3542 49.881 97.3106 49.8112 97.3281 49.7414L98.1133 46.7838C98.1307 46.714 98.2005 46.6704 98.2703 46.6878C98.3401 46.7053 98.3837 46.7751 98.3663 46.8448L97.5811 49.8024C97.5724 49.8635 97.52 49.9071 97.4589 49.9071Z" fill="#EB7154"/>
<path d="M96.0722 48.4239C96.0635 48.4239 96.0548 48.4239 96.0373 48.4239C95.9675 48.4064 95.9239 48.3366 95.9413 48.2668C96.0984 47.6648 96.2118 47.0454 96.2816 46.4347C96.2903 46.3649 96.3601 46.3125 96.4299 46.3213C96.4997 46.33 96.5521 46.3911 96.5433 46.4696C96.4648 47.0977 96.3514 47.7259 96.1943 48.3366C96.1856 48.3802 96.1333 48.4239 96.0722 48.4239Z" fill="#EB7154"/>
<path d="M94.8932 48.0225C94.8234 48.0225 94.7711 47.9702 94.7624 47.9091L94.5879 46.3038C94.5791 46.234 94.6315 46.1642 94.7013 46.1555C94.7711 46.1468 94.8409 46.1991 94.8496 46.2689L95.0241 47.8742C95.0328 47.944 94.9805 48.0138 94.9107 48.0225C94.9019 48.0225 94.9019 48.0225 94.8932 48.0225Z" fill="#EB7154"/>
<path d="M95.5668 79.1079C92.2776 85.7996 88.3691 92.1772 83.876 98.3367C84.2424 100.116 84.2511 101.966 83.9196 103.755C83.4136 106.45 82.1398 108.928 81.058 111.136C81.1539 116.859 81.6948 122.617 83.4136 128.122C83.2391 128.201 83.0646 128.279 82.8901 128.358H57.4844C57.3448 125.505 57.3972 122.957 57.4495 120.471C57.4495 120.427 57.4495 120.383 57.4495 120.34C57.467 119.546 57.4844 118.761 57.4931 117.976C57.5804 115.576 57.5804 113.177 57.5019 110.787C57.5019 110.752 57.5019 110.708 57.5019 110.673C57.4931 110.315 57.4757 109.958 57.4582 109.6C57.4582 109.591 57.4582 109.583 57.4582 109.574C57.2314 104.287 56.6207 99.0434 55.6697 93.8523C55.661 93.8 55.6523 93.7564 55.6436 93.704C57.5193 92.7181 59.4038 91.4967 61.5151 91.1303C61.6198 91.1128 61.7245 91.0954 61.8379 91.0779C62.4225 90.9994 63.0157 90.9994 63.6003 90.9645C63.9493 90.9471 64.307 90.9122 64.6472 90.8511C64.717 90.8336 64.7955 90.8249 64.8653 90.8075C66.8545 90.38 68.5994 89.019 70.5711 88.6438C70.7893 88.6002 71.0161 88.574 71.2429 88.5566C71.3127 88.5478 71.3825 88.5391 71.4436 88.5304C71.557 88.5129 71.6617 88.5042 71.7751 88.4868C73.712 88.2425 75.5441 87.9807 77.2541 87.5707C80.2204 82.5367 83.5706 77.7382 87.0953 73.533C88.0201 69.7379 89.1455 65.9863 90.4542 62.3744C91.3267 59.9664 92.2776 57.6108 93.3159 55.3337C96.605 56.5115 99.423 58.9806 101.081 62.3744C101.098 62.4093 101.116 62.4355 101.124 62.4704C99.1089 68.0366 97.2593 73.6551 95.5668 79.1079Z" fill="#00103C"/>
<path d="M71.9406 84.081C73.4674 84.2468 75.0378 84.0461 76.4686 83.4965C76.8438 83.3569 77.2277 83.1649 77.4894 82.8334C76.7216 81.1408 76.4774 79.2738 76.2331 77.4329C75.9888 75.5921 75.7358 73.725 74.968 72.0325C74.2003 70.3399 72.8218 68.8306 70.789 68.438C68.8173 67.5394 66.6449 67.0159 64.4812 67.1381C62.3175 67.2602 60.1626 68.0628 58.5834 69.5547C56.2715 71.7446 55.4601 75.0861 55.242 78.253C55.0326 81.4288 55.2943 84.6481 54.4219 87.85C56.5943 88.0594 58.7841 88.2775 60.6163 88.0942C61.4713 88.0681 62.335 87.9459 63.1289 87.5621C65.7113 85.8608 68.5904 83.7146 71.9406 84.081Z" fill="#3B2C26"/>
<path d="M67.5711 92.404C65.6779 92.2819 63.8371 91.4181 62.5371 90.031C62.6767 87.1955 62.9472 84.4909 63.3136 81.795C65.582 82.2225 67.7718 82.589 69.9616 82.9379C70.3368 84.9795 70.8777 87.0821 71.5931 88.8793C70.9126 90.3974 69.7086 91.6712 67.5711 92.404Z" fill="#FFAD92"/>
<path d="M63.381 84.3164C64.9776 85.154 66.7399 85.6949 68.5372 85.8955C69.3137 85.9828 70.1338 86.0002 70.8666 85.7211C71.8525 85.3372 72.5592 84.4298 72.9343 83.444C73.3095 82.4581 73.388 81.385 73.4229 80.3293C73.484 78.2006 73.3705 76.0631 73.0826 73.9517C71.7042 73.2799 70.7358 71.98 70.4042 70.5143C68.5808 73.1055 65.85 75.0423 62.875 76.0892C62.9622 78.7502 63.0495 81.4199 63.381 84.3164Z" fill="#FFAD92"/>
<path d="M67.6299 81.4635C68.8426 81.5507 70.064 81.4286 71.2331 81.097C71.268 81.638 71.1284 82.1876 70.9016 82.6849C70.7881 82.9466 70.6398 83.1996 70.4217 83.3741C69.907 83.7929 69.113 83.6708 68.5896 83.2694C68.0748 82.8681 67.7695 82.2399 67.6299 81.4635Z" fill="white"/>
<path d="M62.578 75.0685C62.8484 79.5267 63.4155 84.1943 66.0329 87.7364C64.4799 88.0331 62.8659 88.3297 61.3304 87.9633C60.6324 87.7975 59.9694 87.4921 59.3936 86.8465C59.7774 82.8071 60.7895 78.8287 62.578 75.0685Z" fill="#3B2C26"/>
<path d="M69.3918 85.9653C67.2979 85.9653 64.8987 85.1278 64.7591 85.0841C64.6893 85.058 64.6544 84.9882 64.6806 84.9184C64.7067 84.8486 64.7765 84.8137 64.8463 84.8399C64.89 84.8573 69.5052 86.4626 71.4333 85.2586C71.4944 85.2237 71.5729 85.2412 71.6165 85.3023C71.6514 85.3633 71.634 85.4418 71.5729 85.4855C70.9971 85.8432 70.2206 85.9653 69.3918 85.9653Z" fill="#EB7154"/>
<path d="M70.5615 125.191C70.4917 125.191 70.4394 125.138 70.4307 125.068C69.4971 114.119 68.7905 102.996 68.3193 92.0114C68.3193 91.9416 68.3717 91.8806 68.4415 91.8718C68.5113 91.8718 68.5723 91.9242 68.5811 91.994C69.0435 102.969 69.7589 114.093 70.6924 125.042C70.7011 125.112 70.6488 125.182 70.5703 125.182C70.5703 125.191 70.5615 125.191 70.5615 125.191Z" fill="url(#paint1_linear_161_2578)"/>
<path d="M75.5339 100.335C75.0802 100.335 74.6265 100.317 74.1816 100.291C74.1118 100.282 74.0507 100.221 74.0594 100.151C74.0682 100.082 74.1292 100.029 74.199 100.029C76.4063 100.169 78.6049 99.9594 80.7424 99.4097C80.8122 99.3923 80.882 99.4359 80.8994 99.5057C80.9169 99.5755 80.8733 99.6453 80.8035 99.6627C79.0847 100.108 77.3137 100.335 75.5339 100.335Z" fill="url(#paint2_linear_161_2578)"/>
<path d="M83.7791 98.52C83.7355 98.52 83.6831 98.4938 83.6657 98.4502C82.2959 95.8677 80.9785 93.2068 79.7484 90.5458C79.7222 90.476 79.7484 90.4062 79.8095 90.3713C79.8793 90.3451 79.9491 90.3713 79.984 90.4324C81.2054 93.0846 82.5228 95.7456 83.8925 98.3193C83.9274 98.3804 83.9013 98.4589 83.8402 98.4938C83.814 98.5113 83.7965 98.52 83.7791 98.52Z" fill="url(#paint3_linear_161_2578)"/>
<path d="M86.5449 89.9699C86.5362 89.9699 86.5275 89.9699 86.5188 89.9699C86.449 89.9524 86.4053 89.8826 86.4228 89.8128C87.1033 86.7331 87.5308 83.5661 87.6966 80.4166C87.6966 80.3468 87.7664 80.2857 87.8362 80.2944C87.9059 80.2944 87.967 80.3642 87.9583 80.434C87.7838 83.601 87.3563 86.7767 86.6758 89.8739C86.6584 89.9262 86.5973 89.9699 86.5449 89.9699Z" fill="url(#paint4_linear_161_2578)"/>
<path d="M61.1487 115.707C63.103 113.631 65.0573 111.554 67.0115 109.478C67.8055 109.513 68.4773 109.138 68.9571 108.632C69.4369 108.126 69.7685 107.489 70.0826 106.861C71.5221 107.044 72.8133 106.198 73.1797 105.002C73.4415 103.092 72.7784 101.198 71.5134 99.8462C69.7685 100.204 68.2591 100.902 66.8894 101.809C66.1129 103.319 65.3103 104.793 64.6036 106.311C62.7976 107.672 61.0265 109.129 59.2031 110.83C59.3514 112.401 59.7702 113.936 60.442 115.358C60.5554 115.568 60.7299 115.812 61.1487 115.707Z" fill="#FFAD92"/>
<path d="M69.9146 105.491C69.8535 105.491 69.8012 105.447 69.7838 105.386C69.5046 104.165 69.1381 102.952 68.6845 101.792C68.6583 101.722 68.6932 101.652 68.763 101.626C68.8328 101.6 68.9026 101.635 68.9288 101.705C69.3911 102.882 69.7576 104.104 70.0368 105.334C70.0542 105.404 70.0106 105.473 69.9408 105.491C69.9321 105.491 69.9233 105.491 69.9146 105.491Z" fill="#EB7154"/>
<path d="M69.9321 101.897C69.871 101.897 69.8187 101.853 69.8012 101.792C69.7838 101.722 69.8361 101.652 69.9059 101.635C70.7086 101.469 71.4938 101.199 72.2354 100.832C72.2964 100.797 72.375 100.823 72.4099 100.893C72.4448 100.963 72.4186 101.033 72.3488 101.068C71.5898 101.443 70.7871 101.722 69.9583 101.888C69.9496 101.897 69.9408 101.897 69.9321 101.897Z" fill="#EB7154"/>
<path d="M70.36 103.179C70.3076 103.179 70.2553 103.144 70.2378 103.083C70.2204 103.013 70.2553 102.943 70.3251 102.917L72.7505 102.202C72.8203 102.184 72.8901 102.219 72.9163 102.289C72.9424 102.359 72.8988 102.429 72.829 102.455L70.4036 103.17C70.3862 103.179 70.3774 103.179 70.36 103.179Z" fill="#EB7154"/>
<path d="M70.7695 104.828C70.7172 104.828 70.6648 104.793 70.6474 104.741C70.6212 104.671 70.6561 104.601 70.7259 104.575C71.4762 104.278 72.305 104.173 73.1077 104.261C73.1775 104.269 73.2298 104.33 73.2211 104.409C73.2124 104.479 73.1513 104.531 73.0728 104.522C72.3137 104.435 71.5285 104.54 70.8131 104.819C70.8044 104.828 70.787 104.828 70.7695 104.828Z" fill="#EB7154"/>
<path d="M70.0019 106.834C69.9844 106.834 69.967 106.834 69.9495 106.826C69.8797 106.791 69.8535 106.721 69.8884 106.651C70.0978 106.198 70.5602 105.875 71.0575 105.831C71.1273 105.822 71.1971 105.875 71.1971 105.953C71.2058 106.023 71.1535 106.093 71.075 106.093C70.6736 106.128 70.2898 106.398 70.124 106.756C70.0978 106.808 70.0455 106.834 70.0019 106.834Z" fill="#EB7154"/>
<path d="M58.6873 106.625C58.0591 108.152 57.4309 109.679 56.794 111.205C57.8323 110.638 59.0362 109.775 60.3013 109.024C60.6241 111.493 61.1214 113.692 61.7147 115.856C58.1725 120.218 54.3686 123.472 50.1722 126.089C48.9071 126.883 47.2233 126.744 46.1153 125.897C45.0073 125.051 44.414 123.647 44.2919 122.259C44.1697 120.872 44.4489 119.476 44.7979 118.124C45.3737 115.873 46.124 113.674 46.883 111.485C47.8776 108.579 48.8722 105.665 49.9802 102.795C51.2889 99.4012 52.5714 95.9551 55.6511 93.7129C57.1692 97.8483 60.3973 102.49 58.6873 106.625Z" fill="#00103C"/>
<path d="M50.1287 116.353C50.0938 116.353 50.0589 116.335 50.0328 116.309C49.9891 116.257 49.9891 116.17 50.0502 116.126C53.1998 113.456 56.5936 111.005 60.1183 108.858C60.1793 108.824 60.2579 108.841 60.3015 108.902C60.3451 108.963 60.3189 109.042 60.2579 109.085C56.7419 111.232 53.3655 113.674 50.2247 116.335C50.1898 116.344 50.1636 116.353 50.1287 116.353Z" fill="url(#paint5_linear_161_2578)"/>
<path d="M56.8118 111.171C56.7943 111.171 56.7769 111.171 56.7594 111.162C56.6896 111.136 56.6635 111.057 56.6896 110.987C57.7104 108.71 58.6614 106.372 59.5076 104.025C59.5338 103.955 59.6036 103.921 59.6734 103.947C59.7432 103.973 59.7781 104.043 59.7519 104.112C58.9057 106.468 57.9547 108.815 56.9252 111.101C56.9165 111.136 56.8641 111.171 56.8118 111.171Z" fill="url(#paint6_linear_161_2578)"/>
<path d="M58.3828 107.777C58.3567 107.777 58.3305 107.768 58.313 107.759C58.252 107.716 58.2345 107.637 58.2781 107.576C58.8278 106.747 59.4996 106.014 60.2848 105.395C60.3458 105.351 60.4244 105.36 60.468 105.421C60.5116 105.482 60.5029 105.561 60.4418 105.604C59.6828 106.197 59.0284 106.913 58.4962 107.716C58.4701 107.75 58.4265 107.777 58.3828 107.777Z" fill="url(#paint7_linear_161_2578)"/>
<path d="M54.7801 122.87C54.7452 122.87 54.7016 122.853 54.6841 122.827C54.6405 122.774 54.6405 122.687 54.7016 122.643C57.1968 120.532 59.5437 118.203 61.655 115.707C61.6986 115.655 61.7859 115.646 61.8382 115.69C61.8906 115.734 61.8993 115.821 61.8557 115.873C59.7269 118.377 57.38 120.715 54.8673 122.835C54.8412 122.861 54.8063 122.87 54.7801 122.87Z" fill="url(#paint8_linear_161_2578)"/>
<path d="M66.6873 95.8589C67.141 94.5851 67.6906 93.355 68.345 92.1772C69.453 92.7705 70.4388 93.5818 71.3287 94.4805C72.0877 93.006 72.1575 90.886 72.332 89.2545C71.9569 88.2861 72.018 88.4431 71.3811 87.8324C71.0408 89.5511 69.6623 90.79 68.4322 92.0114C66.347 91.488 64.4538 90.5108 62.4123 89.4028C62.0284 89.8827 61.5486 90.5632 61.3828 91.0256C63.1626 92.5087 64.8813 94.0791 66.6873 95.8589Z" fill="url(#paint9_linear_161_2578)"/>
<path d="M67.168 91.6537L68.529 93.8523L69.3578 90.9296L67.168 91.6537Z" fill="#FFAD92"/>
<path d="M84.2031 128.466H117.845V126.006H84.2031V128.466Z" fill="#017326"/>
<path d="M45.8906 106.436L52.9574 127.601C53.1319 128.116 53.6118 128.465 54.1614 128.465H96.2134C97.0771 128.465 97.6966 127.619 97.4174 126.79L90.3506 105.624C90.1761 105.11 89.6962 104.761 89.1466 104.761H47.0946C46.2221 104.761 45.6114 105.616 45.8906 106.436Z" fill="#7AD001"/>
<path d="M69.8218 121.084C71.6769 121.084 73.1807 119.58 73.1807 117.725C73.1807 115.87 71.6769 114.366 69.8218 114.366C67.9667 114.366 66.4629 115.87 66.4629 117.725C66.4629 119.58 67.9667 121.084 69.8218 121.084Z" fill="white"/>
<path d="M132.769 128.474H23.1895V134.284H132.769V128.474Z" fill="#CEDCED"/>
<path d="M132.778 128.474H99.6777V134.284H132.778V128.474Z" fill="#E9F2FF"/>
<path d="M125.171 186.169H129.193V134.284H125.171V186.169Z" fill="#BAC9D6"/>
<path d="M103.079 186.169H107.101V134.284H103.079V186.169Z" fill="#BAC9D6"/>
<path d="M107.098 174.315H125.166V170.956H107.098V174.315Z" fill="#BAC9D6"/>
<path d="M48.6489 186.169H52.6709L52.6709 134.284H48.6489L48.6489 186.169Z" fill="#BAC9D6"/>
<path d="M26.5474 186.169H30.5693L30.5693 134.284H26.5474L26.5474 186.169Z" fill="#BAC9D6"/>
<path d="M30.5752 174.315H48.6436V170.956H30.5752V174.315Z" fill="#BAC9D6"/>
<path d="M242.689 81.7946C241.293 84.9092 238.222 87.2125 234.828 87.6749C237.664 89.0621 239.88 91.6619 240.822 94.6893C242.069 92.4559 244.251 90.7546 246.755 90.109C245.263 89.4721 244.233 88.0238 243.718 86.4883C243.204 84.9441 243.134 83.2952 242.689 81.7946Z" fill="#FEB000"/>
<path d="M141.93 106.528C140.534 109.643 137.463 111.946 134.069 112.409C136.905 113.796 139.121 116.396 140.063 119.423C141.311 117.19 143.492 115.488 145.996 114.843C144.504 114.206 143.474 112.758 142.96 111.222C142.445 109.669 142.384 108.02 141.93 106.528Z" fill="#FEB000"/>
<path d="M195.01 34.4381C194.836 37.8494 192.803 41.1036 189.811 42.7613C192.951 43.023 195.961 44.6545 197.933 47.1322C198.282 44.5934 199.704 42.2203 201.807 40.711C200.184 40.6587 198.701 39.6815 197.663 38.4339C196.633 37.1863 195.979 35.6683 195.01 34.4381Z" fill="#FEB000"/>
<path d="M138.659 40.9205C139.819 44.1311 142.716 46.6525 146.066 47.3679C143.135 48.537 140.735 50.9711 139.575 53.92C138.493 51.5993 136.452 49.741 134 48.9122C135.536 48.3887 136.67 47.0189 137.298 45.5183C137.917 44.0177 138.101 42.3775 138.659 40.9205Z" fill="#FEB000"/>
<path d="M196.539 131.376C195.614 130.102 193.939 129.98 192.621 129.997C192.412 129.997 192.176 130.032 192.063 130.207C191.984 130.32 191.984 130.469 191.984 130.599C191.993 132.999 192.011 135.407 192.019 137.806C192.743 137.396 193.476 136.968 194.209 136.541C195.291 135.904 196.451 135.18 196.896 134.002C197.219 133.138 197.088 132.117 196.539 131.376Z" fill="#00103C"/>
<path d="M170.793 87.8231C168.394 86.6889 166.64 84.2896 166.282 81.6636C165.925 79.0375 166.989 76.2544 169.004 74.5269C169.886 73.7766 170.924 73.2183 171.796 72.4592C173.524 70.9586 174.51 68.7688 175.094 66.5528C175.679 64.3367 175.905 62.0422 176.411 59.8087C176.883 57.7236 177.921 55.3942 180.006 54.9143C181.376 54.6002 182.78 55.2022 184.482 56.2579C186.68 53.5446 191.112 53.5184 193.991 55.4989C196.87 57.488 198.397 60.9429 199.104 64.3629C199.81 67.7916 199.819 71.3251 200.412 74.7712C200.744 76.7255 201.459 78.8892 203.265 79.7093C204.129 80.0932 205.106 80.1106 205.987 80.4421C208.107 81.2448 209.146 83.8709 208.622 86.0782C208.099 88.2767 206.319 90.0129 204.295 91.0337C202.271 92.0544 200.002 92.4557 197.49 92.4907C195.562 94.4886 192.901 95.8408 190.126 95.9019C187.352 95.963 184.516 94.6456 182.972 91.8887C181.838 93.2497 179.988 93.9825 178.235 93.7731C177.301 93.6597 176.411 93.302 175.548 92.9094C173.611 92.0195 171.552 90.6498 170.793 87.8231Z" fill="#3B2C26"/>
<path d="M176.725 132.24C178.522 135.476 177.981 139.472 177.205 143.101C175.599 150.535 173.209 157.776 170.818 164.991C172.232 165.052 173.854 165.227 175.442 165.41C180.127 165.942 184.804 166.562 189.471 167.268C191.862 169.729 192.926 173.088 192.507 176.272C183.163 176.778 173.732 176.761 164.336 176.193C161.23 177.581 156.92 174.902 155.175 171.282C153.43 167.661 153.622 163.438 154.05 159.442C155.158 148.929 157.557 138.6 159.764 128.497C165.575 129.509 171.42 130.407 176.725 132.24Z" fill="#4D5A6D"/>
<path d="M168.76 168.882C168.742 168.882 168.716 168.874 168.699 168.865C168.638 168.83 168.612 168.751 168.646 168.69L170.863 164.494C170.897 164.433 170.976 164.407 171.037 164.442C171.098 164.476 171.124 164.555 171.089 164.616L168.873 168.812C168.856 168.856 168.804 168.882 168.76 168.882Z" fill="#3C4A5B"/>
<path d="M213.358 149.724C214.641 151.294 216.028 152.777 217.52 154.164C218.322 154.915 219.361 155.682 220.425 155.386C221.132 155.185 221.638 154.54 221.838 153.833C222.039 153.135 221.978 152.385 221.873 151.66C221.393 148.502 220.006 145.571 218.636 142.692C217.755 140.842 216.612 138.774 214.606 138.347C212.843 137.972 211.02 139.123 210.104 140.676C209.179 142.238 208.865 144.21 213.358 149.724Z" fill="#FF6162"/>
<path d="M205.742 148.415C206.815 147.219 207.88 146.033 208.953 144.838C209.363 144.375 209.817 143.895 210.419 143.747C210.872 143.634 211.343 143.738 211.78 143.904C213.655 144.62 214.851 146.521 215.365 148.493C214.301 150.648 213.21 152.794 212.076 154.914C210.026 152.882 207.984 150.84 205.742 148.415Z" fill="#FFAD92"/>
<path d="M204.216 166.501C204.861 169.572 205.263 172.695 205.428 175.827C205.489 176.935 205.498 178.113 204.922 179.064C204.713 179.413 204.408 179.736 204.015 179.849C203.622 179.962 203.195 179.858 202.811 179.692C201.799 179.265 200.996 178.479 200.211 177.712C199.26 176.778 198.318 175.845 197.367 174.92C197.105 174.667 196.817 174.309 196.835 173.89C197.995 170.488 200.639 167.635 204.216 166.501Z" fill="#FF6162"/>
<path d="M186.872 178.174C188.826 178.828 190.859 179.491 192.891 179.195C195.186 178.863 197.14 177.354 198.772 175.705C204.364 170.043 207.697 162.034 214.546 157.986C214.642 155.647 213.089 153.344 211.483 151.285C210.838 150.456 210.166 149.627 209.302 149.043C208.072 148.205 206.563 147.926 205.097 147.664C204.006 148.868 202.75 150.544 201.494 152.219C199.086 155.429 196.652 158.666 193.642 161.327C192.953 154.269 192.656 147.76 192.656 141.252C193.764 137.352 193.834 132.789 192.508 128.279C184.437 130.294 176.245 131.803 168.193 132.562C167.111 134.36 167.381 136.698 168.227 138.617C169.074 140.537 170.426 142.177 171.551 143.948C174.937 149.296 176.14 155.674 177.824 161.781C179.508 167.87 180.852 176.159 186.872 178.174Z" fill="#4D5A6D"/>
<path d="M193.73 169.275C193.66 169.275 193.608 169.223 193.599 169.153C193.372 166.579 193.311 163.971 193.416 161.388C193.416 161.318 193.477 161.257 193.555 161.266C193.625 161.266 193.686 161.327 193.678 161.406C193.564 163.971 193.625 166.57 193.861 169.135C193.869 169.205 193.817 169.275 193.739 169.275C193.739 169.275 193.739 169.275 193.73 169.275Z" fill="#3C4A5B"/>
<path d="M176.375 155.944C176.314 155.944 176.262 155.9 176.244 155.839C175.25 151.076 173.208 146.478 170.338 142.543C169.117 142.046 167.974 141.06 167.284 139.891C167.249 139.83 167.267 139.751 167.328 139.708C167.389 139.673 167.468 139.69 167.511 139.751C168.183 140.877 169.291 141.837 170.478 142.308C170.504 142.316 170.521 142.334 170.539 142.351C173.444 146.321 175.512 150.962 176.515 155.778C176.532 155.848 176.48 155.918 176.41 155.935C176.393 155.944 176.384 155.944 176.375 155.944Z" fill="#3C4A5B"/>
<path d="M191.87 179.404C190.117 179.404 188.389 178.828 186.827 178.305C181.497 176.516 179.804 169.964 178.321 164.18C178.112 163.351 177.911 162.575 177.693 161.807C177.675 161.737 177.71 161.667 177.78 161.65C177.85 161.632 177.92 161.667 177.937 161.737C178.147 162.505 178.347 163.281 178.565 164.11C180.04 169.825 181.706 176.307 186.906 178.052C188.738 178.671 190.823 179.369 192.874 179.073C194.775 178.793 196.625 177.703 198.684 175.618C198.736 175.565 198.815 175.565 198.867 175.618C198.92 175.67 198.92 175.749 198.867 175.801C196.773 177.921 194.88 179.046 192.908 179.334C192.568 179.378 192.219 179.404 191.87 179.404Z" fill="#3C4A5B"/>
<path d="M162.522 86.1917C158.831 78.0604 156.441 69.336 155.42 60.4719C155.734 53.5883 157.174 48.1442 157.688 41.1472C156.554 39.6902 155.516 37.2909 156.31 34.6998C156.432 34.2984 156.153 33.8709 156.205 33.4609C156.319 32.5536 157.086 31.8294 157.941 31.4979C158.796 31.1664 159.739 31.1576 160.655 31.1489C161.37 31.1402 162.085 31.1402 162.801 31.1315C163.446 31.1227 164.153 31.1402 164.642 31.559C165.209 32.0388 165.287 32.8764 165.418 33.9844C164.685 36.2004 163.952 38.4251 163.159 40.9988C163.054 47.6556 163.15 54.3124 163.752 61.3182C165.305 66.4743 167.015 71.5694 168.899 76.0887C167.512 79.7181 166.003 83.5481 162.522 86.1917Z" fill="#FFAD92"/>
<path d="M162.95 41.1385C164.04 39.9433 165.14 38.748 166.23 37.544C166.335 37.4306 166.44 37.3085 166.466 37.1601C166.492 36.9944 166.414 36.8373 166.335 36.689C166.117 36.2703 165.899 35.8428 165.681 35.424C165.515 35.1099 165.34 34.7784 165.026 34.5951C164.773 34.4556 164.477 34.4381 164.189 34.4381C163.247 34.4468 162.313 34.6126 161.432 34.9529C161.353 35.3542 161.493 35.7817 161.798 36.0521C162.104 36.3226 162.549 36.4098 162.967 36.34C162.2 36.8984 161.423 37.4655 160.856 38.2245C160.289 38.9836 159.94 39.9694 160.08 40.8942C161.065 41.0425 162.069 41.0338 162.95 41.1385Z" fill="#FFAD92"/>
<path d="M159.799 40.5625C159.791 40.5625 159.782 40.5625 159.773 40.5625C159.703 40.5451 159.651 40.484 159.668 40.4142C159.974 38.774 161.091 37.2908 162.582 36.5405C162.643 36.5056 162.722 36.5318 162.757 36.6016C162.792 36.6627 162.766 36.7412 162.696 36.7761C161.274 37.4915 160.218 38.9049 159.921 40.4666C159.921 40.5189 159.86 40.5625 159.799 40.5625Z" fill="#EB7154"/>
<path d="M161.335 36.2965C161.013 36.2965 160.69 36.1743 160.454 35.9562C160.175 36.1743 159.782 36.1918 159.416 36.1656C159.242 36.1569 159.015 36.1394 158.814 36.0347C158.683 35.9649 158.561 35.8428 158.509 35.6857C158.221 35.8079 157.854 35.7206 157.628 35.5113C157.34 35.2495 157.226 34.8569 157.165 34.5516C157.156 34.4905 157.139 34.4294 157.13 34.3683C157.078 34.0979 157.026 33.8449 156.912 33.6268C156.877 33.5657 156.903 33.4872 156.964 33.4523C157.026 33.4174 157.104 33.4436 157.139 33.5046C157.279 33.7664 157.331 34.0455 157.392 34.3247C157.401 34.3858 157.418 34.4469 157.427 34.5079C157.488 34.7784 157.584 35.1187 157.811 35.328C158.003 35.5025 158.36 35.5636 158.535 35.3717C158.578 35.328 158.64 35.3193 158.692 35.3455C158.744 35.3717 158.77 35.4327 158.762 35.4851C158.736 35.6159 158.84 35.7468 158.954 35.8079C159.093 35.8777 159.259 35.8951 159.451 35.9039C159.817 35.9213 160.175 35.9126 160.376 35.6857C160.402 35.6596 160.437 35.6421 160.472 35.6421C160.507 35.6421 160.55 35.6596 160.568 35.6857C160.838 36.0085 161.344 36.1307 161.728 35.9562C161.798 35.93 161.868 35.9562 161.903 36.026C161.929 36.0958 161.903 36.1656 161.833 36.2005C161.667 36.2616 161.501 36.2965 161.335 36.2965Z" fill="#EB7154"/>
<path d="M158.535 35.5025C158.474 35.5025 158.413 35.4589 158.404 35.3978C158.212 34.3073 158.107 33.1993 158.072 32.1C158.072 32.0302 158.125 31.9691 158.203 31.9691C158.273 31.9691 158.334 32.0215 158.334 32.1C158.369 33.1905 158.482 34.2898 158.666 35.3629C158.674 35.4327 158.631 35.5025 158.561 35.5113C158.552 35.5025 158.543 35.5025 158.535 35.5025Z" fill="#EB7154"/>
<path d="M160.393 35.9124C160.323 35.9124 160.262 35.86 160.262 35.7815L160.166 32.0736C160.166 32.0038 160.218 31.9427 160.297 31.9427C160.367 31.9427 160.428 31.9951 160.428 32.0736L160.524 35.7815C160.524 35.8513 160.471 35.9124 160.393 35.9124Z" fill="#EB7154"/>
<path d="M162.435 34.5515C162.365 34.5515 162.304 34.4904 162.304 34.4206C162.295 33.6529 162.33 32.8851 162.417 32.1261C162.426 32.0563 162.496 32.0039 162.566 32.0127C162.636 32.0214 162.688 32.0825 162.679 32.161C162.592 32.9113 162.557 33.6703 162.566 34.4206C162.574 34.4991 162.513 34.5515 162.435 34.5515C162.444 34.5515 162.444 34.5515 162.435 34.5515Z" fill="#EB7154"/>
<path d="M163.943 34.4119C163.926 34.4119 163.917 34.4119 163.9 34.4032C163.83 34.377 163.795 34.3072 163.821 34.2374L164.476 32.3965C164.502 32.3267 164.571 32.2918 164.641 32.318C164.711 32.3442 164.746 32.414 164.72 32.4838L164.065 34.3246C164.048 34.3857 163.996 34.4119 163.943 34.4119Z" fill="#EB7154"/>
<path d="M200.412 99.4616C205.673 97.2717 210.934 95.0906 216.195 92.9008C217.861 92.2115 219.562 91.4961 220.871 90.2572C221.892 89.2888 222.616 88.0587 223.296 86.8198C225.905 82.0737 228.051 77.0658 229.674 71.9009C227.676 71.2466 225.469 70.6097 223.331 69.7983C221.438 74.7364 218.332 79.404 214.79 83.6964C211.178 85.1621 207.557 86.2702 203.553 86.9681C202.297 91.1122 201.049 95.2564 200.412 99.4616Z" fill="#FFAD92"/>
<path d="M197.07 133.086C194.627 130.564 190.928 130.198 187.499 130.931C184.071 131.664 180.886 133.278 177.484 134.141C169.64 136.131 160.829 133.731 155.088 128.034C157.365 125.836 158.874 123.297 160.375 120.776C163.49 115.523 166.709 109.949 166.744 103.85C166.761 100.482 165.819 96.9752 167.006 93.8257C164.632 91.8888 162.731 89.6641 161.169 87.2212C162.704 82.5187 165.365 77.8686 168.873 73.9688C170.53 76.6821 172.013 79.5001 173.305 82.4053C173.741 82.2657 174.482 82.1087 175.154 82.2919C176.838 82.7543 177.51 85.0925 179.22 85.4327C183.547 85.4065 188.197 84.9965 192.516 85.3542C193.275 84.6999 194.121 85.7904 195.125 86.0783C196.302 86.4186 197.559 86.3226 198.771 86.2005C201.598 85.9038 204.399 85.4414 207.374 84.9354C205.341 89.7426 203.962 94.8203 203.238 100.081C200.647 101.102 198.1 102.236 195.456 103.536C194.13 107.165 192.795 110.804 191.329 114.572C192.045 117.766 192.751 120.95 193.467 124.143C193.659 124.981 193.851 125.836 194.261 126.595C194.793 127.555 195.648 128.287 196.276 129.186C197.07 130.285 197.218 131.664 197.07 133.086Z" fill="url(#paint10_linear_161_2578)"/>
<path d="M195.578 103.702C195.561 103.702 195.552 103.702 195.534 103.693C195.465 103.667 195.43 103.597 195.456 103.527L197.777 96.6784C197.803 96.6086 197.873 96.5737 197.942 96.5999C198.012 96.626 198.047 96.6958 198.021 96.7656L195.7 103.614C195.683 103.667 195.63 103.702 195.578 103.702Z" fill="#00103C"/>
<path d="M166.997 94.2444C166.971 94.2444 166.954 94.2356 166.928 94.2269C166.867 94.192 166.84 94.1135 166.884 94.0437C168.376 91.4961 170.077 89.0446 171.935 86.7588C171.979 86.7064 172.066 86.6977 172.119 86.7413C172.171 86.7849 172.18 86.8722 172.136 86.9245C170.287 89.2016 168.594 91.6445 167.102 94.1746C167.085 94.2182 167.041 94.2444 166.997 94.2444Z" fill="#00103C"/>
<path d="M180.771 104.67C180.728 104.67 180.693 104.653 180.667 104.618C179.166 102.559 178.18 100.142 177.814 97.6207C177.805 97.5509 177.849 97.4811 177.927 97.4724C177.997 97.4637 178.067 97.5073 178.075 97.5858C178.442 100.064 179.41 102.445 180.885 104.469C180.928 104.531 180.911 104.609 180.858 104.653C180.824 104.661 180.797 104.67 180.771 104.67Z" fill="#00103C"/>
<path d="M170.556 130.931C170.495 130.931 170.443 130.887 170.425 130.826C170.408 130.756 170.46 130.687 170.53 130.669C173.967 129.954 177.143 128.122 179.473 125.496C179.516 125.443 179.603 125.434 179.656 125.487C179.708 125.53 179.717 125.618 179.664 125.67C177.3 128.34 174.072 130.207 170.582 130.931C170.574 130.922 170.565 130.931 170.556 130.931Z" fill="#00103C"/>
<path d="M189.295 83.9321C189.444 81.0006 189.801 78.0779 190.43 75.0331C187.385 76.3767 184.104 77.1706 181.059 77.1182C180.414 79.3604 179.646 81.5677 178.582 83.5307C177.875 83.5307 177.168 83.3737 176.296 82.9026C176.348 84.4904 176.54 86.0957 177.116 87.5876C177.692 89.0795 178.669 90.4405 180.039 91.2519C182.237 92.5606 185.134 92.229 187.35 90.9465C189.566 89.664 191.206 87.5876 192.523 85.3629C191.381 85.1011 190.29 84.6475 189.295 83.9321Z" fill="#FFAD92"/>
<path d="M190.561 69.493C190.203 70.034 189.846 70.6011 189.802 71.2467C189.767 71.8923 190.09 72.5379 190.631 72.8956C191.093 72.2936 191.87 71.648 192.76 71.2903C193.039 71.1769 193.344 71.0983 193.641 71.1158C194.574 71.1856 195.141 72.3198 194.906 73.2271C194.67 74.1345 193.868 74.7801 193.021 75.1814C192.175 75.5827 191.259 75.8008 190.422 76.2196C188.476 78.2088 186.775 78.994 183.93 78.9853C181.854 78.9766 178.748 78.6101 177.466 76.9786C176.375 75.5827 175.747 73.2882 176.026 71.5433C176.462 68.7602 177.335 66.0381 178.609 63.5255C179.725 61.3095 181.348 59.1022 184.201 58.5264C183.965 60.882 184.201 63.3336 185.274 65.4362C186.347 67.5388 188.328 69.2488 190.561 69.493Z" fill="#FFAD92"/>
<path d="M179.611 71.9535C180.876 72.7998 182.412 73.236 183.93 73.1749C183.581 73.742 183.179 74.3004 182.63 74.693C182.08 75.0769 181.365 75.2775 180.728 75.0769C180.178 74.9024 179.751 74.44 179.541 73.9078C179.341 73.3669 179.341 72.7649 179.611 71.9535Z" fill="white"/>
<path d="M183.137 78.8544C182.098 78.8544 181.069 78.7323 180.066 78.4793C179.996 78.4618 179.952 78.392 179.97 78.3222C179.987 78.2524 180.057 78.2088 180.127 78.2263C183.573 79.0813 187.385 78.4095 190.326 76.4116C190.387 76.3679 190.465 76.3854 190.509 76.4465C190.552 76.5075 190.535 76.586 190.474 76.6297C188.336 78.0867 185.737 78.8544 183.137 78.8544Z" fill="#EB7154"/>
<path d="M239.763 61.7873L219.822 56.4513L216.112 70.3151L236.053 75.6511L239.763 61.7873Z" fill="#FF6162"/>
<path d="M226.56 58.3433C226.917 57.9245 227.319 57.5232 227.833 57.3225C228.348 57.1219 228.985 57.1655 229.369 57.5756C229.997 57.5843 230.503 58.0903 231.114 58.2299C231.297 58.2735 231.498 58.291 231.681 58.352C231.916 58.4393 232.108 58.6312 232.222 58.9104C232.614 58.7359 233.085 58.9976 233.295 59.3728C233.496 59.748 233.496 60.2016 233.452 60.6291C233.408 61.0566 233.338 61.4841 233.4 61.9029C233.33 62.1995 233.225 62.4874 233.077 62.7492C232.955 62.976 232.78 63.2028 232.536 63.2988C232.292 63.3948 231.96 63.2988 231.882 63.0458C231.471 63.2203 230.931 62.9324 230.852 62.4874C230.329 62.723 229.639 62.4962 229.36 61.9814C228.889 62.0687 228.427 61.7284 228.217 61.3009C228.008 60.8734 228.008 60.3761 228.025 59.8963C228.043 59.4164 228.078 58.9278 227.955 58.4829C227.589 58.5876 227.196 58.5614 226.56 58.3433Z" fill="#FFAD92"/>
<path d="M229.317 62.0336C229.309 62.0336 229.309 62.0336 229.3 62.0336C229.23 62.0249 229.178 61.9551 229.186 61.8853C229.335 60.8209 229.352 59.7478 229.221 58.6834C229.213 58.6137 229.265 58.5439 229.335 58.5351C229.405 58.5264 229.474 58.5788 229.483 58.6485C229.614 59.7391 229.597 60.8384 229.448 61.9202C229.44 61.99 229.387 62.0336 229.317 62.0336Z" fill="#EB7154"/>
<path d="M230.687 62.5835H230.678C230.608 62.5748 230.556 62.5137 230.556 62.4439L230.8 59.2769C230.809 59.2071 230.87 59.1548 230.94 59.1548C231.009 59.1635 231.062 59.2246 231.062 59.2944L230.817 62.4614C230.809 62.5312 230.756 62.5835 230.687 62.5835Z" fill="#EB7154"/>
<path d="M232.048 63.0283C232.04 63.0283 232.031 63.0283 232.022 63.0283C231.952 63.0195 231.9 62.9497 231.917 62.8799C232.092 61.8766 232.162 60.8471 232.127 59.8351C232.127 59.7653 232.179 59.7042 232.258 59.7042C232.327 59.7042 232.389 59.7566 232.389 59.8351C232.423 60.8733 232.345 61.9115 232.17 62.9323C232.162 62.9759 232.109 63.0283 232.048 63.0283Z" fill="#EB7154"/>
<path d="M50.9424 46.2432V24.1354C50.9424 21.8496 52.792 20 55.0778 20H77.1769C79.4627 20 81.3123 21.8496 81.3123 24.1354V46.2345C81.3123 48.5203 79.4627 50.3699 77.1769 50.3699H55.0778C52.792 50.3786 50.9424 48.5203 50.9424 46.2432Z" fill="#00ABFE"/>
<path d="M64.3692 44.0446C63.8283 44.0446 63.3136 43.7829 62.9995 43.3379L57.2937 35.294C56.7528 34.5349 56.936 33.488 57.695 32.9558C58.454 32.4149 59.501 32.5981 60.0332 33.3571L64.2994 39.377L72.1864 27.1104C72.6837 26.3339 73.7219 26.1071 74.5071 26.6044C75.2835 27.1017 75.5104 28.1399 75.0131 28.9251L65.7826 43.2856C65.4772 43.7567 64.9625 44.0446 64.4128 44.0533C64.3954 44.0446 64.3867 44.0446 64.3692 44.0446Z" fill="white"/>
<path d="M0 103.353V83.2695C0 80.4253 2.30326 78.1221 5.14744 78.1221H25.2312C28.0754 78.1221 30.3786 80.4253 30.3786 83.2695V103.353C30.3786 106.197 28.0754 108.501 25.2312 108.501H5.14744C2.31199 108.501 0 106.197 0 103.353Z" fill="#7AD001"/>
<path d="M27.1065 85.5729H9.07294C8.82866 85.5729 8.63672 85.3809 8.63672 85.1367C8.63672 84.8924 8.82866 84.7004 9.07294 84.7004H27.1065C27.3507 84.7004 27.5427 84.8924 27.5427 85.1367C27.5427 85.3809 27.342 85.5729 27.1065 85.5729Z" fill="#017326"/>
<path d="M27.1065 93.7477H9.07294C8.82866 93.7477 8.63672 93.5558 8.63672 93.3115C8.63672 93.0672 8.82866 92.8752 9.07294 92.8752H27.1065C27.3507 92.8752 27.5427 93.0672 27.5427 93.3115C27.5427 93.5558 27.342 93.7477 27.1065 93.7477Z" fill="#017326"/>
<path d="M27.1065 101.922H9.07294C8.82866 101.922 8.63672 101.73 8.63672 101.486C8.63672 101.242 8.82866 101.05 9.07294 101.05H27.1065C27.3507 101.05 27.5427 101.242 27.5427 101.486C27.5427 101.73 27.342 101.922 27.1065 101.922Z" fill="#017326"/>
<path d="M4.50249 87.6929C4.31928 87.6929 4.14479 87.6057 4.0401 87.4574L2.12944 84.7615C1.94622 84.5085 2.00729 84.1595 2.2603 83.9763C2.51331 83.7931 2.86229 83.8542 3.04551 84.1072L4.47632 86.1225L7.11984 82.0046C7.2856 81.7429 7.63458 81.6643 7.89632 81.8388C8.15805 82.0046 8.23657 82.3536 8.06208 82.6153L4.96489 87.4312C4.8602 87.5883 4.69443 87.6842 4.50249 87.6929C4.50249 87.6929 4.51122 87.6929 4.50249 87.6929Z" fill="white"/>
<path d="M4.50249 95.8066C4.31928 95.8066 4.14479 95.7194 4.0401 95.571L2.12944 92.8752C1.94622 92.6222 2.00729 92.2732 2.2603 92.09C2.51331 91.9068 2.86229 91.9678 3.04551 92.2208L4.47632 94.2362L7.11984 90.1182C7.2856 89.8565 7.63458 89.778 7.89632 89.9525C8.15805 90.1182 8.23657 90.4672 8.06208 90.729L4.96489 95.5449C4.8602 95.7019 4.69443 95.7979 4.50249 95.8066C4.50249 95.8066 4.51122 95.8066 4.50249 95.8066Z" fill="white"/>
<path d="M4.50249 103.737C4.31928 103.737 4.14479 103.65 4.0401 103.502L2.12944 100.806C1.94622 100.553 2.00729 100.204 2.2603 100.021C2.51331 99.8375 2.86229 99.8986 3.04551 100.152L4.47632 102.167L7.11984 98.049C7.2856 97.7873 7.63458 97.7088 7.89632 97.8833C8.15805 98.049 8.23657 98.398 8.06208 98.6597L4.96489 103.476C4.8602 103.633 4.69443 103.729 4.50249 103.737C4.50249 103.737 4.51122 103.737 4.50249 103.737Z" fill="white"/>
<defs>
<linearGradient id="paint0_linear_161_2578" x1="123" y1="0" x2="123" y2="196" gradientUnits="userSpaceOnUse">
<stop stop-color="#2BC3FC"/>
<stop offset="1" stop-color="#017EAC"/>
</linearGradient>
<linearGradient id="paint1_linear_161_2578" x1="69.5063" y1="91.8718" x2="69.5063" y2="125.191" gradientUnits="userSpaceOnUse">
<stop stop-color="#2BC3FC"/>
<stop offset="1" stop-color="#017EAC"/>
</linearGradient>
<linearGradient id="paint2_linear_161_2578" x1="77.4809" y1="99.4059" x2="77.4809" y2="100.335" gradientUnits="userSpaceOnUse">
<stop stop-color="#2BC3FC"/>
<stop offset="1" stop-color="#017EAC"/>
</linearGradient>
<linearGradient id="paint3_linear_161_2578" x1="81.8232" y1="90.3612" x2="81.8232" y2="98.52" gradientUnits="userSpaceOnUse">
<stop stop-color="#2BC3FC"/>
<stop offset="1" stop-color="#017EAC"/>
</linearGradient>
<linearGradient id="paint4_linear_161_2578" x1="87.189" y1="80.2936" x2="87.189" y2="89.9699" gradientUnits="userSpaceOnUse">
<stop stop-color="#2BC3FC"/>
<stop offset="1" stop-color="#017EAC"/>
</linearGradient>
<linearGradient id="paint5_linear_161_2578" x1="55.1625" y1="108.841" x2="55.1625" y2="116.353" gradientUnits="userSpaceOnUse">
<stop stop-color="#2BC3FC"/>
<stop offset="1" stop-color="#017EAC"/>
</linearGradient>
<linearGradient id="paint6_linear_161_2578" x1="58.2202" y1="103.938" x2="58.2202" y2="111.171" gradientUnits="userSpaceOnUse">
<stop stop-color="#2BC3FC"/>
<stop offset="1" stop-color="#017EAC"/>
</linearGradient>
<linearGradient id="paint7_linear_161_2578" x1="59.3746" y1="105.368" x2="59.3746" y2="107.777" gradientUnits="userSpaceOnUse">
<stop stop-color="#2BC3FC"/>
<stop offset="1" stop-color="#017EAC"/>
</linearGradient>
<linearGradient id="paint8_linear_161_2578" x1="58.2685" y1="115.662" x2="58.2685" y2="122.87" gradientUnits="userSpaceOnUse">
<stop stop-color="#2BC3FC"/>
<stop offset="1" stop-color="#017EAC"/>
</linearGradient>
<linearGradient id="paint9_linear_161_2578" x1="66.8574" y1="87.8324" x2="66.8574" y2="95.8589" gradientUnits="userSpaceOnUse">
<stop stop-color="#2BC3FC"/>
<stop offset="1" stop-color="#017EAC"/>
</linearGradient>
<linearGradient id="paint10_linear_161_2578" x1="181.231" y1="73.9688" x2="181.231" y2="134.831" gradientUnits="userSpaceOnUse">
<stop stop-color="#2BC3FC"/>
<stop offset="1" stop-color="#017EAC"/>
</linearGradient>
</defs>
</svg>
