<svg width="48" height="49" viewBox="0 0 48 49" fill="none" xmlns="http://www.w3.org/2000/svg">
<path fill-rule="evenodd" clip-rule="evenodd" d="M14.34 34.2307C15.36 34.2307 16.3 33.6507 16.74 32.7507L19.58 27.0707C19.86 26.5107 20 25.9107 20 25.2907V16.2307C20 15.1307 19.1 14.2307 18 14.2307H10C8.9 14.2307 8 15.1307 8 16.2307V24.2307C8 25.3307 8.9 26.2307 10 26.2307H14L11.94 30.3507C11.04 32.1307 12.34 34.2307 14.34 34.2307ZM34.34 34.2307C35.36 34.2307 36.3 33.6507 36.74 32.7507L39.58 27.0707C39.86 26.5107 40 25.9107 40 25.2907V16.2307C40 15.1307 39.1 14.2307 38 14.2307H30C28.9 14.2307 28 15.1307 28 16.2307V24.2307C28 25.3307 28.9 26.2307 30 26.2307H34L31.94 30.3507C31.04 32.1307 32.34 34.2307 34.34 34.2307Z" fill="url(#paint0_linear_293_2854)"/>
<defs>
<linearGradient id="paint0_linear_293_2854" x1="24" y1="14.2307" x2="24" y2="34.2307" gradientUnits="userSpaceOnUse">
<stop stop-color="#2BC3FC"/>
<stop offset="1" stop-color="#017EAC"/>
</linearGradient>
</defs>
</svg>
