<svg width="227" height="152" viewBox="0 0 227 152" fill="none" xmlns="http://www.w3.org/2000/svg">
<path opacity="0.19" d="M111.529 143.315C147.224 143.315 176.161 114.326 176.161 78.5665C176.161 42.8071 147.224 13.8184 111.529 13.8184C75.8336 13.8184 46.8969 42.8071 46.8969 78.5665C46.8969 114.326 75.8336 143.315 111.529 143.315Z" fill="url(#paint0_linear_1_360)"/>
<path d="M189.075 57.1417V98.1623C189.075 99.7505 187.794 101.037 186.213 101.037H122.575C120.994 101.037 119.713 99.7505 119.713 98.1623V57.1417C119.713 55.5535 120.994 54.2674 122.575 54.2674H186.213C187.794 54.2674 189.075 55.5535 189.075 57.1417Z" fill="#CEDCED"/>
<path d="M168.577 75.5232C168.877 74.0714 168.373 72.5904 167.985 71.1581C167.383 68.9414 167.044 66.6516 166.981 64.357C166.937 62.725 167.024 61.0686 166.636 59.4804C166.248 57.8922 165.278 56.3381 163.76 55.7681C163.445 55.1445 163.246 54.6329 163.052 54.1214C162.79 53.4393 162.528 52.7475 162.096 52.1629C161.097 50.7988 159.346 50.185 157.663 50.0778C154.457 49.8683 151.004 51.4857 149.742 54.4575C148.549 54.7011 147.749 55.8509 147.647 57.0786C147.545 58.3063 148.137 59.5729 149.189 60.2891C149.097 65.3363 149.146 70.3883 149.199 75.5719C153.642 76.6486 158.216 77.1552 162.785 77.0773C164.575 77.0334 166.491 76.8678 168.577 75.5232Z" fill="#3B2C26"/>
<path d="M150.358 71.8448C148.393 72.902 147.229 75.0017 146.409 77.082C145.594 79.1623 144.998 81.374 143.64 83.123C142.403 80.463 141.292 77.7397 140.274 74.9482C139.148 75.8933 138.067 76.892 137.004 78.1441C137.213 81.4423 137.766 84.7161 138.654 87.9023C138.945 88.9448 139.274 89.9971 139.881 90.8887C140.487 91.7851 141.413 92.5158 142.481 92.6523C143.62 92.8033 144.741 92.2723 145.706 91.6389C148.306 89.9289 150.329 87.3517 151.284 84.4823C152.128 80.3169 151.861 75.9323 150.358 71.8448Z" fill="#00103C"/>
<path d="M144.684 85.8166C144.654 85.8166 144.63 85.802 144.621 85.7776C144.223 84.9543 143.874 84.0969 143.587 83.2297C143.573 83.1907 143.597 83.1517 143.636 83.1371C143.675 83.1225 143.714 83.1469 143.728 83.1858C144.009 84.0482 144.359 84.9007 144.752 85.7143C144.771 85.7484 144.756 85.7923 144.718 85.8117C144.708 85.8117 144.698 85.8166 144.684 85.8166Z" fill="#002BA2"/>
<path d="M146.444 80.5603C146.42 80.5603 146.395 80.5506 146.386 80.5262C146.362 80.4921 146.371 80.4483 146.405 80.4239C147.084 79.966 147.739 79.4544 148.35 78.9088C148.379 78.8796 148.428 78.8844 148.452 78.9137C148.476 78.9429 148.476 78.9916 148.447 79.016C147.831 79.5665 147.172 80.0829 146.488 80.5457C146.473 80.5555 146.459 80.5603 146.444 80.5603Z" fill="#002BA2"/>
<path d="M140.085 75.5376C139.891 74.5145 139.697 73.4866 139.469 72.4489C139.591 71.9081 139.707 71.3722 139.828 70.8314C139.906 70.4904 139.979 70.1348 139.882 69.8035C139.794 69.4966 139.566 69.2432 139.324 69.0337C139.052 68.7901 138.752 68.5807 138.354 68.4491C137.883 67.4455 137.35 66.476 136.758 65.5358C136.622 65.3263 136.486 65.1119 136.317 64.9317C136.176 64.7807 135.972 64.6394 135.778 64.7076C135.638 64.7563 135.55 64.8976 135.526 65.0437C135.502 65.1899 135.531 65.336 135.56 65.4822C135.647 65.8914 135.754 66.2958 135.832 66.7196C135.337 67.3481 134.847 67.9766 134.352 68.6001C134.207 68.7853 134.052 68.985 134.008 69.2189C133.945 69.5453 134.1 69.8717 134.26 70.164C134.798 71.1335 135.463 72.025 136.215 72.7948C136.365 72.9848 136.52 73.1748 136.71 73.4476C136.816 75.2209 137.02 76.9894 137.457 78.5776C138.073 78.1537 138.635 77.6471 139.149 77.0966C139.591 76.6289 140.192 76.093 140.085 75.5376Z" fill="#FFAD92"/>
<path d="M137.311 72.3077C137.272 72.3077 137.243 72.2784 137.238 72.2443C137.151 71.4502 137.408 70.6318 137.927 70.0325C137.66 69.9107 137.403 69.7841 137.189 69.5892C136.928 69.3505 136.772 69.0387 136.772 68.7366C136.772 68.6051 136.801 68.4979 136.86 68.42C136.995 68.2446 137.233 68.2397 137.427 68.2543C137.757 68.2787 138.087 68.3274 138.407 68.4005C138.446 68.4102 138.47 68.4492 138.46 68.4882C138.451 68.5272 138.412 68.5515 138.373 68.5418C138.058 68.4736 137.733 68.4248 137.413 68.4005C137.252 68.3859 137.063 68.3907 136.971 68.5077C136.932 68.5613 136.913 68.6343 136.913 68.7366C136.918 68.9997 137.054 69.2725 137.286 69.482C137.505 69.6818 137.786 69.8133 138.077 69.94C138.096 69.9497 138.116 69.9692 138.121 69.9936C138.126 70.0179 138.121 70.0423 138.101 70.0569C137.563 70.6318 137.296 71.4454 137.383 72.2297C137.388 72.2687 137.359 72.3077 137.32 72.3125C137.316 72.3077 137.311 72.3077 137.311 72.3077Z" fill="#EB7154"/>
<path d="M135.381 70.778C135.376 70.778 135.366 70.778 135.361 70.778C135.162 70.7682 134.997 70.6416 134.891 70.549C134.862 70.5246 134.828 70.4954 134.799 70.4662C134.711 70.3834 134.624 70.3054 134.527 70.2518C134.493 70.2323 134.478 70.1885 134.498 70.1544C134.517 70.1203 134.561 70.1057 134.595 70.1252C134.711 70.1885 134.808 70.2762 134.9 70.359C134.93 70.3834 134.959 70.4126 134.988 70.4369C135.133 70.5636 135.255 70.6269 135.371 70.6318C135.507 70.6367 135.647 70.5393 135.672 70.4516C135.681 70.4175 135.711 70.398 135.744 70.398C136.123 70.4272 136.506 70.1446 136.593 69.7744C136.603 69.7403 136.637 69.7159 136.671 69.7208C136.845 69.7403 137.025 69.6477 137.117 69.5016C137.137 69.4675 137.185 69.4577 137.219 69.4772C137.253 69.4967 137.263 69.5454 137.243 69.5795C137.132 69.7598 136.928 69.8718 136.719 69.8718C136.598 70.2616 136.2 70.5539 135.788 70.549C135.72 70.6805 135.546 70.778 135.381 70.778Z" fill="#EB7154"/>
<path d="M135.739 70.471C135.72 70.471 135.7 70.4661 135.686 70.4515C135.239 69.9984 134.827 69.5015 134.463 68.9802C134.439 68.9461 134.449 68.9023 134.483 68.8779C134.517 68.8535 134.56 68.8633 134.585 68.8974C134.944 69.4138 135.351 69.901 135.792 70.3492C135.822 70.3784 135.822 70.4223 135.792 70.4515C135.773 70.4661 135.758 70.471 135.739 70.471Z" fill="#EB7154"/>
<path d="M136.718 69.8375C136.699 69.8375 136.675 69.8278 136.66 69.8132C136.199 69.2627 135.763 68.6829 135.355 68.0886C135.331 68.0545 135.341 68.0106 135.375 67.9863C135.409 67.9619 135.452 67.9716 135.477 68.0058C135.879 68.5952 136.316 69.1701 136.772 69.7206C136.796 69.7499 136.791 69.7986 136.762 69.8229C136.752 69.8327 136.733 69.8375 136.718 69.8375Z" fill="#EB7154"/>
<path d="M136.97 68.1907C136.946 68.1907 136.922 68.1761 136.907 68.1566C136.611 67.6451 136.238 67.1774 135.806 66.773C135.777 66.7438 135.777 66.7 135.801 66.6707C135.831 66.6415 135.874 66.6415 135.903 66.6658C136.345 67.08 136.723 67.5574 137.029 68.0835C137.048 68.1176 137.038 68.1615 137.004 68.1858C136.995 68.1858 136.985 68.1907 136.97 68.1907Z" fill="#EB7154"/>
<path d="M136.549 80.2825C136.675 79.2886 136.729 78.285 136.705 77.2863C137.912 76.2048 139.173 75.1866 140.435 74.334C140.687 74.5922 140.866 74.9235 141.002 75.3863C139.547 76.9161 138.092 78.4409 136.549 80.2825Z" fill="#002BA2"/>
<path d="M167.679 93.0518C167.641 95.7508 168.198 98.4107 168.863 101.037H149.141C150.208 97.1441 150.79 93.2369 151.11 89.3102C150.848 88.5454 150.533 87.7854 150.227 87.0156C149.611 85.4713 149.02 83.9074 148.923 82.2461C148.889 81.6469 148.918 81.0574 148.995 80.4679C149.16 79.2402 149.534 78.032 149.966 76.8482C150.092 76.5072 150.218 76.1661 150.349 75.8251C150.402 75.6887 150.455 75.5572 150.504 75.4208C150.358 74.3538 150.32 73.1505 150.349 71.9472C150.349 71.9131 150.349 71.879 150.349 71.8449C152.173 70.7682 154.113 69.7938 156.116 68.8828C156.252 68.8195 156.388 68.761 156.528 68.6977C158.619 68.5613 160.724 68.6587 162.81 68.9802C164.464 69.2336 166.108 69.6331 167.723 70.1738C167.83 70.2079 167.936 70.2469 168.043 70.281C168.063 70.3882 168.082 70.4954 168.101 70.6025C168.548 73.1115 169.125 75.5913 169.93 77.8274C169.605 79.5813 169.299 81.3351 169.004 83.0938C168.717 84.7892 168.441 86.4895 168.179 88.1897C167.941 89.8023 167.704 91.4246 167.679 93.0518Z" fill="#00103C"/>
<path d="M151.178 89.2371C151.144 89.2371 151.115 89.2176 151.11 89.1835C150.863 88.2579 150.523 87.3322 150.193 86.4407C149.529 84.6479 148.845 82.7917 148.903 80.8527C148.966 78.943 149.766 77.0966 150.475 75.4694C150.489 75.4304 150.533 75.4158 150.572 75.4304C150.61 75.4451 150.625 75.4889 150.61 75.5279C149.907 77.1404 149.112 78.9722 149.049 80.8576C148.985 82.7625 149.669 84.6089 150.329 86.3871C150.659 87.2835 151.003 88.214 151.251 89.1445C151.26 89.1835 151.236 89.2225 151.197 89.2322C151.192 89.2371 151.183 89.2371 151.178 89.2371Z" fill="#002BA2"/>
<path d="M159.991 87.4639C159.972 87.4639 159.952 87.459 159.938 87.4444C158.691 86.1923 157.804 84.5505 157.435 82.821C157.425 82.7821 157.45 82.7431 157.493 82.7333C157.532 82.7236 157.571 82.748 157.581 82.7918C157.944 84.4969 158.817 86.1144 160.045 87.3469C160.074 87.3762 160.074 87.42 160.045 87.4492C160.03 87.459 160.011 87.4639 159.991 87.4639Z" fill="#002BA2"/>
<path d="M176.604 96.3498C176.323 97.8113 176.148 99.5846 175.969 101.036H171.254C171.298 97.2121 171.569 93.2075 171.7 89.4903C170.847 87.2395 170.013 85.0082 169.144 82.8013C168.747 81.7928 168.344 80.7893 167.922 79.7905C167.641 78.5482 167.485 77.2426 167.456 75.9126C167.413 74.1051 167.597 72.2587 168.014 70.461C168.029 70.4026 168.043 70.3441 168.058 70.2857C168.121 70.2954 168.184 70.3003 168.252 70.31C169.62 70.5341 170.73 71.4744 171.521 72.59C172.35 73.7544 172.874 75.1039 173.393 76.4387C174.087 78.2267 174.78 80.0146 175.532 81.6808C176.003 84.4675 177.424 87.069 177.565 89.8898C177.676 92.0723 177.021 94.211 176.604 96.3498Z" fill="#00103C"/>
<path d="M172.113 89.4417C172.093 89.4417 172.074 89.4319 172.059 89.4173C172.03 89.3881 172.03 89.3442 172.059 89.315L173.495 87.8535C173.505 87.8437 173.544 87.8047 173.587 87.8194C173.612 87.8242 173.631 87.8486 173.641 87.8729C173.65 87.9168 173.655 87.9314 173.374 88.2237C173.122 88.4868 172.714 88.8863 172.156 89.4173C172.147 89.4368 172.132 89.4417 172.113 89.4417Z" fill="#002BA2"/>
<path d="M172.205 89.3883C172.176 89.3883 172.147 89.3688 172.137 89.3396C172.122 89.3006 172.147 89.2616 172.181 89.247C172.603 89.1057 173.02 88.9742 173.451 88.9352C173.801 88.906 174.305 88.9255 174.737 89.2081C174.771 89.2275 174.78 89.2763 174.761 89.3104C174.742 89.3445 174.693 89.3542 174.659 89.3347C174.257 89.0765 173.786 89.057 173.461 89.0863C173.049 89.1204 172.641 89.2519 172.224 89.3932C172.219 89.3883 172.21 89.3883 172.205 89.3883Z" fill="#002BA2"/>
<path d="M173.612 80.0536C173.602 80.0536 173.588 80.0487 173.578 80.0438C172.666 79.5859 171.89 78.8892 171.337 78.0318C171.318 77.9977 171.327 77.9538 171.356 77.9295C171.39 77.91 171.434 77.9197 171.458 77.949C171.997 78.7869 172.753 79.4641 173.641 79.9123C173.675 79.9318 173.689 79.9756 173.675 80.0097C173.66 80.039 173.636 80.0536 173.612 80.0536Z" fill="#002BA2"/>
<path d="M153.948 56.5423C154.195 56.7518 154.443 56.9662 154.729 57.1074C155.442 57.4631 156.368 57.3315 156.96 56.7908C157.237 57.278 157.625 57.6969 158.105 57.9259C158.585 58.1549 159.157 58.1987 159.667 58.038C159.696 58.9003 159.773 59.67 160.278 60.1621C160.511 60.391 160.816 60.5323 161.112 60.6687C161.258 60.1815 161.699 59.7723 162.218 59.6505C162.538 59.5774 162.907 59.6213 163.13 59.8551C163.251 59.9818 163.319 60.1523 163.368 60.3228C163.547 60.9951 163.382 61.7308 163.018 62.3203C162.655 62.9097 162.102 63.3677 161.505 63.7136C161.5 64.5905 160.768 65.1362 160.094 65.5405C159.322 66.0033 158.522 66.4467 157.659 66.7C156.795 66.9533 155.849 67.0069 155.001 66.7049C153.579 66.1933 152.682 64.7951 152.032 63.4262C151.338 61.9549 150.8 60.4056 150.499 58.7638C151.891 58.7638 153.245 57.9308 153.948 56.5423Z" fill="#FFAD92"/>
<path d="M157.939 78.0367C159.433 75.1137 161.713 72.098 162.828 69.0142C162.445 67.197 161.994 65.3895 161.461 63.5626C160.054 64.2544 158.642 64.9462 157.236 65.638C156.988 65.7598 156.736 65.8816 156.431 65.9595C156.275 67.0654 156.159 68.1762 156.111 69.2772C156.935 72.2003 156.857 75.1088 157.939 78.0367Z" fill="#FFAD92"/>
<path d="M156.149 66.9775C155.96 66.9775 155.771 66.9629 155.577 66.9337C155.538 66.9288 155.509 66.8898 155.514 66.8508C155.519 66.8119 155.558 66.7826 155.596 66.7875C156.872 66.9775 158.128 66.4514 159.079 65.969C159.467 65.7742 159.913 65.5306 160.301 65.2139C160.801 64.8047 161.194 64.2737 161.446 63.6744C161.461 63.6355 161.504 63.6208 161.543 63.6355C161.582 63.6501 161.596 63.6939 161.582 63.7329C161.325 64.3516 160.912 64.9021 160.393 65.326C159.996 65.6524 159.54 65.9008 159.142 66.1006C158.318 66.5244 157.26 66.9775 156.149 66.9775Z" fill="#EB7154"/>
<path d="M155.636 64.581C155.529 64.581 155.427 64.5761 155.32 64.5713C155.282 64.5664 155.253 64.5323 155.253 64.4933C155.257 64.4543 155.291 64.4251 155.33 64.4251C156.305 64.4933 157.295 64.2302 158.109 63.6846C158.143 63.6602 158.187 63.67 158.211 63.7041C158.236 63.7382 158.226 63.782 158.192 63.8064C157.435 64.3082 156.538 64.581 155.636 64.581Z" fill="#EB7154"/>
<path d="M157.494 62.1986C156.577 62.1986 155.83 61.4483 155.83 60.5275C155.83 59.6068 156.577 58.8565 157.494 58.8565C158.41 58.8565 159.157 59.6068 159.157 60.5275C159.157 61.4483 158.41 62.1986 157.494 62.1986ZM157.494 59.105C156.713 59.105 156.073 59.7432 156.073 60.5324C156.073 61.3216 156.708 61.9598 157.494 61.9598C158.275 61.9598 158.915 61.3216 158.915 60.5324C158.915 59.7432 158.28 59.105 157.494 59.105Z" fill="#3B2C26"/>
<path d="M153.099 62.7054C152.183 62.7054 151.436 61.9551 151.436 61.0344C151.436 60.1136 152.183 59.3633 153.099 59.3633C154.016 59.3633 154.763 60.1136 154.763 61.0344C154.763 61.9551 154.016 62.7054 153.099 62.7054ZM153.099 59.6118C152.318 59.6118 151.678 60.25 151.678 61.0392C151.678 61.8285 152.314 62.4667 153.099 62.4667C153.88 62.4667 154.521 61.8285 154.521 61.0392C154.521 60.25 153.88 59.6118 153.099 59.6118Z" fill="#3B2C26"/>
<path d="M158.871 59.9573C158.818 59.9573 158.769 59.9232 158.755 59.8697C158.735 59.8063 158.774 59.7381 158.837 59.7186C159.914 59.4117 161.073 59.3338 162.179 59.4994C162.247 59.5091 162.291 59.5725 162.281 59.6358C162.271 59.704 162.208 59.7479 162.145 59.7381C161.069 59.5822 159.948 59.6553 158.905 59.9525C158.891 59.9573 158.881 59.9573 158.871 59.9573Z" fill="#3B2C26"/>
<path d="M154.544 60.6834C154.524 60.6834 154.505 60.6785 154.49 60.6688C154.432 60.6395 154.408 60.5665 154.437 60.5031C154.573 60.2254 154.849 60.0208 155.155 59.9672C155.46 59.9136 155.785 60.016 156.008 60.2303C156.057 60.279 156.057 60.3521 156.013 60.4008C155.965 60.4495 155.892 60.4495 155.843 60.4057C155.674 60.2449 155.431 60.167 155.198 60.206C154.97 60.2449 154.762 60.4008 154.66 60.6103C154.631 60.659 154.587 60.6834 154.544 60.6834Z" fill="#3B2C26"/>
<path d="M150.829 60.966C150.771 60.966 150.718 60.9222 150.708 60.8588C150.698 60.7906 150.747 60.7322 150.815 60.7224C151.067 60.6932 151.319 60.6299 151.557 60.547C151.62 60.5227 151.688 60.5568 151.712 60.6201C151.736 60.6834 151.702 60.7517 151.639 60.776C151.382 60.8686 151.115 60.9319 150.844 60.966C150.839 60.966 150.834 60.966 150.829 60.966Z" fill="#3B2C26"/>
<path d="M158.973 70.9189C158.803 70.9189 158.633 70.9091 158.468 70.8945C157.265 70.7678 156.237 70.1832 155.49 69.2089C155.451 69.1553 155.461 69.0773 155.514 69.0384C155.568 68.9994 155.645 69.0091 155.684 69.0627C156.387 69.9835 157.362 70.534 158.497 70.6509C160.025 70.8117 161.781 70.1832 163.202 68.9653C163.251 68.9214 163.328 68.9263 163.372 68.9799C163.416 69.0286 163.411 69.1066 163.357 69.1504C162.043 70.2758 160.437 70.9189 158.973 70.9189Z" fill="#C87AED"/>
<path d="M159.332 70.4465C159.172 70.4027 158.987 70.5001 158.939 70.6609C158.89 70.8168 158.982 71.0068 159.138 71.0652C159.293 71.1188 159.482 71.036 159.545 70.8801C159.603 70.7242 159.535 70.505 159.332 70.4465Z" fill="#C87AED"/>
<path d="M160.912 70.042C160.747 70.0469 160.607 70.1979 160.607 70.3636C160.612 70.5292 160.757 70.6754 160.922 70.6754C161.087 70.6754 161.232 70.5292 161.237 70.3636C161.237 70.1979 161.092 70.0469 160.912 70.042Z" fill="#C87AED"/>
<path d="M157.722 70.2269C157.595 70.2659 157.435 70.2318 157.348 70.3341C157.319 70.3682 157.309 70.4071 157.3 70.451C157.28 70.6069 157.382 70.7725 157.532 70.8212C157.683 70.8651 157.862 70.7823 157.92 70.6361C157.979 70.4802 157.891 70.2951 157.722 70.2269Z" fill="#C87AED"/>
<path d="M185.349 57.7996C185.32 57.7996 185.286 57.7899 185.261 57.7655C185.213 57.7168 185.213 57.6388 185.261 57.595L186.6 56.2504C186.649 56.2017 186.726 56.2017 186.77 56.2504C186.818 56.2991 186.818 56.377 186.77 56.4209L185.431 57.7655C185.412 57.7899 185.378 57.7996 185.349 57.7996Z" fill="#939393"/>
<path d="M186.687 57.7996C186.658 57.7996 186.624 57.7899 186.6 57.7655L185.261 56.4209C185.213 56.3722 185.213 56.2942 185.261 56.2504C185.31 56.2017 185.388 56.2017 185.431 56.2504L186.77 57.595C186.818 57.6437 186.818 57.7217 186.77 57.7655C186.746 57.7899 186.717 57.7996 186.687 57.7996Z" fill="#939393"/>
<path d="M121.736 57.1273C121.707 57.1273 121.673 57.1175 121.648 57.0932C121.6 57.0445 121.6 56.9665 121.648 56.9227L122.318 56.2504C122.366 56.2016 122.444 56.2016 122.488 56.2504C122.536 56.2991 122.536 56.377 122.488 56.4209L121.818 57.0932C121.794 57.1175 121.765 57.1273 121.736 57.1273Z" fill="#939393"/>
<path d="M122.4 57.7996C122.371 57.7996 122.337 57.7898 122.312 57.7654L121.643 57.0931C121.595 57.0444 121.595 56.9665 121.643 56.9226C121.692 56.8739 121.769 56.8739 121.813 56.9226L122.482 57.5949C122.531 57.6437 122.531 57.7216 122.482 57.7654C122.463 57.7898 122.434 57.7996 122.4 57.7996Z" fill="#939393"/>
<path d="M142.021 56.1622H124.074V57.3411H142.021V56.1622Z" fill="#BABABA"/>
<path d="M90.4307 115.842C92.3806 118.575 94.5439 121.459 97.7209 122.526C100.946 123.608 104.453 122.565 107.689 121.528C113.349 118.327 119.131 115.068 124.917 111.813C126.285 112.943 128.123 113.241 129.646 112.637C130.844 113.031 132.047 113.284 133.09 112.827C133.789 112.52 134.332 111.925 134.759 111.292C135.186 110.654 135.52 109.957 135.947 109.324C137.053 109.762 138.275 110.05 139.512 110.206C139.992 110.264 140.642 110.191 140.735 109.713C138.11 108.159 135.438 106.683 132.722 105.3C132.241 105.056 131.742 104.808 131.203 104.803C130.811 104.798 130.427 104.924 130.054 105.051C128.623 105.538 127.197 106.045 125.781 106.581C117.21 108.111 108.557 110.308 100.156 113.236C100.093 112.895 100.044 112.578 100.132 112.062C96.9739 113.528 93.7145 114.79 90.4307 115.842Z" fill="#FFAD92"/>
<path d="M97.8762 115.223C97.8568 115.223 97.8326 115.213 97.818 115.199C97.7938 115.169 97.7986 115.121 97.8277 115.096L100.151 113.167C100.18 113.143 100.229 113.148 100.253 113.177C100.277 113.206 100.272 113.255 100.243 113.279L97.9199 115.208C97.9102 115.213 97.8908 115.223 97.8762 115.223Z" fill="#EB7154"/>
<path d="M135.942 109.353C135.933 109.353 135.928 109.353 135.918 109.348C134.468 108.846 132.974 108.422 131.48 108.081C131.441 108.071 131.417 108.032 131.427 107.994C131.436 107.955 131.475 107.93 131.514 107.94C133.013 108.281 134.512 108.71 135.967 109.211C136.005 109.226 136.025 109.265 136.01 109.304C136.001 109.338 135.972 109.353 135.942 109.353Z" fill="#EB7154"/>
<path d="M130.797 111.74C129.929 111.74 129.06 111.642 128.221 111.447C128.182 111.438 128.158 111.399 128.168 111.36C128.178 111.321 128.216 111.296 128.255 111.306C129.701 111.642 131.243 111.686 132.703 111.433C132.999 111.379 133.363 111.262 133.406 110.975C133.431 110.819 133.353 110.643 133.174 110.453C132.79 110.049 132.276 109.786 131.777 109.533C131.306 109.294 130.821 109.046 130.433 108.675C130.404 108.646 130.404 108.602 130.428 108.573C130.457 108.544 130.501 108.544 130.53 108.568C130.904 108.924 131.379 109.162 131.84 109.401C132.349 109.659 132.878 109.927 133.28 110.351C133.494 110.575 133.586 110.795 133.552 110.994C133.503 111.287 133.217 111.486 132.727 111.569C132.092 111.686 131.447 111.74 130.797 111.74Z" fill="#EB7154"/>
<path d="M128.085 112.398C128.056 112.398 128.027 112.378 128.017 112.344C128.007 112.305 128.027 112.266 128.066 112.252C128.609 112.091 129.113 111.837 129.564 111.496C129.598 111.472 129.642 111.477 129.666 111.511C129.69 111.545 129.686 111.589 129.652 111.613C129.186 111.964 128.667 112.222 128.109 112.393C128.099 112.398 128.095 112.398 128.085 112.398Z" fill="#EB7154"/>
<path d="M85.9732 116.461C86.1769 118.59 86.3564 120.777 86.5261 122.984H46.2288C45.7922 121.708 45.2732 120.582 44.7251 119.467C44.3565 118.717 43.9733 117.961 43.4204 117.328C42.8674 116.7 42.1253 116.203 41.2959 116.105C40.6265 114.644 40.8933 113.367 41.1698 112.227C41.6936 110.089 42.2175 107.95 42.7413 105.816C42.9838 104.822 43.2312 103.823 43.3428 102.805C43.4107 102.211 43.4349 101.602 43.6386 101.042C43.8472 100.481 44.2837 99.9601 44.8706 99.8529C45.1714 98.7568 45.5497 97.8019 45.9862 96.8763C47.2231 93.2711 48.7413 89.6611 51.7777 87.6296C52.7768 86.967 53.8924 86.5042 54.9983 86.0511C57.7631 84.916 60.5472 83.776 63.4623 83.1232C63.7291 82.826 64.0783 82.5922 64.4809 82.4411C65.3103 82.1196 66.3532 82.1293 67.333 82.5288C70.7574 83.2401 74.1915 83.3181 77.7663 84.0683C78.1931 84.156 78.5908 83.8442 79.0177 83.7565C79.4299 83.6688 79.8568 83.8004 80.2594 83.9319C80.3806 83.9709 80.497 84.0147 80.6183 84.0537C84.0184 85.2278 87.2682 86.8306 90.2706 88.8232C93.079 91.6196 94.9998 95.0688 95.8486 98.7665C96.7072 99.2001 97.1825 99.6775 97.3038 100.296C97.3911 100.754 97.265 101.227 97.2213 101.694C97.1583 102.391 97.2747 103.093 97.3959 103.78C97.8616 106.479 98.3321 109.173 98.7977 111.872C96.649 112.904 94.6942 114.103 92.5989 115.009C90.5083 115.905 88.2529 116.514 85.9732 116.461Z" fill="url(#paint1_linear_1_360)"/>
<path d="M87.9037 116.305C91.493 114.317 95.126 112.412 98.7977 110.585C99.21 110.381 99.8212 110.235 100.035 110.644C100.17 110.912 100.025 111.263 100.175 111.521C100.326 111.789 100.748 111.881 100.791 112.183C100.83 112.446 100.563 112.641 100.326 112.763C96.5665 114.765 92.6668 116.49 88.6361 117.859C88.4615 117.328 88.2432 116.802 87.9037 116.305Z" fill="#5CD1FF"/>
<path d="M54.1748 112.685C54.1651 112.685 54.1506 112.68 54.1409 112.675C54.1069 112.656 54.0924 112.612 54.1069 112.578C55.7561 109.318 57.4731 106.04 59.1999 102.824C59.2193 102.79 59.2629 102.776 59.2969 102.795C59.3308 102.814 59.3454 102.858 59.326 102.892C57.5944 106.108 55.8822 109.387 54.233 112.646C54.2282 112.67 54.2039 112.685 54.1748 112.685Z" fill="#0080E1"/>
<path d="M57.798 105.733C57.7738 105.733 57.7495 105.719 57.735 105.699C57.7156 105.665 57.7253 105.621 57.7592 105.597L60.0729 104.155C60.1068 104.135 60.1505 104.145 60.1747 104.179C60.1941 104.213 60.1844 104.257 60.1505 104.281L57.8368 105.723C57.8223 105.728 57.8077 105.733 57.798 105.733Z" fill="#0080E1"/>
<path d="M44.9435 101.338C44.9144 101.338 44.8853 101.319 44.8756 101.285C44.8659 101.246 44.8853 101.207 44.9241 101.192L46.7284 100.651C47.2426 100.495 47.7713 100.34 48.2757 100.135C49.8764 99.4773 51.2248 98.3421 52.5247 97.246C52.5538 97.2216 52.6023 97.2265 52.6266 97.2557C52.6508 97.285 52.646 97.3337 52.6169 97.358C51.3072 98.4639 49.9491 99.6039 48.3291 100.266C47.8198 100.476 47.2862 100.637 46.7721 100.788L44.9677 101.329C44.958 101.338 44.9483 101.338 44.9435 101.338Z" fill="#0080E1"/>
<path d="M95.1367 99.9498C95.127 99.9498 95.1173 99.9498 95.1076 99.9449C93.1723 99.1167 91.528 97.5529 90.5919 95.6578C90.5725 95.6237 90.587 95.5798 90.6258 95.5603C90.6598 95.5408 90.7034 95.5554 90.7228 95.5944C91.6396 97.4603 93.2596 98.9949 95.1658 99.8085C95.2046 99.8231 95.2192 99.867 95.2046 99.906C95.1949 99.9352 95.1658 99.9498 95.1367 99.9498Z" fill="#0080E1"/>
<path d="M85.9396 116.592C85.8959 116.592 85.8668 116.558 85.8668 116.519L86.1578 96.9397C86.1578 96.9007 86.1918 96.8666 86.2306 96.8666C86.2694 96.8666 86.3034 96.9007 86.3034 96.9397L86.0123 116.519C86.0123 116.558 85.9784 116.592 85.9396 116.592Z" fill="#0080E1"/>
<path d="M80.6239 84.0485C80.1631 85.3346 79.3386 86.8985 78.2715 87.751C77.151 88.6523 75.8511 89.6169 74.493 90.2503C70.3847 89.6072 65.5488 86.8595 63.468 83.118C64.5351 81.8513 66.3588 82.1192 67.3386 82.5187C70.763 83.23 74.1971 83.308 77.7719 84.0582C78.1987 84.1459 78.5964 83.8341 79.0233 83.7464C79.4356 83.6587 79.8624 83.7903 80.265 83.9218C80.3862 83.9657 80.5027 84.0046 80.6239 84.0485Z" fill="#0080E1"/>
<path d="M84.0813 68.8192C84.9398 68.1956 85.7304 67.4454 86.264 66.5295C86.8024 65.6136 87.074 64.5126 86.88 63.4651C86.6859 62.4177 85.9826 61.4482 84.7846 61.0974C83.9552 59.5044 82.5825 58.2182 80.9915 57.39C79.4006 56.5618 77.5962 56.1818 75.8064 56.1672C73.5898 56.1526 71.3586 56.7128 69.4718 57.882C67.585 59.0513 66.0716 60.849 65.4265 63.051C64.3837 63.09 63.4524 63.8208 62.9577 64.7464C62.4678 65.6721 62.3611 66.7585 62.4241 67.8059C62.589 70.5292 63.9617 73.2526 66.285 74.5728C67.8178 75.2354 69.627 74.8262 71.087 74.0174C72.5518 73.2087 73.779 72.0395 75.1322 71.0651C76.1217 70.3538 77.1888 69.74 78.3432 69.36C80.0845 68.79 81.9471 68.79 84.0813 68.8192Z" fill="#3B2C26"/>
<path d="M74.1289 88.2283C71.3544 86.8058 68.4684 85.2809 66.7174 82.694C67.7214 80.0437 68.5897 77.4227 69.4482 74.7091C72.0044 76.5847 75.1572 77.6322 78.4263 77.5737C78.2178 80.1558 78.1596 82.7476 78.2566 85.4027C77.0779 86.5086 75.7489 87.4586 74.1289 88.2283Z" fill="#FFAD92"/>
<path d="M85.3909 65.6627C84.9544 68.9999 84.3335 72.3127 83.5429 75.5816C83.2471 76.7947 82.9172 78.0322 82.2188 79.065C80.7248 81.2768 77.7903 82.1245 75.0741 81.7786C72.5131 81.0234 70.214 79.4109 68.6424 77.2283C67.5268 77.2186 66.6149 76.3514 65.9456 75.4599C65.4605 74.8119 65.024 74.0763 64.99 73.2675C64.9561 72.4588 65.4508 71.577 66.2463 71.4309C66.7556 71.3383 67.2843 71.5575 67.6772 71.8937C68.0701 72.2298 68.3562 72.6781 68.8219 73.0629C68.9916 73.3357 69.2293 73.6475 69.5446 73.6086C69.8793 73.5647 70.0296 73.175 70.1072 72.8437C70.5292 70.9973 70.6844 69.0924 70.4759 67.2022C72.1493 66.9488 73.7257 66.0719 74.9383 64.7175C74.6036 65.4386 74.3465 66.1986 74.1768 66.9781C74.1331 67.1681 74.0991 67.3678 74.1283 67.5627C74.1574 67.7575 74.2641 67.9475 74.4387 68.0304C74.589 68.0986 74.7588 68.084 74.9237 68.0596C76.34 67.8696 77.7176 67.3873 78.9253 66.6809C78.8235 67.0463 78.9932 67.4701 79.3231 67.6601C79.7062 67.8842 80.1864 67.7819 80.6181 67.665C81.4815 67.436 82.3449 67.1827 83.1937 66.9099C83.9892 66.6614 84.7992 66.374 85.3909 65.6627Z" fill="#FFAD92"/>
<path d="M78.1062 77.4033C76.9324 77.4033 75.7538 77.0086 74.8613 76.2535C74.8322 76.2292 74.8273 76.1804 74.8516 76.1512C74.8758 76.122 74.9243 76.1171 74.9534 76.1415C76.4522 77.413 78.7707 77.6274 80.4732 76.6481C80.5072 76.6286 80.5508 76.6384 80.5702 76.6774C80.5896 76.7115 80.5799 76.7553 80.5411 76.7748C79.8087 77.1986 78.9599 77.4033 78.1062 77.4033Z" fill="#EB7154"/>
<path d="M77.359 81.6613C76.8254 81.6613 76.2676 81.6077 75.6904 81.5005C72.9596 80.9841 70.4568 79.391 68.8319 77.1257C68.8077 77.0916 68.8174 77.0477 68.8465 77.0234C68.8804 76.999 68.9241 77.0087 68.9483 77.038C70.5538 79.2741 73.0178 80.8477 75.7147 81.3544C77.2717 81.6467 78.7074 81.5346 79.8715 81.028C79.9103 81.0134 79.9491 81.028 79.9685 81.0669C79.9831 81.1059 79.9685 81.1449 79.9297 81.1644C79.173 81.4957 78.3 81.6613 77.359 81.6613Z" fill="#EB7154"/>
<path d="M95.1365 122.984V121.649C95.1365 121.649 94.016 119.808 90.6595 120.641C87.303 121.474 79.3677 121.703 79.3677 121.703L78.9021 122.979H95.1365V122.984Z" fill="#CEDCED"/>
<path d="M95.1357 122.984V121.649C95.1357 121.649 96.2561 119.808 99.6126 120.641C102.969 121.474 110.904 121.703 110.904 121.703L111.37 122.979H95.1357V122.984Z" fill="#CEDCED"/>
<path d="M79.3667 121.703H68.3029L67.4347 122.984H78.9011L79.3667 121.703Z" fill="#BABABA"/>
<path d="M86.2022 115.131C85.2321 113.576 84.3639 111.959 83.6121 110.288C83.3356 109.674 83.0688 109.031 83.0979 108.359C83.1125 108.086 83.2338 107.755 83.5054 107.721C83.777 107.686 83.9662 107.969 84.0874 108.213C85.2418 110.502 86.3817 112.807 87.5458 115.101C87.1384 115.14 86.7164 115.111 86.2022 115.131Z" fill="#3B2C26"/>
<path d="M92.2257 118.341C92.1869 118.76 91.8231 119.111 91.4108 119.174C91.2798 119.618 90.853 119.964 90.3922 119.998C90.0915 120.524 89.4512 120.709 88.8643 120.821C85.6388 121.44 82.1077 121.976 79.0034 120.904C72.7173 122.287 66.4942 122.463 60.0916 122.984H45.4966C45.4627 122.979 45.4287 122.974 45.3948 122.965C44.3422 122.77 43.246 122.463 42.5185 121.678C41.9267 121.035 41.66 120.149 41.6115 119.277C41.563 118.405 41.7182 117.533 41.8734 116.675C45.4433 115.501 49.1345 114.312 52.8839 113.343C61.1053 114.317 69.6906 115.292 78.1594 116.285C80.541 115.852 82.8983 115.272 85.2168 114.561C85.4254 114.502 85.7115 114.356 86.0753 114.356C86.4634 114.356 86.8271 114.546 87.1861 114.692C87.9912 115.019 88.7964 115.345 89.6016 115.672C90.0333 115.847 90.4698 116.022 90.8385 116.31C91.2071 116.592 91.503 117.002 91.5515 117.464C91.9395 117.494 92.2645 117.922 92.2257 118.341Z" fill="#FFAD92"/>
<path d="M91.5124 117.469C91.5075 117.469 91.4978 117.469 91.493 117.464C90.455 117.162 89.3976 116.885 88.345 116.641C88.3062 116.631 88.282 116.592 88.2917 116.553C88.3014 116.514 88.3402 116.49 88.379 116.5C89.4315 116.743 90.4938 117.021 91.5318 117.323C91.5706 117.333 91.5948 117.377 91.5803 117.416C91.5706 117.45 91.5415 117.469 91.5124 117.469Z" fill="#EB7154"/>
<path d="M91.3866 119.257C91.3818 119.257 91.3721 119.257 91.3672 119.252C90.2322 118.936 89.0681 118.697 87.8992 118.541C87.8603 118.536 87.8312 118.497 87.8361 118.458C87.841 118.419 87.8798 118.39 87.9186 118.395C89.0924 118.551 90.2662 118.79 91.406 119.111C91.4448 119.121 91.4691 119.16 91.4545 119.199C91.4448 119.233 91.4157 119.257 91.3866 119.257Z" fill="#EB7154"/>
<path d="M87.7493 120.124C87.7105 120.124 87.6766 120.09 87.6766 120.051C87.6766 120.012 87.7105 119.978 87.7493 119.978L90.3831 119.944C90.4219 119.944 90.4559 119.978 90.4559 120.017C90.4559 120.056 90.4219 120.09 90.3831 120.09L87.7493 120.124Z" fill="#EB7154"/>
<path d="M86.1138 120.158C86.109 120.158 86.0993 120.158 86.0944 120.153C86.0556 120.144 86.0314 120.105 86.0411 120.066C86.4437 118.555 86.725 117.001 86.8705 115.442C86.8754 115.403 86.9093 115.374 86.9481 115.374C86.9869 115.379 87.016 115.413 87.016 115.452C86.8705 117.016 86.5892 118.58 86.1866 120.1C86.1769 120.139 86.1478 120.158 86.1138 120.158Z" fill="#EB7154"/>
<path d="M40.1028 114.502C44.2693 112.997 48.6978 112.276 53.1213 112.222C53.5433 112.218 53.9799 112.222 54.3679 112.383C54.7559 112.544 55.0955 112.909 55.1585 113.46C53.1407 113.976 51.1181 114.488 49.1003 115.004C46.7673 115.599 44.4197 116.198 42.2273 117.197C41.8441 117.372 41.4415 117.562 41.0195 117.523C40.5975 117.484 40.1804 117.094 40.2774 116.68C40.3211 116.485 40.4763 116.315 40.486 116.115C40.5005 115.823 40.2289 115.613 40.03 115.399C39.8409 115.189 39.6566 114.663 40.1028 114.502Z" fill="#5CD1FF"/>
<path d="M50.3369 63.5333C57.3019 63.5333 62.9481 57.8623 62.9481 50.8667C62.9481 43.871 57.3019 38.2 50.3369 38.2C43.372 38.2 37.7258 43.871 37.7258 50.8667C37.7258 57.8623 43.372 63.5333 50.3369 63.5333Z" fill="#FEB000"/>
<path d="M44.4681 54.4769C44.3857 54.4769 44.3032 54.4331 44.2595 54.3551C44.1916 54.2382 44.2353 54.0872 44.3517 54.0239L50.148 50.7013L53.4802 41.781C53.5287 41.6544 53.6645 41.591 53.7906 41.6398C53.9167 41.6885 53.9798 41.8298 53.9313 41.9516L50.57 50.9546C50.5506 51.0082 50.5117 51.0521 50.4632 51.0813L44.5942 54.4477C44.5506 54.4672 44.5069 54.4769 44.4681 54.4769Z" fill="#4D5A6D"/>
<path d="M50.3379 51.7727C50.8361 51.7727 51.24 51.367 51.24 50.8666C51.24 50.3661 50.8361 49.9604 50.3379 49.9604C49.8396 49.9604 49.4357 50.3661 49.4357 50.8666C49.4357 51.367 49.8396 51.7727 50.3379 51.7727Z" fill="white"/>
<path d="M109.407 77.4032V62.4468C109.407 60.8586 110.687 59.5724 112.268 59.5724H127.159C128.74 59.5724 130.021 60.8586 130.021 62.4468V77.4032C130.021 78.9914 128.74 80.2776 127.159 80.2776H112.268C110.687 80.2776 109.407 78.9914 109.407 77.4032Z" fill="#7AD001"/>
<path d="M112.874 65.6089C113.562 65.6089 114.121 65.0483 114.121 64.3568C114.121 63.6654 113.562 63.1048 112.874 63.1048C112.185 63.1048 111.627 63.6654 111.627 64.3568C111.627 65.0483 112.185 65.6089 112.874 65.6089Z" fill="white"/>
<path d="M127.799 64.6005H115.556C115.42 64.6005 115.314 64.4934 115.314 64.3569C115.314 64.2205 115.42 64.1134 115.556 64.1134H127.799C127.935 64.1134 128.041 64.2205 128.041 64.3569C128.041 64.4934 127.93 64.6005 127.799 64.6005Z" fill="#017326"/>
<path d="M112.874 71.1772C113.562 71.1772 114.121 70.6166 114.121 69.9251C114.121 69.2336 113.562 68.6731 112.874 68.6731C112.185 68.6731 111.627 69.2336 111.627 69.9251C111.627 70.6166 112.185 71.1772 112.874 71.1772Z" fill="white"/>
<path d="M127.799 70.1688H115.556C115.42 70.1688 115.314 70.0616 115.314 69.9252C115.314 69.7888 115.42 69.6816 115.556 69.6816H127.799C127.935 69.6816 128.041 69.7888 128.041 69.9252C128.041 70.0616 127.93 70.1688 127.799 70.1688Z" fill="#017326"/>
<path d="M112.874 76.7454C113.562 76.7454 114.121 76.1849 114.121 75.4934C114.121 74.8019 113.562 74.2413 112.874 74.2413C112.185 74.2413 111.627 74.8019 111.627 75.4934C111.627 76.1849 112.185 76.7454 112.874 76.7454Z" fill="white"/>
<path d="M127.799 75.7371H115.556C115.42 75.7371 115.314 75.6299 115.314 75.4935C115.314 75.3571 115.42 75.2499 115.556 75.2499H127.799C127.935 75.2499 128.041 75.3571 128.041 75.4935C128.041 75.6299 127.93 75.7371 127.799 75.7371Z" fill="#017326"/>
<path d="M160.975 122.984H135.593C134.507 122.984 133.881 121.746 134.521 120.865L144.717 106.8C145.236 106.084 146.07 105.655 146.953 105.655H172.335C173.422 105.655 174.047 106.892 173.407 107.774L163.212 121.839C162.693 122.56 161.863 122.984 160.975 122.984Z" fill="#C87AED"/>
<path d="M145.659 122.984H172.288C172.797 122.984 173.093 122.404 172.792 121.99L168 115.384C167.757 115.048 167.365 114.848 166.947 114.848H140.319C139.809 114.848 139.513 115.428 139.814 115.842L144.606 122.448C144.854 122.784 145.242 122.984 145.659 122.984Z" fill="#A765CE"/>
<path d="M122.051 45.5174C121.935 45.3566 121.925 45.1423 122.032 44.9718L122.265 44.6015L122.367 44.4359L122.6 44.0656C122.706 43.8951 122.905 43.8123 123.099 43.8464L124.84 44.1777C125.083 44.2215 125.204 44.4992 125.073 44.7087L124.428 45.7366L124.326 45.9023L123.681 46.9302C123.55 47.1397 123.249 47.1495 123.104 46.9497L122.051 45.5174Z" fill="#FEB000"/>
<path d="M126.436 49.9459C126.907 50.0336 127.387 49.8241 127.644 49.4149L128.207 48.5185L128.459 48.119L129.022 47.2226C129.279 46.8134 129.259 46.2872 128.973 45.8975L126.432 42.419C126.077 41.9367 125.355 41.9611 125.035 42.4677L123.473 44.9621L123.221 45.3616L121.659 47.8559C121.343 48.3626 121.63 49.03 122.217 49.1421L126.436 49.9459Z" fill="#00ABFE"/>
<path d="M119.31 46.2192C119.184 46.2192 119.078 46.1218 119.068 45.9951C118.908 43.7444 119.888 42.1805 121.978 41.3523C122.104 41.3036 122.245 41.3621 122.293 41.4887C122.342 41.6154 122.284 41.7567 122.158 41.8054C120.261 42.5556 119.407 43.9149 119.553 45.961C119.563 46.0974 119.461 46.2095 119.33 46.2192C119.325 46.2192 119.315 46.2192 119.31 46.2192Z" fill="#4D5A6D"/>
<path d="M116.871 46.7013C116.745 46.7013 116.638 46.6038 116.629 46.4772C116.367 42.8185 117.958 40.2802 121.358 38.9356C121.484 38.8869 121.625 38.9454 121.673 39.072C121.722 39.1987 121.663 39.34 121.537 39.3887C118.317 40.6651 116.871 42.9743 117.119 46.4431C117.128 46.5795 117.026 46.6915 116.895 46.7013C116.881 46.7013 116.876 46.7013 116.871 46.7013Z" fill="#4D5A6D"/>
<path d="M114.411 46.7111C114.285 46.7111 114.178 46.6136 114.169 46.487C113.834 41.7418 115.895 38.4534 120.3 36.7044C120.426 36.6557 120.566 36.7141 120.615 36.8408C120.663 36.9675 120.605 37.1088 120.479 37.1575C116.235 38.8382 114.329 41.8782 114.654 46.448C114.663 46.5844 114.562 46.6964 114.431 46.7062C114.426 46.7111 114.416 46.7111 114.411 46.7111Z" fill="#4D5A6D"/>
<path d="M196.898 123.106H30.1012C30.0333 123.106 29.98 123.052 29.98 122.984C29.98 122.916 30.0333 122.862 30.1012 122.862H196.903C196.97 122.862 197.024 122.916 197.024 122.984C197.024 123.052 196.966 123.106 196.898 123.106Z" fill="#3C4A5B"/>
<defs>
<linearGradient id="paint0_linear_1_360" x1="111.529" y1="13.8184" x2="111.529" y2="143.315" gradientUnits="userSpaceOnUse">
<stop stop-color="#2BC3FC"/>
<stop offset="1" stop-color="#017EAC"/>
</linearGradient>
<linearGradient id="paint1_linear_1_360" x1="69.837" y1="82.2134" x2="69.837" y2="122.984" gradientUnits="userSpaceOnUse">
<stop stop-color="#2BC3FC"/>
<stop offset="1" stop-color="#017EAC"/>
</linearGradient>
</defs>
</svg>
