<svg width="22" height="22" viewBox="0 0 22 22" fill="none" xmlns="http://www.w3.org/2000/svg">
<path d="M19.9884 9.2047H19.25V9.16666H11V12.8333H16.1805C15.4247 14.9678 13.3939 16.5 11 16.5C7.96262 16.5 5.49999 14.0374 5.49999 11C5.49999 7.96262 7.96262 5.49999 11 5.49999C12.402 5.49999 13.6776 6.02891 14.6488 6.89287L17.2416 4.30008C15.6044 2.77429 13.4145 1.83333 11 1.83333C5.9377 1.83333 1.83333 5.9377 1.83333 11C1.83333 16.0623 5.9377 20.1667 11 20.1667C16.0623 20.1667 20.1667 16.0623 20.1667 11C20.1667 10.3854 20.1034 9.78541 19.9884 9.2047Z" fill="#FFC107"/>
<path d="M2.89024 6.73337L5.90195 8.94208C6.71687 6.92449 8.69045 5.49999 11 5.49999C12.402 5.49999 13.6776 6.02891 14.6488 6.89287L17.2416 4.30008C15.6044 2.77429 13.4145 1.83333 11 1.83333C7.47908 1.83333 4.42566 3.82112 2.89024 6.73337Z" fill="#FF3D00"/>
<path d="M11 20.1667C13.3677 20.1667 15.5192 19.2605 17.1458 17.787L14.3087 15.3862C13.3575 16.1097 12.1951 16.5009 11 16.5C8.61575 16.5 6.59129 14.9797 5.82862 12.8581L2.83937 15.1612C4.35645 18.1298 7.43737 20.1667 11 20.1667Z" fill="#4CAF50"/>
<path d="M19.9884 9.20471H19.25V9.16667H11V12.8333H16.1805C15.819 13.8492 15.1678 14.7369 14.3073 15.3867L14.3087 15.3858L17.1458 17.7865C16.945 17.969 20.1667 15.5833 20.1667 11C20.1667 10.3854 20.1034 9.78542 19.9884 9.20471Z" fill="#1976D2"/>
</svg>
