<svg width="341" height="207" viewBox="0 0 341 207" fill="none" xmlns="http://www.w3.org/2000/svg">
<path opacity="0.19" d="M142.987 206.976C200.142 206.976 246.475 160.643 246.475 103.488C246.475 46.3331 200.142 0 142.987 0C85.8321 0 39.499 46.3331 39.499 103.488C39.499 160.643 85.8321 206.976 142.987 206.976Z" fill="url(#paint0_linear_266_1828)"/>
<path d="M11.2723 37.4741V140.392C11.2723 143.512 13.8041 146.044 16.9242 146.044H172.644C175.764 146.044 178.296 143.512 178.296 140.392V37.4741C178.296 34.3541 175.764 31.8223 172.644 31.8223H16.9327C13.8041 31.8223 11.2723 34.3541 11.2723 37.4741Z" fill="#E9F2FF"/>
<path d="M11.2723 37.4741V43.2197H178.296V37.4741C178.296 34.3541 175.764 31.8223 172.644 31.8223H16.9327C13.8041 31.8223 11.2723 34.3541 11.2723 37.4741Z" fill="#BAC9D6"/>
<path d="M127.729 53.3184V87.0675C127.729 89.0964 129.374 90.7417 131.403 90.7417H165.152C167.181 90.7417 168.826 89.0964 168.826 87.0675V53.3184C168.826 51.2895 167.181 49.6443 165.152 49.6443H131.403C129.374 49.6443 127.729 51.2895 127.729 53.3184Z" fill="#00ABFE"/>
<path d="M135.433 80.1664C138.468 80.2431 141.494 80.3113 144.529 80.388C146.796 80.4392 149.055 80.4989 151.323 80.3966C155.389 80.2175 159.464 79.5611 163.496 80.0897C162.243 77.3874 160.922 75.0175 159.49 72.7158C158.918 71.7952 158.296 70.8575 157.409 70.2352C156.566 69.647 155.534 69.3912 154.528 69.1781C152.227 68.6922 149.882 68.3768 148.16 68.3938C144.563 68.4791 140.982 69.2463 137.615 70.9257C135.262 73.3808 133.779 76.6542 135.433 80.1664Z" fill="#FF6162"/>
<path d="M145.16 63.3962C144.93 65.1438 144.708 66.8914 144.41 68.7753C145.884 70.7019 147.905 72.2107 150.24 73.0717C150.863 71.8697 151.511 70.574 151.57 69.3891C151.059 68.2638 150.547 67.13 150.002 66.0559C148.45 65.3825 146.976 64.5385 145.16 63.3962Z" fill="#FFAD92"/>
<path d="M143.402 57.9811C143.283 59.0382 143.454 60.1379 144.008 61.05C144.562 61.9536 145.525 62.6271 146.582 62.7123C146.889 62.7379 147.204 62.7123 147.477 62.5589C147.946 62.3031 148.159 61.7576 148.338 61.2461C148.551 60.6408 148.764 60.0441 148.978 59.4389C149.046 59.2513 149.114 59.0467 149.08 58.8507C149.046 58.6546 148.909 58.4841 148.773 58.3392C147.562 57.0775 145.423 56.8388 143.402 57.9811Z" fill="#3B2C26"/>
<path d="M152.958 58.216C152.804 59.7589 153.069 61.4809 152.898 63.0154C152.719 64.5498 151.935 66.1865 150.46 66.6724C149.582 66.9537 148.61 66.7747 147.783 66.3826C146.957 65.9819 146.24 65.3852 145.729 64.7629C144.706 64.1065 143.939 63.058 143.606 61.8816C143.504 61.5235 143.444 61.1485 143.53 60.7904C143.606 60.4324 143.854 60.0914 144.203 59.9721C144.621 59.8271 145.09 60.0317 145.379 60.3642C145.669 60.6966 145.806 61.1314 146.044 61.6258C146.36 61.6003 146.718 61.8731 146.957 61.6599C147.042 61.5832 147.076 61.4724 147.101 61.3616C147.34 60.3983 147.545 59.4265 147.656 58.5655C148.457 58.1989 149.301 57.9091 150.179 57.8579C151.04 57.7983 151.952 57.8324 152.958 58.216Z" fill="#FFAD92"/>
<path d="M150.077 64.7871C150.393 64.7871 150.717 64.7445 151.023 64.6507C151.092 64.6336 151.134 64.5569 151.109 64.4887C151.092 64.4205 151.015 64.3864 150.947 64.4035C149.958 64.6933 148.85 64.4717 148.057 63.8238C148.006 63.7812 147.92 63.7897 147.878 63.8408C147.835 63.892 147.844 63.9772 147.895 64.0199C148.517 64.5228 149.293 64.7871 150.077 64.7871Z" fill="#EB7154"/>
<path d="M153.093 58.1727C153.179 56.6553 153.068 55.4278 152.011 54.3366C151.065 53.3563 149.598 53.1176 148.234 53.092C147.058 53.075 145.805 53.2028 144.85 53.8933C144.1 54.4389 143.614 55.2743 143.333 56.1524C143.051 57.0304 143.205 57.9084 143.179 59.0081C144.799 58.6501 145.941 58.778 147.604 58.7268C148.405 58.7012 149.513 58.7268 150.28 58.5137C151.244 58.2579 152.122 58.3176 153.093 58.1727Z" fill="white"/>
<path d="M156.57 58.4472C154.678 58.0551 152.726 58.1915 151.166 58.524C151.225 58.0722 151.302 57.5777 151.643 57.2794C151.848 57.0918 152.129 57.0066 152.402 56.9213C152.93 56.7594 153.467 56.5974 154.021 56.5803C154.576 56.5633 155.155 56.6912 155.564 57.0662C155.803 57.2879 155.974 57.5692 156.144 57.8505C156.28 58.1063 156.434 58.3705 156.57 58.4472Z" fill="#E0464F"/>
<path d="M149.207 66.9706C149.659 66.9706 150.11 66.8939 150.528 66.8257C150.596 66.8171 150.648 66.7489 150.63 66.6807C150.622 66.6125 150.554 66.5614 150.486 66.5784C149.821 66.6893 149.062 66.8171 148.38 66.6125C147.886 66.4591 147.468 66.1522 147.118 65.8624C146.615 65.4532 146.155 64.9843 145.737 64.4899C145.695 64.4387 145.609 64.4302 145.558 64.4728C145.507 64.5155 145.499 64.6007 145.541 64.6519C145.967 65.1633 146.445 65.6322 146.956 66.0584C147.323 66.3653 147.766 66.6978 148.303 66.8598C148.602 66.9365 148.908 66.9706 149.207 66.9706Z" fill="#EB7154"/>
<path d="M156.641 58.4523C156.419 57.847 156.172 57.2077 155.669 56.807C155.047 56.3126 154.186 56.2956 153.393 56.3638C152.08 56.4831 150.733 56.8156 149.48 56.6621C148.559 56.9008 147.783 57.6425 147.596 58.7336C148.662 58.7762 149.727 58.8103 150.793 58.853C150.886 58.853 150.98 58.8615 151.074 58.8274C151.176 58.7848 151.253 58.691 151.33 58.6057C151.909 57.9323 152.634 57.3441 153.495 57.131C154.356 56.9264 155.37 57.1651 155.89 57.8811C156.104 58.171 156.274 58.5631 156.641 58.4523Z" fill="#FF6162"/>
<path d="M127.729 78.1599V87.0597C127.729 89.0885 129.374 90.7338 131.403 90.7338H165.152C167.181 90.7338 168.826 89.0885 168.826 87.0597V78.1599H127.729Z" fill="white"/>
<path d="M139.055 82.6384H165.559V86.2529H139.055V82.6384Z" fill="#CEDCED"/>
<path d="M133.62 87.2272C132.08 87.2272 130.832 85.9792 130.832 84.4397C130.832 82.9001 132.08 81.6521 133.62 81.6521C135.159 81.6521 136.407 82.9001 136.407 84.4397C136.407 85.9792 135.159 87.2272 133.62 87.2272Z" fill="#BAC9D6"/>
<path d="M73.5296 53.3184V87.0675C73.5296 89.0964 75.1748 90.7417 77.2037 90.7417H110.953C112.982 90.7417 114.627 89.0964 114.627 87.0675V53.3184C114.627 51.2895 112.982 49.6443 110.953 49.6443H77.2037C75.1748 49.6443 73.5296 51.2895 73.5296 53.3184Z" fill="#FF6162"/>
<path d="M101.499 58.4068C101.993 58.8245 102.556 59.1399 103.05 59.5491C103.545 59.9583 103.988 60.4953 104.073 61.1347C104.158 61.774 103.792 62.4986 103.161 62.635C103.741 63.3937 103.971 64.4849 103.519 65.3203C103.059 66.1642 101.814 66.5308 101.09 65.9085C100.834 67.0593 99.6489 67.8095 98.4725 67.9374C97.2961 68.0652 96.1368 67.6901 95.0286 67.298C94.8666 67.2383 94.6876 67.1787 94.5171 67.2042C94.3296 67.2298 94.1676 67.3406 93.9971 67.4344C92.6246 68.2187 90.6895 67.7754 89.7859 66.4796C89.3853 66.8974 88.7374 67.0508 88.1833 66.8718C87.6292 66.6928 87.2029 66.1898 87.1177 65.6187C86.7341 65.8147 86.2311 65.7636 85.8902 65.4993C85.5492 65.2265 85.3872 64.7491 85.4895 64.3314C85.5236 64.178 85.6003 64.0245 85.5577 63.8711C85.5236 63.7177 85.3957 63.6154 85.2849 63.5045C84.62 62.8311 84.5603 61.7144 84.978 60.8619C85.3957 60.0094 86.197 59.4127 87.3734 59.1058C87.3138 57.0258 88.6777 54.9799 90.6128 54.2212C91.6869 53.8035 92.8633 53.7609 94.0227 53.7523C94.8496 53.7438 95.8555 53.8717 96.2902 54.8776C97.9099 54.4769 99.7342 55.1419 100.715 56.4802C101.038 56.9235 101.286 57.4606 101.499 58.4068Z" fill="#3B2C26"/>
<path d="M82.3597 80.8591C84.3971 81.2428 86.4857 81.1319 88.5572 81.0382C94.7205 80.7739 100.892 80.7227 107.056 80.9018C105.82 78.2336 104.626 75.8381 103.373 73.4683C103.032 72.8289 102.683 72.181 102.154 71.6866C101.6 71.1751 100.892 70.8683 100.176 70.6125C97.849 69.7771 95.4025 69.3764 93.5356 68.8479C91.251 69.1122 88.9493 69.3764 86.7755 70.1096C85.9657 70.3823 85.1558 70.7404 84.5335 71.3286C84.005 71.8315 83.647 72.4794 83.323 73.1273C82.1722 75.463 81.4476 78.0204 81.1748 80.629C81.6437 80.8165 82.1125 80.9444 82.3597 80.8591Z" fill="#FEB000"/>
<path d="M95.9046 66.5024C96.2541 67.4827 96.5951 68.4716 96.8252 69.4519C97.5839 69.6736 98.3341 69.9378 98.999 70.2532C98.9223 71.4381 98.2233 72.5464 97.243 73.2198C96.2626 73.8933 95.0351 74.166 93.8501 74.0723C91.3609 73.8847 89.0422 72.0008 88.6927 69.7844C89.3576 69.3581 90.0567 68.9916 90.9432 68.6165C91.0029 67.3378 91.1819 66.0676 91.557 64.9338C92.7931 65.1214 94.0121 65.4283 95.18 65.863C95.4954 65.9824 95.7767 66.1443 95.9046 66.5024Z" fill="#FFAD92"/>
<path d="M99.2461 59.5227C99.1353 60.7588 99.033 62.0119 98.6664 63.1968C98.2999 64.3817 97.6605 65.524 96.6717 66.2742C95.6828 67.0244 94.3018 67.3227 93.1595 66.8368C92.1365 66.4021 91.446 65.4473 90.8323 64.484C90.2952 64.1942 89.7496 63.8958 89.3575 63.4355C88.9654 62.9752 88.7522 62.3017 88.9909 61.7476C89.2296 61.185 90.0139 60.8866 90.4913 61.2702C90.7555 61.4834 90.9005 61.8584 91.2329 61.9352C91.4801 61.9863 91.7359 61.8329 91.8637 61.6112C91.9916 61.3896 92.0342 61.1424 92.0598 60.8866C92.0854 60.6138 92.0854 60.2984 91.8893 60.1706C92.3582 60.2217 92.9293 60.2217 93.1936 59.8296C93.2874 59.6847 93.3214 59.5142 93.3555 59.3437C93.4323 58.9515 93.509 58.5679 93.5857 58.1758C93.8159 58.406 94.1142 58.5935 94.4382 58.6191C94.8388 58.6446 95.2139 58.4145 95.4697 58.1076C95.7254 57.8007 95.8703 57.4256 96.3051 57.1017C96.5694 57.4 96.8848 57.6473 97.2343 57.8263C97.2428 58.3122 97.4048 58.8151 97.7372 59.1732C98.0697 59.5142 98.5982 59.7102 99.2461 59.5227Z" fill="#FFAD92"/>
<path d="M95.3165 64.8675C95.8195 64.8675 96.2883 64.6714 96.5782 64.3219C96.6208 64.2708 96.6123 64.1855 96.5611 64.1429C96.51 64.1003 96.4247 64.1088 96.3821 64.16C96.0752 64.535 95.5041 64.697 94.9414 64.5691C94.4811 64.4668 94.0378 64.2026 93.5349 63.7422C93.4837 63.6911 93.3985 63.6996 93.3559 63.7508C93.3047 63.8019 93.3132 63.8872 93.3644 63.9298C93.9014 64.4242 94.3788 64.7141 94.8818 64.8249C95.0267 64.8505 95.1716 64.8675 95.3165 64.8675Z" fill="#EB7154"/>
<path d="M94.6535 66.8646C95.3611 66.8646 96.0601 66.6941 96.6909 66.3616C96.7506 66.3275 96.7761 66.2508 96.742 66.1911C96.7079 66.1315 96.6312 66.1059 96.5716 66.14C95.6424 66.6344 94.5257 66.7452 93.5197 66.4469C92.5053 66.1485 91.6358 65.4495 91.1243 64.5288C91.0902 64.4691 91.0135 64.4436 90.9538 64.4777C90.8941 64.5118 90.8686 64.5885 90.9027 64.6482C91.4482 65.6285 92.3774 66.3702 93.4515 66.6856C93.8352 66.8049 94.2443 66.8646 94.6535 66.8646Z" fill="#EB7154"/>
<path d="M73.5296 78.1594V87.0592C73.5296 89.088 75.1748 90.7333 77.2037 90.7333H110.953C112.982 90.7333 114.627 89.088 114.627 87.0592V78.1594H73.5296Z" fill="white"/>
<path d="M84.8499 82.6384H111.353V86.2529H84.8499V82.6384Z" fill="#CEDCED"/>
<path d="M79.4209 87.2273C77.8814 87.2273 76.6334 85.9793 76.6334 84.4398C76.6334 82.9003 77.8814 81.6522 79.4209 81.6522C80.9605 81.6522 82.2085 82.9003 82.2085 84.4398C82.2085 85.9793 80.9605 87.2273 79.4209 87.2273Z" fill="#BAC9D6"/>
<path d="M20.7522 53.3184V87.0675C20.7522 89.0964 22.3975 90.7417 24.4264 90.7417H58.1755C60.2043 90.7417 61.8496 89.0964 61.8496 87.0675V53.3184C61.8496 51.2895 60.2043 49.6443 58.1755 49.6443H24.4264C22.3975 49.6443 20.7522 51.2895 20.7522 53.3184Z" fill="#7AD001"/>
<path d="M46.2228 61.5256C46.811 61.1249 47.4077 60.7072 47.851 60.1446C48.2858 59.582 48.55 58.8318 48.371 58.1413C48.3028 57.8856 48.1153 57.6043 47.8425 57.6298C47.6635 56.5387 46.4274 55.7544 45.3618 56.0698C45.0294 55.0213 43.691 54.4331 42.6936 54.9019C42.5657 54.9616 42.4379 55.0383 42.2929 55.0213C42.1651 55.0042 42.0628 54.9105 41.969 54.8337C41.3467 54.3308 40.4431 54.1944 39.7015 54.4842C38.9598 54.7826 38.3972 55.4987 38.2949 56.2915C37.6896 56.1636 37.0247 56.3511 36.5729 56.7774C36.1211 57.2036 35.8994 57.86 35.9591 58.7977C35.4391 58.9682 35.0129 59.4115 34.868 59.94C34.7231 60.4685 34.868 61.0738 35.2345 61.4745C34.9106 61.9263 35.0044 62.5656 35.2516 63.0686C35.6522 63.8699 36.4109 64.4837 37.2719 64.6371C38.1841 65.0037 39.2497 64.961 40.1277 64.5348C40.6647 64.2791 41.1251 63.8869 41.6195 63.563C42.9408 62.7105 44.6543 62.6082 46.2228 61.5256Z" fill="#3B2C26"/>
<path d="M35.1164 80.2962C41.1093 80.5179 47.1106 80.3559 53.0864 79.8103C52.3022 78.131 51.8674 76.767 51.2707 75.4798C50.6739 74.1926 49.8897 72.9224 48.7047 72.1467C48.1251 71.7716 47.4772 71.5329 46.8293 71.3198C44.5959 70.6037 42.2516 70.2798 40.2994 70.0155C38.0575 70.1007 35.8325 70.4844 33.6928 71.1493C32.2266 71.6096 30.7604 72.2319 29.7289 73.3657C28.2541 74.9854 27.9472 77.3211 27.7682 79.6313C30.0869 80.2025 32.4738 80.5008 35.1164 80.2962Z" fill="#C87AED"/>
<path d="M46.6583 60.5714C46.6839 62.1399 46.7009 63.7425 46.2406 65.2514C45.7803 66.7517 44.7403 68.1668 43.2655 68.6954C43.3763 69.4455 43.4871 70.2042 43.5979 70.9544C43.6065 71.0141 43.615 71.0737 43.5894 71.1249C43.5638 71.1846 43.5042 71.2187 43.453 71.2528C42.8137 71.5937 42.0465 71.5767 41.3304 71.5C39.9409 71.3465 38.5769 70.997 37.2471 70.477C37.5881 69.0619 37.8438 67.6213 37.9973 66.1721C37.8523 65.9845 37.7159 65.797 37.554 65.6265C37.0595 65.3281 36.7526 64.7911 36.4713 64.2796C36.2326 63.8363 35.9939 63.2907 36.2582 62.856C36.5225 62.4127 37.213 62.3786 37.6307 62.694C38.0484 63.0009 38.2359 63.5294 38.3297 64.0409C38.7986 63.717 39.1396 63.2055 39.276 62.6514C39.3015 62.5576 39.3186 62.4553 39.3612 62.3615C39.4209 62.2507 39.5146 62.174 39.6084 62.0887C40.2222 61.4835 40.316 60.5373 40.3756 59.6763C40.5461 60.1281 41.194 60.3156 41.5776 60.0258C41.6288 59.9832 41.6799 59.9405 41.7481 59.915C41.876 59.8809 41.9953 59.9661 42.0976 60.0428C42.9501 60.6907 44.0156 61.0573 45.0812 61.0828C45.533 61.0999 46.036 61.0232 46.6583 60.5714Z" fill="#FFAD92"/>
<path d="M43.0121 68.8312C43.1144 68.8312 43.2082 68.8312 43.3105 68.8226C43.3787 68.8226 43.4384 68.763 43.4298 68.6862C43.4298 68.618 43.3616 68.5584 43.2934 68.5669C41.6056 68.6521 39.9092 67.9787 38.7328 66.7597C38.6816 66.7085 38.6049 66.7085 38.5538 66.7597C38.5026 66.8108 38.5026 66.8875 38.5538 66.9387C39.7046 68.1407 41.3498 68.8312 43.0121 68.8312Z" fill="#EB7154"/>
<path d="M43.2005 66.2714C43.4563 66.2714 43.712 66.2287 43.9592 66.135C44.0274 66.1094 44.0615 66.0327 44.0359 65.973C44.0104 65.9048 43.9336 65.8707 43.874 65.8963C43.0641 66.2032 42.0667 65.9048 41.5638 65.2058C41.5212 65.1461 41.4444 65.1376 41.3848 65.1802C41.3251 65.2228 41.3166 65.2996 41.3592 65.3592C41.7684 65.9304 42.493 66.2714 43.2005 66.2714Z" fill="#EB7154"/>
<path d="M37.4429 69.7627C38.2698 70.385 39.1393 70.9476 40.0259 71.442C39.5911 71.9791 39.199 72.5503 38.8409 73.1385C38.159 72.286 37.477 71.4335 36.795 70.5725C37.0167 70.3253 37.2468 70.0696 37.4429 69.7627Z" fill="#FF6162"/>
<path d="M43.5557 70.2642C42.7117 70.6478 41.8593 71.0229 40.9642 71.415C41.3648 71.952 41.7314 72.5147 42.0468 73.1029C42.7288 72.5147 43.3681 71.8753 43.9648 71.1933C43.9052 70.895 43.8029 70.5966 43.5557 70.2642Z" fill="#FF6162"/>
<path d="M20.7522 78.1599V87.0597C20.7522 89.0885 22.3975 90.7338 24.4264 90.7338H58.1755C60.2043 90.7338 61.8496 89.0885 61.8496 87.0597V78.1599H20.7522Z" fill="white"/>
<path d="M32.0803 82.6384H58.5835V86.2529H32.0803V82.6384Z" fill="#CEDCED"/>
<path d="M26.6514 87.2278C25.1119 87.2278 23.8638 85.9798 23.8638 84.4403C23.8638 82.9007 25.1119 81.6527 26.6514 81.6527C28.1909 81.6527 29.439 82.9007 29.439 84.4403C29.439 85.9798 28.1909 87.2278 26.6514 87.2278Z" fill="#BAC9D6"/>
<path d="M20.7522 102.26V136.009C20.7522 138.038 22.3975 139.683 24.4264 139.683H58.1755C60.2043 139.683 61.8496 138.038 61.8496 136.009V102.26C61.8496 100.231 60.2043 98.5856 58.1755 98.5856H24.4264C22.3975 98.5941 20.7522 100.239 20.7522 102.26Z" fill="#FEB000"/>
<path d="M33.6758 108.844C33.3519 109.27 32.8745 109.577 32.6103 110.046C32.3289 110.548 32.3374 111.171 32.5079 111.716C32.6784 112.262 32.9939 112.756 33.3093 113.242C32.5762 113.217 32.2266 113.489 31.9197 113.805C31.1525 114.615 30.7092 115.817 31.0417 116.882C35.4916 117.752 40.1887 117.922 44.7494 117.198C46.8038 116.874 48.8668 116.362 50.9468 116.49C50.6399 115.416 50.1369 114.402 49.472 113.507C50.1455 111.938 49.3356 109.892 47.7586 109.219C48.0484 108.622 47.9887 107.88 47.6051 107.343C47.2215 106.806 46.5395 106.491 45.7126 106.619C44.8261 104.53 42.4392 103.26 40.1887 103.482C37.9382 103.703 36.2162 105.502 33.6758 108.844Z" fill="#3B2C26"/>
<path d="M29.4311 127.603C33.378 128.779 37.5978 128.541 41.7066 128.302C45.1762 128.097 48.6457 127.893 52.1152 127.688C51.3224 125.395 50.2228 123.315 48.9014 121.371C48.6031 120.937 48.2877 120.502 47.8529 120.212C47.4437 119.939 46.9578 119.811 46.4804 119.692C44.6647 119.249 42.8148 118.899 41.3401 119.01C39.1237 118.746 36.8561 118.95 34.7249 119.598C32.9689 120.135 31.2298 121.048 30.2751 122.616C29.4397 124.014 29.3374 125.702 29.4311 127.603Z" fill="#00ABFE"/>
<path d="M38.2804 114.667C37.948 116.244 36.9506 117.753 37.2319 119.347C37.3512 120.038 37.7178 120.669 38.1099 121.257C39.3119 123.064 40.8549 124.65 42.6962 125.997C43.31 123.772 43.9152 121.41 43.1139 119.185C42.9775 118.555 42.9605 118.452 42.8241 117.822C42.8411 117.847 42.8241 117.651 42.8667 117.523C43.4719 117.071 44.0857 116.603 44.4437 115.946C44.6569 115.554 44.7592 115.119 44.8615 114.693C45.211 113.235 45.5605 111.778 45.8418 110.243C45.1002 109.612 44.5887 108.717 44.4267 107.754C44.0857 107.958 43.6424 107.993 43.0457 108.351C43.0372 108.956 42.6791 109.553 42.1506 109.842C41.6136 110.141 40.9231 110.124 40.4031 109.808C40.4286 110.448 40.0791 111.087 39.5336 111.42C38.988 111.752 38.2549 111.769 37.6581 111.462C37.5558 111.087 37.1211 110.865 36.746 110.942C36.3709 111.019 36.0725 111.351 35.9532 111.718C35.8424 112.084 35.885 112.494 36.0043 112.86C36.3368 113.858 37.266 114.65 38.2804 114.667Z" fill="#FFAD92"/>
<path d="M42.618 115.208C42.9248 115.208 43.2147 115.14 43.4619 115.012C43.5216 114.978 43.5471 114.901 43.513 114.841C43.479 114.782 43.4022 114.756 43.3426 114.79C42.9845 114.978 42.5242 115.012 42.0553 114.875C41.595 114.748 41.1773 114.5 40.8278 114.262C40.7681 114.219 40.6914 114.236 40.6488 114.296C40.6061 114.355 40.6232 114.432 40.6829 114.475C41.0494 114.722 41.4842 114.986 41.9871 115.123C42.2003 115.182 42.4134 115.208 42.618 115.208Z" fill="#EB7154"/>
<path d="M42.5759 117.741C42.6441 117.741 42.7123 117.741 42.789 117.733C42.8572 117.733 42.9169 117.665 42.9084 117.596C42.9084 117.528 42.8487 117.477 42.772 117.477C41.229 117.562 39.652 116.659 38.9359 115.295C38.9018 115.235 38.8251 115.209 38.7654 115.244C38.7057 115.278 38.6801 115.354 38.7142 115.414C39.4388 116.804 41.0074 117.741 42.5759 117.741Z" fill="#EB7154"/>
<path d="M20.7522 127.105V136.005C20.7522 138.034 22.3975 139.679 24.4264 139.679H58.1755C60.2043 139.679 61.8496 138.034 61.8496 136.005V127.105H20.7522Z" fill="white"/>
<path d="M32.0803 131.584H58.5835V135.199H32.0803V131.584Z" fill="#CEDCED"/>
<path d="M26.6514 136.182C25.1119 136.182 23.8638 134.934 23.8638 133.394C23.8638 131.855 25.1119 130.607 26.6514 130.607C28.1909 130.607 29.439 131.855 29.439 133.394C29.439 134.934 28.1909 136.182 26.6514 136.182Z" fill="#BAC9D6"/>
<path d="M127.729 102.264V136.013C127.729 138.042 129.374 139.687 131.403 139.687H165.152C167.181 139.687 168.826 138.042 168.826 136.013V102.264C168.826 100.235 167.181 98.5896 165.152 98.5896H131.403C129.374 98.5981 127.729 100.243 127.729 102.264Z" fill="#CEDCED"/>
<path d="M73.8606 102.26V136.009C73.8606 138.038 75.5059 139.683 77.5348 139.683H111.284C113.313 139.683 114.958 138.038 114.958 136.009V102.26C114.958 100.231 113.313 98.5856 111.284 98.5856H77.5348C75.5059 98.5941 73.8606 100.239 73.8606 102.26Z" fill="#C87AED"/>
<path d="M100.016 109.904C100.528 109.563 101.048 109.205 101.389 108.694C101.875 107.986 101.952 107.031 101.67 106.213C101.389 105.394 100.792 104.712 100.076 104.252C100.161 104.593 99.8033 104.917 99.4538 104.951C99.1043 104.985 98.7633 104.832 98.4394 104.695C97.4676 104.303 96.419 104.116 95.379 104.141C94.6544 104.158 93.9043 104.286 93.3075 104.704C92.5147 105.25 91.8413 105.591 91.6879 106.588C91.1252 106.255 90.7331 106.579 90.1023 106.775C89.5737 106.937 89.1901 107.415 89.0196 107.943C88.8577 108.472 88.8832 109.034 88.96 109.58C89.1305 110.791 89.5652 111.958 90.2642 112.947C91.6708 113.314 93.2052 113.16 94.5095 112.521C95.8564 111.856 96.9816 110.697 98.4479 110.398C98.9849 110.279 99.5305 110.228 100.016 109.904Z" fill="#3B2C26"/>
<path d="M95.1556 120.247C96.1445 120.221 97.2356 120.221 98.0028 120.852C98.5228 121.287 98.8042 121.935 99.0258 122.574C99.5628 124.1 99.8612 125.924 98.915 127.246C97.9687 128.567 96.1445 128.874 94.5163 128.84C93.05 128.814 91.4985 128.567 90.4074 127.595C89.6402 126.913 89.1798 125.95 88.8815 124.961C88.4723 123.606 88.37 121.994 89.2651 120.886C89.8874 120.11 90.9103 119.735 91.8992 119.684C92.8881 119.633 93.8854 119.897 95.1556 120.247Z" fill="#FEB000"/>
<path d="M82.037 128.017C85.4554 128.102 88.8653 128.196 92.2837 128.281C91.2522 125.195 90.7066 122.348 90.6469 119.501C88.6863 120.012 86.7256 120.524 84.7649 121.027C84.2449 121.163 83.7079 121.308 83.2987 121.64C82.9236 121.947 82.6849 122.382 82.4974 122.825C82.1138 123.737 81.9177 124.718 81.7302 125.698C81.5682 126.508 81.4148 127.318 81.2016 128.128C81.517 128.145 81.841 128.162 82.037 128.017Z" fill="#FF6162"/>
<path d="M91.5246 115.129C91.2518 116.604 90.979 118.079 90.6806 119.596C90.9108 120.269 91.1495 120.943 91.5416 121.54C91.9337 122.136 92.4793 122.656 93.1698 122.852C93.9797 123.083 94.8748 122.835 95.5482 122.341C96.2217 121.846 96.7076 121.122 97.1508 120.474C97.0656 119.622 96.9889 118.778 96.8013 117.976C98.3614 117.516 99.4695 116.075 99.981 114.532C100.493 112.989 100.493 111.336 100.629 109.665C99.9214 109.554 99.2479 109.239 98.7023 108.778C98.4295 109.025 98.0545 109.119 97.6964 109.204C96.0938 109.562 94.4485 109.716 92.7692 109.75C92.7095 110.381 92.5987 111.003 92.4367 111.617C92.3685 111.873 92.2321 112.18 91.9678 112.214C91.7206 112.239 91.5246 112.001 91.4308 111.762C91.337 111.523 91.2944 111.259 91.1324 111.088C90.8938 110.756 90.3397 110.781 90.0413 111.063C89.7429 111.344 89.6491 111.787 89.6491 112.197C89.6491 113.39 90.4419 114.549 91.5246 115.129Z" fill="#FFAD92"/>
<path d="M96.8946 118.214C96.9628 118.214 97.0225 118.155 97.0225 118.086C97.0225 118.018 96.9713 117.959 96.8946 117.959C95.4539 117.933 94.0218 117.277 93.0585 116.202C93.0073 116.151 92.9306 116.143 92.8795 116.194C92.8283 116.245 92.8198 116.322 92.871 116.373C93.8769 117.498 95.3857 118.18 96.8946 118.214Z" fill="#EB7154"/>
<path d="M97.0069 115.289C97.1774 115.289 97.3393 115.281 97.5098 115.255C97.578 115.247 97.6292 115.178 97.6207 115.11C97.6121 115.042 97.5439 114.991 97.4757 114.999C96.4613 115.153 95.3787 114.795 94.6456 114.079C94.5944 114.028 94.5177 114.028 94.4665 114.079C94.4154 114.13 94.4154 114.207 94.4665 114.258C95.1315 114.914 96.0692 115.289 97.0069 115.289Z" fill="#EB7154"/>
<path d="M90.4673 119.791C89.7768 121.138 89.0948 122.494 88.4384 123.858C88.8561 123.866 89.2823 123.798 89.6659 123.645C89.7682 123.602 89.879 123.559 89.9899 123.585C90.0666 123.602 90.1348 123.662 90.1945 123.713C90.5184 123.994 90.8509 124.275 91.1748 124.557C90.8764 123.048 90.6718 121.522 90.4673 119.791Z" fill="#E0464F"/>
<path d="M95.7727 113.316C96.1393 113.316 96.4888 113.196 96.7616 112.966C97.1367 112.642 97.3413 112.139 97.4095 111.423C97.6567 111.44 97.9039 111.466 98.1596 111.483C98.1937 112.011 98.6541 112.489 99.1996 112.54C99.7452 112.591 100.308 112.233 100.529 111.687C100.555 111.619 100.521 111.551 100.461 111.517C100.393 111.491 100.325 111.525 100.291 111.585C100.112 112.02 99.6514 112.318 99.2167 112.284C98.7649 112.241 98.3813 111.807 98.4068 111.372C98.4068 111.304 98.3557 111.244 98.2875 111.236C97.9465 111.21 97.6141 111.184 97.2986 111.159C97.2645 111.159 97.2305 111.167 97.2049 111.193C97.1793 111.218 97.1623 111.244 97.1623 111.278C97.1196 111.994 96.9321 112.48 96.5911 112.77C96.1734 113.128 95.4914 113.154 95.0055 112.83C94.5452 112.523 94.2639 111.926 94.2895 111.321C94.2895 111.253 94.2468 111.193 94.1786 111.193L91.033 110.818C90.9648 110.809 90.8966 110.86 90.8881 110.929C90.8796 110.997 90.9307 111.065 90.9989 111.074L94.0252 111.432C94.0337 112.088 94.3576 112.71 94.8606 113.051C95.1334 113.23 95.4573 113.316 95.7727 113.316Z" fill="#3B2C26"/>
<path d="M97.0657 119.572C99.0349 120.501 101.541 120.527 102.982 122.155C103.536 122.786 103.86 123.579 104.141 124.372C104.601 125.642 105.002 126.929 105.479 128.319C103.502 128.336 101.516 128.353 99.5378 128.37C98.728 128.378 97.9181 128.387 97.2276 128.37C97.0657 125.557 97.0316 122.726 97.0657 119.572Z" fill="#FF6162"/>
<path d="M97.0661 119.572C97.6798 120.723 98.3362 121.857 99.1802 123.204C98.8989 123.127 98.6176 123.059 98.3362 122.982C98.2595 122.965 98.1828 122.948 98.1146 122.965C98.0464 122.991 97.9952 123.042 97.9441 123.101C97.6031 123.485 97.2621 123.869 96.9211 124.252C97.0405 122.667 97.0746 121.073 97.0661 119.572Z" fill="#E0464F"/>
<path d="M73.8606 127.105V136.005C73.8606 138.034 75.5059 139.679 77.5348 139.679H111.284C113.313 139.679 114.958 138.034 114.958 136.005V127.105H73.8606Z" fill="white"/>
<path d="M85.1809 131.584H111.684V135.199H85.1809V131.584Z" fill="#CEDCED"/>
<path d="M79.751 136.182C78.2115 136.182 76.9634 134.934 76.9634 133.394C76.9634 131.855 78.2115 130.607 79.751 130.607C81.2905 130.607 82.5386 131.855 82.5386 133.394C82.5386 134.934 81.2905 136.182 79.751 136.182Z" fill="#BAC9D6"/>
<path d="M154.402 38.3729H155.817C157.095 38.3729 158.127 37.3414 158.127 36.0627V27.5892C158.127 26.3105 157.095 25.2791 155.817 25.2791H154.402C153.123 25.2791 152.091 26.3105 152.091 27.5892V36.0627C152.091 37.3414 153.132 38.3729 154.402 38.3729Z" fill="#939393"/>
<path d="M124.098 38.3729H125.513C126.792 38.3729 127.823 37.3414 127.823 36.0627V27.5892C127.823 26.3105 126.792 25.2791 125.513 25.2791H124.098C122.819 25.2791 121.788 26.3105 121.788 27.5892V36.0627C121.788 37.3414 122.819 38.3729 124.098 38.3729Z" fill="#939393"/>
<path d="M93.7889 38.3729H95.204C96.4827 38.3729 97.5142 37.3414 97.5142 36.0627V27.5892C97.5142 26.3105 96.4827 25.2791 95.204 25.2791H93.7889C92.5102 25.2791 91.4787 26.3105 91.4787 27.5892V36.0627C91.4787 37.3414 92.5102 38.3729 93.7889 38.3729Z" fill="#939393"/>
<path d="M63.4871 38.3729H64.9022C66.1809 38.3729 67.2124 37.3414 67.2124 36.0627V27.5892C67.2124 26.3105 66.1809 25.2791 64.9022 25.2791H63.4871C62.2084 25.2791 61.1769 26.3105 61.1769 27.5892V36.0627C61.1769 37.3414 62.2084 38.3729 63.4871 38.3729Z" fill="#939393"/>
<path d="M33.1727 38.3729H34.5878C35.8665 38.3729 36.8979 37.3414 36.8979 36.0627V27.5892C36.8979 26.3105 35.8665 25.2791 34.5878 25.2791H33.1727C31.894 25.2791 30.8625 26.3105 30.8625 27.5892V36.0627C30.871 37.3414 31.9025 38.3729 33.1727 38.3729Z" fill="#939393"/>
<path d="M266.438 167.771C270.683 170.626 275.487 173.083 280.605 173.061C284.892 172.91 287.747 168.87 289.923 165.175C296.193 154.542 301.817 143.532 306.751 132.231C310.155 131.369 312.676 129.871 315.542 128.751C318.246 128.773 320.314 128.159 322.027 127.221C322.34 127.049 322.674 126.769 322.598 126.424C322.544 126.166 322.275 126.004 322.017 125.982C321.758 125.961 321.499 126.047 321.252 126.122C319.873 126.521 318.375 126.489 317.007 126.047C319 125.336 320.81 124.636 322.394 123.537C322.674 123.343 322.965 123.128 323.148 122.837C323.439 122.373 323.439 121.738 323.137 121.275C323.697 120.822 324.042 120.499 324.117 120.079C324.193 119.659 323.891 119.174 323.46 119.163C323.255 119.152 323.062 119.249 322.878 119.335C320.864 120.305 318.72 120.994 316.522 121.382C318.095 120.38 319.129 119.572 320.164 118.754C320.508 118.484 320.885 118.107 320.778 117.687C320.681 117.342 320.271 117.17 319.916 117.213C319.56 117.256 319.259 117.472 318.957 117.666C316.134 119.508 312.913 120.757 309.584 121.285C310.694 120.326 311.276 119.335 311.61 118.258C311.696 117.978 311.739 117.612 311.502 117.439C311.276 117.267 310.953 117.407 310.705 117.536C309.574 118.14 308.453 118.743 307.322 119.335C306.072 120.003 304.812 120.682 303.778 121.641C302.345 122.977 301.44 124.797 300.869 126.672C293.403 136.605 286.336 146.979 279.861 157.709C278.375 157.128 277.006 156.341 275.283 155.242C271.9 159.595 268.657 164.055 266.438 167.771Z" fill="#FFAD92"/>
<path d="M316.564 124C316.575 124 316.586 124 316.607 124C318.902 123.472 321.089 122.6 323.114 121.404C323.19 121.361 323.222 121.253 323.179 121.178C323.136 121.102 323.028 121.07 322.953 121.113C320.96 122.287 318.805 123.149 316.543 123.666C316.456 123.688 316.392 123.774 316.413 123.871C316.424 123.946 316.489 124 316.564 124Z" fill="#EB7154"/>
<path d="M306.944 128.04C306.987 128.04 307.03 128.019 307.062 127.987C308.441 126.521 309.389 124.625 309.734 122.643C309.745 122.557 309.691 122.46 309.594 122.449C309.508 122.438 309.411 122.492 309.4 122.589C309.066 124.507 308.15 126.338 306.814 127.76C306.75 127.825 306.75 127.933 306.825 127.997C306.868 128.019 306.911 128.04 306.944 128.04Z" fill="#EB7154"/>
<path d="M313.184 126.963C313.27 126.963 313.346 126.898 313.346 126.812C313.475 125.293 313.356 123.763 313.001 122.277C312.979 122.191 312.893 122.137 312.796 122.158C312.71 122.18 312.656 122.266 312.678 122.363C313.023 123.817 313.141 125.304 313.012 126.791C313.001 126.888 313.076 126.963 313.163 126.974C313.173 126.963 313.173 126.963 313.184 126.963Z" fill="#EB7154"/>
<path d="M197.274 162.644C193.03 165.498 188.225 167.955 183.108 167.933C178.82 167.782 175.965 163.742 173.789 160.047C167.519 149.414 161.895 138.404 156.961 127.103C153.557 126.241 151.036 124.744 148.17 123.623C145.466 123.645 143.398 123.031 141.685 122.093C141.373 121.921 141.039 121.641 141.114 121.296C141.168 121.038 141.437 120.876 141.696 120.854C141.954 120.833 142.213 120.919 142.461 120.995C143.84 121.393 145.337 121.361 146.705 120.919C144.712 120.208 142.902 119.508 141.319 118.409C141.039 118.215 140.748 118 140.565 117.709C140.274 117.245 140.274 116.61 140.575 116.147C140.015 115.694 139.67 115.371 139.595 114.951C139.52 114.531 139.821 114.046 140.252 114.035C140.457 114.024 140.651 114.121 140.834 114.207C142.848 115.177 144.992 115.866 147.19 116.254C145.617 115.252 144.583 114.444 143.549 113.626C143.204 113.356 142.827 112.979 142.935 112.559C143.032 112.214 143.441 112.042 143.797 112.085C144.152 112.128 144.454 112.344 144.755 112.538C147.578 114.38 150.799 115.629 154.128 116.157C153.018 115.199 152.437 114.207 152.103 113.13C152.016 112.85 151.973 112.484 152.21 112.311C152.437 112.139 152.76 112.279 153.008 112.408C154.139 113.012 155.259 113.615 156.39 114.207C157.64 114.875 158.9 115.554 159.935 116.513C161.368 117.849 162.272 119.669 162.843 121.544C170.309 131.477 177.376 141.851 183.851 152.581C185.338 152 186.706 151.213 188.43 150.114C191.812 154.467 195.066 158.927 197.274 162.644Z" fill="#FFAD92"/>
<path d="M147.146 118.883C147.222 118.883 147.286 118.829 147.308 118.754C147.329 118.668 147.275 118.571 147.179 118.549C144.927 118.032 142.762 117.17 140.768 115.996C140.693 115.953 140.585 115.974 140.542 116.061C140.499 116.136 140.521 116.244 140.607 116.287C142.632 117.483 144.819 118.355 147.114 118.883C147.125 118.883 147.135 118.883 147.146 118.883Z" fill="#EB7154"/>
<path d="M156.767 122.912C156.81 122.912 156.853 122.901 156.885 122.869C156.95 122.804 156.961 122.697 156.896 122.632C155.56 121.221 154.644 119.379 154.31 117.461C154.3 117.375 154.203 117.31 154.117 117.321C154.03 117.332 153.966 117.429 153.977 117.515C154.321 119.497 155.269 121.393 156.648 122.858C156.681 122.891 156.724 122.912 156.767 122.912Z" fill="#EB7154"/>
<path d="M150.541 121.835H150.551C150.648 121.824 150.713 121.748 150.702 121.651C150.584 120.165 150.692 118.678 151.036 117.224C151.058 117.138 151.004 117.041 150.918 117.019C150.832 116.997 150.735 117.051 150.713 117.138C150.358 118.624 150.239 120.143 150.368 121.673C150.379 121.77 150.455 121.835 150.541 121.835Z" fill="#EB7154"/>
<path d="M196.875 138.953C198.857 136.432 201.076 134.299 203.425 132.306C204.524 131.38 205.655 130.464 206.948 129.839C208.607 129.031 210.449 128.719 212.27 128.417C218.044 127.447 223.818 126.478 229.593 125.508C232.555 125.702 235.96 125.745 239.353 125.648C244.772 127.512 250.331 129.322 255.901 131.132C257.14 131.53 258.379 131.94 259.499 132.608C261.147 133.599 262.419 135.107 263.647 136.594C268.592 142.53 273.526 148.466 278.492 154.262C275.486 160.349 271.802 166.091 267.568 171.413C264.606 168.881 261.783 166.188 258.96 163.29C259.079 167.965 259.208 172.641 259.305 177.392C259.37 180.764 259.434 184.168 259.467 187.626H209.102C209.145 184.211 209.124 180.807 209.048 177.392C208.919 171.38 208.596 165.369 208.079 159.368C206.721 160.252 205.181 161.232 203.64 162.202C201.841 163.344 200.021 164.486 198.028 165.207C193.201 161.351 189.377 156.255 186.533 150.653C190.465 147.679 193.708 143.284 196.875 138.953Z" fill="url(#paint1_linear_266_1828)"/>
<path d="M207.962 159.401C208.049 159.401 208.124 159.326 208.135 159.239C208.21 154.672 208.102 150.039 207.833 145.471C207.822 145.374 207.747 145.31 207.661 145.31C207.564 145.321 207.499 145.396 207.499 145.482C207.768 150.039 207.865 154.661 207.801 159.229C207.79 159.326 207.865 159.401 207.962 159.401Z" fill="#0097D3"/>
<path d="M258.951 163.635C259.048 163.635 259.113 163.559 259.124 163.473L259.285 146.225C259.285 146.128 259.21 146.053 259.124 146.053C259.027 146.053 258.951 146.128 258.951 146.214L258.79 163.462C258.779 163.548 258.854 163.624 258.951 163.635C258.94 163.635 258.951 163.635 258.951 163.635Z" fill="#0097D3"/>
<path d="M223.506 153.756C223.592 153.756 223.657 153.691 223.668 153.615C223.679 153.529 223.614 153.443 223.528 153.422C219.789 152.872 215.976 152.57 212.205 152.517C212.108 152.517 212.033 152.592 212.033 152.678C212.033 152.775 212.108 152.851 212.194 152.851C215.954 152.904 219.757 153.206 223.474 153.745C223.495 153.756 223.506 153.756 223.506 153.756Z" fill="#0097D3"/>
<path d="M225.78 119.357C225.392 121.436 225.123 123.547 224.972 125.659C224.929 127.447 225.284 129.16 225.898 130.765C226.114 131.326 226.361 131.886 226.76 132.338C227.32 132.974 228.118 133.34 228.926 133.566C231.414 134.245 234.172 133.631 236.305 132.177C238.438 130.722 239.99 128.503 240.916 126.101C239.99 122.072 239.009 117.956 237.856 113.841C235.95 115.004 234.118 116.308 232.147 117.353C230.175 118.398 227.988 119.184 225.78 119.357Z" fill="#FFAD92"/>
<path d="M240.701 109.219C239.613 110.555 237.792 111.115 236.068 111.04C234.345 110.975 232.696 110.361 231.102 109.715C225.241 107.345 219.618 104.415 214.328 100.967C212.831 101.43 211.225 101.118 209.997 100.256C208.769 99.3943 207.94 97.983 207.767 96.4963C209.017 96.7118 210.299 96.6794 211.527 96.4209C210.062 95.3005 209.394 93.4583 208.801 91.713C210.31 92.3271 211.969 92.5533 214.188 92.5533C216.343 89.8708 218.583 87.1237 221.621 85.5077C226.48 82.9114 232.987 83.9348 236.822 87.8778C237.63 88.7073 238.341 89.6769 238.869 90.905C240.291 91.002 241.8 91.1313 242.985 91.9285C244.45 92.9089 245.139 94.7295 245.409 96.4748C246.163 101.172 243.75 105.47 240.701 109.219Z" fill="#3B2C26"/>
<path d="M214.296 100.87C215.848 106.946 217.754 112.968 220.771 118.473C221.31 119.464 221.945 120.488 222.947 121.005C223.798 121.447 224.8 121.468 225.759 121.371C230.262 120.93 234.248 118.236 237.685 114.886C239.031 114.584 240.259 113.755 241.035 112.613C241.811 111.471 242.134 110.027 241.908 108.659C241.757 107.743 241.304 106.795 240.464 106.429C240.109 106.278 239.699 106.235 239.311 106.267C237.792 106.397 236.457 107.668 236.209 109.187C235.325 108.379 235.013 107.14 234.744 105.966C234.194 103.585 233.645 101.215 233.128 98.7046C232.05 100.245 229.982 100.848 228.118 100.644C226.254 100.428 224.531 99.5341 223.066 98.5861C222.01 99.7927 220.717 100.838 219.198 101.366C217.69 101.883 215.944 101.861 214.296 100.87Z" fill="#FFAD92"/>
<path d="M223.42 115.166C226.178 115.166 228.86 113.905 230.616 111.783C230.67 111.708 230.67 111.611 230.595 111.546C230.519 111.492 230.422 111.492 230.358 111.568C228.645 113.636 226.016 114.853 223.334 114.821C223.247 114.821 223.161 114.897 223.161 114.983C223.161 115.08 223.237 115.155 223.323 115.155C223.355 115.166 223.387 115.166 223.42 115.166Z" fill="#EB7154"/>
<path d="M224.542 121.587C228.409 121.512 232.363 119.831 236.985 116.319C237.06 116.265 237.071 116.157 237.017 116.082C236.963 116.006 236.856 115.996 236.78 116.05C232.223 119.518 228.334 121.178 224.542 121.253C224.445 121.253 224.38 121.328 224.38 121.425C224.369 121.512 224.445 121.587 224.542 121.587Z" fill="#EB7154"/>
<path d="M236.391 132.446C233.429 132.414 230.477 132.511 227.482 132.522C227.127 133.577 226.782 134.622 226.297 135.538C227.213 136.648 228.139 137.747 229.432 139.093C229.454 152.28 229.066 165.455 228.613 178.738C230.563 181.227 232.589 183.64 234.668 185.698C236.435 182.832 238.094 179.902 239.839 176.455C237.921 164.012 236.909 151.095 234.98 138.555C236.865 137.682 237.587 136.745 238.718 134.978C237.986 134.202 237.286 133.384 236.391 132.446Z" fill="#FF6162"/>
<path d="M224.843 124.894C225.866 127.544 226.933 130.281 229.281 132.36C228.193 134.073 227.256 135.883 226.653 137.811C224.757 134.332 223.582 130.464 223.302 126.575C223.668 125.918 224.207 125.368 224.843 124.894Z" fill="#0097D3"/>
<path d="M241.067 123.461C239.774 127.038 236.887 129.785 234.021 132.284C235.766 134.267 237.479 136.281 239.041 138.328C240.679 134.601 242.327 130.83 243.06 126.822C242.586 125.767 241.982 124.754 241.067 123.461Z" fill="#0097D3"/>
<path d="M230.487 138.964C230.519 138.964 230.552 138.953 230.573 138.932C232.405 137.736 233.87 138.619 233.924 138.662C233.999 138.716 234.107 138.684 234.15 138.608C234.204 138.533 234.172 138.425 234.096 138.382C234.032 138.339 232.394 137.348 230.379 138.662C230.304 138.716 230.282 138.813 230.326 138.899C230.379 138.932 230.433 138.964 230.487 138.964Z" fill="#E0464F"/>
<path d="M340.539 187.443H0.219551C0.101331 187.443 0 187.342 0 187.224C0 187.105 0.101331 187.004 0.219551 187.004H340.539C340.657 187.004 340.759 187.105 340.759 187.224C340.759 187.342 340.657 187.443 340.539 187.443Z" fill="#3C4A5B"/>
<defs>
<linearGradient id="paint0_linear_266_1828" x1="142.987" y1="0" x2="142.987" y2="206.976" gradientUnits="userSpaceOnUse">
<stop stop-color="#2BC3FC"/>
<stop offset="1" stop-color="#017EAC"/>
</linearGradient>
<linearGradient id="paint1_linear_266_1828" x1="232.512" y1="125.508" x2="232.512" y2="187.626" gradientUnits="userSpaceOnUse">
<stop stop-color="#2BC3FC"/>
<stop offset="1" stop-color="#017EAC"/>
</linearGradient>
</defs>
</svg>
