<svg width="93" height="93" viewBox="0 0 93 93" fill="none" xmlns="http://www.w3.org/2000/svg">
<circle cx="46.5" cy="46.5" r="46.5" fill="white"/>
<path d="M46.612 30.7241C47.6099 30.7241 48.5669 30.3277 49.2725 29.6221C49.9781 28.9165 50.3745 27.9595 50.3745 26.9616C50.3745 25.9638 49.9781 25.0068 49.2725 24.3012C48.5669 23.5956 47.6099 23.1992 46.612 23.1992C45.6142 23.1992 44.6572 23.5956 43.9516 24.3012C43.246 25.0068 42.8496 25.9638 42.8496 26.9616C42.8496 27.9595 43.246 28.9165 43.9516 29.6221C44.6572 30.3277 45.6142 30.7241 46.612 30.7241Z" fill="url(#paint0_linear_475_3184)"/>
<path d="M50.3018 12.9361C49.2582 12.088 47.9544 11.625 46.6096 11.625C45.2648 11.625 43.961 12.088 42.9174 12.9361L17.8245 33.3335C14.7745 35.8167 16.5303 40.758 20.4632 40.758H21.5268V61.8275C18.5469 63.3476 16.5102 66.4428 16.5102 70.0196V73.3656C16.5102 74.0309 16.7745 74.6689 17.2448 75.1393C17.7152 75.6097 18.3532 75.8739 19.0185 75.8739H74.2007C74.8659 75.8739 75.5039 75.6097 75.9743 75.1393C76.4447 74.6689 76.709 74.0309 76.709 73.3656V70.0196C76.709 66.4478 74.6722 63.3476 71.6924 61.8275V40.758H72.7559C76.6889 40.758 78.4447 35.8167 75.3896 33.3335L50.3068 12.9361H50.3018ZM46.0879 16.829C46.2369 16.7084 46.4229 16.6427 46.6146 16.6427C46.8063 16.6427 46.9922 16.7084 47.1413 16.829L70.3931 35.7414H22.821L46.0879 16.829ZM66.6758 60.8242H61.6593V40.758H66.6758V60.8242ZM56.6427 60.8242H49.1179V40.758H56.6427V60.8242ZM44.1013 60.8242H36.5764V40.758H44.1013V60.8242ZM67.5136 65.8408C69.8212 65.8408 71.6924 67.712 71.6924 70.0196V70.8574H21.5268V70.0196C21.5268 67.712 23.3979 65.8408 25.7055 65.8408H67.5136ZM31.5599 60.8242H26.5433V40.758H31.5599V60.8242Z" fill="url(#paint1_linear_475_3184)"/>
<defs>
<linearGradient id="paint0_linear_475_3184" x1="46.612" y1="23.1992" x2="46.612" y2="30.7241" gradientUnits="userSpaceOnUse">
<stop stop-color="#2BC3FC"/>
<stop offset="1" stop-color="#017EAC"/>
</linearGradient>
<linearGradient id="paint1_linear_475_3184" x1="46.6089" y1="11.625" x2="46.6089" y2="75.8739" gradientUnits="userSpaceOnUse">
<stop stop-color="#2BC3FC"/>
<stop offset="1" stop-color="#017EAC"/>
</linearGradient>
</defs>
</svg>
