<svg width="18" height="18" viewBox="0 0 18 18" fill="none" xmlns="http://www.w3.org/2000/svg">
<g clip-path="url(#clip0_86_996)">
<path d="M15.3366 15.337H12.6696V11.1602C12.6696 10.1642 12.6518 8.88208 11.2825 8.88208C9.89336 8.88208 9.6808 9.96728 9.6808 11.0877V15.3367H7.01385V6.7476H9.57414V7.9214H9.61C9.86622 7.48328 10.2365 7.12287 10.6813 6.87853C11.1262 6.6342 11.629 6.5151 12.1362 6.53392C14.8394 6.53392 15.3377 8.31198 15.3377 10.6251L15.3366 15.337ZM4.00447 5.57359C3.14969 5.57373 2.45662 4.88088 2.45647 4.02609C2.45633 3.1713 3.14912 2.47823 4.00391 2.47809C4.8587 2.47788 5.55177 3.17073 5.55191 4.02552C5.55199 4.43601 5.389 4.82972 5.0988 5.12003C4.8086 5.41035 4.41496 5.5735 4.00447 5.57359ZM5.33802 15.337H2.66819V6.7476H5.33795V15.337L5.33802 15.337ZM16.6662 0.00118798H1.32803C0.603107 -0.00696826 0.00861523 0.573743 -0.000244141 1.29866V16.7008C0.00833398 17.4261 0.602756 18.0074 1.32796 17.9998H16.6662C17.393 18.0088 17.9897 17.4275 17.9998 16.7008V1.29747C17.9894 0.571141 17.3926 -0.00949952 16.6662 -7.32788e-06" fill="#0A66C2"/>
</g>
<defs>
<clipPath id="clip0_86_996">
<rect width="18" height="18" fill="white"/>
</clipPath>
</defs>
</svg>
