<svg width="145" height="34" viewBox="0 0 145 34" fill="none" xmlns="http://www.w3.org/2000/svg">
<path fill-rule="evenodd" clip-rule="evenodd" d="M15.2289 3.02759C12.8258 3.02759 10.8778 4.99338 10.8778 7.41829C10.8778 9.84321 12.8258 11.809 15.2289 11.809C17.632 11.809 19.58 9.84321 19.58 7.41829C19.58 4.99338 17.632 3.02759 15.2289 3.02759ZM6.72147 11.5694C11.2507 11.5694 14.9224 15.2745 14.9224 19.8449V26.6277H10.8432V19.8449C10.8432 19.3581 10.7604 18.891 10.6082 18.4569L6.88337 21.7554L4.31156 18.7437L7.51022 15.7618C7.25492 15.7119 6.99122 15.6857 6.72147 15.6857H0V11.5694H6.72147ZM23.8378 11.5694C19.3086 11.5694 15.6368 15.2745 15.6368 19.8449V26.6277H19.7159V19.8449C19.7159 19.4638 19.7668 19.0944 19.862 18.7437L22.995 21.7554L25.6425 18.7437L22.7465 15.833C23.094 15.737 23.4601 15.6857 23.8378 15.6857H30.5592V11.5694H23.8378Z" fill="url(#paint0_linear_202_3626)"/>
<path d="M50.6282 23.9988V27H36.1731V7.72655H50.2427V10.7277H39.7525V15.7388H49.0588V18.6849H39.7525V23.9988H50.6282ZM67.8652 6.57014V27H64.5612V25.1002C63.9922 25.7977 63.2855 26.3208 62.4411 26.6696C61.6151 27.0184 60.6974 27.1927 59.6878 27.1927C58.2744 27.1927 56.9987 26.8807 55.8606 26.2566C54.7409 25.6325 53.8599 24.7514 53.2174 23.6134C52.575 22.457 52.2537 21.1354 52.2537 19.6486C52.2537 18.1617 52.575 16.8493 53.2174 15.7113C53.8599 14.5732 54.7409 13.6921 55.8606 13.068C56.9987 12.444 58.2744 12.1319 59.6878 12.1319C60.6606 12.1319 61.5509 12.2971 62.3585 12.6275C63.1662 12.9579 63.8545 13.4535 64.4236 14.1143V6.57014H67.8652ZM60.1008 24.2467C60.9268 24.2467 61.6702 24.0631 62.331 23.696C62.9918 23.3105 63.515 22.769 63.9004 22.0715C64.2859 21.374 64.4786 20.5663 64.4786 19.6486C64.4786 18.7308 64.2859 17.9231 63.9004 17.2256C63.515 16.5281 62.9918 15.9958 62.331 15.6287C61.6702 15.2432 60.9268 15.0505 60.1008 15.0505C59.2748 15.0505 58.5314 15.2432 57.8706 15.6287C57.2098 15.9958 56.6866 16.5281 56.3012 17.2256C55.9157 17.9231 55.723 18.7308 55.723 19.6486C55.723 20.5663 55.9157 21.374 56.3012 22.0715C56.6866 22.769 57.2098 23.3105 57.8706 23.696C58.5314 24.0631 59.2748 24.2467 60.1008 24.2467ZM85.9141 12.2971V27H82.6376V25.1277C82.0869 25.7885 81.3986 26.3025 80.5726 26.6696C79.7466 27.0184 78.8563 27.1927 77.9018 27.1927C75.9378 27.1927 74.3867 26.6512 73.2487 25.5683C72.129 24.4669 71.5691 22.8424 71.5691 20.6948V12.2971H75.0108V20.2268C75.0108 21.5484 75.3045 22.5396 75.8919 23.2004C76.4976 23.8428 77.3512 24.164 78.4525 24.164C79.6823 24.164 80.6552 23.7878 81.3711 23.0352C82.1053 22.2642 82.4724 21.1629 82.4724 19.7312V12.2971H85.9141ZM96.698 18.9327L93.6418 22.0715V27H90.0624V7.72655H93.6418V17.6111L103.168 7.72655H107.188L99.0934 16.3445L107.684 27H103.499L96.698 18.9327ZM108.833 12.2971H112.275V27H108.833V12.2971ZM110.568 9.87416C109.944 9.87416 109.421 9.68143 108.999 9.29596C108.576 8.89214 108.365 8.39653 108.365 7.80915C108.365 7.22177 108.576 6.73534 108.999 6.34987C109.421 5.94605 109.944 5.74414 110.568 5.74414C111.192 5.74414 111.715 5.93687 112.137 6.32234C112.56 6.68946 112.771 7.15752 112.771 7.72655C112.771 8.33229 112.56 8.84624 112.137 9.26843C111.734 9.67225 111.21 9.87416 110.568 9.87416ZM124.942 26.2015C124.538 26.5319 124.043 26.7797 123.455 26.9449C122.886 27.1101 122.281 27.1927 121.638 27.1927C120.023 27.1927 118.775 26.7706 117.894 25.9262C117.013 25.0818 116.572 23.852 116.572 22.2367V15.1606H114.149V12.4072H116.572V9.04816H120.014V12.4072H123.951V15.1606H120.014V22.1541C120.014 22.87 120.188 23.4206 120.537 23.8061C120.886 24.1732 121.39 24.3568 122.051 24.3568C122.822 24.3568 123.465 24.1549 123.979 23.751L124.942 26.2015ZM135.428 12.1319C137.282 12.1319 138.768 12.6734 139.888 13.7564C141.008 14.8394 141.568 16.4455 141.568 18.5747V27H138.126V19.0153C138.126 17.7304 137.823 16.7667 137.217 16.1243C136.612 15.4635 135.749 15.1331 134.629 15.1331C133.363 15.1331 132.362 15.5185 131.628 16.2895C130.894 17.0421 130.527 18.1342 130.527 19.566V27H127.085V6.57014H130.527V14.0042C131.096 13.3985 131.793 12.9396 132.619 12.6275C133.464 12.2971 134.4 12.1319 135.428 12.1319Z" fill="#00103C"/>
<defs>
<linearGradient id="paint0_linear_202_3626" x1="15.2796" y1="3.02759" x2="15.2796" y2="26.6277" gradientUnits="userSpaceOnUse">
<stop stop-color="#2BC3FC"/>
<stop offset="1" stop-color="#017EAC"/>
</linearGradient>
</defs>
</svg>
