<svg width="117" height="13" viewBox="0 0 117 13" fill="none" xmlns="http://www.w3.org/2000/svg">
<path d="M7.712 2.608V3.568H9.072V5.232H7.616C7.44533 6.18133 7.02933 6.90667 6.368 7.408C5.70667 7.89867 4.74133 8.144 3.472 8.144V8.784C3.472 9.2 3.552 9.52533 3.712 9.76C3.872 9.984 4.14933 10.096 4.544 10.096C4.91733 10.096 5.184 9.984 5.344 9.76C5.504 9.536 5.584 9.2 5.584 8.752H8.112C8.06933 9.82933 7.74933 10.6667 7.152 11.264C6.56533 11.8613 5.71733 12.16 4.608 12.16C3.41333 12.16 2.496 11.8507 1.856 11.232C1.22667 10.6027 0.912 9.664 0.912 8.416V6.352C2.02133 6.352 2.83733 6.33067 3.36 6.288C3.89333 6.23467 4.288 6.13333 4.544 5.984C4.81067 5.824 4.98667 5.57333 5.072 5.232H0.608V3.568H5.152V2.608H0.608V0.768H9.072V2.608H7.712ZM16.0585 3.472C15.9732 3.07733 15.8238 2.784 15.6105 2.592C15.3972 2.38933 15.0932 2.288 14.6985 2.288C14.0905 2.288 13.6532 2.55467 13.3865 3.088C13.1198 3.61067 12.9812 4.44267 12.9705 5.584C13.2052 5.21067 13.5412 4.91733 13.9785 4.704C14.4265 4.49067 14.9172 4.384 15.4505 4.384C16.4958 4.384 17.3332 4.71467 17.9625 5.376C18.6025 6.03733 18.9225 6.96 18.9225 8.144C18.9225 8.92267 18.7625 9.60533 18.4425 10.192C18.1332 10.7787 17.6745 11.2373 17.0665 11.568C16.4692 11.8987 15.7598 12.064 14.9385 12.064C13.2958 12.064 12.1545 11.552 11.5145 10.528C10.8745 9.49333 10.5545 8.01067 10.5545 6.08C10.5545 4.05333 10.8905 2.54933 11.5625 1.568C12.2452 0.575999 13.3332 0.079999 14.8265 0.079999C15.6265 0.079999 16.2985 0.239999 16.8425 0.559999C17.3972 0.869333 17.8132 1.28 18.0905 1.792C18.3785 2.304 18.5492 2.864 18.6025 3.472H16.0585ZM14.7945 6.544C14.3358 6.544 13.9518 6.68267 13.6425 6.96C13.3438 7.22667 13.1945 7.61067 13.1945 8.112C13.1945 8.624 13.3332 9.024 13.6105 9.312C13.8985 9.6 14.3038 9.744 14.8265 9.744C15.2958 9.744 15.6638 9.60533 15.9305 9.328C16.2078 9.04 16.3465 8.65067 16.3465 8.16C16.3465 7.65867 16.2132 7.264 15.9465 6.976C15.6798 6.688 15.2958 6.544 14.7945 6.544ZM23.414 8.576C23.574 9.41867 24.0647 9.84 24.886 9.84C25.4513 9.84 25.8513 9.58933 26.086 9.088C26.3207 8.58667 26.438 7.77067 26.438 6.64C26.2033 6.97067 25.8833 7.22667 25.478 7.408C25.0727 7.58933 24.6193 7.68 24.118 7.68C23.4353 7.68 22.8273 7.54133 22.294 7.264C21.7607 6.976 21.3393 6.55467 21.03 6C20.7313 5.43467 20.582 4.752 20.582 3.952C20.582 3.16267 20.742 2.47467 21.062 1.888C21.3927 1.30133 21.8567 0.848 22.454 0.528C23.062 0.208 23.7767 0.0479994 24.598 0.0479994C26.1767 0.0479994 27.2807 0.538666 27.91 1.52C28.5393 2.50133 28.854 3.94667 28.854 5.856C28.854 7.24267 28.726 8.38933 28.47 9.296C28.2247 10.192 27.8033 10.8747 27.206 11.344C26.6193 11.8133 25.814 12.048 24.79 12.048C23.9793 12.048 23.286 11.888 22.71 11.568C22.1447 11.248 21.7073 10.8267 21.398 10.304C21.0993 9.78133 20.9287 9.20533 20.886 8.576H23.414ZM24.742 5.52C25.19 5.52 25.5473 5.38667 25.814 5.12C26.0807 4.84267 26.214 4.46933 26.214 4C26.214 3.488 26.0753 3.09333 25.798 2.816C25.5207 2.53867 25.1473 2.4 24.678 2.4C24.2087 2.4 23.8353 2.544 23.558 2.832C23.2913 3.10933 23.158 3.49333 23.158 3.984C23.158 4.44267 23.2913 4.816 23.558 5.104C23.8353 5.38133 24.23 5.52 24.742 5.52ZM33.2578 8.576C33.4178 9.41867 33.9084 9.84 34.7298 9.84C35.2951 9.84 35.6951 9.58933 35.9298 9.088C36.1644 8.58667 36.2818 7.77067 36.2818 6.64C36.0471 6.97067 35.7271 7.22667 35.3218 7.408C34.9164 7.58933 34.4631 7.68 33.9618 7.68C33.2791 7.68 32.6711 7.54133 32.1378 7.264C31.6044 6.976 31.1831 6.55467 30.8738 6C30.5751 5.43467 30.4258 4.752 30.4258 3.952C30.4258 3.16267 30.5858 2.47467 30.9058 1.888C31.2364 1.30133 31.7004 0.848 32.2978 0.528C32.9058 0.208 33.6204 0.0479994 34.4418 0.0479994C36.0204 0.0479994 37.1244 0.538666 37.7538 1.52C38.3831 2.50133 38.6978 3.94667 38.6978 5.856C38.6978 7.24267 38.5698 8.38933 38.3138 9.296C38.0684 10.192 37.6471 10.8747 37.0498 11.344C36.4631 11.8133 35.6578 12.048 34.6338 12.048C33.8231 12.048 33.1298 11.888 32.5538 11.568C31.9884 11.248 31.5511 10.8267 31.2418 10.304C30.9431 9.78133 30.7724 9.20533 30.7298 8.576H33.2578ZM34.5858 5.52C35.0338 5.52 35.3911 5.38667 35.6578 5.12C35.9244 4.84267 36.0578 4.46933 36.0578 4C36.0578 3.488 35.9191 3.09333 35.6418 2.816C35.3644 2.53867 34.9911 2.4 34.5218 2.4C34.0524 2.4 33.6791 2.544 33.4018 2.832C33.1351 3.10933 33.0018 3.49333 33.0018 3.984C33.0018 4.44267 33.1351 4.816 33.4018 5.104C33.6791 5.38133 34.0738 5.52 34.5858 5.52ZM49.1321 12.112C48.0761 12.112 47.1055 11.8667 46.2201 11.376C45.3455 10.8853 44.6468 10.2027 44.1241 9.328C43.6121 8.44267 43.3561 7.45067 43.3561 6.352C43.3561 5.25333 43.6121 4.26667 44.1241 3.392C44.6468 2.51733 45.3455 1.83467 46.2201 1.344C47.1055 0.853333 48.0761 0.608 49.1321 0.608C50.1881 0.608 51.1535 0.853333 52.0281 1.344C52.9135 1.83467 53.6068 2.51733 54.1081 3.392C54.6201 4.26667 54.8761 5.25333 54.8761 6.352C54.8761 7.45067 54.6201 8.44267 54.1081 9.328C53.5961 10.2027 52.9028 10.8853 52.0281 11.376C51.1535 11.8667 50.1881 12.112 49.1321 12.112ZM49.1321 9.616C50.0281 9.616 50.7428 9.31733 51.2761 8.72C51.8201 8.12267 52.0921 7.33333 52.0921 6.352C52.0921 5.36 51.8201 4.57067 51.2761 3.984C50.7428 3.38667 50.0281 3.088 49.1321 3.088C48.2255 3.088 47.5001 3.38133 46.9561 3.968C46.4228 4.55467 46.1561 5.34933 46.1561 6.352C46.1561 7.344 46.4228 8.13867 46.9561 8.736C47.5001 9.32267 48.2255 9.616 49.1321 9.616ZM61.8383 2.976C62.8836 2.976 63.7156 3.31733 64.3343 4C64.9636 4.672 65.2783 5.6 65.2783 6.784V12H62.5583V7.152C62.5583 6.55467 62.4036 6.09067 62.0943 5.76C61.7849 5.42933 61.3689 5.264 60.8463 5.264C60.3236 5.264 59.9076 5.42933 59.5983 5.76C59.2889 6.09067 59.1343 6.55467 59.1343 7.152V12H56.3983V3.072H59.1343V4.256C59.4116 3.86133 59.7849 3.552 60.2543 3.328C60.7236 3.09333 61.2516 2.976 61.8383 2.976ZM79.9955 3.072L77.5795 12H74.5555L73.1475 6.208L71.6915 12H68.6835L66.2515 3.072H68.9875L70.2515 9.456L71.7555 3.072H74.6515L76.1715 9.424L77.4195 3.072H79.9955ZM80.4949 7.52C80.4949 6.60267 80.6655 5.79733 81.0069 5.104C81.3589 4.41067 81.8335 3.87733 82.4309 3.504C83.0282 3.13067 83.6949 2.944 84.4309 2.944C85.0602 2.944 85.6095 3.072 86.0789 3.328C86.5589 3.584 86.9269 3.92 87.1829 4.336V3.072H89.9189V12H87.1829V10.736C86.9162 11.152 86.5429 11.488 86.0629 11.744C85.5935 12 85.0442 12.128 84.4149 12.128C83.6895 12.128 83.0282 11.9413 82.4309 11.568C81.8335 11.184 81.3589 10.6453 81.0069 9.952C80.6655 9.248 80.4949 8.43733 80.4949 7.52ZM87.1829 7.536C87.1829 6.85333 86.9909 6.31467 86.6069 5.92C86.2335 5.52533 85.7749 5.328 85.2309 5.328C84.6869 5.328 84.2229 5.52533 83.8389 5.92C83.4655 6.304 83.2789 6.83733 83.2789 7.52C83.2789 8.20267 83.4655 8.74667 83.8389 9.152C84.2229 9.54667 84.6869 9.744 85.2309 9.744C85.7749 9.744 86.2335 9.54667 86.6069 9.152C86.9909 8.75733 87.1829 8.21867 87.1829 7.536ZM94.6343 4.56C94.9543 4.06933 95.3543 3.68533 95.8343 3.408C96.3143 3.12 96.8476 2.976 97.4343 2.976V5.872H96.6823C95.9996 5.872 95.4876 6.02133 95.1463 6.32C94.8049 6.608 94.6343 7.12 94.6343 7.856V12H91.8983V3.072H94.6343V4.56ZM98.198 7.52C98.198 6.60267 98.3687 5.79733 98.71 5.104C99.062 4.41067 99.5367 3.87733 100.134 3.504C100.731 3.13067 101.398 2.944 102.134 2.944C102.721 2.944 103.254 3.06667 103.734 3.312C104.225 3.55733 104.609 3.888 104.886 4.304V0.16H107.622V12H104.886V10.72C104.63 11.1467 104.262 11.488 103.782 11.744C103.313 12 102.763 12.128 102.134 12.128C101.398 12.128 100.731 11.9413 100.134 11.568C99.5367 11.184 99.062 10.6453 98.71 9.952C98.3687 9.248 98.198 8.43733 98.198 7.52ZM104.886 7.536C104.886 6.85333 104.694 6.31467 104.31 5.92C103.937 5.52533 103.478 5.328 102.934 5.328C102.39 5.328 101.926 5.52533 101.542 5.92C101.169 6.304 100.982 6.83733 100.982 7.52C100.982 8.20267 101.169 8.74667 101.542 9.152C101.926 9.54667 102.39 9.744 102.934 9.744C103.478 9.744 103.937 9.54667 104.31 9.152C104.694 8.75733 104.886 8.21867 104.886 7.536ZM113.233 12.128C112.455 12.128 111.761 11.9947 111.153 11.728C110.545 11.4613 110.065 11.0987 109.713 10.64C109.361 10.1707 109.164 9.648 109.121 9.072H111.825C111.857 9.38133 112.001 9.632 112.257 9.824C112.513 10.016 112.828 10.112 113.201 10.112C113.543 10.112 113.804 10.048 113.985 9.92C114.177 9.78133 114.273 9.60533 114.273 9.392C114.273 9.136 114.14 8.94933 113.873 8.832C113.607 8.704 113.175 8.56533 112.577 8.416C111.937 8.26667 111.404 8.112 110.977 7.952C110.551 7.78133 110.183 7.52 109.873 7.168C109.564 6.80533 109.409 6.32 109.409 5.712C109.409 5.2 109.548 4.736 109.825 4.32C110.113 3.89333 110.529 3.55733 111.073 3.312C111.628 3.06667 112.284 2.944 113.041 2.944C114.161 2.944 115.041 3.22133 115.681 3.776C116.332 4.33067 116.705 5.06667 116.801 5.984H114.273C114.231 5.67467 114.092 5.42933 113.857 5.248C113.633 5.06667 113.335 4.976 112.961 4.976C112.641 4.976 112.396 5.04 112.225 5.168C112.055 5.28533 111.969 5.45067 111.969 5.664C111.969 5.92 112.103 6.112 112.369 6.24C112.647 6.368 113.073 6.496 113.649 6.624C114.311 6.79467 114.849 6.96533 115.265 7.136C115.681 7.296 116.044 7.56267 116.353 7.936C116.673 8.29867 116.839 8.78933 116.849 9.408C116.849 9.93067 116.7 10.4 116.401 10.816C116.113 11.2213 115.692 11.5413 115.137 11.776C114.593 12.0107 113.959 12.128 113.233 12.128Z" fill="#00103C"/>
</svg>
