<svg width="31" height="24" viewBox="0 0 31 24" fill="none" xmlns="http://www.w3.org/2000/svg">
<path fill-rule="evenodd" clip-rule="evenodd" d="M15.2289 0.02771C12.8258 0.02771 10.8778 1.99351 10.8778 4.41841C10.8778 6.84334 12.8258 8.80911 15.2289 8.80911C17.632 8.80911 19.58 6.84334 19.58 4.41841C19.58 1.99351 17.632 0.02771 15.2289 0.02771ZM6.72147 8.56954C11.2507 8.56954 14.9224 12.2746 14.9224 16.845V23.6278H10.8432V16.845C10.8432 16.3582 10.7604 15.8912 10.6082 15.457L6.88337 18.7556L4.31156 15.7438L7.51022 12.7619C7.25492 12.712 6.99122 12.6858 6.72147 12.6858H0V8.56954H6.72147ZM23.8378 8.56954C19.3086 8.56954 15.6368 12.2746 15.6368 16.845V23.6278H19.7159V16.845C19.7159 16.4639 19.7668 16.0945 19.862 15.7438L22.995 18.7556L25.6425 15.7438L22.7465 12.8332C23.094 12.7371 23.4601 12.6858 23.8378 12.6858H30.5592V8.56954H23.8378Z" fill="url(#paint0_linear_107_312)"/>
<defs>
<linearGradient id="paint0_linear_107_312" x1="15.2796" y1="0.02771" x2="15.2796" y2="23.6278" gradientUnits="userSpaceOnUse">
<stop stop-color="#2BC3FC"/>
<stop offset="1" stop-color="#017EAC"/>
</linearGradient>
</defs>
</svg>
